G04 #@! TF.GenerationSoftware,KiCad,Pcbnew,5.1.9+dfsg1-1+deb11u1*
G04 #@! TF.CreationDate,2023-05-26T17:04:47+02:00*
G04 #@! TF.ProjectId,ATSAMA5D27-SOM1_devboard2,41545341-4d41-4354-9432-372d534f4d31,rev?*
G04 #@! TF.SameCoordinates,Original*
G04 #@! TF.FileFunction,Copper,L4,Bot*
G04 #@! TF.FilePolarity,Positive*
%FSLAX46Y46*%
G04 Gerber Fmt 4.6, Leading zero omitted, Abs format (unit mm)*
G04 Created by KiCad (PCBNEW 5.1.9+dfsg1-1+deb11u1) date 2023-05-26 17:04:47*
%MOMM*%
%LPD*%
G01*
G04 APERTURE LIST*
G04 #@! TA.AperFunction,ComponentPad*
%ADD10C,2.400000*%
G04 #@! TD*
G04 #@! TA.AperFunction,ComponentPad*
%ADD11C,1.530000*%
G04 #@! TD*
G04 #@! TA.AperFunction,ComponentPad*
%ADD12C,1.400000*%
G04 #@! TD*
G04 #@! TA.AperFunction,SMDPad,CuDef*
%ADD13R,3.150000X1.000000*%
G04 #@! TD*
G04 #@! TA.AperFunction,ComponentPad*
%ADD14R,2.600000X2.600000*%
G04 #@! TD*
G04 #@! TA.AperFunction,ComponentPad*
%ADD15C,2.600000*%
G04 #@! TD*
G04 #@! TA.AperFunction,ComponentPad*
%ADD16C,1.500000*%
G04 #@! TD*
G04 #@! TA.AperFunction,ComponentPad*
%ADD17C,3.570000*%
G04 #@! TD*
G04 #@! TA.AperFunction,ComponentPad*
%ADD18C,2.000000*%
G04 #@! TD*
G04 #@! TA.AperFunction,ComponentPad*
%ADD19R,1.700000X1.700000*%
G04 #@! TD*
G04 #@! TA.AperFunction,ComponentPad*
%ADD20O,1.700000X1.700000*%
G04 #@! TD*
G04 #@! TA.AperFunction,ComponentPad*
%ADD21O,1.500000X1.100000*%
G04 #@! TD*
G04 #@! TA.AperFunction,ComponentPad*
%ADD22O,1.700000X1.350000*%
G04 #@! TD*
G04 #@! TA.AperFunction,ComponentPad*
%ADD23C,2.200000*%
G04 #@! TD*
G04 #@! TA.AperFunction,ViaPad*
%ADD24C,0.650000*%
G04 #@! TD*
G04 #@! TA.AperFunction,ViaPad*
%ADD25C,1.000000*%
G04 #@! TD*
G04 #@! TA.AperFunction,ViaPad*
%ADD26C,1.500000*%
G04 #@! TD*
G04 #@! TA.AperFunction,ViaPad*
%ADD27C,0.800000*%
G04 #@! TD*
G04 #@! TA.AperFunction,Conductor*
%ADD28C,0.250000*%
G04 #@! TD*
G04 #@! TA.AperFunction,Conductor*
%ADD29C,0.400000*%
G04 #@! TD*
G04 #@! TA.AperFunction,Conductor*
%ADD30C,1.000000*%
G04 #@! TD*
G04 #@! TA.AperFunction,Conductor*
%ADD31C,0.590000*%
G04 #@! TD*
G04 #@! TA.AperFunction,Conductor*
%ADD32C,1.500000*%
G04 #@! TD*
G04 #@! TA.AperFunction,Conductor*
%ADD33C,0.300000*%
G04 #@! TD*
G04 #@! TA.AperFunction,Conductor*
%ADD34C,0.660000*%
G04 #@! TD*
G04 #@! TA.AperFunction,Conductor*
%ADD35C,0.200000*%
G04 #@! TD*
G04 APERTURE END LIST*
D10*
X218466800Y-197813200D03*
X202766800Y-197813200D03*
D11*
X217256800Y-204913200D03*
X214716800Y-204913200D03*
X206516800Y-204913200D03*
X203976800Y-204913200D03*
D12*
X215061800Y-191973200D03*
X213791800Y-194513200D03*
X212521800Y-191973200D03*
X211251800Y-194513200D03*
X209981800Y-191973200D03*
X208711800Y-194513200D03*
X207441800Y-191973200D03*
X206171800Y-194513200D03*
D13*
X197411580Y-133913880D03*
X192361580Y-133913880D03*
X197411580Y-136453880D03*
X192361580Y-136453880D03*
X197411580Y-138993880D03*
X192361580Y-138993880D03*
X197411580Y-141533880D03*
X192361580Y-141533880D03*
X197411580Y-144073880D03*
X192361580Y-144073880D03*
D14*
X266700000Y-207512920D03*
D15*
X272700000Y-207512920D03*
X269700000Y-202812920D03*
D16*
X266914400Y-160324800D03*
X266914400Y-157824800D03*
X266914400Y-155824800D03*
X266914400Y-153324800D03*
D17*
X269624400Y-163394800D03*
X269624400Y-150254800D03*
G04 #@! TA.AperFunction,SMDPad,CuDef*
G36*
G01*
X218890001Y-116163000D02*
X217989999Y-116163000D01*
G75*
G02*
X217740000Y-115913001I0J249999D01*
G01*
X217740000Y-115262999D01*
G75*
G02*
X217989999Y-115013000I249999J0D01*
G01*
X218890001Y-115013000D01*
G75*
G02*
X219140000Y-115262999I0J-249999D01*
G01*
X219140000Y-115913001D01*
G75*
G02*
X218890001Y-116163000I-249999J0D01*
G01*
G37*
G04 #@! TD.AperFunction*
G04 #@! TA.AperFunction,SMDPad,CuDef*
G36*
G01*
X218890001Y-114113000D02*
X217989999Y-114113000D01*
G75*
G02*
X217740000Y-113863001I0J249999D01*
G01*
X217740000Y-113212999D01*
G75*
G02*
X217989999Y-112963000I249999J0D01*
G01*
X218890001Y-112963000D01*
G75*
G02*
X219140000Y-113212999I0J-249999D01*
G01*
X219140000Y-113863001D01*
G75*
G02*
X218890001Y-114113000I-249999J0D01*
G01*
G37*
G04 #@! TD.AperFunction*
G04 #@! TA.AperFunction,SMDPad,CuDef*
G36*
G01*
X152859319Y-148949940D02*
X153759321Y-148949940D01*
G75*
G02*
X154009320Y-149199939I0J-249999D01*
G01*
X154009320Y-149849941D01*
G75*
G02*
X153759321Y-150099940I-249999J0D01*
G01*
X152859319Y-150099940D01*
G75*
G02*
X152609320Y-149849941I0J249999D01*
G01*
X152609320Y-149199939D01*
G75*
G02*
X152859319Y-148949940I249999J0D01*
G01*
G37*
G04 #@! TD.AperFunction*
G04 #@! TA.AperFunction,SMDPad,CuDef*
G36*
G01*
X152859319Y-146899940D02*
X153759321Y-146899940D01*
G75*
G02*
X154009320Y-147149939I0J-249999D01*
G01*
X154009320Y-147799941D01*
G75*
G02*
X153759321Y-148049940I-249999J0D01*
G01*
X152859319Y-148049940D01*
G75*
G02*
X152609320Y-147799941I0J249999D01*
G01*
X152609320Y-147149939D01*
G75*
G02*
X152859319Y-146899940I249999J0D01*
G01*
G37*
G04 #@! TD.AperFunction*
G04 #@! TA.AperFunction,SMDPad,CuDef*
G36*
G01*
X154122541Y-127732480D02*
X153222539Y-127732480D01*
G75*
G02*
X152972540Y-127482481I0J249999D01*
G01*
X152972540Y-126832479D01*
G75*
G02*
X153222539Y-126582480I249999J0D01*
G01*
X154122541Y-126582480D01*
G75*
G02*
X154372540Y-126832479I0J-249999D01*
G01*
X154372540Y-127482481D01*
G75*
G02*
X154122541Y-127732480I-249999J0D01*
G01*
G37*
G04 #@! TD.AperFunction*
G04 #@! TA.AperFunction,SMDPad,CuDef*
G36*
G01*
X154122541Y-125682480D02*
X153222539Y-125682480D01*
G75*
G02*
X152972540Y-125432481I0J249999D01*
G01*
X152972540Y-124782479D01*
G75*
G02*
X153222539Y-124532480I249999J0D01*
G01*
X154122541Y-124532480D01*
G75*
G02*
X154372540Y-124782479I0J-249999D01*
G01*
X154372540Y-125432481D01*
G75*
G02*
X154122541Y-125682480I-249999J0D01*
G01*
G37*
G04 #@! TD.AperFunction*
G04 #@! TA.AperFunction,SMDPad,CuDef*
G36*
G01*
X211549999Y-108137000D02*
X212450001Y-108137000D01*
G75*
G02*
X212700000Y-108386999I0J-249999D01*
G01*
X212700000Y-109037001D01*
G75*
G02*
X212450001Y-109287000I-249999J0D01*
G01*
X211549999Y-109287000D01*
G75*
G02*
X211300000Y-109037001I0J249999D01*
G01*
X211300000Y-108386999D01*
G75*
G02*
X211549999Y-108137000I249999J0D01*
G01*
G37*
G04 #@! TD.AperFunction*
G04 #@! TA.AperFunction,SMDPad,CuDef*
G36*
G01*
X211549999Y-106087000D02*
X212450001Y-106087000D01*
G75*
G02*
X212700000Y-106336999I0J-249999D01*
G01*
X212700000Y-106987001D01*
G75*
G02*
X212450001Y-107237000I-249999J0D01*
G01*
X211549999Y-107237000D01*
G75*
G02*
X211300000Y-106987001I0J249999D01*
G01*
X211300000Y-106336999D01*
G75*
G02*
X211549999Y-106087000I249999J0D01*
G01*
G37*
G04 #@! TD.AperFunction*
G04 #@! TA.AperFunction,SMDPad,CuDef*
G36*
G01*
X156899300Y-163029479D02*
X156899300Y-163929481D01*
G75*
G02*
X156649301Y-164179480I-249999J0D01*
G01*
X155999299Y-164179480D01*
G75*
G02*
X155749300Y-163929481I0J249999D01*
G01*
X155749300Y-163029479D01*
G75*
G02*
X155999299Y-162779480I249999J0D01*
G01*
X156649301Y-162779480D01*
G75*
G02*
X156899300Y-163029479I0J-249999D01*
G01*
G37*
G04 #@! TD.AperFunction*
G04 #@! TA.AperFunction,SMDPad,CuDef*
G36*
G01*
X154849300Y-163029479D02*
X154849300Y-163929481D01*
G75*
G02*
X154599301Y-164179480I-249999J0D01*
G01*
X153949299Y-164179480D01*
G75*
G02*
X153699300Y-163929481I0J249999D01*
G01*
X153699300Y-163029479D01*
G75*
G02*
X153949299Y-162779480I249999J0D01*
G01*
X154599301Y-162779480D01*
G75*
G02*
X154849300Y-163029479I0J-249999D01*
G01*
G37*
G04 #@! TD.AperFunction*
G04 #@! TA.AperFunction,SMDPad,CuDef*
G36*
G01*
X146172341Y-129789880D02*
X145272339Y-129789880D01*
G75*
G02*
X145022340Y-129539881I0J249999D01*
G01*
X145022340Y-128889879D01*
G75*
G02*
X145272339Y-128639880I249999J0D01*
G01*
X146172341Y-128639880D01*
G75*
G02*
X146422340Y-128889879I0J-249999D01*
G01*
X146422340Y-129539881D01*
G75*
G02*
X146172341Y-129789880I-249999J0D01*
G01*
G37*
G04 #@! TD.AperFunction*
G04 #@! TA.AperFunction,SMDPad,CuDef*
G36*
G01*
X146172341Y-131839880D02*
X145272339Y-131839880D01*
G75*
G02*
X145022340Y-131589881I0J249999D01*
G01*
X145022340Y-130939879D01*
G75*
G02*
X145272339Y-130689880I249999J0D01*
G01*
X146172341Y-130689880D01*
G75*
G02*
X146422340Y-130939879I0J-249999D01*
G01*
X146422340Y-131589881D01*
G75*
G02*
X146172341Y-131839880I-249999J0D01*
G01*
G37*
G04 #@! TD.AperFunction*
G04 #@! TA.AperFunction,SMDPad,CuDef*
G36*
G01*
X213835999Y-106087000D02*
X214736001Y-106087000D01*
G75*
G02*
X214986000Y-106336999I0J-249999D01*
G01*
X214986000Y-106987001D01*
G75*
G02*
X214736001Y-107237000I-249999J0D01*
G01*
X213835999Y-107237000D01*
G75*
G02*
X213586000Y-106987001I0J249999D01*
G01*
X213586000Y-106336999D01*
G75*
G02*
X213835999Y-106087000I249999J0D01*
G01*
G37*
G04 #@! TD.AperFunction*
G04 #@! TA.AperFunction,SMDPad,CuDef*
G36*
G01*
X213835999Y-108137000D02*
X214736001Y-108137000D01*
G75*
G02*
X214986000Y-108386999I0J-249999D01*
G01*
X214986000Y-109037001D01*
G75*
G02*
X214736001Y-109287000I-249999J0D01*
G01*
X213835999Y-109287000D01*
G75*
G02*
X213586000Y-109037001I0J249999D01*
G01*
X213586000Y-108386999D01*
G75*
G02*
X213835999Y-108137000I249999J0D01*
G01*
G37*
G04 #@! TD.AperFunction*
G04 #@! TA.AperFunction,SMDPad,CuDef*
G36*
G01*
X162450359Y-165360880D02*
X163350361Y-165360880D01*
G75*
G02*
X163600360Y-165610879I0J-249999D01*
G01*
X163600360Y-166260881D01*
G75*
G02*
X163350361Y-166510880I-249999J0D01*
G01*
X162450359Y-166510880D01*
G75*
G02*
X162200360Y-166260881I0J249999D01*
G01*
X162200360Y-165610879D01*
G75*
G02*
X162450359Y-165360880I249999J0D01*
G01*
G37*
G04 #@! TD.AperFunction*
G04 #@! TA.AperFunction,SMDPad,CuDef*
G36*
G01*
X162450359Y-163310880D02*
X163350361Y-163310880D01*
G75*
G02*
X163600360Y-163560879I0J-249999D01*
G01*
X163600360Y-164210881D01*
G75*
G02*
X163350361Y-164460880I-249999J0D01*
G01*
X162450359Y-164460880D01*
G75*
G02*
X162200360Y-164210881I0J249999D01*
G01*
X162200360Y-163560879D01*
G75*
G02*
X162450359Y-163310880I249999J0D01*
G01*
G37*
G04 #@! TD.AperFunction*
G04 #@! TA.AperFunction,SMDPad,CuDef*
G36*
G01*
X162111600Y-116702419D02*
X162111600Y-117602421D01*
G75*
G02*
X161861601Y-117852420I-249999J0D01*
G01*
X161211599Y-117852420D01*
G75*
G02*
X160961600Y-117602421I0J249999D01*
G01*
X160961600Y-116702419D01*
G75*
G02*
X161211599Y-116452420I249999J0D01*
G01*
X161861601Y-116452420D01*
G75*
G02*
X162111600Y-116702419I0J-249999D01*
G01*
G37*
G04 #@! TD.AperFunction*
G04 #@! TA.AperFunction,SMDPad,CuDef*
G36*
G01*
X160061600Y-116702419D02*
X160061600Y-117602421D01*
G75*
G02*
X159811601Y-117852420I-249999J0D01*
G01*
X159161599Y-117852420D01*
G75*
G02*
X158911600Y-117602421I0J249999D01*
G01*
X158911600Y-116702419D01*
G75*
G02*
X159161599Y-116452420I249999J0D01*
G01*
X159811601Y-116452420D01*
G75*
G02*
X160061600Y-116702419I0J-249999D01*
G01*
G37*
G04 #@! TD.AperFunction*
G04 #@! TA.AperFunction,SMDPad,CuDef*
G36*
G01*
X155876300Y-107658321D02*
X155876300Y-106758319D01*
G75*
G02*
X156126299Y-106508320I249999J0D01*
G01*
X156776301Y-106508320D01*
G75*
G02*
X157026300Y-106758319I0J-249999D01*
G01*
X157026300Y-107658321D01*
G75*
G02*
X156776301Y-107908320I-249999J0D01*
G01*
X156126299Y-107908320D01*
G75*
G02*
X155876300Y-107658321I0J249999D01*
G01*
G37*
G04 #@! TD.AperFunction*
G04 #@! TA.AperFunction,SMDPad,CuDef*
G36*
G01*
X153826300Y-107658321D02*
X153826300Y-106758319D01*
G75*
G02*
X154076299Y-106508320I249999J0D01*
G01*
X154726301Y-106508320D01*
G75*
G02*
X154976300Y-106758319I0J-249999D01*
G01*
X154976300Y-107658321D01*
G75*
G02*
X154726301Y-107908320I-249999J0D01*
G01*
X154076299Y-107908320D01*
G75*
G02*
X153826300Y-107658321I0J249999D01*
G01*
G37*
G04 #@! TD.AperFunction*
G04 #@! TA.AperFunction,SMDPad,CuDef*
G36*
G01*
X153747560Y-121016181D02*
X153747560Y-120116179D01*
G75*
G02*
X153997559Y-119866180I249999J0D01*
G01*
X154647561Y-119866180D01*
G75*
G02*
X154897560Y-120116179I0J-249999D01*
G01*
X154897560Y-121016181D01*
G75*
G02*
X154647561Y-121266180I-249999J0D01*
G01*
X153997559Y-121266180D01*
G75*
G02*
X153747560Y-121016181I0J249999D01*
G01*
G37*
G04 #@! TD.AperFunction*
G04 #@! TA.AperFunction,SMDPad,CuDef*
G36*
G01*
X155797560Y-121016181D02*
X155797560Y-120116179D01*
G75*
G02*
X156047559Y-119866180I249999J0D01*
G01*
X156697561Y-119866180D01*
G75*
G02*
X156947560Y-120116179I0J-249999D01*
G01*
X156947560Y-121016181D01*
G75*
G02*
X156697561Y-121266180I-249999J0D01*
G01*
X156047559Y-121266180D01*
G75*
G02*
X155797560Y-121016181I0J249999D01*
G01*
G37*
G04 #@! TD.AperFunction*
G04 #@! TA.AperFunction,SMDPad,CuDef*
G36*
G01*
X158947699Y-165317480D02*
X159847701Y-165317480D01*
G75*
G02*
X160097700Y-165567479I0J-249999D01*
G01*
X160097700Y-166217481D01*
G75*
G02*
X159847701Y-166467480I-249999J0D01*
G01*
X158947699Y-166467480D01*
G75*
G02*
X158697700Y-166217481I0J249999D01*
G01*
X158697700Y-165567479D01*
G75*
G02*
X158947699Y-165317480I249999J0D01*
G01*
G37*
G04 #@! TD.AperFunction*
G04 #@! TA.AperFunction,SMDPad,CuDef*
G36*
G01*
X158947699Y-163267480D02*
X159847701Y-163267480D01*
G75*
G02*
X160097700Y-163517479I0J-249999D01*
G01*
X160097700Y-164167481D01*
G75*
G02*
X159847701Y-164417480I-249999J0D01*
G01*
X158947699Y-164417480D01*
G75*
G02*
X158697700Y-164167481I0J249999D01*
G01*
X158697700Y-163517479D01*
G75*
G02*
X158947699Y-163267480I249999J0D01*
G01*
G37*
G04 #@! TD.AperFunction*
G04 #@! TA.AperFunction,SMDPad,CuDef*
G36*
G01*
X149863500Y-158254279D02*
X149863500Y-159154281D01*
G75*
G02*
X149613501Y-159404280I-249999J0D01*
G01*
X148963499Y-159404280D01*
G75*
G02*
X148713500Y-159154281I0J249999D01*
G01*
X148713500Y-158254279D01*
G75*
G02*
X148963499Y-158004280I249999J0D01*
G01*
X149613501Y-158004280D01*
G75*
G02*
X149863500Y-158254279I0J-249999D01*
G01*
G37*
G04 #@! TD.AperFunction*
G04 #@! TA.AperFunction,SMDPad,CuDef*
G36*
G01*
X151913500Y-158254279D02*
X151913500Y-159154281D01*
G75*
G02*
X151663501Y-159404280I-249999J0D01*
G01*
X151013499Y-159404280D01*
G75*
G02*
X150763500Y-159154281I0J249999D01*
G01*
X150763500Y-158254279D01*
G75*
G02*
X151013499Y-158004280I249999J0D01*
G01*
X151663501Y-158004280D01*
G75*
G02*
X151913500Y-158254279I0J-249999D01*
G01*
G37*
G04 #@! TD.AperFunction*
D18*
X232943400Y-147929600D03*
X227943400Y-147929600D03*
D19*
X225755200Y-141071600D03*
D20*
X228295200Y-141071600D03*
X150350220Y-116492020D03*
X150350220Y-113952020D03*
D19*
X150350220Y-111412020D03*
X143954500Y-161193480D03*
D20*
X143954500Y-158653480D03*
X143954500Y-156113480D03*
D19*
X172112940Y-115387120D03*
D20*
X172112940Y-112847120D03*
X172112940Y-110307120D03*
X172112940Y-107767120D03*
X172112940Y-105227120D03*
X161587180Y-201127360D03*
X159047180Y-201127360D03*
X156507180Y-201127360D03*
X153967180Y-201127360D03*
D19*
X151427180Y-201127360D03*
X150901400Y-184431940D03*
D20*
X150901400Y-181891940D03*
X150901400Y-179351940D03*
X150901400Y-176811940D03*
X150901400Y-174271940D03*
X156992320Y-174289720D03*
X156992320Y-176829720D03*
X156992320Y-179369720D03*
X156992320Y-181909720D03*
D19*
X156992320Y-184449720D03*
X151371300Y-208262220D03*
D20*
X153911300Y-208262220D03*
X156451300Y-208262220D03*
X158991300Y-208262220D03*
X161531300Y-208262220D03*
D19*
X143891000Y-193258440D03*
D20*
X146431000Y-193258440D03*
X148971000Y-193258440D03*
X151511000Y-193258440D03*
X154051000Y-193258440D03*
X156591000Y-193258440D03*
X159131000Y-193258440D03*
X161671000Y-193258440D03*
X143896080Y-166646860D03*
X143896080Y-169186860D03*
X143896080Y-171726860D03*
X143896080Y-174266860D03*
X143896080Y-176806860D03*
X143896080Y-179346860D03*
X143896080Y-181886860D03*
D19*
X143896080Y-184426860D03*
D20*
X233588560Y-111739680D03*
X231048560Y-111739680D03*
X233588560Y-109199680D03*
X231048560Y-109199680D03*
X233588560Y-106659680D03*
X231048560Y-106659680D03*
X233588560Y-104119680D03*
X231048560Y-104119680D03*
X233588560Y-101579680D03*
D19*
X231048560Y-101579680D03*
X146486880Y-151142700D03*
D20*
X143946880Y-151142700D03*
X146486880Y-148602700D03*
X143946880Y-148602700D03*
X146486880Y-146062700D03*
X143946880Y-146062700D03*
X146486880Y-143522700D03*
X143946880Y-143522700D03*
X146486880Y-140982700D03*
X143946880Y-140982700D03*
D19*
X187223400Y-205646020D03*
D20*
X187223400Y-208186020D03*
X184683400Y-205646020D03*
X184683400Y-208186020D03*
X182143400Y-205646020D03*
X182143400Y-208186020D03*
X179603400Y-205646020D03*
X179603400Y-208186020D03*
X177063400Y-205646020D03*
X177063400Y-208186020D03*
X174523400Y-205646020D03*
X174523400Y-208186020D03*
X171983400Y-205646020D03*
X171983400Y-208186020D03*
D19*
X238442500Y-132461000D03*
D20*
X238442500Y-135001000D03*
X235902500Y-132461000D03*
X235902500Y-135001000D03*
X233362500Y-132461000D03*
X233362500Y-135001000D03*
X230822500Y-132461000D03*
X230822500Y-135001000D03*
X228282500Y-132461000D03*
X228282500Y-135001000D03*
X225742500Y-132461000D03*
X225742500Y-135001000D03*
X223202500Y-132461000D03*
X223202500Y-135001000D03*
X220662500Y-132461000D03*
X220662500Y-135001000D03*
D21*
X276194200Y-173590200D03*
X276194200Y-168750200D03*
D22*
X279194200Y-173900200D03*
X279194200Y-168440200D03*
D23*
X252171200Y-120195600D03*
X252171200Y-142595600D03*
G04 #@! TA.AperFunction,SMDPad,CuDef*
G36*
G01*
X186607760Y-133551081D02*
X186607760Y-132651079D01*
G75*
G02*
X186857759Y-132401080I249999J0D01*
G01*
X187507761Y-132401080D01*
G75*
G02*
X187757760Y-132651079I0J-249999D01*
G01*
X187757760Y-133551081D01*
G75*
G02*
X187507761Y-133801080I-249999J0D01*
G01*
X186857759Y-133801080D01*
G75*
G02*
X186607760Y-133551081I0J249999D01*
G01*
G37*
G04 #@! TD.AperFunction*
G04 #@! TA.AperFunction,SMDPad,CuDef*
G36*
G01*
X184557760Y-133551081D02*
X184557760Y-132651079D01*
G75*
G02*
X184807759Y-132401080I249999J0D01*
G01*
X185457761Y-132401080D01*
G75*
G02*
X185707760Y-132651079I0J-249999D01*
G01*
X185707760Y-133551081D01*
G75*
G02*
X185457761Y-133801080I-249999J0D01*
G01*
X184807759Y-133801080D01*
G75*
G02*
X184557760Y-133551081I0J249999D01*
G01*
G37*
G04 #@! TD.AperFunction*
G04 #@! TA.AperFunction,SMDPad,CuDef*
G36*
G01*
X206925759Y-156498600D02*
X207825761Y-156498600D01*
G75*
G02*
X208075760Y-156748599I0J-249999D01*
G01*
X208075760Y-157398601D01*
G75*
G02*
X207825761Y-157648600I-249999J0D01*
G01*
X206925759Y-157648600D01*
G75*
G02*
X206675760Y-157398601I0J249999D01*
G01*
X206675760Y-156748599D01*
G75*
G02*
X206925759Y-156498600I249999J0D01*
G01*
G37*
G04 #@! TD.AperFunction*
G04 #@! TA.AperFunction,SMDPad,CuDef*
G36*
G01*
X206925759Y-158548600D02*
X207825761Y-158548600D01*
G75*
G02*
X208075760Y-158798599I0J-249999D01*
G01*
X208075760Y-159448601D01*
G75*
G02*
X207825761Y-159698600I-249999J0D01*
G01*
X206925759Y-159698600D01*
G75*
G02*
X206675760Y-159448601I0J249999D01*
G01*
X206675760Y-158798599D01*
G75*
G02*
X206925759Y-158548600I249999J0D01*
G01*
G37*
G04 #@! TD.AperFunction*
G04 #@! TA.AperFunction,SMDPad,CuDef*
G36*
G01*
X209684199Y-160799040D02*
X210584201Y-160799040D01*
G75*
G02*
X210834200Y-161049039I0J-249999D01*
G01*
X210834200Y-161699041D01*
G75*
G02*
X210584201Y-161949040I-249999J0D01*
G01*
X209684199Y-161949040D01*
G75*
G02*
X209434200Y-161699041I0J249999D01*
G01*
X209434200Y-161049039D01*
G75*
G02*
X209684199Y-160799040I249999J0D01*
G01*
G37*
G04 #@! TD.AperFunction*
G04 #@! TA.AperFunction,SMDPad,CuDef*
G36*
G01*
X209684199Y-158749040D02*
X210584201Y-158749040D01*
G75*
G02*
X210834200Y-158999039I0J-249999D01*
G01*
X210834200Y-159649041D01*
G75*
G02*
X210584201Y-159899040I-249999J0D01*
G01*
X209684199Y-159899040D01*
G75*
G02*
X209434200Y-159649041I0J249999D01*
G01*
X209434200Y-158999039D01*
G75*
G02*
X209684199Y-158749040I249999J0D01*
G01*
G37*
G04 #@! TD.AperFunction*
G04 #@! TA.AperFunction,SMDPad,CuDef*
G36*
G01*
X209919260Y-148711499D02*
X209919260Y-149611501D01*
G75*
G02*
X209669261Y-149861500I-249999J0D01*
G01*
X209019259Y-149861500D01*
G75*
G02*
X208769260Y-149611501I0J249999D01*
G01*
X208769260Y-148711499D01*
G75*
G02*
X209019259Y-148461500I249999J0D01*
G01*
X209669261Y-148461500D01*
G75*
G02*
X209919260Y-148711499I0J-249999D01*
G01*
G37*
G04 #@! TD.AperFunction*
G04 #@! TA.AperFunction,SMDPad,CuDef*
G36*
G01*
X207869260Y-148711499D02*
X207869260Y-149611501D01*
G75*
G02*
X207619261Y-149861500I-249999J0D01*
G01*
X206969259Y-149861500D01*
G75*
G02*
X206719260Y-149611501I0J249999D01*
G01*
X206719260Y-148711499D01*
G75*
G02*
X206969259Y-148461500I249999J0D01*
G01*
X207619261Y-148461500D01*
G75*
G02*
X207869260Y-148711499I0J-249999D01*
G01*
G37*
G04 #@! TD.AperFunction*
G04 #@! TA.AperFunction,SMDPad,CuDef*
G36*
G01*
X204200339Y-160793740D02*
X205100341Y-160793740D01*
G75*
G02*
X205350340Y-161043739I0J-249999D01*
G01*
X205350340Y-161693741D01*
G75*
G02*
X205100341Y-161943740I-249999J0D01*
G01*
X204200339Y-161943740D01*
G75*
G02*
X203950340Y-161693741I0J249999D01*
G01*
X203950340Y-161043739D01*
G75*
G02*
X204200339Y-160793740I249999J0D01*
G01*
G37*
G04 #@! TD.AperFunction*
G04 #@! TA.AperFunction,SMDPad,CuDef*
G36*
G01*
X204200339Y-158743740D02*
X205100341Y-158743740D01*
G75*
G02*
X205350340Y-158993739I0J-249999D01*
G01*
X205350340Y-159643741D01*
G75*
G02*
X205100341Y-159893740I-249999J0D01*
G01*
X204200339Y-159893740D01*
G75*
G02*
X203950340Y-159643741I0J249999D01*
G01*
X203950340Y-158993739D01*
G75*
G02*
X204200339Y-158743740I249999J0D01*
G01*
G37*
G04 #@! TD.AperFunction*
G04 #@! TA.AperFunction,SMDPad,CuDef*
G36*
G01*
X185690200Y-136016579D02*
X185690200Y-136916581D01*
G75*
G02*
X185440201Y-137166580I-249999J0D01*
G01*
X184790199Y-137166580D01*
G75*
G02*
X184540200Y-136916581I0J249999D01*
G01*
X184540200Y-136016579D01*
G75*
G02*
X184790199Y-135766580I249999J0D01*
G01*
X185440201Y-135766580D01*
G75*
G02*
X185690200Y-136016579I0J-249999D01*
G01*
G37*
G04 #@! TD.AperFunction*
G04 #@! TA.AperFunction,SMDPad,CuDef*
G36*
G01*
X187740200Y-136016579D02*
X187740200Y-136916581D01*
G75*
G02*
X187490201Y-137166580I-249999J0D01*
G01*
X186840199Y-137166580D01*
G75*
G02*
X186590200Y-136916581I0J249999D01*
G01*
X186590200Y-136016579D01*
G75*
G02*
X186840199Y-135766580I249999J0D01*
G01*
X187490201Y-135766580D01*
G75*
G02*
X187740200Y-136016579I0J-249999D01*
G01*
G37*
G04 #@! TD.AperFunction*
G04 #@! TA.AperFunction,SMDPad,CuDef*
G36*
G01*
X178492999Y-108137000D02*
X179393001Y-108137000D01*
G75*
G02*
X179643000Y-108386999I0J-249999D01*
G01*
X179643000Y-109037001D01*
G75*
G02*
X179393001Y-109287000I-249999J0D01*
G01*
X178492999Y-109287000D01*
G75*
G02*
X178243000Y-109037001I0J249999D01*
G01*
X178243000Y-108386999D01*
G75*
G02*
X178492999Y-108137000I249999J0D01*
G01*
G37*
G04 #@! TD.AperFunction*
G04 #@! TA.AperFunction,SMDPad,CuDef*
G36*
G01*
X178492999Y-110187000D02*
X179393001Y-110187000D01*
G75*
G02*
X179643000Y-110436999I0J-249999D01*
G01*
X179643000Y-111087001D01*
G75*
G02*
X179393001Y-111337000I-249999J0D01*
G01*
X178492999Y-111337000D01*
G75*
G02*
X178243000Y-111087001I0J249999D01*
G01*
X178243000Y-110436999D01*
G75*
G02*
X178492999Y-110187000I249999J0D01*
G01*
G37*
G04 #@! TD.AperFunction*
G04 #@! TA.AperFunction,SMDPad,CuDef*
G36*
G01*
X157322099Y-155284480D02*
X158222101Y-155284480D01*
G75*
G02*
X158472100Y-155534479I0J-249999D01*
G01*
X158472100Y-156184481D01*
G75*
G02*
X158222101Y-156434480I-249999J0D01*
G01*
X157322099Y-156434480D01*
G75*
G02*
X157072100Y-156184481I0J249999D01*
G01*
X157072100Y-155534479D01*
G75*
G02*
X157322099Y-155284480I249999J0D01*
G01*
G37*
G04 #@! TD.AperFunction*
G04 #@! TA.AperFunction,SMDPad,CuDef*
G36*
G01*
X157322099Y-153234480D02*
X158222101Y-153234480D01*
G75*
G02*
X158472100Y-153484479I0J-249999D01*
G01*
X158472100Y-154134481D01*
G75*
G02*
X158222101Y-154384480I-249999J0D01*
G01*
X157322099Y-154384480D01*
G75*
G02*
X157072100Y-154134481I0J249999D01*
G01*
X157072100Y-153484479D01*
G75*
G02*
X157322099Y-153234480I249999J0D01*
G01*
G37*
G04 #@! TD.AperFunction*
G04 #@! TA.AperFunction,SMDPad,CuDef*
G36*
G01*
X156753980Y-117599881D02*
X156753980Y-116699879D01*
G75*
G02*
X157003979Y-116449880I249999J0D01*
G01*
X157653981Y-116449880D01*
G75*
G02*
X157903980Y-116699879I0J-249999D01*
G01*
X157903980Y-117599881D01*
G75*
G02*
X157653981Y-117849880I-249999J0D01*
G01*
X157003979Y-117849880D01*
G75*
G02*
X156753980Y-117599881I0J249999D01*
G01*
G37*
G04 #@! TD.AperFunction*
G04 #@! TA.AperFunction,SMDPad,CuDef*
G36*
G01*
X154703980Y-117599881D02*
X154703980Y-116699879D01*
G75*
G02*
X154953979Y-116449880I249999J0D01*
G01*
X155603981Y-116449880D01*
G75*
G02*
X155853980Y-116699879I0J-249999D01*
G01*
X155853980Y-117599881D01*
G75*
G02*
X155603981Y-117849880I-249999J0D01*
G01*
X154953979Y-117849880D01*
G75*
G02*
X154703980Y-117599881I0J249999D01*
G01*
G37*
G04 #@! TD.AperFunction*
G04 #@! TA.AperFunction,SMDPad,CuDef*
G36*
G01*
X160038520Y-108033399D02*
X160038520Y-108933401D01*
G75*
G02*
X159788521Y-109183400I-249999J0D01*
G01*
X159138519Y-109183400D01*
G75*
G02*
X158888520Y-108933401I0J249999D01*
G01*
X158888520Y-108033399D01*
G75*
G02*
X159138519Y-107783400I249999J0D01*
G01*
X159788521Y-107783400D01*
G75*
G02*
X160038520Y-108033399I0J-249999D01*
G01*
G37*
G04 #@! TD.AperFunction*
G04 #@! TA.AperFunction,SMDPad,CuDef*
G36*
G01*
X162088520Y-108033399D02*
X162088520Y-108933401D01*
G75*
G02*
X161838521Y-109183400I-249999J0D01*
G01*
X161188519Y-109183400D01*
G75*
G02*
X160938520Y-108933401I0J249999D01*
G01*
X160938520Y-108033399D01*
G75*
G02*
X161188519Y-107783400I249999J0D01*
G01*
X161838521Y-107783400D01*
G75*
G02*
X162088520Y-108033399I0J-249999D01*
G01*
G37*
G04 #@! TD.AperFunction*
D24*
X183217820Y-179146200D03*
X201183240Y-160299990D03*
X184038240Y-171955460D03*
X184306200Y-158816610D03*
X185122820Y-171945300D03*
X185150000Y-160900000D03*
X183563260Y-159583120D03*
X182349140Y-171963080D03*
X220116400Y-147330160D03*
X223060800Y-126113000D03*
X242366800Y-123698000D03*
X242366800Y-134696200D03*
X223357440Y-141480542D03*
X225346800Y-123740610D03*
X216408000Y-133096000D03*
X222656400Y-139242800D03*
X216408000Y-135280400D03*
X215519000Y-129489200D03*
X217779598Y-136855200D03*
X222656400Y-137541000D03*
X218846400Y-136855200D03*
X223372680Y-138369040D03*
X219557600Y-129997200D03*
X247523000Y-141249410D03*
X221330151Y-129879186D03*
X214376000Y-129184400D03*
X233349798Y-129082800D03*
X229235000Y-129095492D03*
X221856292Y-129095482D03*
X223088202Y-128397000D03*
X218467940Y-128402080D03*
X182753000Y-160431480D03*
X180713380Y-171965620D03*
X181025800Y-161902140D03*
X177789840Y-171963080D03*
X179252880Y-171975780D03*
X181627780Y-160655000D03*
D25*
X158350000Y-134600000D03*
X154725000Y-128550000D03*
X160925000Y-154225000D03*
X226200000Y-206525000D03*
X207375000Y-161625000D03*
X221150000Y-162400000D03*
X237150000Y-153200000D03*
X250350000Y-154100000D03*
X248150000Y-132125000D03*
D24*
X230100000Y-119100000D03*
D25*
X218425000Y-117100000D03*
D24*
X225060000Y-108860000D03*
D25*
X216150000Y-109575000D03*
D24*
X201575000Y-107450000D03*
D25*
X190500000Y-114050000D03*
X180449912Y-107550006D03*
X182150000Y-101925000D03*
X189975000Y-144075000D03*
D24*
X185675000Y-106875000D03*
D25*
X154120000Y-148190000D03*
D24*
X164290000Y-145630000D03*
D25*
X142604987Y-133800000D03*
D24*
X220180000Y-101320000D03*
X234848400Y-150469600D03*
X233273600Y-150469600D03*
X250347480Y-149153880D03*
X244875000Y-150475000D03*
X255524000Y-202946000D03*
X255524000Y-205079600D03*
X256100000Y-177300000D03*
X256100000Y-156700000D03*
D26*
X144000000Y-113900000D03*
X156100000Y-118900000D03*
D24*
X153000000Y-163700000D03*
X154200000Y-161900000D03*
X239014000Y-160883600D03*
X210921600Y-167894000D03*
X208381600Y-167894000D03*
X233832402Y-160832800D03*
X204063600Y-167894000D03*
X253100840Y-156006800D03*
D25*
X158496000Y-106680000D03*
X158400000Y-115300000D03*
X158200000Y-120600000D03*
X148300000Y-125100000D03*
X157800000Y-150375000D03*
X159400000Y-167700000D03*
X153300000Y-157900000D03*
X193075000Y-206525000D03*
X180454000Y-108700000D03*
X213150000Y-110025000D03*
X220125000Y-113550000D03*
X227075000Y-121550000D03*
X220125000Y-149300000D03*
X220100000Y-153450000D03*
X229750000Y-153850000D03*
X249425000Y-146750000D03*
X228525000Y-162475000D03*
X221100000Y-169950000D03*
X228425000Y-169975000D03*
X235350000Y-169975000D03*
X241550000Y-174000000D03*
X240950000Y-180425000D03*
X255025000Y-171600000D03*
X255025000Y-164625000D03*
X269550000Y-167925000D03*
X260125000Y-183175000D03*
X273575000Y-187125000D03*
X271450000Y-177150000D03*
X248125000Y-210175000D03*
X224150000Y-194275000D03*
X197100000Y-172475000D03*
X188700000Y-170775000D03*
X272925000Y-143000000D03*
X248150000Y-129625000D03*
D24*
X225040000Y-109830000D03*
X237500000Y-187775000D03*
X239525000Y-187775000D03*
X238356000Y-186431600D03*
X240725000Y-184400000D03*
D25*
X192375000Y-140250000D03*
X189225000Y-133100000D03*
D24*
X177925000Y-126925000D03*
X196325000Y-126925000D03*
X203500000Y-126925000D03*
X212800000Y-125275000D03*
X211150000Y-137175000D03*
X211150000Y-139575000D03*
X211150000Y-141975000D03*
X211150000Y-144375000D03*
X211150000Y-147575000D03*
X211150000Y-152375000D03*
X211175000Y-157175000D03*
X212800000Y-164275000D03*
X208300000Y-162650000D03*
X200500000Y-162375000D03*
X197925000Y-162600000D03*
X191525000Y-162625000D03*
X175825000Y-164275000D03*
X177450000Y-158775000D03*
X177475000Y-154775000D03*
X177450000Y-141175000D03*
D25*
X222815400Y-162440400D03*
D24*
X254350000Y-151775000D03*
X186076170Y-161984922D03*
X185675000Y-107950000D03*
X174225002Y-126025000D03*
X204624997Y-108125003D03*
X146830000Y-136530000D03*
X190713360Y-127208280D03*
X162950000Y-107550000D03*
X175025000Y-103575000D03*
X153954480Y-117157500D03*
X153395680Y-106281220D03*
X157774300Y-157715880D03*
X157772100Y-161295080D03*
X149263100Y-155199080D03*
X159625000Y-158400000D03*
X147535900Y-158678880D03*
X149272100Y-162142280D03*
X158960700Y-159791280D03*
X236677200Y-162458400D03*
X236677200Y-157632400D03*
X241613800Y-201177000D03*
X249313700Y-176677320D03*
X205130400Y-178104800D03*
X208668620Y-178104800D03*
X163746180Y-129987040D03*
X177825000Y-130725000D03*
X153357580Y-121539000D03*
X224993200Y-151638000D03*
X254546100Y-177276760D03*
X209092800Y-121564400D03*
X215188800Y-121564400D03*
X176138840Y-125145800D03*
X181117137Y-128425000D03*
X208330800Y-120650000D03*
X221894400Y-120650000D03*
X173809660Y-127571500D03*
X143630000Y-133790000D03*
D27*
X177673000Y-111887000D03*
X182372000Y-111887000D03*
D24*
X214376000Y-136398000D03*
X235178602Y-140792200D03*
X206710280Y-121556780D03*
X186063180Y-119047260D03*
X242976400Y-191363600D03*
X243812800Y-196138800D03*
X233984800Y-189687200D03*
X220522800Y-171653200D03*
X221183200Y-179679600D03*
X221183200Y-174752000D03*
X242806220Y-187037980D03*
X232189020Y-171371260D03*
X250959620Y-161292540D03*
X244944900Y-160124140D03*
X239698000Y-191338200D03*
X225577400Y-172339000D03*
X225552000Y-171399200D03*
X238299998Y-190325000D03*
X247738900Y-179047140D03*
X249326400Y-179019200D03*
X237185200Y-183667400D03*
X239608360Y-183659780D03*
X206413100Y-153946860D03*
X232664000Y-160223200D03*
X210947000Y-149161500D03*
X223387920Y-150451820D03*
X210131660Y-156217620D03*
X208777840Y-154764740D03*
X204063600Y-169265600D03*
X208376518Y-169344340D03*
X245150070Y-166217598D03*
X250974860Y-168259760D03*
X235559600Y-164896800D03*
X235559600Y-157632388D03*
X207492600Y-120108982D03*
X190525400Y-119049800D03*
D26*
X257850000Y-194550000D03*
D24*
X189900000Y-128275000D03*
X175050000Y-105175000D03*
X166926260Y-138780520D03*
X168770300Y-138780520D03*
X162935920Y-162069780D03*
X239527080Y-117091460D03*
X243245642Y-153014680D03*
X242300000Y-136975000D03*
X242299998Y-142200000D03*
X239520980Y-121095520D03*
X243873020Y-136972040D03*
X243921280Y-142107920D03*
X244799998Y-152999976D03*
X201800000Y-102200000D03*
X201850000Y-113150000D03*
X211111000Y-112268000D03*
X204750000Y-106800000D03*
X204850000Y-109325000D03*
X235635800Y-184912000D03*
X229031800Y-178460400D03*
X241767360Y-185110120D03*
X235102400Y-177393600D03*
X238958120Y-182697120D03*
X229260400Y-176733200D03*
X193530000Y-174091600D03*
X208313020Y-175407320D03*
X214376000Y-133146800D03*
X218846400Y-131216400D03*
X200649840Y-189699900D03*
X203530200Y-176740820D03*
X203420980Y-169997120D03*
X203415900Y-156418280D03*
X202425300Y-156436060D03*
X201375000Y-169300000D03*
X202714860Y-169303700D03*
X202709780Y-162227260D03*
X173814740Y-131574540D03*
X178000000Y-134525000D03*
X178013701Y-133157210D03*
X177967640Y-135582660D03*
X153800000Y-146280000D03*
X166075360Y-132029200D03*
X154500000Y-145420000D03*
X153564593Y-144608860D03*
X218120002Y-110710000D03*
X196950000Y-101400000D03*
X220840000Y-111780000D03*
X217540840Y-102257860D03*
X223390000Y-101550000D03*
X198710000Y-119380718D03*
X201100000Y-122475000D03*
X197910000Y-118156540D03*
X210972400Y-155572460D03*
X169550420Y-137975000D03*
X170454318Y-136362440D03*
X179050000Y-153974994D03*
X171183300Y-137175240D03*
X179050000Y-155575000D03*
X173517513Y-159580182D03*
X193918840Y-162219640D03*
X198700000Y-161725000D03*
X195050000Y-162225000D03*
X196314060Y-162234880D03*
X181938655Y-127215675D03*
X183515000Y-127223520D03*
X176141380Y-123830080D03*
X180317140Y-127231140D03*
X200725000Y-113100000D03*
X201150000Y-116475000D03*
X209312500Y-117412500D03*
X208325000Y-118350000D03*
X208804442Y-116020558D03*
X207375002Y-117450000D03*
X164807900Y-129166620D03*
X177825000Y-128900000D03*
X145747740Y-132542280D03*
X179374800Y-127220980D03*
X202793600Y-191541400D03*
X208900000Y-166600000D03*
X210100000Y-166625000D03*
D28*
X183217820Y-179146200D02*
X187251340Y-179146200D01*
X201183240Y-165214300D02*
X201183240Y-160299990D01*
X187251340Y-179146200D02*
X201183240Y-165214300D01*
X184363239Y-158873649D02*
X184306200Y-158816610D01*
X184038240Y-171955460D02*
X184363239Y-171630461D01*
X184363239Y-171630461D02*
X184363239Y-158873649D01*
X185122820Y-171945300D02*
X185122820Y-160927180D01*
X185122820Y-160927180D02*
X185150000Y-160900000D01*
X183563260Y-159583120D02*
X183563260Y-170748960D01*
X183563260Y-170748960D02*
X182349140Y-171963080D01*
D29*
X242366800Y-123698000D02*
X242366800Y-134061200D01*
X242366800Y-134061200D02*
X242366800Y-134696200D01*
D28*
X242366800Y-134696200D02*
X242366800Y-134696200D01*
D29*
X220116400Y-144721582D02*
X223357440Y-141480542D01*
X220116400Y-144721582D02*
X220116400Y-147330160D01*
X223060800Y-126113000D02*
X225346800Y-123827000D01*
X225346800Y-123827000D02*
X225346800Y-123740610D01*
D28*
X221792800Y-138379200D02*
X222656400Y-139242800D01*
X216408000Y-135280400D02*
X216408000Y-136855200D01*
X216408000Y-136855200D02*
X217932000Y-138379200D01*
X217932000Y-138379200D02*
X221792800Y-138379200D01*
X215823798Y-129793998D02*
X215519000Y-129489200D01*
X215823800Y-129793998D02*
X215823798Y-129793998D01*
X215823800Y-132511800D02*
X215823800Y-129793998D01*
X216408000Y-133096000D02*
X215823800Y-132511800D01*
X218465398Y-137541000D02*
X222656400Y-137541000D01*
X217779598Y-136855200D02*
X218465398Y-137541000D01*
X223372680Y-137012680D02*
X223372680Y-138369040D01*
X223215200Y-136855200D02*
X223372680Y-137012680D01*
X218846400Y-136855200D02*
X223215200Y-136855200D01*
X240868200Y-137020300D02*
X245097310Y-141249410D01*
X245097310Y-141249410D02*
X247523000Y-141249410D01*
X240868200Y-130429000D02*
X240868200Y-137020300D01*
X240360200Y-129921000D02*
X240868200Y-130429000D01*
X230822500Y-129921000D02*
X240360200Y-129921000D01*
X228282500Y-132461000D02*
X230822500Y-129921000D01*
X219557600Y-129997200D02*
X221212137Y-129997200D01*
X221212137Y-129997200D02*
X221330151Y-129879186D01*
X229247692Y-129082800D02*
X229235000Y-129095492D01*
X233349798Y-129082800D02*
X229247692Y-129082800D01*
X214700999Y-128859401D02*
X216615405Y-128859401D01*
X214376000Y-129184400D02*
X214700999Y-128859401D01*
X216851486Y-129095482D02*
X221856292Y-129095482D01*
X216615405Y-128859401D02*
X216851486Y-129095482D01*
X218473020Y-128397000D02*
X218467940Y-128402080D01*
X223083122Y-128402080D02*
X223088202Y-128397000D01*
X218467940Y-128402080D02*
X223083122Y-128402080D01*
X182753000Y-160431480D02*
X182753000Y-169926000D01*
X182753000Y-169926000D02*
X180713380Y-171965620D01*
X181025800Y-161902140D02*
X181025800Y-168727120D01*
X181025800Y-168727120D02*
X177789840Y-171963080D01*
X179252880Y-171975780D02*
X181627780Y-169600880D01*
X181627780Y-169600880D02*
X181627780Y-160655000D01*
D30*
X153672540Y-127497540D02*
X154725000Y-128550000D01*
X153672540Y-127157480D02*
X153672540Y-127497540D01*
X207375760Y-159123600D02*
X207375760Y-161624240D01*
X207375760Y-161624240D02*
X207375000Y-161625000D01*
X207625960Y-161374040D02*
X207375000Y-161625000D01*
X210134200Y-161374040D02*
X207625960Y-161374040D01*
X207118740Y-161368740D02*
X207375000Y-161625000D01*
X204650340Y-161368740D02*
X207118740Y-161368740D01*
X218440000Y-115588000D02*
X218440000Y-117085000D01*
X218440000Y-117085000D02*
X218425000Y-117100000D01*
X212000000Y-106662000D02*
X214286000Y-106662000D01*
X214286000Y-106662000D02*
X215387000Y-106662000D01*
X215387000Y-106662000D02*
X215462000Y-106662000D01*
X215462000Y-106662000D02*
X216150000Y-107350000D01*
X216150000Y-107350000D02*
X216150000Y-109575000D01*
X192361580Y-144073880D02*
X189976120Y-144073880D01*
X189976120Y-144073880D02*
X189975000Y-144075000D01*
X153309320Y-147474940D02*
X154024380Y-148190000D01*
X154024380Y-148190000D02*
X154120000Y-148190000D01*
X144435120Y-131264880D02*
X145722340Y-131264880D01*
X142604987Y-133800000D02*
X142604987Y-133095013D01*
X142604987Y-133095013D02*
X144435120Y-131264880D01*
D28*
X245668800Y-150469600D02*
X245668800Y-150469600D01*
X234848400Y-150469600D02*
X234388781Y-150469600D01*
X234388781Y-150469600D02*
X233273600Y-150469600D01*
X233273600Y-150469600D02*
X233273600Y-150469600D01*
X250347480Y-149153880D02*
X249026360Y-150475000D01*
X249026360Y-150475000D02*
X244875000Y-150475000D01*
X255524000Y-202946000D02*
X255524000Y-205079600D01*
D31*
X256100000Y-177300000D02*
X256100000Y-156700000D01*
D32*
X161536600Y-117152420D02*
X164347580Y-117152420D01*
X168652880Y-112847120D02*
X172112940Y-112847120D01*
X164347580Y-117152420D02*
X168652880Y-112847120D01*
X160489020Y-118900000D02*
X161536600Y-117852420D01*
X144000000Y-113900000D02*
X149000000Y-118900000D01*
X161536600Y-117852420D02*
X161536600Y-117152420D01*
X149000000Y-118900000D02*
X156100000Y-118900000D01*
X156100000Y-118900000D02*
X160489020Y-118900000D01*
D31*
X154053780Y-163700000D02*
X154274300Y-163479480D01*
X153000000Y-163700000D02*
X154053780Y-163700000D01*
D33*
X154200000Y-163405180D02*
X154274300Y-163479480D01*
X154200000Y-161900000D02*
X154200000Y-163405180D01*
D32*
X168652880Y-112847120D02*
X168652880Y-102047120D01*
X170870321Y-99829679D02*
X235529679Y-99829679D01*
X168652880Y-102047120D02*
X170870321Y-99829679D01*
X235529679Y-99829679D02*
X236500000Y-100800000D01*
X236500000Y-100800000D02*
X236500000Y-106600000D01*
D29*
X235100321Y-107999679D02*
X236500000Y-106600000D01*
X232248561Y-107999679D02*
X235100321Y-107999679D01*
X231048560Y-109199680D02*
X232248561Y-107999679D01*
D28*
X239014000Y-160883600D02*
X239014000Y-160883600D01*
X210921600Y-167894000D02*
X210921600Y-167894000D01*
X205130400Y-167894000D02*
X205130400Y-167894000D01*
X208381600Y-167894000D02*
X204063600Y-167894000D01*
X217982800Y-160832800D02*
X233372783Y-160832800D01*
X210921600Y-167894000D02*
X217982800Y-160832800D01*
X233372783Y-160832800D02*
X233832402Y-160832800D01*
X243890800Y-156006800D02*
X253100840Y-156006800D01*
X239014000Y-160883600D02*
X243890800Y-156006800D01*
D30*
X156451300Y-107208320D02*
X157967680Y-107208320D01*
X157967680Y-107208320D02*
X158496000Y-106680000D01*
X159463520Y-107647520D02*
X158496000Y-106680000D01*
X159463520Y-108483400D02*
X159463520Y-107647520D01*
X157328980Y-117149880D02*
X157328980Y-116371020D01*
X157328980Y-116371020D02*
X158400000Y-115300000D01*
X159486600Y-116386600D02*
X158400000Y-115300000D01*
X159486600Y-117152420D02*
X159486600Y-116386600D01*
X156372560Y-120566180D02*
X158166180Y-120566180D01*
X158166180Y-120566180D02*
X158200000Y-120600000D01*
X153672540Y-125107480D02*
X148307480Y-125107480D01*
X148307480Y-125107480D02*
X148300000Y-125100000D01*
X153309320Y-149524940D02*
X156949940Y-149524940D01*
X156949940Y-149524940D02*
X157800000Y-150375000D01*
X157772100Y-150402900D02*
X157800000Y-150375000D01*
X157772100Y-153809480D02*
X157772100Y-150402900D01*
X159441100Y-165935880D02*
X159397700Y-165892480D01*
X162900360Y-165935880D02*
X159441100Y-165935880D01*
X159397700Y-165892480D02*
X159397700Y-167697700D01*
X159397700Y-167697700D02*
X159400000Y-167700000D01*
X159397700Y-165892480D02*
X157392480Y-165892480D01*
X156324300Y-164824300D02*
X156324300Y-163479480D01*
X157392480Y-165892480D02*
X156324300Y-164824300D01*
X151338500Y-158704280D02*
X152495720Y-158704280D01*
X152495720Y-158704280D02*
X153300000Y-157900000D01*
X178943000Y-108712000D02*
X180442000Y-108712000D01*
X180442000Y-108712000D02*
X180454000Y-108700000D01*
X212000000Y-108712000D02*
X212000000Y-108875000D01*
X212000000Y-108875000D02*
X213150000Y-110025000D01*
X214286000Y-108889000D02*
X213150000Y-110025000D01*
X214286000Y-108712000D02*
X214286000Y-108889000D01*
X218440000Y-113538000D02*
X220113000Y-113538000D01*
X220113000Y-113538000D02*
X220125000Y-113550000D01*
X192361580Y-138993880D02*
X192361580Y-140236580D01*
X192361580Y-140236580D02*
X192375000Y-140250000D01*
X192361580Y-140263420D02*
X192375000Y-140250000D01*
X192361580Y-141533880D02*
X192361580Y-140263420D01*
X192361580Y-133913880D02*
X190038880Y-133913880D01*
X190038880Y-133913880D02*
X189225000Y-133100000D01*
X189223920Y-133101080D02*
X189225000Y-133100000D01*
X187182760Y-133101080D02*
X189223920Y-133101080D01*
X148300000Y-125100000D02*
X146700000Y-125100000D01*
X145722340Y-126077660D02*
X145722340Y-129214880D01*
X146700000Y-125100000D02*
X145722340Y-126077660D01*
D28*
X162446920Y-107550000D02*
X161513520Y-108483400D01*
X162950000Y-107550000D02*
X162446920Y-107550000D01*
X190705740Y-127200660D02*
X190705740Y-125618240D01*
X185463180Y-120375680D02*
X185463180Y-108803440D01*
X180234740Y-103575000D02*
X175025000Y-103575000D01*
X190705740Y-125618240D02*
X185463180Y-120375680D01*
X185463180Y-108803440D02*
X180234740Y-103575000D01*
X155278980Y-117149880D02*
X153962100Y-117149880D01*
X153962100Y-117149880D02*
X153954480Y-117157500D01*
X153474200Y-106281220D02*
X153395680Y-106281220D01*
X154401300Y-107208320D02*
X153474200Y-106281220D01*
X157774300Y-155861680D02*
X157772100Y-155859480D01*
X157774300Y-157715880D02*
X157774300Y-155861680D01*
X157772100Y-161295080D02*
X158762700Y-161295080D01*
X159397700Y-161930080D02*
X159397700Y-163842480D01*
X158762700Y-161295080D02*
X159397700Y-161930080D01*
X149263100Y-155199080D02*
X152768300Y-155199080D01*
X152768300Y-155199080D02*
X155969220Y-158400000D01*
X155969220Y-158400000D02*
X159625000Y-158400000D01*
X147561300Y-158704280D02*
X147535900Y-158678880D01*
X149288500Y-158704280D02*
X147561300Y-158704280D01*
X150660100Y-162158680D02*
X150643700Y-162142280D01*
X158960700Y-159791280D02*
X152367100Y-159791280D01*
X152367100Y-159791280D02*
X151218900Y-160939480D01*
X150643700Y-162142280D02*
X149272100Y-162142280D01*
X151218900Y-160939480D02*
X151218900Y-161599880D01*
X151218900Y-161599880D02*
X150660100Y-162158680D01*
X236677200Y-162458400D02*
X236677200Y-157632400D01*
X236677200Y-157632400D02*
X236677200Y-157632400D01*
X241613800Y-201177000D02*
X250393200Y-192397600D01*
X250393200Y-177756820D02*
X249313700Y-176677320D01*
X250393200Y-192397600D02*
X250393200Y-177756820D01*
X205130400Y-178104800D02*
X205130400Y-178104800D01*
X205130400Y-178104800D02*
X208668620Y-178104800D01*
X164468104Y-129992055D02*
X164423600Y-129987040D01*
X164548297Y-130030674D02*
X164510376Y-130006847D01*
X164579966Y-130062343D02*
X164548297Y-130030674D01*
X164643406Y-130273817D02*
X164628614Y-130231545D01*
X164667233Y-130311738D02*
X164643406Y-130273817D01*
X164698902Y-130343407D02*
X164667233Y-130311738D01*
X164736823Y-130367234D02*
X164698902Y-130343407D01*
X164779095Y-130382026D02*
X164736823Y-130367234D01*
X164823600Y-130387040D02*
X164779095Y-130382026D01*
X164923600Y-130387040D02*
X164823600Y-130387040D01*
X165010376Y-130367234D02*
X164968104Y-130382026D01*
X165048297Y-130343407D02*
X165010376Y-130367234D01*
X165118585Y-130231545D02*
X165103793Y-130273817D01*
X165123600Y-130187040D02*
X165118585Y-130231545D01*
X165123600Y-129937040D02*
X165123600Y-130187040D01*
X165124853Y-129925913D02*
X165123600Y-129937040D01*
X165134508Y-129905865D02*
X165128551Y-129915345D01*
X165142425Y-129897948D02*
X165134508Y-129905865D01*
X165151905Y-129891991D02*
X165142425Y-129897948D01*
X165584726Y-129888293D02*
X165573600Y-129887040D01*
X165595294Y-129891991D02*
X165584726Y-129888293D01*
X165604774Y-129897948D02*
X165595294Y-129891991D01*
X165618648Y-129915345D02*
X165612691Y-129905865D01*
X165622346Y-129925913D02*
X165618648Y-129915345D01*
X165634508Y-129968214D02*
X165628551Y-129958734D01*
X165642425Y-129976131D02*
X165634508Y-129968214D01*
X165662473Y-129985786D02*
X165651905Y-129982088D01*
X165973600Y-129987040D02*
X165673600Y-129987040D01*
X165995852Y-129989548D02*
X165973600Y-129987040D01*
X166016988Y-129996944D02*
X165995852Y-129989548D01*
X166051783Y-130024692D02*
X166035948Y-130008857D01*
X166063696Y-130043652D02*
X166051783Y-130024692D01*
X166071092Y-130064788D02*
X166063696Y-130043652D01*
X166076107Y-130109293D02*
X166071092Y-130064788D01*
X166095416Y-130149389D02*
X166083503Y-130130429D01*
X166111251Y-130165224D02*
X166095416Y-130149389D01*
X166130211Y-130177137D02*
X166111251Y-130165224D01*
X166151347Y-130184533D02*
X166130211Y-130177137D01*
X166173600Y-130187040D02*
X166151347Y-130184533D01*
X166495852Y-130184533D02*
X166473600Y-130187040D01*
X166516988Y-130177137D02*
X166495852Y-130184533D01*
X166571092Y-130109293D02*
X166563696Y-130130429D01*
X166576107Y-130064788D02*
X166571092Y-130109293D01*
X166583503Y-130043652D02*
X166576107Y-130064788D01*
X166595416Y-130024692D02*
X166583503Y-130043652D01*
X166611251Y-130008857D02*
X166595416Y-130024692D01*
X166630211Y-129996944D02*
X166611251Y-130008857D01*
X166862541Y-129991428D02*
X166823600Y-129987040D01*
X166932710Y-130025220D02*
X166899529Y-130004371D01*
X166981269Y-130086111D02*
X166960420Y-130052930D01*
X167002987Y-130200982D02*
X166994212Y-130123099D01*
X167064489Y-130298861D02*
X167036779Y-130271151D01*
X167134658Y-130332653D02*
X167097670Y-130319710D01*
X167173600Y-130337040D02*
X167134658Y-130332653D01*
X167362541Y-130332653D02*
X167323600Y-130337040D01*
X166535948Y-130165224D02*
X166516988Y-130177137D01*
X167399529Y-130319710D02*
X167362541Y-130332653D01*
X167432710Y-130298861D02*
X167399529Y-130319710D01*
X164423600Y-129987040D02*
X163746180Y-129987040D01*
X167515930Y-130086111D02*
X167502987Y-130123099D01*
X170773600Y-129987040D02*
X170673600Y-129987040D01*
X171878614Y-130231545D02*
X171868585Y-130142536D01*
X165079966Y-130311738D02*
X165048297Y-130343407D01*
X173819820Y-129984500D02*
X173817280Y-129987040D01*
X172353793Y-130273817D02*
X172329966Y-130311738D01*
X166563696Y-130130429D02*
X166551783Y-130149389D01*
X170517233Y-130062343D02*
X170493406Y-130100264D01*
X171398297Y-130343407D02*
X171360376Y-130367234D01*
X165162473Y-129888293D02*
X165151905Y-129891991D01*
X168493406Y-130100264D02*
X168478614Y-130142536D01*
X170953793Y-130100264D02*
X170929966Y-130062343D01*
X171493406Y-130100264D02*
X171478614Y-130142536D01*
X170968585Y-130142536D02*
X170953793Y-130100264D01*
X171517233Y-130062343D02*
X171493406Y-130100264D01*
X164603793Y-130100264D02*
X164579966Y-130062343D01*
X167673600Y-129987040D02*
X167634658Y-129991428D01*
X166899529Y-130004371D02*
X166862541Y-129991428D01*
X171586823Y-130006847D02*
X171548902Y-130030674D01*
X169086823Y-130367234D02*
X169048902Y-130343407D01*
X165651905Y-129982088D02*
X165642425Y-129976131D01*
X171829966Y-130062343D02*
X171798297Y-130030674D01*
X172948600Y-129987040D02*
X172931910Y-129985159D01*
X172389962Y-129865278D02*
X172381027Y-129879498D01*
X164628614Y-130231545D02*
X164618585Y-130142536D01*
X171917233Y-130311738D02*
X171893406Y-130273817D01*
X165624853Y-129948166D02*
X165622346Y-129925913D01*
X172845361Y-129853402D02*
X172831141Y-129844467D01*
X171468585Y-130231545D02*
X171453793Y-130273817D01*
X170898297Y-130030674D02*
X170860376Y-130006847D01*
X172815289Y-129838920D02*
X172798600Y-129837040D01*
X172857237Y-129865278D02*
X172845361Y-129853402D01*
X165612691Y-129905865D02*
X165604774Y-129897948D01*
X172073600Y-130387040D02*
X172029095Y-130382026D01*
X172831141Y-129844467D02*
X172815289Y-129838920D01*
X170818104Y-129992055D02*
X170773600Y-129987040D01*
X171429966Y-130311738D02*
X171398297Y-130343407D01*
X172901838Y-129970677D02*
X172889962Y-129958801D01*
X172298297Y-130343407D02*
X172260376Y-130367234D01*
X165173600Y-129887040D02*
X165162473Y-129888293D01*
X169398297Y-130343407D02*
X169360376Y-130367234D01*
X164510376Y-130006847D02*
X164468104Y-129992055D01*
X171798297Y-130030674D02*
X171760376Y-130006847D01*
X171893406Y-130273817D02*
X171878614Y-130231545D01*
X169173600Y-130387040D02*
X169129095Y-130382026D01*
X166035948Y-130008857D02*
X166016988Y-129996944D01*
X171478614Y-130142536D02*
X171468585Y-130231545D01*
X169953793Y-130100264D02*
X169929966Y-130062343D01*
X172173600Y-130387040D02*
X172073600Y-130387040D01*
X171017233Y-130311738D02*
X170993406Y-130273817D01*
X170478614Y-130142536D02*
X170468585Y-130231545D01*
X172866172Y-129879498D02*
X172857237Y-129865278D01*
X171048902Y-130343407D02*
X171017233Y-130311738D01*
X171673600Y-129987040D02*
X171629095Y-129992055D01*
X171548902Y-130030674D02*
X171517233Y-130062343D01*
X170978614Y-130231545D02*
X170968585Y-130142536D01*
X170629095Y-129992055D02*
X170586823Y-130006847D01*
X171318104Y-130382026D02*
X171273600Y-130387040D01*
X172798600Y-129837040D02*
X172448600Y-129837040D01*
X172329966Y-130311738D02*
X172298297Y-130343407D01*
X172889962Y-129958801D02*
X172881027Y-129944581D01*
X171173600Y-130387040D02*
X171129095Y-130382026D01*
X170548902Y-130030674D02*
X170517233Y-130062343D01*
X166083503Y-130130429D02*
X166076107Y-130109293D01*
X171129095Y-130382026D02*
X171086823Y-130367234D01*
X171760376Y-130006847D02*
X171718104Y-129992055D01*
X166673600Y-129987040D02*
X166651347Y-129989548D01*
X168360376Y-130367234D02*
X168318104Y-130382026D01*
X172871719Y-129895350D02*
X172866172Y-129879498D01*
X173817280Y-129987040D02*
X172948600Y-129987040D01*
X167097670Y-130319710D02*
X167064489Y-130298861D01*
X172916058Y-129979612D02*
X172901838Y-129970677D01*
X171868585Y-130142536D02*
X171853793Y-130100264D01*
X167993406Y-130273817D02*
X167978614Y-130231545D01*
X166651347Y-129989548D02*
X166630211Y-129996944D01*
X172368585Y-130231545D02*
X172353793Y-130273817D01*
X168548902Y-130030674D02*
X168517233Y-130062343D01*
X165573600Y-129887040D02*
X165173600Y-129887040D01*
X171360376Y-130367234D02*
X171318104Y-130382026D01*
X165128551Y-129915345D02*
X165124853Y-129925913D01*
X170493406Y-130100264D02*
X170478614Y-130142536D01*
X170929966Y-130062343D02*
X170898297Y-130030674D01*
X169773600Y-129987040D02*
X169673600Y-129987040D01*
X166823600Y-129987040D02*
X166673600Y-129987040D01*
X168398297Y-130343407D02*
X168360376Y-130367234D01*
X172373600Y-129912040D02*
X172373600Y-130187040D01*
X172375480Y-129895350D02*
X172373600Y-129912040D01*
X164968104Y-130382026D02*
X164923600Y-130387040D01*
X168898297Y-130030674D02*
X168860376Y-130006847D01*
X172431910Y-129838920D02*
X172416058Y-129844467D01*
X169898297Y-130030674D02*
X169860376Y-130006847D01*
X165628551Y-129958734D02*
X165624853Y-129948166D01*
X169629095Y-129992055D02*
X169586823Y-130006847D01*
X166473600Y-130187040D02*
X166173600Y-130187040D01*
X171453793Y-130273817D02*
X171429966Y-130311738D01*
X170860376Y-130006847D02*
X170818104Y-129992055D01*
X172381027Y-129879498D02*
X172375480Y-129895350D01*
X165673600Y-129987040D02*
X165662473Y-129985786D01*
X172029095Y-130382026D02*
X171986823Y-130367234D01*
X169273600Y-130387040D02*
X169173600Y-130387040D01*
X167323600Y-130337040D02*
X167173600Y-130337040D01*
X167898297Y-130030674D02*
X167860376Y-130006847D01*
X172260376Y-130367234D02*
X172218104Y-130382026D01*
X172218104Y-130382026D02*
X172173600Y-130387040D01*
X167860376Y-130006847D02*
X167818104Y-129992055D01*
X171948902Y-130343407D02*
X171917233Y-130311738D01*
X172931910Y-129985159D02*
X172916058Y-129979612D01*
X169968585Y-130142536D02*
X169953793Y-130100264D01*
X164618585Y-130142536D02*
X164603793Y-130100264D01*
X170468585Y-130231545D02*
X170453793Y-130273817D01*
X170129095Y-130382026D02*
X170086823Y-130367234D01*
X168673600Y-129987040D02*
X168629095Y-129992055D01*
X170453793Y-130273817D02*
X170429966Y-130311738D01*
X170086823Y-130367234D02*
X170048902Y-130343407D01*
X168953793Y-130100264D02*
X168929966Y-130062343D01*
X170429966Y-130311738D02*
X170398297Y-130343407D01*
X170048902Y-130343407D02*
X170017233Y-130311738D01*
X170398297Y-130343407D02*
X170360376Y-130367234D01*
X169360376Y-130367234D02*
X169318104Y-130382026D01*
X170360376Y-130367234D02*
X170318104Y-130382026D01*
X166994212Y-130123099D02*
X166981269Y-130086111D01*
X170318104Y-130382026D02*
X170273600Y-130387040D01*
X167929966Y-130062343D02*
X167898297Y-130030674D01*
X169673600Y-129987040D02*
X169629095Y-129992055D01*
X170273600Y-130387040D02*
X170173600Y-130387040D01*
X168048902Y-130343407D02*
X168017233Y-130311738D01*
X172448600Y-129837040D02*
X172431910Y-129838920D01*
X170173600Y-130387040D02*
X170129095Y-130382026D01*
X166551783Y-130149389D02*
X166535948Y-130165224D01*
X170017233Y-130311738D02*
X169993406Y-130273817D01*
X169993406Y-130273817D02*
X169978614Y-130231545D01*
X168929966Y-130062343D02*
X168898297Y-130030674D01*
X167502987Y-130123099D02*
X167494212Y-130200982D01*
X169978614Y-130231545D02*
X169968585Y-130142536D01*
X169929966Y-130062343D02*
X169898297Y-130030674D01*
X166960420Y-130052930D02*
X166932710Y-130025220D01*
X168478614Y-130142536D02*
X168468585Y-130231545D01*
X171986823Y-130367234D02*
X171948902Y-130343407D01*
X169860376Y-130006847D02*
X169818104Y-129992055D01*
X171273600Y-130387040D02*
X171173600Y-130387040D01*
X170586823Y-130006847D02*
X170548902Y-130030674D01*
X169818104Y-129992055D02*
X169773600Y-129987040D01*
X169586823Y-130006847D02*
X169548902Y-130030674D01*
X169548902Y-130030674D02*
X169517233Y-130062343D01*
X169517233Y-130062343D02*
X169493406Y-130100264D01*
X168129095Y-130382026D02*
X168086823Y-130367234D01*
X169493406Y-130100264D02*
X169478614Y-130142536D01*
X168086823Y-130367234D02*
X168048902Y-130343407D01*
X169478614Y-130142536D02*
X169468585Y-130231545D01*
X169468585Y-130231545D02*
X169453793Y-130273817D01*
X169453793Y-130273817D02*
X169429966Y-130311738D01*
X170673600Y-129987040D02*
X170629095Y-129992055D01*
X169429966Y-130311738D02*
X169398297Y-130343407D01*
X167978614Y-130231545D02*
X167968585Y-130142536D01*
X169318104Y-130382026D02*
X169273600Y-130387040D01*
X171629095Y-129992055D02*
X171586823Y-130006847D01*
X169129095Y-130382026D02*
X169086823Y-130367234D01*
X169048902Y-130343407D02*
X169017233Y-130311738D01*
X169017233Y-130311738D02*
X168993406Y-130273817D01*
X167634658Y-129991428D02*
X167597670Y-130004371D01*
X168993406Y-130273817D02*
X168978614Y-130231545D01*
X172401838Y-129853402D02*
X172389962Y-129865278D01*
X168978614Y-130231545D02*
X168968585Y-130142536D01*
X172881027Y-129944581D02*
X172875480Y-129928729D01*
X168968585Y-130142536D02*
X168953793Y-130100264D01*
X168860376Y-130006847D02*
X168818104Y-129992055D01*
X171086823Y-130367234D02*
X171048902Y-130343407D01*
X171718104Y-129992055D02*
X171673600Y-129987040D01*
X168818104Y-129992055D02*
X168773600Y-129987040D01*
X168773600Y-129987040D02*
X168673600Y-129987040D01*
X167036779Y-130271151D02*
X167015930Y-130237970D01*
X168629095Y-129992055D02*
X168586823Y-130006847D01*
X167015930Y-130237970D02*
X167002987Y-130200982D01*
X171853793Y-130100264D02*
X171829966Y-130062343D01*
X168586823Y-130006847D02*
X168548902Y-130030674D01*
X168517233Y-130062343D02*
X168493406Y-130100264D01*
X167597670Y-130004371D02*
X167564489Y-130025220D01*
X167481269Y-130237970D02*
X167460420Y-130271151D01*
X168468585Y-130231545D02*
X168453793Y-130273817D01*
X170993406Y-130273817D02*
X170978614Y-130231545D01*
X168453793Y-130273817D02*
X168429966Y-130311738D01*
X168429966Y-130311738D02*
X168398297Y-130343407D01*
X168318104Y-130382026D02*
X168273600Y-130387040D01*
X168273600Y-130387040D02*
X168173600Y-130387040D01*
X165103793Y-130273817D02*
X165079966Y-130311738D01*
X168173600Y-130387040D02*
X168129095Y-130382026D01*
X168017233Y-130311738D02*
X167993406Y-130273817D01*
X167968585Y-130142536D02*
X167953793Y-130100264D01*
X167953793Y-130100264D02*
X167929966Y-130062343D01*
X172416058Y-129844467D02*
X172401838Y-129853402D01*
X167818104Y-129992055D02*
X167773600Y-129987040D01*
X172373600Y-130187040D02*
X172368585Y-130231545D01*
X167773600Y-129987040D02*
X167673600Y-129987040D01*
X167460420Y-130271151D02*
X167432710Y-130298861D01*
X172875480Y-129928729D02*
X172871719Y-129895350D01*
X167564489Y-130025220D02*
X167536779Y-130052930D01*
X167536779Y-130052930D02*
X167515930Y-130086111D01*
X167494212Y-130200982D02*
X167481269Y-130237970D01*
X177087040Y-129987040D02*
X177825000Y-130725000D01*
X173817280Y-129987040D02*
X177087040Y-129987040D01*
X153357580Y-121531160D02*
X153357580Y-121539000D01*
X154322560Y-120566180D02*
X153357580Y-121531160D01*
X250878340Y-177276760D02*
X254546100Y-177276760D01*
X237947200Y-164345620D02*
X250878340Y-177276760D01*
X237947200Y-157784800D02*
X237947200Y-164345620D01*
X224993200Y-151638000D02*
X231800400Y-151638000D01*
X231800400Y-151638000D02*
X237947200Y-157784800D01*
X209092800Y-121564400D02*
X215188800Y-121564400D01*
X176138840Y-125145800D02*
X177952400Y-125145800D01*
X177952400Y-125145800D02*
X178539140Y-125732540D01*
X179468840Y-128425000D02*
X181117137Y-128425000D01*
X178539140Y-127495300D02*
X179468840Y-128425000D01*
X178539140Y-125732540D02*
X178539140Y-127495300D01*
X221894400Y-120650000D02*
X208330800Y-120650000D01*
X173809660Y-127571500D02*
X159461200Y-127571500D01*
X153242700Y-133790000D02*
X143630000Y-133790000D01*
X159461200Y-127571500D02*
X153242700Y-133790000D01*
X182372000Y-111887000D02*
X177673000Y-111887000D01*
X177818000Y-111887000D02*
X178943000Y-110762000D01*
X177673000Y-111887000D02*
X177818000Y-111887000D01*
X234645200Y-134264400D02*
X235052501Y-133857099D01*
X234645200Y-136347200D02*
X234645200Y-136347200D01*
X235052501Y-133310999D02*
X235902500Y-132461000D01*
X235052501Y-133857099D02*
X235052501Y-133310999D01*
X234645200Y-136347200D02*
X234645200Y-134264400D01*
X234645200Y-136347200D02*
X234645200Y-139903200D01*
X235178602Y-140436602D02*
X235178602Y-140792200D01*
X234645200Y-139903200D02*
X235178602Y-140436602D01*
X234569000Y-136423400D02*
X234645200Y-136347200D01*
X214376000Y-136398000D02*
X216306400Y-134467600D01*
X216306400Y-134467600D02*
X217474800Y-134467600D01*
X217474800Y-134467600D02*
X219430600Y-136423400D01*
X219430600Y-136423400D02*
X234569000Y-136423400D01*
X206710280Y-121556780D02*
X205795880Y-120642380D01*
X205795880Y-120642380D02*
X187658300Y-120642380D01*
X187658300Y-120642380D02*
X186063180Y-119047260D01*
X243535200Y-195861200D02*
X243812800Y-196138800D01*
X243535200Y-191922400D02*
X243535200Y-195861200D01*
X242976400Y-191363600D02*
X243535200Y-191922400D01*
X220847799Y-172435399D02*
X220847799Y-171978199D01*
X233984800Y-189687200D02*
X233984800Y-185572400D01*
X220847799Y-171978199D02*
X220522800Y-171653200D01*
X233984800Y-185572400D02*
X220847799Y-172435399D01*
X221183200Y-174752000D02*
X221183200Y-179679600D01*
X232189020Y-171371260D02*
X232189020Y-171371260D01*
X234594400Y-171371260D02*
X232189020Y-171371260D01*
X235033820Y-171810680D02*
X234594400Y-171371260D01*
X235033820Y-176105820D02*
X235033820Y-171810680D01*
X242806220Y-187037980D02*
X242806220Y-186578361D01*
X242788440Y-183860440D02*
X235033820Y-176105820D01*
X242806220Y-186578361D02*
X242788440Y-186560581D01*
X242788440Y-186560581D02*
X242788440Y-183860440D01*
X250952000Y-161284920D02*
X250959620Y-161292540D01*
X244944900Y-160124140D02*
X250489720Y-160124140D01*
X250959620Y-160594040D02*
X250959620Y-161292540D01*
X250489720Y-160124140D02*
X250959620Y-160594040D01*
X239698000Y-191338200D02*
X236880400Y-191338200D01*
X236880400Y-191338200D02*
X234518200Y-188976000D01*
X234518200Y-188976000D02*
X234518200Y-185496200D01*
X234518200Y-185496200D02*
X227787200Y-178765200D01*
X227787200Y-178765200D02*
X227787200Y-172923200D01*
X227787200Y-172923200D02*
X227203000Y-172339000D01*
X227203000Y-172339000D02*
X225577400Y-172339000D01*
X225577400Y-172339000D02*
X225577400Y-172339000D01*
X225552000Y-171399200D02*
X225552000Y-171399200D01*
X227380800Y-171399200D02*
X228219000Y-172237400D01*
X234950000Y-186975002D02*
X238299998Y-190325000D01*
X228219000Y-178562000D02*
X234950000Y-185293000D01*
X228219000Y-172237400D02*
X228219000Y-178562000D01*
X225552000Y-171399200D02*
X227380800Y-171399200D01*
X234950000Y-185293000D02*
X234950000Y-186975002D01*
X185132760Y-136449020D02*
X185115200Y-136466580D01*
X185132760Y-133101080D02*
X185132760Y-136449020D01*
X192348880Y-136466580D02*
X192361580Y-136453880D01*
X187165200Y-136466580D02*
X192348880Y-136466580D01*
D34*
X247738900Y-179047140D02*
X249298460Y-179047140D01*
D28*
X249298460Y-179047140D02*
X249326400Y-179019200D01*
X237185200Y-183667400D02*
X239600740Y-183667400D01*
X239600740Y-183667400D02*
X239608360Y-183659780D01*
X204650340Y-159318740D02*
X204650340Y-155691840D01*
X197411580Y-148453080D02*
X204650340Y-155691840D01*
X197411580Y-144073880D02*
X197411580Y-148453080D01*
X204650340Y-155691840D02*
X206395320Y-153946860D01*
X206395320Y-153946860D02*
X206413100Y-153946860D01*
X209344260Y-149161500D02*
X210947000Y-149161500D01*
X223387920Y-150947120D02*
X223387920Y-150451820D01*
X232664000Y-160223200D02*
X223387920Y-150947120D01*
X207294260Y-149161500D02*
X206634080Y-149161500D01*
X206634080Y-149161500D02*
X203052680Y-145580100D01*
X203052680Y-145580100D02*
X203052680Y-140418820D01*
X203052680Y-140418820D02*
X201063860Y-138430000D01*
X201063860Y-138430000D02*
X201063860Y-134884160D01*
X200093580Y-133913880D02*
X197411580Y-133913880D01*
X201063860Y-134884160D02*
X200093580Y-133913880D01*
X210134200Y-159324040D02*
X210134200Y-156220160D01*
X210134200Y-156220160D02*
X210131660Y-156217620D01*
X210131660Y-155214320D02*
X210131660Y-156217620D01*
X201066400Y-146149060D02*
X210131660Y-155214320D01*
X201066400Y-142008860D02*
X201066400Y-146149060D01*
X195084700Y-136453880D02*
X194800220Y-136738360D01*
X199263000Y-140205460D02*
X201066400Y-142008860D01*
X194800220Y-136738360D02*
X194800220Y-139639040D01*
X194800220Y-139639040D02*
X195366640Y-140205460D01*
X197411580Y-136453880D02*
X195084700Y-136453880D01*
X195366640Y-140205460D02*
X199263000Y-140205460D01*
X207375760Y-157073600D02*
X207375760Y-156301440D01*
X207375760Y-156301440D02*
X208892140Y-154785060D01*
X208798160Y-154785060D02*
X208777840Y-154764740D01*
X208892140Y-154785060D02*
X208798160Y-154785060D01*
X200017380Y-146309080D02*
X208493360Y-154785060D01*
X208493360Y-154785060D02*
X208892140Y-154785060D01*
X200017380Y-142875000D02*
X200017380Y-146309080D01*
X197411580Y-141533880D02*
X198676260Y-141533880D01*
X198676260Y-141533880D02*
X200017380Y-142875000D01*
X205130400Y-169316400D02*
X205130400Y-169316400D01*
X208297778Y-169265600D02*
X208376518Y-169344340D01*
X204063600Y-169265600D02*
X208297778Y-169265600D01*
X245150070Y-166217598D02*
X250075698Y-166217598D01*
X250974860Y-167116760D02*
X250974860Y-168259760D01*
X250075698Y-166217598D02*
X250974860Y-167116760D01*
X235559600Y-164896800D02*
X235559600Y-157632388D01*
X207492600Y-120108982D02*
X191584582Y-120108982D01*
X191584582Y-120108982D02*
X190525400Y-119049800D01*
D32*
X156451300Y-201183240D02*
X156507180Y-201127360D01*
X156451300Y-208262220D02*
X156451300Y-201183240D01*
X156507180Y-201127360D02*
X156507180Y-198257180D01*
X156507180Y-198257180D02*
X155550000Y-197300000D01*
X155550000Y-197300000D02*
X150150000Y-197300000D01*
X148971000Y-196121000D02*
X148971000Y-193258440D01*
X150150000Y-197300000D02*
X148971000Y-196121000D01*
X175550000Y-111600000D02*
X174257120Y-110307120D01*
X175550000Y-119250000D02*
X175550000Y-111600000D01*
X141700000Y-123200000D02*
X171600000Y-123200000D01*
X174257120Y-110307120D02*
X172112940Y-110307120D01*
X148971000Y-191121000D02*
X147000000Y-189150000D01*
X140850000Y-124050000D02*
X141700000Y-123200000D01*
X171600000Y-123200000D02*
X175550000Y-119250000D01*
X148971000Y-193258440D02*
X148971000Y-191121000D01*
X147000000Y-189150000D02*
X142350000Y-189150000D01*
X142350000Y-189150000D02*
X140850000Y-187650000D01*
X141196860Y-179346860D02*
X140850000Y-179000000D01*
X143896080Y-179346860D02*
X141196860Y-179346860D01*
X140850000Y-187650000D02*
X140850000Y-179000000D01*
X140850000Y-179000000D02*
X140850000Y-124050000D01*
X150896320Y-179346860D02*
X150901400Y-179351940D01*
X143896080Y-179346860D02*
X150896320Y-179346860D01*
X156974540Y-179351940D02*
X156992320Y-179369720D01*
X150901400Y-179351940D02*
X156974540Y-179351940D01*
X156451300Y-208262220D02*
X156451300Y-211451300D01*
X156451300Y-211451300D02*
X157600000Y-212600000D01*
X157600000Y-212600000D02*
X255350000Y-212600000D01*
X255350000Y-212600000D02*
X257850000Y-210100000D01*
X257850000Y-210100000D02*
X257850000Y-195650000D01*
X257850000Y-195650000D02*
X257850000Y-194550000D01*
D28*
X184863740Y-109123480D02*
X180915260Y-105175000D01*
X189900000Y-128275000D02*
X184863740Y-123238740D01*
X184863740Y-123238740D02*
X184863740Y-109123480D01*
X180915260Y-105175000D02*
X175050000Y-105175000D01*
X166926260Y-138780520D02*
X168770300Y-138780520D01*
X162935920Y-163850320D02*
X162900360Y-163885880D01*
X162935920Y-162069780D02*
X162935920Y-163850320D01*
X243245640Y-153014678D02*
X243245642Y-153014680D01*
D29*
X243199999Y-120764379D02*
X243199999Y-136075001D01*
X243199999Y-136075001D02*
X242300000Y-136975000D01*
X239527080Y-117091460D02*
X243199999Y-120764379D01*
X243245640Y-143145642D02*
X242299998Y-142200000D01*
X243245640Y-153014678D02*
X243245640Y-143145642D01*
X243873020Y-119727980D02*
X243873020Y-136972040D01*
X238277400Y-119851940D02*
X238277400Y-116933980D01*
X239520980Y-121095520D02*
X238277400Y-119851940D01*
X240428780Y-116283740D02*
X243873020Y-119727980D01*
X238927640Y-116283740D02*
X240428780Y-116283740D01*
X238277400Y-116933980D02*
X238927640Y-116283740D01*
X243921280Y-152121258D02*
X244799998Y-152999976D01*
X243921280Y-142107920D02*
X243921280Y-152121258D01*
D28*
X202200000Y-112800000D02*
X201850000Y-113150000D01*
X201800000Y-102200000D02*
X202200000Y-102600000D01*
X202200000Y-102600000D02*
X202200000Y-112800000D01*
X206499019Y-109857981D02*
X207010000Y-110368962D01*
X207010000Y-110368962D02*
X207010000Y-111379000D01*
X207010000Y-111379000D02*
X207899000Y-112268000D01*
X205757981Y-107807981D02*
X205757981Y-109857981D01*
X204750000Y-106800000D02*
X205757981Y-107807981D01*
X205757981Y-109857981D02*
X206499019Y-109857981D01*
X205382981Y-109857981D02*
X204850000Y-109325000D01*
X205757981Y-109857981D02*
X205382981Y-109857981D01*
X207899000Y-112268000D02*
X211111000Y-112268000D01*
X229031800Y-178460400D02*
X229031800Y-178460400D01*
D34*
X235483400Y-184912000D02*
X235635800Y-184912000D01*
X229031800Y-178460400D02*
X235483400Y-184912000D01*
X241767360Y-184058560D02*
X241767360Y-185110120D01*
X235102400Y-177393600D02*
X241767360Y-184058560D01*
X235224320Y-182697120D02*
X238958120Y-182697120D01*
X229260400Y-176733200D02*
X235224320Y-182697120D01*
X193530000Y-174091600D02*
X206997300Y-174091600D01*
X206997300Y-174091600D02*
X208313020Y-175407320D01*
D28*
X214835619Y-133146800D02*
X215445219Y-133756400D01*
X235000800Y-130962400D02*
X238043900Y-130962400D01*
X234238800Y-133756400D02*
X234238800Y-133705600D01*
X214376000Y-133146800D02*
X214835619Y-133146800D01*
X234645200Y-133299200D02*
X234645200Y-131318000D01*
X215445219Y-133756400D02*
X234238800Y-133756400D01*
X234238800Y-133705600D02*
X234645200Y-133299200D01*
X238442500Y-131361000D02*
X238442500Y-132461000D01*
X234645200Y-131318000D02*
X235000800Y-130962400D01*
X238043900Y-130962400D02*
X238442500Y-131361000D01*
X218846400Y-131216400D02*
X219913200Y-131216400D01*
X219913200Y-131216400D02*
X220014800Y-131114800D01*
X221856300Y-131114800D02*
X223202500Y-132461000D01*
X220014800Y-131114800D02*
X221856300Y-131114800D01*
X200649840Y-189699900D02*
X203017120Y-189699900D01*
X203017120Y-189699900D02*
X203530200Y-189186820D01*
X203530200Y-189186820D02*
X203530200Y-176740820D01*
X203420980Y-169997120D02*
X203420980Y-156423360D01*
X203420980Y-156423360D02*
X203415900Y-156418280D01*
X201914970Y-161211050D02*
X201912220Y-161208300D01*
X201914970Y-161211050D02*
X202425300Y-160700720D01*
X202425300Y-160700720D02*
X202425300Y-156436060D01*
X201914970Y-161211050D02*
X201914970Y-168760030D01*
X201914970Y-168760030D02*
X201375000Y-169300000D01*
X202714860Y-169303700D02*
X202714860Y-162232340D01*
X202714860Y-162232340D02*
X202709780Y-162227260D01*
X146486880Y-151142700D02*
X146486880Y-150855680D01*
X146486880Y-150855680D02*
X145204180Y-149572980D01*
X145204180Y-149572980D02*
X145204180Y-147609560D01*
X145204180Y-147609560D02*
X145483580Y-147330160D01*
X145483580Y-147330160D02*
X148752560Y-147330160D01*
X148752560Y-147330160D02*
X149809200Y-146273520D01*
X149809200Y-144324243D02*
X150933241Y-143200202D01*
X149809200Y-146273520D02*
X149809200Y-144324243D01*
X163520038Y-143200202D02*
X164367330Y-142352910D01*
X150933241Y-143200202D02*
X163520038Y-143200202D01*
X164367330Y-142352910D02*
X164367330Y-142156180D01*
X164367330Y-131717830D02*
X165221660Y-130863500D01*
X164367330Y-142156180D02*
X164367330Y-131717830D01*
X166835436Y-130629179D02*
X167655240Y-131448983D01*
X165221660Y-130863500D02*
X165455981Y-130629179D01*
X165455981Y-130629179D02*
X166835436Y-130629179D01*
X167655240Y-131448983D02*
X167780797Y-131574540D01*
X167780797Y-131574540D02*
X173814740Y-131574540D01*
X163860480Y-144000220D02*
X165167350Y-142693350D01*
X167248840Y-132173980D02*
X167248840Y-133492240D01*
X143946880Y-151142700D02*
X145435320Y-152631140D01*
X145435320Y-152631140D02*
X148333460Y-152631140D01*
X148333460Y-152631140D02*
X151264620Y-149699980D01*
X166504059Y-131429199D02*
X167248840Y-132173980D01*
X151264620Y-149699980D02*
X151264620Y-144000220D01*
X151264620Y-144000220D02*
X163860480Y-144000220D01*
X167248840Y-133492240D02*
X168281600Y-134525000D01*
X165167350Y-132049208D02*
X165787359Y-131429199D01*
X165167350Y-142693350D02*
X165167350Y-132049208D01*
X165787359Y-131429199D02*
X166504059Y-131429199D01*
X168281600Y-134525000D02*
X178000000Y-134525000D01*
X146486880Y-148602700D02*
X147736560Y-148602700D01*
X148045719Y-148602700D02*
X150209210Y-146439209D01*
X147736560Y-148602700D02*
X148045719Y-148602700D01*
X150209210Y-144489932D02*
X151098930Y-143600212D01*
X150209210Y-146439209D02*
X150209210Y-144489932D01*
X151098930Y-143600212D02*
X163694790Y-143600212D01*
X163694790Y-143600212D02*
X164767340Y-142527662D01*
X164767340Y-142527662D02*
X164767340Y-142252700D01*
X165621670Y-131029189D02*
X166669747Y-131029189D01*
X164767340Y-142252700D02*
X164767340Y-131883519D01*
X164767340Y-131883519D02*
X165621670Y-131029189D01*
X166669747Y-131029189D02*
X167648850Y-132008291D01*
X167648850Y-132008291D02*
X167648850Y-132789890D01*
X167648850Y-132789890D02*
X168016170Y-133157210D01*
X168016170Y-133157210D02*
X178013701Y-133157210D01*
X177967640Y-135582660D02*
X166476680Y-135582660D01*
X165967371Y-144820631D02*
X164508002Y-146280000D01*
X164508002Y-146280000D02*
X153800000Y-146280000D01*
X166476680Y-135582660D02*
X165967371Y-136091969D01*
X165967371Y-136091969D02*
X165967371Y-144820631D01*
X166075360Y-132029200D02*
X165567360Y-132537200D01*
X153564593Y-144608860D02*
X154375733Y-145420000D01*
X163376810Y-145420000D02*
X154500000Y-145420000D01*
X165567360Y-143229450D02*
X163376810Y-145420000D01*
X165567360Y-132537200D02*
X165567360Y-143229450D01*
X154375733Y-145420000D02*
X154500000Y-145420000D01*
X220200000Y-111140000D02*
X220840000Y-111780000D01*
X220200000Y-107425000D02*
X220200000Y-111140000D01*
X196950000Y-101400000D02*
X214175000Y-101400000D01*
X214175000Y-101400000D02*
X220200000Y-107425000D01*
X222890000Y-102050000D02*
X223390000Y-101550000D01*
X217540840Y-102257860D02*
X217748700Y-102050000D01*
X217748700Y-102050000D02*
X222890000Y-102050000D01*
D33*
X228725000Y-104625000D02*
X229230320Y-104119680D01*
X228725000Y-112350000D02*
X228725000Y-104625000D01*
X229230320Y-104119680D02*
X231048560Y-104119680D01*
X199169619Y-119380718D02*
X199188912Y-119400011D01*
X198710000Y-119380718D02*
X199169619Y-119380718D01*
X199188912Y-119400011D02*
X221686400Y-119400011D01*
X221686400Y-119400011D02*
X223586520Y-117499891D01*
X223586520Y-117499891D02*
X223586520Y-117488480D01*
X223586520Y-117488480D02*
X228725000Y-112350000D01*
X234979680Y-101579680D02*
X233588560Y-101579680D01*
X235225000Y-101825000D02*
X234979680Y-101579680D01*
X229800000Y-105400000D02*
X234700000Y-105400000D01*
X222000000Y-122475000D02*
X223100000Y-121375000D01*
X201100000Y-122475000D02*
X222000000Y-122475000D01*
X229250000Y-105950000D02*
X229800000Y-105400000D01*
X223100000Y-121375000D02*
X223100000Y-118725000D01*
X234700000Y-105400000D02*
X235225000Y-104875000D01*
X223100000Y-118725000D02*
X229250000Y-112575000D01*
X235225000Y-104875000D02*
X235225000Y-101825000D01*
X229250000Y-112575000D02*
X229250000Y-105950000D01*
X228274990Y-102125010D02*
X228820320Y-101579680D01*
X228274990Y-112163600D02*
X228274990Y-102125010D01*
X223136511Y-117302079D02*
X228274990Y-112163600D01*
X223136510Y-117313491D02*
X223136511Y-117302079D01*
X213623420Y-118950000D02*
X221500000Y-118950000D01*
X202505760Y-118156540D02*
X203850240Y-116812060D01*
X228820320Y-101579680D02*
X231048560Y-101579680D01*
X197910000Y-118156540D02*
X202505760Y-118156540D01*
X203850240Y-116812060D02*
X203850240Y-114683540D01*
X203850240Y-114683540D02*
X205577440Y-112956340D01*
X221500000Y-118950000D02*
X223136510Y-117313491D01*
X205577440Y-112956340D02*
X207629760Y-112956340D01*
X207629760Y-112956340D02*
X213623420Y-118950000D01*
D28*
X199852280Y-138993880D02*
X197411580Y-138993880D01*
X201924920Y-141066520D02*
X199852280Y-138993880D01*
X201924920Y-145826480D02*
X201924920Y-141066520D01*
X210972400Y-155572460D02*
X210972400Y-154873960D01*
X210972400Y-154873960D02*
X201924920Y-145826480D01*
X143896080Y-166646860D02*
X147657980Y-170408760D01*
X167706040Y-170408600D02*
X168567822Y-170408600D01*
X147657980Y-170408760D02*
X167705880Y-170408760D01*
X167705880Y-170408760D02*
X167706040Y-170408600D01*
X168567822Y-170408600D02*
X168897380Y-170079042D01*
X168897380Y-159634561D02*
X169555882Y-158976060D01*
X168897380Y-170079042D02*
X168897380Y-159634561D01*
X169550420Y-158970598D02*
X169550420Y-137975000D01*
X169555882Y-158976060D02*
X169550420Y-158970598D01*
X170454318Y-158643322D02*
X170454318Y-136362440D01*
X169297390Y-159800250D02*
X170454318Y-158643322D01*
X143896080Y-169186860D02*
X145098161Y-169186860D01*
X145098161Y-169186860D02*
X146720071Y-170808770D01*
X169297390Y-170244730D02*
X169297390Y-159800250D01*
X146720071Y-170808770D02*
X168733350Y-170808770D01*
X168733350Y-170808770D02*
X169297390Y-170244730D01*
X176320428Y-153974994D02*
X179050000Y-153974994D01*
X143896080Y-171726860D02*
X144014150Y-171608790D01*
X170202860Y-160092562D02*
X176320428Y-153974994D01*
X170202860Y-170901360D02*
X170202860Y-160092562D01*
X169495430Y-171608790D02*
X170202860Y-170901360D01*
X144014150Y-171608790D02*
X169495430Y-171608790D01*
X142933420Y-170456860D02*
X145653760Y-170456860D01*
X168899039Y-171208781D02*
X169697401Y-170410419D01*
X169697401Y-159965939D02*
X171183300Y-158480040D01*
X169697401Y-170410419D02*
X169697401Y-159965939D01*
X171183300Y-158480040D02*
X171183300Y-137175240D01*
X146405680Y-171208780D02*
X168899039Y-171208781D01*
X143896080Y-174266860D02*
X142354300Y-172725080D01*
X145653760Y-170456860D02*
X146405680Y-171208780D01*
X142354300Y-171035980D02*
X142933420Y-170456860D01*
X142354300Y-172725080D02*
X142354300Y-171035980D01*
X143896080Y-176806860D02*
X143896080Y-176448720D01*
X170691850Y-160169271D02*
X175286121Y-155575000D01*
X175286121Y-155575000D02*
X179050000Y-155575000D01*
X169877740Y-172008800D02*
X170691850Y-171194690D01*
X170691850Y-171194690D02*
X170691850Y-160169271D01*
X148694140Y-172008800D02*
X169877740Y-172008800D01*
X143896080Y-176806860D02*
X148694140Y-172008800D01*
X173512831Y-159575500D02*
X173517513Y-159580182D01*
X156591000Y-193258440D02*
X156591000Y-191828420D01*
X156591000Y-191828420D02*
X157446980Y-190972440D01*
X157446980Y-190972440D02*
X170385740Y-190972440D01*
X170385740Y-190972440D02*
X171091860Y-190266320D01*
X171091860Y-190266320D02*
X171091860Y-160334960D01*
X171846638Y-159580182D02*
X173517513Y-159580182D01*
X171091860Y-160334960D02*
X171846638Y-159580182D01*
X193918840Y-167680640D02*
X193918840Y-162219640D01*
X188269880Y-173329600D02*
X193918840Y-167680640D01*
X188269880Y-173339760D02*
X188269880Y-173329600D01*
X172730160Y-177068480D02*
X175066960Y-174731680D01*
X172730160Y-192110360D02*
X172730160Y-177068480D01*
X157764480Y-207035400D02*
X157764480Y-199478900D01*
X175066960Y-174731680D02*
X186877960Y-174731680D01*
X158991300Y-208262220D02*
X157764480Y-207035400D01*
X171594780Y-193253360D02*
X171594780Y-193245740D01*
X186877960Y-174731680D02*
X188269880Y-173339760D01*
X157764480Y-199478900D02*
X158556960Y-198686420D01*
X158556960Y-198686420D02*
X166161720Y-198686420D01*
X171594780Y-193245740D02*
X172730160Y-192110360D01*
X166161720Y-198686420D02*
X171594780Y-193253360D01*
X161531300Y-208262220D02*
X167215820Y-208262220D01*
X187622180Y-177749200D02*
X198700000Y-166671380D01*
X198700000Y-166671380D02*
X198700000Y-161725000D01*
X179247800Y-177749200D02*
X187622180Y-177749200D01*
X179247800Y-196230240D02*
X179247800Y-177749200D01*
X167215820Y-208262220D02*
X179247800Y-196230240D01*
X195050000Y-167799160D02*
X195050000Y-162225000D01*
X187137040Y-175712120D02*
X195050000Y-167799160D01*
X161587180Y-201127360D02*
X165315900Y-201127360D01*
X174449740Y-191993520D02*
X174449740Y-177434240D01*
X165315900Y-201127360D02*
X174449740Y-191993520D01*
X174449740Y-177434240D02*
X176171860Y-175712120D01*
X176171860Y-175712120D02*
X187137040Y-175712120D01*
X196314060Y-167573960D02*
X196314060Y-162234880D01*
X187393580Y-176494440D02*
X196314060Y-167573960D01*
X175955960Y-192130680D02*
X175955960Y-178551840D01*
X173012100Y-195074540D02*
X175955960Y-192130680D01*
X175955960Y-178551840D02*
X178013360Y-176494440D01*
X173012100Y-195087240D02*
X173012100Y-195074540D01*
X159047180Y-203669900D02*
X159570420Y-204193140D01*
X159570420Y-204193140D02*
X167086280Y-204193140D01*
X178013360Y-176494440D02*
X187393580Y-176494440D01*
X167086280Y-204193140D02*
X167683180Y-203596240D01*
X159047180Y-201127360D02*
X159047180Y-203669900D01*
X167683180Y-203596240D02*
X167683180Y-200416160D01*
X167683180Y-200416160D02*
X173012100Y-195087240D01*
X183362600Y-109337600D02*
X183362600Y-113685548D01*
X183362600Y-113685548D02*
X181938655Y-115109493D01*
X180781200Y-106756200D02*
X183362600Y-109337600D01*
X181938655Y-115109493D02*
X181938655Y-127215675D01*
X173123860Y-106756200D02*
X180781200Y-106756200D01*
X172112940Y-107767120D02*
X173123860Y-106756200D01*
X173149260Y-106263440D02*
X172112940Y-105227120D01*
X180863440Y-106263440D02*
X173149260Y-106263440D01*
X184132220Y-109532220D02*
X180863440Y-106263440D01*
X184132220Y-113893600D02*
X184132220Y-109532220D01*
X183515000Y-127223520D02*
X183515000Y-114510820D01*
X183515000Y-114510820D02*
X184132220Y-113893600D01*
X176141380Y-123830080D02*
X180065680Y-123830080D01*
X180065680Y-123830080D02*
X180317140Y-124081540D01*
X180317140Y-124081540D02*
X180317140Y-127231140D01*
D33*
X200725000Y-116050000D02*
X201150000Y-116475000D01*
X200725000Y-113100000D02*
X200725000Y-116050000D01*
X208375000Y-118350000D02*
X209312500Y-117412500D01*
X208325000Y-118350000D02*
X208375000Y-118350000D01*
X208479443Y-116345557D02*
X208804442Y-116020558D01*
X207375002Y-117450000D02*
X208479443Y-116345557D01*
D28*
X165732846Y-129453397D02*
X165718054Y-129411125D01*
X165756673Y-129491318D02*
X165732846Y-129453397D01*
X165868535Y-129561606D02*
X165826263Y-129546814D01*
X165913040Y-129566620D02*
X165868535Y-129561606D01*
X166013040Y-129566620D02*
X165913040Y-129566620D01*
X166057544Y-129561606D02*
X166013040Y-129566620D01*
X166137737Y-129522987D02*
X166099816Y-129546814D01*
X166169406Y-129491318D02*
X166137737Y-129522987D01*
X166193233Y-129453397D02*
X166169406Y-129491318D01*
X166213040Y-129366620D02*
X166208025Y-129411125D01*
X166599816Y-128786426D02*
X166557544Y-128771634D01*
X166713040Y-129366620D02*
X166713040Y-128966620D01*
X166718054Y-129411125D02*
X166713040Y-129366620D01*
X167213040Y-128966620D02*
X167213040Y-129366620D01*
X167218054Y-128922115D02*
X167213040Y-128966620D01*
X167232846Y-128879843D02*
X167218054Y-128922115D01*
X167368535Y-128771634D02*
X167326263Y-128786426D01*
X167413040Y-128766620D02*
X167368535Y-128771634D01*
X167513040Y-128766620D02*
X167413040Y-128766620D01*
X167557544Y-128771634D02*
X167513040Y-128766620D01*
X167599816Y-128786426D02*
X167557544Y-128771634D01*
X167637737Y-128810253D02*
X167599816Y-128786426D01*
X167708025Y-128922115D02*
X167693233Y-128879843D01*
X167713040Y-128966620D02*
X167708025Y-128922115D01*
X166713040Y-128966620D02*
X166708025Y-128922115D01*
X167713040Y-129366620D02*
X167713040Y-128966620D01*
X167718054Y-129411125D02*
X167713040Y-129366620D01*
X170708025Y-128922115D02*
X170693233Y-128879843D01*
X169868535Y-129561606D02*
X169826263Y-129546814D01*
X168788342Y-129522987D02*
X168756673Y-129491318D01*
X166868535Y-129561606D02*
X166826263Y-129546814D01*
X170756673Y-129491318D02*
X170732846Y-129453397D01*
X171826263Y-129546814D02*
X171788342Y-129522987D01*
X171057544Y-129561606D02*
X171013040Y-129566620D01*
X172788342Y-129122986D02*
X172756673Y-129091317D01*
X171137737Y-129522987D02*
X171099816Y-129546814D01*
X171213040Y-129366620D02*
X171208025Y-129411125D01*
X170413040Y-128766620D02*
X170368535Y-128771634D01*
X165513040Y-129166620D02*
X164807900Y-129166620D01*
X171213040Y-128966620D02*
X171213040Y-129366620D01*
X171232846Y-128879843D02*
X171218054Y-128922115D01*
X170557544Y-128771634D02*
X170513040Y-128766620D01*
X171288342Y-128810253D02*
X171256673Y-128841922D01*
X165693233Y-129279844D02*
X165669406Y-129241923D01*
X171326263Y-128786426D02*
X171288342Y-128810253D01*
X165708025Y-129322116D02*
X165693233Y-129279844D01*
X171368535Y-128771634D02*
X171326263Y-128786426D01*
X171513040Y-128766620D02*
X171413040Y-128766620D01*
X171718054Y-129411125D02*
X171713040Y-129366620D01*
X168826263Y-129546814D02*
X168788342Y-129522987D01*
X166708025Y-128922115D02*
X166693233Y-128879843D01*
X167669406Y-128841922D02*
X167637737Y-128810253D01*
X170637737Y-128810253D02*
X170599816Y-128786426D01*
X165788342Y-129522987D02*
X165756673Y-129491318D01*
X171599816Y-128786426D02*
X171557544Y-128771634D01*
X167868535Y-129561606D02*
X167826263Y-129546814D01*
X165826263Y-129546814D02*
X165788342Y-129522987D01*
X171637737Y-128810253D02*
X171599816Y-128786426D01*
X167913040Y-129566620D02*
X167868535Y-129561606D01*
X171693233Y-128879843D02*
X171669406Y-128841922D01*
X170788342Y-129522987D02*
X170756673Y-129491318D01*
X171732846Y-129453397D02*
X171718054Y-129411125D01*
X171756673Y-129491318D02*
X171732846Y-129453397D01*
X169232846Y-128879843D02*
X169218054Y-128922115D01*
X166368535Y-128771634D02*
X166326263Y-128786426D01*
X169913040Y-129566620D02*
X169868535Y-129561606D01*
X172669406Y-128841922D02*
X172637737Y-128810253D01*
X169137737Y-129522987D02*
X169099816Y-129546814D01*
X168713040Y-128966620D02*
X168708025Y-128922115D01*
X170693233Y-128879843D02*
X170669406Y-128841922D01*
X166288342Y-128810253D02*
X166256673Y-128841922D01*
X169826263Y-129546814D02*
X169788342Y-129522987D01*
X172708025Y-128922115D02*
X172693233Y-128879843D01*
X166788342Y-129522987D02*
X166756673Y-129491318D01*
X168213040Y-128966620D02*
X168213040Y-129366620D01*
X170718054Y-129411125D02*
X170713040Y-129366620D01*
X167256673Y-128841922D02*
X167232846Y-128879843D01*
X172756673Y-129091317D02*
X172732846Y-129053396D01*
X166756673Y-129491318D02*
X166732846Y-129453397D01*
X170713040Y-129366620D02*
X170713040Y-128966620D01*
X168213040Y-129366620D02*
X168208025Y-129411125D01*
X170599816Y-128786426D02*
X170557544Y-128771634D01*
X166099816Y-129546814D02*
X166057544Y-129561606D01*
X171868535Y-129561606D02*
X171826263Y-129546814D01*
X167137737Y-129522987D02*
X167099816Y-129546814D01*
X171013040Y-129566620D02*
X170913040Y-129566620D01*
X172169406Y-129491318D02*
X172137737Y-129522987D01*
X171169406Y-129491318D02*
X171137737Y-129522987D01*
X173802040Y-129166620D02*
X172913040Y-129166620D01*
X166326263Y-128786426D02*
X166288342Y-128810253D01*
X172513040Y-128766620D02*
X172413040Y-128766620D01*
X172288342Y-128810253D02*
X172256673Y-128841922D01*
X172868535Y-129161605D02*
X172826263Y-129146813D01*
X170669406Y-128841922D02*
X170637737Y-128810253D01*
X166256673Y-128841922D02*
X166232846Y-128879843D01*
X169788342Y-129522987D02*
X169756673Y-129491318D01*
X172732846Y-129053396D02*
X172718054Y-129011124D01*
X168756673Y-129491318D02*
X168732846Y-129453397D01*
X172718054Y-129011124D02*
X172708025Y-128922115D01*
X169368535Y-128771634D02*
X169326263Y-128786426D01*
X172826263Y-129146813D02*
X172788342Y-129122986D01*
X172213040Y-129366620D02*
X172208025Y-129411125D01*
X166208025Y-129411125D02*
X166193233Y-129453397D01*
X172913040Y-129166620D02*
X172868535Y-129161605D01*
X171256673Y-128841922D02*
X171232846Y-128879843D01*
X172137737Y-129522987D02*
X172099816Y-129546814D01*
X167788342Y-129522987D02*
X167756673Y-129491318D01*
X167326263Y-128786426D02*
X167288342Y-128810253D01*
X171708025Y-128922115D02*
X171693233Y-128879843D01*
X171713040Y-128966620D02*
X171708025Y-128922115D01*
X171099816Y-129546814D02*
X171057544Y-129561606D01*
X169599816Y-128786426D02*
X169557544Y-128771634D01*
X172013040Y-129566620D02*
X171913040Y-129566620D01*
X166557544Y-128771634D02*
X166513040Y-128766620D01*
X172326263Y-128786426D02*
X172288342Y-128810253D01*
X171208025Y-129411125D02*
X171193233Y-129453397D01*
X170368535Y-128771634D02*
X170326263Y-128786426D01*
X172557544Y-128771634D02*
X172513040Y-128766620D01*
X170099816Y-129546814D02*
X170057544Y-129561606D01*
X171913040Y-129566620D02*
X171868535Y-129561606D01*
X172057544Y-129561606D02*
X172013040Y-129566620D01*
X167169406Y-129491318D02*
X167137737Y-129522987D01*
X172637737Y-128810253D02*
X172599816Y-128786426D01*
X168513040Y-128766620D02*
X168413040Y-128766620D01*
X172256673Y-128841922D02*
X172232846Y-128879843D01*
X171413040Y-128766620D02*
X171368535Y-128771634D01*
X171669406Y-128841922D02*
X171637737Y-128810253D01*
X172213040Y-128966620D02*
X172213040Y-129366620D01*
X173807120Y-129171700D02*
X173802040Y-129166620D01*
X169256673Y-128841922D02*
X169232846Y-128879843D01*
X165718054Y-129411125D02*
X165708025Y-129322116D01*
X172208025Y-129411125D02*
X172193233Y-129453397D01*
X170232846Y-128879843D02*
X170218054Y-128922115D01*
X171557544Y-128771634D02*
X171513040Y-128766620D01*
X166213040Y-128966620D02*
X166213040Y-129366620D01*
X171788342Y-129522987D02*
X171756673Y-129491318D01*
X167826263Y-129546814D02*
X167788342Y-129522987D01*
X172099816Y-129546814D02*
X172057544Y-129561606D01*
X170326263Y-128786426D02*
X170288342Y-128810253D01*
X171713040Y-129366620D02*
X171713040Y-128966620D01*
X170288342Y-128810253D02*
X170256673Y-128841922D01*
X170256673Y-128841922D02*
X170232846Y-128879843D01*
X170218054Y-128922115D02*
X170213040Y-128966620D01*
X172599816Y-128786426D02*
X172557544Y-128771634D01*
X170213040Y-128966620D02*
X170213040Y-129366620D01*
X170213040Y-129366620D02*
X170208025Y-129411125D01*
X166693233Y-128879843D02*
X166669406Y-128841922D01*
X170208025Y-129411125D02*
X170193233Y-129453397D01*
X166669406Y-128841922D02*
X166637737Y-128810253D01*
X170193233Y-129453397D02*
X170169406Y-129491318D01*
X166637737Y-128810253D02*
X166599816Y-128786426D01*
X170169406Y-129491318D02*
X170137737Y-129522987D01*
X170137737Y-129522987D02*
X170099816Y-129546814D01*
X166513040Y-128766620D02*
X166413040Y-128766620D01*
X172218054Y-128922115D02*
X172213040Y-128966620D01*
X170057544Y-129561606D02*
X170013040Y-129566620D01*
X166413040Y-128766620D02*
X166368535Y-128771634D01*
X170013040Y-129566620D02*
X169913040Y-129566620D01*
X166232846Y-128879843D02*
X166218054Y-128922115D01*
X169756673Y-129491318D02*
X169732846Y-129453397D01*
X168732846Y-129453397D02*
X168718054Y-129411125D01*
X166218054Y-128922115D02*
X166213040Y-128966620D01*
X170513040Y-128766620D02*
X170413040Y-128766620D01*
X169732846Y-129453397D02*
X169718054Y-129411125D01*
X168718054Y-129411125D02*
X168713040Y-129366620D01*
X169718054Y-129411125D02*
X169713040Y-129366620D01*
X169713040Y-129366620D02*
X169713040Y-128966620D01*
X169713040Y-128966620D02*
X169708025Y-128922115D01*
X169708025Y-128922115D02*
X169693233Y-128879843D01*
X169693233Y-128879843D02*
X169669406Y-128841922D01*
X166913040Y-129566620D02*
X166868535Y-129561606D01*
X168256673Y-128841922D02*
X168232846Y-128879843D01*
X169669406Y-128841922D02*
X169637737Y-128810253D01*
X168232846Y-128879843D02*
X168218054Y-128922115D01*
X169637737Y-128810253D02*
X169599816Y-128786426D01*
X169557544Y-128771634D02*
X169513040Y-128766620D01*
X169513040Y-128766620D02*
X169413040Y-128766620D01*
X166732846Y-129453397D02*
X166718054Y-129411125D01*
X170713040Y-128966620D02*
X170708025Y-128922115D01*
X168208025Y-129411125D02*
X168193233Y-129453397D01*
X172368535Y-128771634D02*
X172326263Y-128786426D01*
X169413040Y-128766620D02*
X169368535Y-128771634D01*
X169326263Y-128786426D02*
X169288342Y-128810253D01*
X167693233Y-128879843D02*
X167669406Y-128841922D01*
X169288342Y-128810253D02*
X169256673Y-128841922D01*
X169218054Y-128922115D02*
X169213040Y-128966620D01*
X169213040Y-128966620D02*
X169213040Y-129366620D01*
X165669406Y-129241923D02*
X165637737Y-129210254D01*
X169213040Y-129366620D02*
X169208025Y-129411125D01*
X168193233Y-129453397D02*
X168169406Y-129491318D01*
X165599816Y-129186427D02*
X165557544Y-129171635D01*
X169193233Y-129453397D02*
X169169406Y-129491318D01*
X168169406Y-129491318D02*
X168137737Y-129522987D01*
X165557544Y-129171635D02*
X165513040Y-129166620D01*
X171218054Y-128922115D02*
X171213040Y-128966620D01*
X172232846Y-128879843D02*
X172218054Y-128922115D01*
X169169406Y-129491318D02*
X169137737Y-129522987D01*
X168137737Y-129522987D02*
X168099816Y-129546814D01*
X168013040Y-129566620D02*
X167913040Y-129566620D01*
X168913040Y-129566620D02*
X168868535Y-129561606D01*
X165637737Y-129210254D02*
X165599816Y-129186427D01*
X167288342Y-128810253D02*
X167256673Y-128841922D01*
X169208025Y-129411125D02*
X169193233Y-129453397D01*
X168868535Y-129561606D02*
X168826263Y-129546814D01*
X168713040Y-129366620D02*
X168713040Y-128966620D01*
X172693233Y-128879843D02*
X172669406Y-128841922D01*
X169099816Y-129546814D02*
X169057544Y-129561606D01*
X168708025Y-128922115D02*
X168693233Y-128879843D01*
X169057544Y-129561606D02*
X169013040Y-129566620D01*
X168693233Y-128879843D02*
X168669406Y-128841922D01*
X169013040Y-129566620D02*
X168913040Y-129566620D01*
X171193233Y-129453397D02*
X171169406Y-129491318D01*
X168669406Y-128841922D02*
X168637737Y-128810253D01*
X167213040Y-129366620D02*
X167208025Y-129411125D01*
X168637737Y-128810253D02*
X168599816Y-128786426D01*
X167208025Y-129411125D02*
X167193233Y-129453397D01*
X168599816Y-128786426D02*
X168557544Y-128771634D01*
X167193233Y-129453397D02*
X167169406Y-129491318D01*
X172193233Y-129453397D02*
X172169406Y-129491318D01*
X168557544Y-128771634D02*
X168513040Y-128766620D01*
X168413040Y-128766620D02*
X168368535Y-128771634D01*
X167099816Y-129546814D02*
X167057544Y-129561606D01*
X170913040Y-129566620D02*
X170868535Y-129561606D01*
X168368535Y-128771634D02*
X168326263Y-128786426D01*
X167057544Y-129561606D02*
X167013040Y-129566620D01*
X170868535Y-129561606D02*
X170826263Y-129546814D01*
X168326263Y-128786426D02*
X168288342Y-128810253D01*
X167013040Y-129566620D02*
X166913040Y-129566620D01*
X170826263Y-129546814D02*
X170788342Y-129522987D01*
X168288342Y-128810253D02*
X168256673Y-128841922D01*
X166826263Y-129546814D02*
X166788342Y-129522987D01*
X170732846Y-129453397D02*
X170718054Y-129411125D01*
X168218054Y-128922115D02*
X168213040Y-128966620D01*
X168099816Y-129546814D02*
X168057544Y-129561606D01*
X168057544Y-129561606D02*
X168013040Y-129566620D01*
X172413040Y-128766620D02*
X172368535Y-128771634D01*
X167756673Y-129491318D02*
X167732846Y-129453397D01*
X167732846Y-129453397D02*
X167718054Y-129411125D01*
X177558380Y-129166620D02*
X177825000Y-128900000D01*
X173802040Y-129166620D02*
X177558380Y-129166620D01*
X145747740Y-132542280D02*
X149887940Y-132542280D01*
X149887940Y-132542280D02*
X151041100Y-132542280D01*
X151041100Y-132542280D02*
X153763980Y-129819400D01*
X153763980Y-129819400D02*
X156121100Y-129819400D01*
X156121100Y-129819400D02*
X158541720Y-127398780D01*
X158541720Y-127398780D02*
X158541720Y-125854460D01*
X158541720Y-125854460D02*
X158541720Y-125305820D01*
X159301741Y-124545799D02*
X178914499Y-124545799D01*
X158541720Y-125305820D02*
X159301741Y-124545799D01*
X178914499Y-124545799D02*
X179374800Y-125006100D01*
X179374800Y-125006100D02*
X179374800Y-127220980D01*
X213634927Y-204913200D02*
X202793600Y-194071873D01*
X214716800Y-204913200D02*
X213634927Y-204913200D01*
X202793600Y-194071873D02*
X202793600Y-191541400D01*
X202793600Y-191541400D02*
X202793600Y-191541400D01*
X209011389Y-186283769D02*
X208785752Y-186283769D01*
X209078146Y-186291290D02*
X209011389Y-186283769D01*
X209245939Y-186396722D02*
X209198436Y-186349219D01*
X208598706Y-188618318D02*
X208551203Y-188570815D01*
X209011389Y-183589949D02*
X208767091Y-183589949D01*
X209303868Y-186517012D02*
X209281680Y-186453603D01*
X209078146Y-188691290D02*
X209011389Y-188683769D01*
X209303868Y-188917012D02*
X209281680Y-188853603D01*
X208718996Y-187476247D02*
X208655587Y-187454059D01*
X209303868Y-186650525D02*
X209311389Y-186583769D01*
X209281680Y-186713934D02*
X209303868Y-186650525D01*
X209078146Y-188076247D02*
X209141555Y-188054059D01*
X209311389Y-183889949D02*
X209303868Y-183823192D01*
X209245939Y-186770815D02*
X209281680Y-186713934D01*
X208785752Y-186283769D02*
X208718996Y-186276247D01*
X209078146Y-186876247D02*
X209141555Y-186854059D01*
X208785752Y-186883769D02*
X209011389Y-186883769D01*
X209198436Y-185618318D02*
X209245939Y-185570815D01*
X208551203Y-186170815D02*
X208515462Y-186113934D01*
X208655587Y-186913478D02*
X208718996Y-186891290D01*
X208598706Y-186949219D02*
X208655587Y-186913478D01*
X208655587Y-186254059D02*
X208598706Y-186218318D01*
X209141555Y-188713478D02*
X209078146Y-188691290D01*
X209245939Y-188796722D02*
X209198436Y-188749219D01*
X208493274Y-186050525D02*
X208485752Y-185983769D01*
X208551203Y-186996722D02*
X208598706Y-186949219D01*
X208718996Y-186891290D02*
X208785752Y-186883769D01*
X209141555Y-187513478D02*
X209078146Y-187491290D01*
X208515462Y-187313934D02*
X208493274Y-187250525D01*
X208551203Y-187370815D02*
X208515462Y-187313934D01*
X208655587Y-187454059D02*
X208598706Y-187418318D01*
X209311389Y-186583769D02*
X209303868Y-186517012D01*
X209078146Y-187491290D02*
X209011389Y-187483769D01*
X209245939Y-187596722D02*
X209198436Y-187549219D01*
X209245939Y-182876995D02*
X209281680Y-182820114D01*
X209198436Y-187549219D02*
X209141555Y-187513478D01*
X208493274Y-187250525D02*
X208485752Y-187183769D01*
X209198436Y-188018318D02*
X209245939Y-187970815D01*
X209281680Y-187653603D02*
X209245939Y-187596722D01*
X208598706Y-186218318D02*
X208551203Y-186170815D01*
X209303868Y-187717012D02*
X209281680Y-187653603D01*
X209311389Y-190103611D02*
X209311389Y-188983769D01*
X208785752Y-188683769D02*
X208718996Y-188676247D01*
X209281680Y-188853603D02*
X209245939Y-188796722D01*
X209141555Y-186313478D02*
X209078146Y-186291290D01*
X208515462Y-188513934D02*
X208493274Y-188450525D01*
X209011389Y-188683769D02*
X208785752Y-188683769D01*
X208532542Y-183476995D02*
X208496801Y-183420114D01*
X208655587Y-188654059D02*
X208598706Y-188618318D01*
X209011389Y-187483769D02*
X208785752Y-187483769D01*
X208785752Y-188083769D02*
X209011389Y-188083769D01*
X208474613Y-183223192D02*
X208496801Y-183159783D01*
X209198436Y-188749219D02*
X209141555Y-188713478D01*
X209198436Y-186818318D02*
X209245939Y-186770815D01*
X208598706Y-188149219D02*
X208655587Y-188113478D01*
X208636926Y-183019658D02*
X208700335Y-182997470D01*
X208598706Y-187418318D02*
X208551203Y-187370815D01*
X208785752Y-187483769D02*
X208718996Y-187476247D01*
X208532542Y-184676995D02*
X208496801Y-184620114D01*
X208515462Y-186113934D02*
X208493274Y-186050525D01*
X209141555Y-186854059D02*
X209198436Y-186818318D01*
D35*
X209118200Y-166615000D02*
X209110000Y-166606800D01*
D28*
X209311389Y-182689949D02*
X209311389Y-166808189D01*
X209011389Y-186883769D02*
X209078146Y-186876247D01*
X207441800Y-191973200D02*
X209311389Y-190103611D01*
X209281680Y-185513934D02*
X209303868Y-185450525D01*
X208551203Y-188196722D02*
X208598706Y-188149219D01*
X209141555Y-183619658D02*
X209078146Y-183597470D01*
X208718996Y-188676247D02*
X208655587Y-188654059D01*
X209078146Y-183597470D02*
X209011389Y-183589949D01*
X208718996Y-188091290D02*
X208785752Y-188083769D01*
X208718996Y-186276247D02*
X208655587Y-186254059D01*
X209311389Y-188983769D02*
X209303868Y-188917012D01*
X209311389Y-185089949D02*
X209303868Y-185023192D01*
X208496801Y-183159783D02*
X208532542Y-183102902D01*
X209281680Y-186453603D02*
X209245939Y-186396722D01*
X208485752Y-187183769D02*
X208493274Y-187117012D01*
X209078146Y-184182427D02*
X209141555Y-184160239D01*
X208655587Y-188113478D02*
X208718996Y-188091290D01*
X208493274Y-188317012D02*
X208515462Y-188253603D01*
X208515462Y-187053603D02*
X208551203Y-186996722D01*
X209198436Y-186349219D02*
X209141555Y-186313478D01*
X209011389Y-188083769D02*
X209078146Y-188076247D01*
X208485752Y-188383769D02*
X208493274Y-188317012D01*
X208551203Y-188570815D02*
X208515462Y-188513934D01*
X208767091Y-182989949D02*
X209011389Y-182989949D01*
X208515462Y-188253603D02*
X208551203Y-188196722D01*
X208493274Y-187117012D02*
X208515462Y-187053603D01*
X208493274Y-188450525D02*
X208485752Y-188383769D01*
X209303868Y-187850525D02*
X209311389Y-187783769D01*
X209141555Y-188054059D02*
X209198436Y-188018318D01*
X209078146Y-185676247D02*
X209141555Y-185654059D01*
X209011389Y-182989949D02*
X209078146Y-182982427D01*
X209311389Y-187783769D02*
X209303868Y-187717012D01*
X209245939Y-187970815D02*
X209281680Y-187913934D01*
X209281680Y-187913934D02*
X209303868Y-187850525D01*
X208767091Y-184189949D02*
X209011389Y-184189949D01*
X208485752Y-185983769D02*
X208493274Y-185917012D01*
X208496801Y-184620114D02*
X208474613Y-184556705D01*
X208493274Y-185917012D02*
X208515462Y-185853603D01*
X208515462Y-185853603D02*
X208551203Y-185796722D01*
X208551203Y-185796722D02*
X208598706Y-185749219D01*
X208598706Y-185749219D02*
X208655587Y-185713478D01*
X209245939Y-183702902D02*
X209198436Y-183655399D01*
X208655587Y-185713478D02*
X208718996Y-185691290D01*
X208496801Y-183420114D02*
X208474613Y-183356705D01*
X208718996Y-185691290D02*
X208785752Y-185683769D01*
X208785752Y-185683769D02*
X209011389Y-185683769D01*
X209011389Y-185683769D02*
X209078146Y-185676247D01*
X209141555Y-185654059D02*
X209198436Y-185618318D01*
X209245939Y-185570815D02*
X209281680Y-185513934D01*
X209303868Y-185450525D02*
X209311389Y-185383769D01*
X209245939Y-184076995D02*
X209281680Y-184020114D01*
X209311389Y-185383769D02*
X209311389Y-185089949D01*
X209198436Y-184855399D02*
X209141555Y-184819658D01*
X209303868Y-185023192D02*
X209281680Y-184959783D01*
X209281680Y-184959783D02*
X209245939Y-184902902D01*
X208580045Y-183524498D02*
X208532542Y-183476995D01*
X209245939Y-184902902D02*
X209198436Y-184855399D01*
X209141555Y-184819658D02*
X209078146Y-184797470D01*
X209141555Y-182960239D02*
X209198436Y-182924498D01*
X209078146Y-184797470D02*
X209011389Y-184789949D01*
X208700335Y-183582427D02*
X208636926Y-183560239D01*
X209011389Y-184789949D02*
X208767091Y-184789949D01*
X208767091Y-183589949D02*
X208700335Y-183582427D01*
X208767091Y-184789949D02*
X208700335Y-184782427D01*
X208700335Y-184782427D02*
X208636926Y-184760239D01*
X208636926Y-184760239D02*
X208580045Y-184724498D01*
X208580045Y-184724498D02*
X208532542Y-184676995D01*
X209281680Y-184020114D02*
X209303868Y-183956705D01*
X208474613Y-183356705D02*
X208467091Y-183289949D01*
X208474613Y-184556705D02*
X208467091Y-184489949D01*
X208467091Y-184489949D02*
X208474613Y-184423192D01*
X208474613Y-184423192D02*
X208496801Y-184359783D01*
X208496801Y-184359783D02*
X208532542Y-184302902D01*
X208636926Y-184219658D02*
X208700335Y-184197470D01*
X208532542Y-183102902D02*
X208580045Y-183055399D01*
X208532542Y-184302902D02*
X208580045Y-184255399D01*
X208580045Y-184255399D02*
X208636926Y-184219658D01*
X208700335Y-184197470D02*
X208767091Y-184189949D01*
X209011389Y-184189949D02*
X209078146Y-184182427D01*
X209141555Y-184160239D02*
X209198436Y-184124498D01*
X209198436Y-184124498D02*
X209245939Y-184076995D01*
X209303868Y-183956705D02*
X209311389Y-183889949D01*
X209303868Y-183823192D02*
X209281680Y-183759783D01*
X208700335Y-182997470D02*
X208767091Y-182989949D01*
X209281680Y-183759783D02*
X209245939Y-183702902D01*
X209198436Y-183655399D02*
X209141555Y-183619658D01*
X208636926Y-183560239D02*
X208580045Y-183524498D01*
X208467091Y-183289949D02*
X208474613Y-183223192D01*
X208580045Y-183055399D02*
X208636926Y-183019658D01*
X209078146Y-182982427D02*
X209141555Y-182960239D01*
X209198436Y-182924498D02*
X209245939Y-182876995D01*
X209281680Y-182820114D02*
X209303868Y-182756705D01*
X209303868Y-182756705D02*
X209311389Y-182689949D01*
X208998400Y-166698400D02*
X209201600Y-166698400D01*
X208900000Y-166600000D02*
X208998400Y-166698400D01*
X209311389Y-166808189D02*
X209201600Y-166698400D01*
X209201600Y-166698400D02*
X209110000Y-166606800D01*
X210100000Y-166625000D02*
X210010200Y-166714800D01*
X209910000Y-166619600D02*
X209814800Y-166714800D01*
X210010200Y-166714800D02*
X209814800Y-166714800D01*
X209721400Y-166808200D02*
X209814800Y-166714800D01*
X209735603Y-186440204D02*
X209724995Y-186409890D01*
X209775400Y-186490109D02*
X209752690Y-186467399D01*
X209896740Y-186524995D02*
X209832909Y-186517804D01*
X209976959Y-186575400D02*
X209954249Y-186552690D01*
X209994046Y-186602595D02*
X209976959Y-186575400D01*
X210004654Y-186909890D02*
X210008250Y-186877975D01*
X209927054Y-187007196D02*
X209954249Y-186990109D01*
X209896740Y-187017804D02*
X209927054Y-187007196D01*
X209864825Y-187021400D02*
X209896740Y-187017804D01*
X209690837Y-187022026D02*
X209696400Y-187021400D01*
X209752690Y-186467399D02*
X209735603Y-186440204D01*
X209685553Y-187023875D02*
X209690837Y-187022026D01*
X209680813Y-187026854D02*
X209685553Y-187023875D01*
X209676855Y-187030812D02*
X209680813Y-187026854D01*
X209673876Y-187035552D02*
X209676855Y-187030812D01*
X209672027Y-187040836D02*
X209673876Y-187035552D01*
X209671400Y-187046400D02*
X209672027Y-187040836D01*
X209671400Y-187496400D02*
X209671400Y-187046400D01*
X209672027Y-187501963D02*
X209671400Y-187496400D01*
X209673876Y-187507247D02*
X209672027Y-187501963D01*
X209680813Y-187515945D02*
X209676855Y-187511987D01*
X209685553Y-187518924D02*
X209680813Y-187515945D01*
X209690837Y-187520773D02*
X209685553Y-187518924D01*
X209696400Y-187521400D02*
X209690837Y-187520773D01*
X209864825Y-187521400D02*
X209696400Y-187521400D01*
X209896740Y-187524995D02*
X209864825Y-187521400D01*
X210004654Y-187632909D02*
X209994046Y-187602595D01*
X210008250Y-187664825D02*
X210004654Y-187632909D01*
X210004654Y-187909890D02*
X210008250Y-187877975D01*
X209976959Y-187967399D02*
X209994046Y-187940204D01*
X209927054Y-186535603D02*
X209896740Y-186524995D01*
X209927054Y-188007196D02*
X209954249Y-187990109D01*
X209954249Y-186552690D02*
X209927054Y-186535603D01*
X209896740Y-188017804D02*
X209927054Y-188007196D01*
X209696400Y-188021400D02*
X209864825Y-188021400D01*
X210004654Y-186632909D02*
X209994046Y-186602595D01*
X209690837Y-188022026D02*
X209696400Y-188021400D01*
X210008250Y-186664825D02*
X210004654Y-186632909D01*
X209685553Y-188023875D02*
X209690837Y-188022026D01*
X210008250Y-186877975D02*
X210008250Y-186664825D01*
X209680813Y-188026854D02*
X209685553Y-188023875D01*
X209724995Y-188991465D02*
X209721400Y-188959550D01*
X209832909Y-189099379D02*
X209802595Y-189088771D01*
X209711988Y-188526854D02*
X209707248Y-188523875D01*
X209994046Y-186940204D02*
X210004654Y-186909890D01*
X209896740Y-189106570D02*
X209832909Y-189099379D01*
X209721400Y-186377975D02*
X209721400Y-166808200D01*
X209976959Y-189156975D02*
X209954249Y-189134265D01*
X210004654Y-189214484D02*
X209994046Y-189184170D01*
X209802595Y-189017178D02*
X209832909Y-189006570D01*
X209864825Y-188021400D02*
X209896740Y-188017804D01*
X210008250Y-189246400D02*
X210004654Y-189214484D01*
X209976959Y-187575400D02*
X209954249Y-187552690D01*
X209680813Y-188515945D02*
X209676855Y-188511987D01*
X210008250Y-189459550D02*
X210008250Y-189246400D01*
X209927054Y-188988771D02*
X209954249Y-188971684D01*
X210004654Y-189491465D02*
X210008250Y-189459550D01*
X209724995Y-189714484D02*
X209735603Y-189684170D01*
X209775400Y-189034265D02*
X209802595Y-189017178D01*
X209721400Y-189146400D02*
X209724995Y-189114484D01*
X209954249Y-188534265D02*
X209927054Y-188517178D01*
X209775400Y-189071684D02*
X209752690Y-189048974D01*
X209724995Y-188391465D02*
X209721400Y-188359550D01*
X209832909Y-186517804D02*
X209802595Y-186507196D01*
X209954249Y-189134265D02*
X209927054Y-189117178D01*
X209721400Y-188959550D02*
X209721400Y-189146400D01*
X209927054Y-187535603D02*
X209896740Y-187524995D01*
X209724995Y-189114484D02*
X209735603Y-189084170D01*
X209802595Y-189088771D02*
X209775400Y-189071684D01*
X209775400Y-188471684D02*
X209752690Y-188448974D01*
X209673876Y-188035552D02*
X209676855Y-188030812D01*
X209735603Y-189684170D02*
X209752690Y-189656975D01*
X209676855Y-187511987D02*
X209673876Y-187507247D01*
X209735603Y-189084170D02*
X209752690Y-189056975D01*
X210008250Y-187877975D02*
X210008250Y-187664825D01*
X208696560Y-192293240D02*
X208696560Y-191480440D01*
X210008250Y-188646400D02*
X210004654Y-188614484D01*
X210004654Y-188891465D02*
X210008250Y-188859550D01*
X209954249Y-186990109D02*
X209976959Y-186967399D01*
X209721400Y-189746400D02*
X209724995Y-189714484D01*
X208696560Y-191480440D02*
X209721400Y-190455600D01*
X210008250Y-188859550D02*
X210008250Y-188646400D01*
X209676855Y-188030812D02*
X209680813Y-188026854D01*
X206476600Y-194513200D02*
X208696560Y-192293240D01*
X209994046Y-188584170D02*
X209976959Y-188556975D01*
X209802595Y-186507196D02*
X209775400Y-186490109D01*
X209752690Y-189056975D02*
X209775400Y-189034265D01*
X209927054Y-189588771D02*
X209954249Y-189571684D01*
X209976959Y-188948974D02*
X209994046Y-188921779D01*
X209724995Y-186409890D02*
X209721400Y-186377975D01*
X209752690Y-189656975D02*
X209775400Y-189634265D01*
X209976959Y-186967399D02*
X209994046Y-186940204D01*
X209721400Y-190455600D02*
X209721400Y-189746400D01*
X209994046Y-187940204D02*
X210004654Y-187909890D01*
X209735603Y-189021779D02*
X209724995Y-188991465D01*
X209954249Y-187990109D02*
X209976959Y-187967399D01*
X209896740Y-189599379D02*
X209927054Y-189588771D01*
X209775400Y-189634265D02*
X209802595Y-189617178D01*
X209721400Y-188546400D02*
X209720774Y-188540836D01*
X209696400Y-187021400D02*
X209864825Y-187021400D01*
X209832909Y-189606570D02*
X209896740Y-189599379D01*
X209927054Y-189117178D02*
X209896740Y-189106570D01*
X209832909Y-189006570D02*
X209896740Y-188999379D01*
X206171800Y-194513200D02*
X206476600Y-194513200D01*
X209671400Y-188496400D02*
X209671400Y-188046400D01*
X209896740Y-188999379D02*
X209927054Y-188988771D01*
X209752690Y-189048974D02*
X209735603Y-189021779D01*
X209994046Y-189184170D02*
X209976959Y-189156975D01*
X209954249Y-188971684D02*
X209976959Y-188948974D01*
X209994046Y-188921779D02*
X210004654Y-188891465D01*
X210004654Y-188614484D02*
X209994046Y-188584170D01*
X209976959Y-188556975D02*
X209954249Y-188534265D01*
X209927054Y-188517178D02*
X209896740Y-188506570D01*
X209896740Y-188506570D02*
X209832909Y-188499379D01*
X209976959Y-189548974D02*
X209994046Y-189521779D01*
X209832909Y-188499379D02*
X209802595Y-188488771D01*
X209802595Y-188488771D02*
X209775400Y-188471684D01*
X209672027Y-188040836D02*
X209673876Y-188035552D01*
X209752690Y-188448974D02*
X209735603Y-188421779D01*
X209735603Y-188421779D02*
X209724995Y-188391465D01*
X209721400Y-188359550D02*
X209721400Y-188546400D01*
X209954249Y-189571684D02*
X209976959Y-189548974D01*
X209720774Y-188540836D02*
X209718925Y-188535552D01*
X209994046Y-189521779D02*
X210004654Y-189491465D01*
X209718925Y-188535552D02*
X209715946Y-188530812D01*
X209715946Y-188530812D02*
X209711988Y-188526854D01*
X209707248Y-188523875D02*
X209701964Y-188522026D01*
X209701964Y-188522026D02*
X209690837Y-188520773D01*
X209690837Y-188520773D02*
X209685553Y-188518924D01*
X209994046Y-187602595D02*
X209976959Y-187575400D01*
X209802595Y-189617178D02*
X209832909Y-189606570D01*
X209685553Y-188518924D02*
X209680813Y-188515945D01*
X209954249Y-187552690D02*
X209927054Y-187535603D01*
X209676855Y-188511987D02*
X209673876Y-188507247D01*
X209673876Y-188507247D02*
X209672027Y-188501963D01*
X209672027Y-188501963D02*
X209671400Y-188496400D01*
X209671400Y-188046400D02*
X209672027Y-188040836D01*
M02*
