M48
; DRILL file {KiCad 5.1.9+dfsg1-1+deb11u1} date Fri May 26 17:06:30 2023
; FORMAT={-:-/ absolute / metric / decimal}
; #@! TF.CreationDate,2023-05-26T17:06:30+02:00
; #@! TF.GenerationSoftware,Kicad,Pcbnew,5.1.9+dfsg1-1+deb11u1
; #@! TF.FileFunction,Plated,1,4,PTH
FMAT,2
METRIC
T1C0.325
T2C0.400
T3C0.500
T4C0.650
T5C0.700
T6C0.750
T7C0.900
T8C1.000
T9C1.020
T10C1.400
T11C1.600
T12C2.380
%
G90
G05
T1
X143.63Y-133.79
X145.748Y-132.542
X146.83Y-136.53
X147.536Y-158.679
X149.263Y-155.199
X149.272Y-162.142
X153.0Y-163.7
X153.358Y-121.539
X153.396Y-106.281
X153.565Y-144.609
X153.8Y-146.28
X153.954Y-117.157
X154.2Y-161.9
X154.5Y-145.42
X157.772Y-161.295
X157.774Y-157.716
X158.961Y-159.791
X159.625Y-158.4
X162.936Y-162.07
X162.95Y-107.55
X163.746Y-129.987
X164.29Y-145.63
X164.808Y-129.167
X166.075Y-132.029
X166.926Y-138.781
X168.77Y-138.781
X169.55Y-137.975
X170.454Y-136.362
X171.183Y-137.175
X173.518Y-159.58
X173.81Y-127.572
X173.815Y-131.575
X174.225Y-126.025
X175.025Y-103.575
X175.05Y-105.175
X175.825Y-164.275
X176.139Y-125.146
X176.141Y-123.83
X177.45Y-141.175
X177.45Y-158.775
X177.475Y-154.775
X177.79Y-171.963
X177.825Y-128.9
X177.825Y-130.725
X177.925Y-126.925
X177.968Y-135.583
X178.0Y-134.525
X178.014Y-133.157
X179.05Y-153.975
X179.05Y-155.575
X179.253Y-171.976
X179.375Y-127.221
X180.317Y-127.231
X180.713Y-171.966
X181.026Y-161.902
X181.117Y-128.425
X181.628Y-160.655
X181.939Y-127.216
X182.349Y-171.963
X182.753Y-160.431
X183.218Y-179.146
X183.515Y-127.224
X183.563Y-159.583
X184.038Y-171.955
X184.306Y-158.817
X185.123Y-171.945
X185.15Y-160.9
X185.675Y-106.875
X185.675Y-107.95
X186.063Y-119.047
X186.076Y-161.985
X189.9Y-128.275
X190.525Y-119.05
X190.713Y-127.208
X191.525Y-162.625
X193.53Y-174.092
X193.919Y-162.22
X195.05Y-162.225
X196.314Y-162.235
X196.325Y-126.925
X196.95Y-101.4
X197.91Y-118.157
X197.925Y-162.6
X198.7Y-161.725
X198.71Y-119.381
X200.5Y-162.375
X200.65Y-189.7
X200.725Y-113.1
X201.1Y-122.475
X201.15Y-116.475
X201.183Y-160.3
X201.375Y-169.3
X201.575Y-107.45
X201.8Y-102.2
X201.85Y-113.15
X202.425Y-156.436
X202.71Y-162.227
X202.715Y-169.304
X202.794Y-191.541
X203.416Y-156.418
X203.421Y-169.997
X203.5Y-126.925
X203.53Y-176.741
X204.064Y-167.894
X204.064Y-169.266
X204.625Y-108.125
X204.75Y-106.8
X204.85Y-109.325
X205.13Y-178.105
X206.413Y-153.947
X206.71Y-121.557
X207.375Y-117.45
X207.493Y-120.109
X208.3Y-162.65
X208.313Y-175.407
X208.325Y-118.35
X208.331Y-120.65
X208.377Y-169.344
X208.382Y-167.894
X208.669Y-178.105
X208.778Y-154.765
X208.804Y-116.021
X208.9Y-166.6
X209.093Y-121.564
X209.312Y-117.412
X210.1Y-166.625
X210.132Y-156.218
X210.922Y-167.894
X210.947Y-149.161
X210.972Y-155.572
X211.111Y-112.268
X211.15Y-137.175
X211.15Y-139.575
X211.15Y-141.975
X211.15Y-144.375
X211.15Y-147.575
X211.15Y-152.375
X211.175Y-157.175
X212.8Y-125.275
X212.8Y-164.275
X214.376Y-129.184
X214.376Y-133.147
X214.376Y-136.398
X215.189Y-121.564
X215.519Y-129.489
X216.408Y-133.096
X216.408Y-135.28
X217.541Y-102.258
X217.78Y-136.855
X218.12Y-110.71
X218.468Y-128.402
X218.846Y-131.216
X218.846Y-136.855
X219.558Y-129.997
X220.116Y-147.33
X220.18Y-101.32
X220.523Y-171.653
X220.84Y-111.78
X221.183Y-174.752
X221.183Y-179.68
X221.33Y-129.879
X221.856Y-129.095
X221.894Y-120.65
X222.656Y-137.541
X222.656Y-139.243
X223.061Y-126.113
X223.088Y-128.397
X223.357Y-141.481
X223.373Y-138.369
X223.388Y-150.452
X223.39Y-101.55
X224.993Y-151.638
X225.04Y-109.83
X225.06Y-108.86
X225.347Y-123.741
X225.552Y-171.399
X225.577Y-172.339
X229.032Y-178.46
X229.235Y-129.095
X229.26Y-176.733
X230.1Y-119.1
X232.189Y-171.371
X232.664Y-160.223
X233.274Y-150.47
X233.35Y-129.083
X233.832Y-160.833
X233.985Y-189.687
X234.848Y-150.47
X235.102Y-177.394
X235.179Y-140.792
X235.56Y-157.632
X235.56Y-164.897
X235.636Y-184.912
X236.677Y-157.632
X236.677Y-162.458
X237.185Y-183.667
X237.5Y-187.775
X238.3Y-190.325
X238.356Y-186.432
X238.958Y-182.697
X239.014Y-160.884
X239.521Y-121.096
X239.525Y-187.775
X239.527Y-117.091
X239.608Y-183.66
X239.698Y-191.338
X240.725Y-184.4
X241.614Y-201.177
X241.767Y-185.11
X242.3Y-142.2
X242.3Y-136.975
X242.367Y-123.698
X242.367Y-134.696
X242.806Y-187.038
X242.976Y-191.364
X243.246Y-153.015
X243.813Y-196.139
X243.873Y-136.972
X243.921Y-142.108
X244.8Y-153.0
X244.875Y-150.475
X244.945Y-160.124
X245.15Y-166.218
X247.523Y-141.249
X247.739Y-179.047
X249.314Y-176.677
X249.326Y-179.019
X250.347Y-149.154
X250.96Y-161.293
X250.975Y-168.26
X253.101Y-156.007
X254.35Y-151.775
X254.546Y-177.277
X255.524Y-202.946
X255.524Y-205.08
X256.1Y-156.7
X256.1Y-177.3
T2
X177.673Y-111.887
X182.372Y-111.887
T3
X142.605Y-133.8
X148.3Y-125.1
X153.3Y-157.9
X154.12Y-148.19
X154.725Y-128.55
X157.8Y-150.375
X158.2Y-120.6
X158.35Y-134.6
X158.4Y-115.3
X158.496Y-106.68
X159.4Y-167.7
X160.925Y-154.225
X180.45Y-107.55
X180.454Y-108.7
X182.15Y-101.925
X188.7Y-170.775
X189.225Y-133.1
X189.975Y-144.075
X190.5Y-114.05
X192.375Y-140.25
X193.075Y-206.525
X197.1Y-172.475
X207.375Y-161.625
X213.15Y-110.025
X216.15Y-109.575
X218.425Y-117.1
X220.1Y-153.45
X220.125Y-113.55
X220.125Y-149.3
X221.1Y-169.95
X221.15Y-162.4
X222.815Y-162.44
X224.15Y-194.275
X226.2Y-206.525
X227.075Y-121.55
X228.425Y-169.975
X228.525Y-162.475
X229.75Y-153.85
X235.35Y-169.975
X237.15Y-153.2
X240.95Y-180.425
X241.55Y-174.0
X248.125Y-210.175
X248.15Y-129.625
X248.15Y-132.125
X249.425Y-146.75
X250.35Y-154.1
X255.025Y-164.625
X255.025Y-171.6
X260.125Y-183.175
X269.55Y-167.925
X271.45Y-177.15
X272.925Y-143.0
X273.575Y-187.125
T6
X144.0Y-113.9
X156.1Y-118.9
X257.85Y-194.55
T7
X206.172Y-194.513
X207.442Y-191.973
X208.712Y-194.513
X209.982Y-191.973
X211.252Y-194.513
X212.522Y-191.973
X213.792Y-194.513
X215.062Y-191.973
T8
X143.891Y-193.258
X143.896Y-166.647
X143.896Y-169.187
X143.896Y-171.727
X143.896Y-174.267
X143.896Y-176.807
X143.896Y-179.347
X143.896Y-181.887
X143.896Y-184.427
X143.947Y-140.983
X143.947Y-143.523
X143.947Y-146.063
X143.947Y-148.603
X143.947Y-151.143
X143.954Y-156.113
X143.954Y-158.653
X143.954Y-161.193
X146.431Y-193.258
X146.487Y-140.983
X146.487Y-143.523
X146.487Y-146.063
X146.487Y-148.603
X146.487Y-151.143
X148.971Y-193.258
X150.35Y-111.412
X150.35Y-113.952
X150.35Y-116.492
X150.901Y-174.272
X150.901Y-176.812
X150.901Y-179.352
X150.901Y-181.892
X150.901Y-184.432
X151.371Y-208.262
X151.427Y-201.127
X151.511Y-193.258
X153.911Y-208.262
X153.967Y-201.127
X154.051Y-193.258
X156.451Y-208.262
X156.507Y-201.127
X156.591Y-193.258
X156.992Y-174.29
X156.992Y-176.83
X156.992Y-179.37
X156.992Y-181.91
X156.992Y-184.45
X158.991Y-208.262
X159.047Y-201.127
X159.131Y-193.258
X161.531Y-208.262
X161.587Y-201.127
X161.671Y-193.258
X171.983Y-205.646
X171.983Y-208.186
X172.113Y-105.227
X172.113Y-107.767
X172.113Y-110.307
X172.113Y-112.847
X172.113Y-115.387
X174.523Y-205.646
X174.523Y-208.186
X177.063Y-205.646
X177.063Y-208.186
X179.603Y-205.646
X179.603Y-208.186
X182.143Y-205.646
X182.143Y-208.186
X184.683Y-205.646
X184.683Y-208.186
X187.223Y-205.646
X187.223Y-208.186
X220.662Y-132.461
X220.662Y-135.001
X223.202Y-132.461
X223.202Y-135.001
X225.742Y-132.461
X225.742Y-135.001
X225.755Y-141.072
X227.943Y-147.93
X228.282Y-132.461
X228.282Y-135.001
X228.295Y-141.072
X230.822Y-132.461
X230.822Y-135.001
X231.049Y-101.58
X231.049Y-104.12
X231.049Y-106.66
X231.049Y-109.2
X231.049Y-111.74
X232.943Y-147.93
X233.362Y-132.461
X233.362Y-135.001
X233.589Y-101.58
X233.589Y-104.12
X233.589Y-106.66
X233.589Y-109.2
X233.589Y-111.74
X235.903Y-132.461
X235.903Y-135.001
X238.442Y-132.461
X238.442Y-135.001
X266.914Y-153.325
X266.914Y-155.825
X266.914Y-157.825
X266.914Y-160.325
T9
X203.977Y-204.913
X206.517Y-204.913
X214.717Y-204.913
X217.257Y-204.913
T10
X252.171Y-120.196
X252.171Y-142.596
T11
X202.767Y-197.813
X218.467Y-197.813
X266.7Y-207.513
X269.7Y-202.813
X272.7Y-207.513
T12
X269.624Y-150.255
X269.624Y-163.395
T4
X276.394Y-168.75G85X275.994Y-168.75
G05
X276.394Y-173.59G85X275.994Y-173.59
G05
T5
X279.444Y-168.44G85X278.944Y-168.44
G05
X279.444Y-173.9G85X278.944Y-173.9
G05
T0
M30
