G04 #@! TF.GenerationSoftware,KiCad,Pcbnew,5.1.9+dfsg1-1+deb11u1*
G04 #@! TF.CreationDate,2023-05-26T17:04:47+02:00*
G04 #@! TF.ProjectId,ATSAMA5D27-SOM1_devboard2,41545341-4d41-4354-9432-372d534f4d31,rev?*
G04 #@! TF.SameCoordinates,Original*
G04 #@! TF.FileFunction,Paste,Bot*
G04 #@! TF.FilePolarity,Positive*
%FSLAX46Y46*%
G04 Gerber Fmt 4.6, Leading zero omitted, Abs format (unit mm)*
G04 Created by KiCad (PCBNEW 5.1.9+dfsg1-1+deb11u1) date 2023-05-26 17:04:47*
%MOMM*%
%LPD*%
G01*
G04 APERTURE LIST*
%ADD10R,3.150000X1.000000*%
G04 APERTURE END LIST*
D10*
X197411580Y-133913880D03*
X192361580Y-133913880D03*
X197411580Y-136453880D03*
X192361580Y-136453880D03*
X197411580Y-138993880D03*
X192361580Y-138993880D03*
X197411580Y-141533880D03*
X192361580Y-141533880D03*
X197411580Y-144073880D03*
X192361580Y-144073880D03*
G36*
G01*
X218890001Y-116163000D02*
X217989999Y-116163000D01*
G75*
G02*
X217740000Y-115913001I0J249999D01*
G01*
X217740000Y-115262999D01*
G75*
G02*
X217989999Y-115013000I249999J0D01*
G01*
X218890001Y-115013000D01*
G75*
G02*
X219140000Y-115262999I0J-249999D01*
G01*
X219140000Y-115913001D01*
G75*
G02*
X218890001Y-116163000I-249999J0D01*
G01*
G37*
G36*
G01*
X218890001Y-114113000D02*
X217989999Y-114113000D01*
G75*
G02*
X217740000Y-113863001I0J249999D01*
G01*
X217740000Y-113212999D01*
G75*
G02*
X217989999Y-112963000I249999J0D01*
G01*
X218890001Y-112963000D01*
G75*
G02*
X219140000Y-113212999I0J-249999D01*
G01*
X219140000Y-113863001D01*
G75*
G02*
X218890001Y-114113000I-249999J0D01*
G01*
G37*
G36*
G01*
X152859319Y-148949940D02*
X153759321Y-148949940D01*
G75*
G02*
X154009320Y-149199939I0J-249999D01*
G01*
X154009320Y-149849941D01*
G75*
G02*
X153759321Y-150099940I-249999J0D01*
G01*
X152859319Y-150099940D01*
G75*
G02*
X152609320Y-149849941I0J249999D01*
G01*
X152609320Y-149199939D01*
G75*
G02*
X152859319Y-148949940I249999J0D01*
G01*
G37*
G36*
G01*
X152859319Y-146899940D02*
X153759321Y-146899940D01*
G75*
G02*
X154009320Y-147149939I0J-249999D01*
G01*
X154009320Y-147799941D01*
G75*
G02*
X153759321Y-148049940I-249999J0D01*
G01*
X152859319Y-148049940D01*
G75*
G02*
X152609320Y-147799941I0J249999D01*
G01*
X152609320Y-147149939D01*
G75*
G02*
X152859319Y-146899940I249999J0D01*
G01*
G37*
G36*
G01*
X154122541Y-127732480D02*
X153222539Y-127732480D01*
G75*
G02*
X152972540Y-127482481I0J249999D01*
G01*
X152972540Y-126832479D01*
G75*
G02*
X153222539Y-126582480I249999J0D01*
G01*
X154122541Y-126582480D01*
G75*
G02*
X154372540Y-126832479I0J-249999D01*
G01*
X154372540Y-127482481D01*
G75*
G02*
X154122541Y-127732480I-249999J0D01*
G01*
G37*
G36*
G01*
X154122541Y-125682480D02*
X153222539Y-125682480D01*
G75*
G02*
X152972540Y-125432481I0J249999D01*
G01*
X152972540Y-124782479D01*
G75*
G02*
X153222539Y-124532480I249999J0D01*
G01*
X154122541Y-124532480D01*
G75*
G02*
X154372540Y-124782479I0J-249999D01*
G01*
X154372540Y-125432481D01*
G75*
G02*
X154122541Y-125682480I-249999J0D01*
G01*
G37*
G36*
G01*
X211549999Y-108137000D02*
X212450001Y-108137000D01*
G75*
G02*
X212700000Y-108386999I0J-249999D01*
G01*
X212700000Y-109037001D01*
G75*
G02*
X212450001Y-109287000I-249999J0D01*
G01*
X211549999Y-109287000D01*
G75*
G02*
X211300000Y-109037001I0J249999D01*
G01*
X211300000Y-108386999D01*
G75*
G02*
X211549999Y-108137000I249999J0D01*
G01*
G37*
G36*
G01*
X211549999Y-106087000D02*
X212450001Y-106087000D01*
G75*
G02*
X212700000Y-106336999I0J-249999D01*
G01*
X212700000Y-106987001D01*
G75*
G02*
X212450001Y-107237000I-249999J0D01*
G01*
X211549999Y-107237000D01*
G75*
G02*
X211300000Y-106987001I0J249999D01*
G01*
X211300000Y-106336999D01*
G75*
G02*
X211549999Y-106087000I249999J0D01*
G01*
G37*
G36*
G01*
X156899300Y-163029479D02*
X156899300Y-163929481D01*
G75*
G02*
X156649301Y-164179480I-249999J0D01*
G01*
X155999299Y-164179480D01*
G75*
G02*
X155749300Y-163929481I0J249999D01*
G01*
X155749300Y-163029479D01*
G75*
G02*
X155999299Y-162779480I249999J0D01*
G01*
X156649301Y-162779480D01*
G75*
G02*
X156899300Y-163029479I0J-249999D01*
G01*
G37*
G36*
G01*
X154849300Y-163029479D02*
X154849300Y-163929481D01*
G75*
G02*
X154599301Y-164179480I-249999J0D01*
G01*
X153949299Y-164179480D01*
G75*
G02*
X153699300Y-163929481I0J249999D01*
G01*
X153699300Y-163029479D01*
G75*
G02*
X153949299Y-162779480I249999J0D01*
G01*
X154599301Y-162779480D01*
G75*
G02*
X154849300Y-163029479I0J-249999D01*
G01*
G37*
G36*
G01*
X146172341Y-129789880D02*
X145272339Y-129789880D01*
G75*
G02*
X145022340Y-129539881I0J249999D01*
G01*
X145022340Y-128889879D01*
G75*
G02*
X145272339Y-128639880I249999J0D01*
G01*
X146172341Y-128639880D01*
G75*
G02*
X146422340Y-128889879I0J-249999D01*
G01*
X146422340Y-129539881D01*
G75*
G02*
X146172341Y-129789880I-249999J0D01*
G01*
G37*
G36*
G01*
X146172341Y-131839880D02*
X145272339Y-131839880D01*
G75*
G02*
X145022340Y-131589881I0J249999D01*
G01*
X145022340Y-130939879D01*
G75*
G02*
X145272339Y-130689880I249999J0D01*
G01*
X146172341Y-130689880D01*
G75*
G02*
X146422340Y-130939879I0J-249999D01*
G01*
X146422340Y-131589881D01*
G75*
G02*
X146172341Y-131839880I-249999J0D01*
G01*
G37*
G36*
G01*
X213835999Y-106087000D02*
X214736001Y-106087000D01*
G75*
G02*
X214986000Y-106336999I0J-249999D01*
G01*
X214986000Y-106987001D01*
G75*
G02*
X214736001Y-107237000I-249999J0D01*
G01*
X213835999Y-107237000D01*
G75*
G02*
X213586000Y-106987001I0J249999D01*
G01*
X213586000Y-106336999D01*
G75*
G02*
X213835999Y-106087000I249999J0D01*
G01*
G37*
G36*
G01*
X213835999Y-108137000D02*
X214736001Y-108137000D01*
G75*
G02*
X214986000Y-108386999I0J-249999D01*
G01*
X214986000Y-109037001D01*
G75*
G02*
X214736001Y-109287000I-249999J0D01*
G01*
X213835999Y-109287000D01*
G75*
G02*
X213586000Y-109037001I0J249999D01*
G01*
X213586000Y-108386999D01*
G75*
G02*
X213835999Y-108137000I249999J0D01*
G01*
G37*
G36*
G01*
X162450359Y-165360880D02*
X163350361Y-165360880D01*
G75*
G02*
X163600360Y-165610879I0J-249999D01*
G01*
X163600360Y-166260881D01*
G75*
G02*
X163350361Y-166510880I-249999J0D01*
G01*
X162450359Y-166510880D01*
G75*
G02*
X162200360Y-166260881I0J249999D01*
G01*
X162200360Y-165610879D01*
G75*
G02*
X162450359Y-165360880I249999J0D01*
G01*
G37*
G36*
G01*
X162450359Y-163310880D02*
X163350361Y-163310880D01*
G75*
G02*
X163600360Y-163560879I0J-249999D01*
G01*
X163600360Y-164210881D01*
G75*
G02*
X163350361Y-164460880I-249999J0D01*
G01*
X162450359Y-164460880D01*
G75*
G02*
X162200360Y-164210881I0J249999D01*
G01*
X162200360Y-163560879D01*
G75*
G02*
X162450359Y-163310880I249999J0D01*
G01*
G37*
G36*
G01*
X162111600Y-116702419D02*
X162111600Y-117602421D01*
G75*
G02*
X161861601Y-117852420I-249999J0D01*
G01*
X161211599Y-117852420D01*
G75*
G02*
X160961600Y-117602421I0J249999D01*
G01*
X160961600Y-116702419D01*
G75*
G02*
X161211599Y-116452420I249999J0D01*
G01*
X161861601Y-116452420D01*
G75*
G02*
X162111600Y-116702419I0J-249999D01*
G01*
G37*
G36*
G01*
X160061600Y-116702419D02*
X160061600Y-117602421D01*
G75*
G02*
X159811601Y-117852420I-249999J0D01*
G01*
X159161599Y-117852420D01*
G75*
G02*
X158911600Y-117602421I0J249999D01*
G01*
X158911600Y-116702419D01*
G75*
G02*
X159161599Y-116452420I249999J0D01*
G01*
X159811601Y-116452420D01*
G75*
G02*
X160061600Y-116702419I0J-249999D01*
G01*
G37*
G36*
G01*
X155876300Y-107658321D02*
X155876300Y-106758319D01*
G75*
G02*
X156126299Y-106508320I249999J0D01*
G01*
X156776301Y-106508320D01*
G75*
G02*
X157026300Y-106758319I0J-249999D01*
G01*
X157026300Y-107658321D01*
G75*
G02*
X156776301Y-107908320I-249999J0D01*
G01*
X156126299Y-107908320D01*
G75*
G02*
X155876300Y-107658321I0J249999D01*
G01*
G37*
G36*
G01*
X153826300Y-107658321D02*
X153826300Y-106758319D01*
G75*
G02*
X154076299Y-106508320I249999J0D01*
G01*
X154726301Y-106508320D01*
G75*
G02*
X154976300Y-106758319I0J-249999D01*
G01*
X154976300Y-107658321D01*
G75*
G02*
X154726301Y-107908320I-249999J0D01*
G01*
X154076299Y-107908320D01*
G75*
G02*
X153826300Y-107658321I0J249999D01*
G01*
G37*
G36*
G01*
X153747560Y-121016181D02*
X153747560Y-120116179D01*
G75*
G02*
X153997559Y-119866180I249999J0D01*
G01*
X154647561Y-119866180D01*
G75*
G02*
X154897560Y-120116179I0J-249999D01*
G01*
X154897560Y-121016181D01*
G75*
G02*
X154647561Y-121266180I-249999J0D01*
G01*
X153997559Y-121266180D01*
G75*
G02*
X153747560Y-121016181I0J249999D01*
G01*
G37*
G36*
G01*
X155797560Y-121016181D02*
X155797560Y-120116179D01*
G75*
G02*
X156047559Y-119866180I249999J0D01*
G01*
X156697561Y-119866180D01*
G75*
G02*
X156947560Y-120116179I0J-249999D01*
G01*
X156947560Y-121016181D01*
G75*
G02*
X156697561Y-121266180I-249999J0D01*
G01*
X156047559Y-121266180D01*
G75*
G02*
X155797560Y-121016181I0J249999D01*
G01*
G37*
G36*
G01*
X158947699Y-165317480D02*
X159847701Y-165317480D01*
G75*
G02*
X160097700Y-165567479I0J-249999D01*
G01*
X160097700Y-166217481D01*
G75*
G02*
X159847701Y-166467480I-249999J0D01*
G01*
X158947699Y-166467480D01*
G75*
G02*
X158697700Y-166217481I0J249999D01*
G01*
X158697700Y-165567479D01*
G75*
G02*
X158947699Y-165317480I249999J0D01*
G01*
G37*
G36*
G01*
X158947699Y-163267480D02*
X159847701Y-163267480D01*
G75*
G02*
X160097700Y-163517479I0J-249999D01*
G01*
X160097700Y-164167481D01*
G75*
G02*
X159847701Y-164417480I-249999J0D01*
G01*
X158947699Y-164417480D01*
G75*
G02*
X158697700Y-164167481I0J249999D01*
G01*
X158697700Y-163517479D01*
G75*
G02*
X158947699Y-163267480I249999J0D01*
G01*
G37*
G36*
G01*
X149863500Y-158254279D02*
X149863500Y-159154281D01*
G75*
G02*
X149613501Y-159404280I-249999J0D01*
G01*
X148963499Y-159404280D01*
G75*
G02*
X148713500Y-159154281I0J249999D01*
G01*
X148713500Y-158254279D01*
G75*
G02*
X148963499Y-158004280I249999J0D01*
G01*
X149613501Y-158004280D01*
G75*
G02*
X149863500Y-158254279I0J-249999D01*
G01*
G37*
G36*
G01*
X151913500Y-158254279D02*
X151913500Y-159154281D01*
G75*
G02*
X151663501Y-159404280I-249999J0D01*
G01*
X151013499Y-159404280D01*
G75*
G02*
X150763500Y-159154281I0J249999D01*
G01*
X150763500Y-158254279D01*
G75*
G02*
X151013499Y-158004280I249999J0D01*
G01*
X151663501Y-158004280D01*
G75*
G02*
X151913500Y-158254279I0J-249999D01*
G01*
G37*
G36*
G01*
X186607760Y-133551081D02*
X186607760Y-132651079D01*
G75*
G02*
X186857759Y-132401080I249999J0D01*
G01*
X187507761Y-132401080D01*
G75*
G02*
X187757760Y-132651079I0J-249999D01*
G01*
X187757760Y-133551081D01*
G75*
G02*
X187507761Y-133801080I-249999J0D01*
G01*
X186857759Y-133801080D01*
G75*
G02*
X186607760Y-133551081I0J249999D01*
G01*
G37*
G36*
G01*
X184557760Y-133551081D02*
X184557760Y-132651079D01*
G75*
G02*
X184807759Y-132401080I249999J0D01*
G01*
X185457761Y-132401080D01*
G75*
G02*
X185707760Y-132651079I0J-249999D01*
G01*
X185707760Y-133551081D01*
G75*
G02*
X185457761Y-133801080I-249999J0D01*
G01*
X184807759Y-133801080D01*
G75*
G02*
X184557760Y-133551081I0J249999D01*
G01*
G37*
G36*
G01*
X206925759Y-156498600D02*
X207825761Y-156498600D01*
G75*
G02*
X208075760Y-156748599I0J-249999D01*
G01*
X208075760Y-157398601D01*
G75*
G02*
X207825761Y-157648600I-249999J0D01*
G01*
X206925759Y-157648600D01*
G75*
G02*
X206675760Y-157398601I0J249999D01*
G01*
X206675760Y-156748599D01*
G75*
G02*
X206925759Y-156498600I249999J0D01*
G01*
G37*
G36*
G01*
X206925759Y-158548600D02*
X207825761Y-158548600D01*
G75*
G02*
X208075760Y-158798599I0J-249999D01*
G01*
X208075760Y-159448601D01*
G75*
G02*
X207825761Y-159698600I-249999J0D01*
G01*
X206925759Y-159698600D01*
G75*
G02*
X206675760Y-159448601I0J249999D01*
G01*
X206675760Y-158798599D01*
G75*
G02*
X206925759Y-158548600I249999J0D01*
G01*
G37*
G36*
G01*
X209684199Y-160799040D02*
X210584201Y-160799040D01*
G75*
G02*
X210834200Y-161049039I0J-249999D01*
G01*
X210834200Y-161699041D01*
G75*
G02*
X210584201Y-161949040I-249999J0D01*
G01*
X209684199Y-161949040D01*
G75*
G02*
X209434200Y-161699041I0J249999D01*
G01*
X209434200Y-161049039D01*
G75*
G02*
X209684199Y-160799040I249999J0D01*
G01*
G37*
G36*
G01*
X209684199Y-158749040D02*
X210584201Y-158749040D01*
G75*
G02*
X210834200Y-158999039I0J-249999D01*
G01*
X210834200Y-159649041D01*
G75*
G02*
X210584201Y-159899040I-249999J0D01*
G01*
X209684199Y-159899040D01*
G75*
G02*
X209434200Y-159649041I0J249999D01*
G01*
X209434200Y-158999039D01*
G75*
G02*
X209684199Y-158749040I249999J0D01*
G01*
G37*
G36*
G01*
X209919260Y-148711499D02*
X209919260Y-149611501D01*
G75*
G02*
X209669261Y-149861500I-249999J0D01*
G01*
X209019259Y-149861500D01*
G75*
G02*
X208769260Y-149611501I0J249999D01*
G01*
X208769260Y-148711499D01*
G75*
G02*
X209019259Y-148461500I249999J0D01*
G01*
X209669261Y-148461500D01*
G75*
G02*
X209919260Y-148711499I0J-249999D01*
G01*
G37*
G36*
G01*
X207869260Y-148711499D02*
X207869260Y-149611501D01*
G75*
G02*
X207619261Y-149861500I-249999J0D01*
G01*
X206969259Y-149861500D01*
G75*
G02*
X206719260Y-149611501I0J249999D01*
G01*
X206719260Y-148711499D01*
G75*
G02*
X206969259Y-148461500I249999J0D01*
G01*
X207619261Y-148461500D01*
G75*
G02*
X207869260Y-148711499I0J-249999D01*
G01*
G37*
G36*
G01*
X204200339Y-160793740D02*
X205100341Y-160793740D01*
G75*
G02*
X205350340Y-161043739I0J-249999D01*
G01*
X205350340Y-161693741D01*
G75*
G02*
X205100341Y-161943740I-249999J0D01*
G01*
X204200339Y-161943740D01*
G75*
G02*
X203950340Y-161693741I0J249999D01*
G01*
X203950340Y-161043739D01*
G75*
G02*
X204200339Y-160793740I249999J0D01*
G01*
G37*
G36*
G01*
X204200339Y-158743740D02*
X205100341Y-158743740D01*
G75*
G02*
X205350340Y-158993739I0J-249999D01*
G01*
X205350340Y-159643741D01*
G75*
G02*
X205100341Y-159893740I-249999J0D01*
G01*
X204200339Y-159893740D01*
G75*
G02*
X203950340Y-159643741I0J249999D01*
G01*
X203950340Y-158993739D01*
G75*
G02*
X204200339Y-158743740I249999J0D01*
G01*
G37*
G36*
G01*
X185690200Y-136016579D02*
X185690200Y-136916581D01*
G75*
G02*
X185440201Y-137166580I-249999J0D01*
G01*
X184790199Y-137166580D01*
G75*
G02*
X184540200Y-136916581I0J249999D01*
G01*
X184540200Y-136016579D01*
G75*
G02*
X184790199Y-135766580I249999J0D01*
G01*
X185440201Y-135766580D01*
G75*
G02*
X185690200Y-136016579I0J-249999D01*
G01*
G37*
G36*
G01*
X187740200Y-136016579D02*
X187740200Y-136916581D01*
G75*
G02*
X187490201Y-137166580I-249999J0D01*
G01*
X186840199Y-137166580D01*
G75*
G02*
X186590200Y-136916581I0J249999D01*
G01*
X186590200Y-136016579D01*
G75*
G02*
X186840199Y-135766580I249999J0D01*
G01*
X187490201Y-135766580D01*
G75*
G02*
X187740200Y-136016579I0J-249999D01*
G01*
G37*
G36*
G01*
X178492999Y-108137000D02*
X179393001Y-108137000D01*
G75*
G02*
X179643000Y-108386999I0J-249999D01*
G01*
X179643000Y-109037001D01*
G75*
G02*
X179393001Y-109287000I-249999J0D01*
G01*
X178492999Y-109287000D01*
G75*
G02*
X178243000Y-109037001I0J249999D01*
G01*
X178243000Y-108386999D01*
G75*
G02*
X178492999Y-108137000I249999J0D01*
G01*
G37*
G36*
G01*
X178492999Y-110187000D02*
X179393001Y-110187000D01*
G75*
G02*
X179643000Y-110436999I0J-249999D01*
G01*
X179643000Y-111087001D01*
G75*
G02*
X179393001Y-111337000I-249999J0D01*
G01*
X178492999Y-111337000D01*
G75*
G02*
X178243000Y-111087001I0J249999D01*
G01*
X178243000Y-110436999D01*
G75*
G02*
X178492999Y-110187000I249999J0D01*
G01*
G37*
G36*
G01*
X157322099Y-155284480D02*
X158222101Y-155284480D01*
G75*
G02*
X158472100Y-155534479I0J-249999D01*
G01*
X158472100Y-156184481D01*
G75*
G02*
X158222101Y-156434480I-249999J0D01*
G01*
X157322099Y-156434480D01*
G75*
G02*
X157072100Y-156184481I0J249999D01*
G01*
X157072100Y-155534479D01*
G75*
G02*
X157322099Y-155284480I249999J0D01*
G01*
G37*
G36*
G01*
X157322099Y-153234480D02*
X158222101Y-153234480D01*
G75*
G02*
X158472100Y-153484479I0J-249999D01*
G01*
X158472100Y-154134481D01*
G75*
G02*
X158222101Y-154384480I-249999J0D01*
G01*
X157322099Y-154384480D01*
G75*
G02*
X157072100Y-154134481I0J249999D01*
G01*
X157072100Y-153484479D01*
G75*
G02*
X157322099Y-153234480I249999J0D01*
G01*
G37*
G36*
G01*
X156753980Y-117599881D02*
X156753980Y-116699879D01*
G75*
G02*
X157003979Y-116449880I249999J0D01*
G01*
X157653981Y-116449880D01*
G75*
G02*
X157903980Y-116699879I0J-249999D01*
G01*
X157903980Y-117599881D01*
G75*
G02*
X157653981Y-117849880I-249999J0D01*
G01*
X157003979Y-117849880D01*
G75*
G02*
X156753980Y-117599881I0J249999D01*
G01*
G37*
G36*
G01*
X154703980Y-117599881D02*
X154703980Y-116699879D01*
G75*
G02*
X154953979Y-116449880I249999J0D01*
G01*
X155603981Y-116449880D01*
G75*
G02*
X155853980Y-116699879I0J-249999D01*
G01*
X155853980Y-117599881D01*
G75*
G02*
X155603981Y-117849880I-249999J0D01*
G01*
X154953979Y-117849880D01*
G75*
G02*
X154703980Y-117599881I0J249999D01*
G01*
G37*
G36*
G01*
X160038520Y-108033399D02*
X160038520Y-108933401D01*
G75*
G02*
X159788521Y-109183400I-249999J0D01*
G01*
X159138519Y-109183400D01*
G75*
G02*
X158888520Y-108933401I0J249999D01*
G01*
X158888520Y-108033399D01*
G75*
G02*
X159138519Y-107783400I249999J0D01*
G01*
X159788521Y-107783400D01*
G75*
G02*
X160038520Y-108033399I0J-249999D01*
G01*
G37*
G36*
G01*
X162088520Y-108033399D02*
X162088520Y-108933401D01*
G75*
G02*
X161838521Y-109183400I-249999J0D01*
G01*
X161188519Y-109183400D01*
G75*
G02*
X160938520Y-108933401I0J249999D01*
G01*
X160938520Y-108033399D01*
G75*
G02*
X161188519Y-107783400I249999J0D01*
G01*
X161838521Y-107783400D01*
G75*
G02*
X162088520Y-108033399I0J-249999D01*
G01*
G37*
M02*
