G04 #@! TF.GenerationSoftware,KiCad,Pcbnew,5.1.9+dfsg1-1+deb11u1*
G04 #@! TF.CreationDate,2023-05-26T17:04:48+02:00*
G04 #@! TF.ProjectId,ATSAMA5D27-SOM1_devboard2,41545341-4d41-4354-9432-372d534f4d31,rev?*
G04 #@! TF.SameCoordinates,Original*
G04 #@! TF.FileFunction,Soldermask,Bot*
G04 #@! TF.FilePolarity,Negative*
%FSLAX46Y46*%
G04 Gerber Fmt 4.6, Leading zero omitted, Abs format (unit mm)*
G04 Created by KiCad (PCBNEW 5.1.9+dfsg1-1+deb11u1) date 2023-05-26 17:04:48*
%MOMM*%
%LPD*%
G01*
G04 APERTURE LIST*
%ADD10C,3.352000*%
%ADD11C,2.502000*%
%ADD12C,1.632000*%
%ADD13C,1.502000*%
%ADD14C,2.702000*%
%ADD15C,1.602000*%
%ADD16C,3.672000*%
%ADD17C,2.102000*%
%ADD18O,1.802000X1.802000*%
%ADD19O,1.602000X1.202000*%
%ADD20O,1.802000X1.452000*%
%ADD21C,2.302000*%
G04 APERTURE END LIST*
D10*
X216331800Y-200863200D03*
X204901800Y-200863200D03*
D11*
X218466800Y-197813200D03*
X202766800Y-197813200D03*
D12*
X217256800Y-204913200D03*
X214716800Y-204913200D03*
X206516800Y-204913200D03*
X203976800Y-204913200D03*
D13*
X215061800Y-191973200D03*
X213791800Y-194513200D03*
X212521800Y-191973200D03*
X211251800Y-194513200D03*
X209981800Y-191973200D03*
X208711800Y-194513200D03*
X207441800Y-191973200D03*
X206171800Y-194513200D03*
G36*
G01*
X195785580Y-134413880D02*
X195785580Y-133413880D01*
G75*
G02*
X195836580Y-133362880I51000J0D01*
G01*
X198986580Y-133362880D01*
G75*
G02*
X199037580Y-133413880I0J-51000D01*
G01*
X199037580Y-134413880D01*
G75*
G02*
X198986580Y-134464880I-51000J0D01*
G01*
X195836580Y-134464880D01*
G75*
G02*
X195785580Y-134413880I0J51000D01*
G01*
G37*
G36*
G01*
X190735580Y-134413880D02*
X190735580Y-133413880D01*
G75*
G02*
X190786580Y-133362880I51000J0D01*
G01*
X193936580Y-133362880D01*
G75*
G02*
X193987580Y-133413880I0J-51000D01*
G01*
X193987580Y-134413880D01*
G75*
G02*
X193936580Y-134464880I-51000J0D01*
G01*
X190786580Y-134464880D01*
G75*
G02*
X190735580Y-134413880I0J51000D01*
G01*
G37*
G36*
G01*
X195785580Y-136953880D02*
X195785580Y-135953880D01*
G75*
G02*
X195836580Y-135902880I51000J0D01*
G01*
X198986580Y-135902880D01*
G75*
G02*
X199037580Y-135953880I0J-51000D01*
G01*
X199037580Y-136953880D01*
G75*
G02*
X198986580Y-137004880I-51000J0D01*
G01*
X195836580Y-137004880D01*
G75*
G02*
X195785580Y-136953880I0J51000D01*
G01*
G37*
G36*
G01*
X190735580Y-136953880D02*
X190735580Y-135953880D01*
G75*
G02*
X190786580Y-135902880I51000J0D01*
G01*
X193936580Y-135902880D01*
G75*
G02*
X193987580Y-135953880I0J-51000D01*
G01*
X193987580Y-136953880D01*
G75*
G02*
X193936580Y-137004880I-51000J0D01*
G01*
X190786580Y-137004880D01*
G75*
G02*
X190735580Y-136953880I0J51000D01*
G01*
G37*
G36*
G01*
X195785580Y-139493880D02*
X195785580Y-138493880D01*
G75*
G02*
X195836580Y-138442880I51000J0D01*
G01*
X198986580Y-138442880D01*
G75*
G02*
X199037580Y-138493880I0J-51000D01*
G01*
X199037580Y-139493880D01*
G75*
G02*
X198986580Y-139544880I-51000J0D01*
G01*
X195836580Y-139544880D01*
G75*
G02*
X195785580Y-139493880I0J51000D01*
G01*
G37*
G36*
G01*
X190735580Y-139493880D02*
X190735580Y-138493880D01*
G75*
G02*
X190786580Y-138442880I51000J0D01*
G01*
X193936580Y-138442880D01*
G75*
G02*
X193987580Y-138493880I0J-51000D01*
G01*
X193987580Y-139493880D01*
G75*
G02*
X193936580Y-139544880I-51000J0D01*
G01*
X190786580Y-139544880D01*
G75*
G02*
X190735580Y-139493880I0J51000D01*
G01*
G37*
G36*
G01*
X195785580Y-142033880D02*
X195785580Y-141033880D01*
G75*
G02*
X195836580Y-140982880I51000J0D01*
G01*
X198986580Y-140982880D01*
G75*
G02*
X199037580Y-141033880I0J-51000D01*
G01*
X199037580Y-142033880D01*
G75*
G02*
X198986580Y-142084880I-51000J0D01*
G01*
X195836580Y-142084880D01*
G75*
G02*
X195785580Y-142033880I0J51000D01*
G01*
G37*
G36*
G01*
X190735580Y-142033880D02*
X190735580Y-141033880D01*
G75*
G02*
X190786580Y-140982880I51000J0D01*
G01*
X193936580Y-140982880D01*
G75*
G02*
X193987580Y-141033880I0J-51000D01*
G01*
X193987580Y-142033880D01*
G75*
G02*
X193936580Y-142084880I-51000J0D01*
G01*
X190786580Y-142084880D01*
G75*
G02*
X190735580Y-142033880I0J51000D01*
G01*
G37*
G36*
G01*
X195785580Y-144573880D02*
X195785580Y-143573880D01*
G75*
G02*
X195836580Y-143522880I51000J0D01*
G01*
X198986580Y-143522880D01*
G75*
G02*
X199037580Y-143573880I0J-51000D01*
G01*
X199037580Y-144573880D01*
G75*
G02*
X198986580Y-144624880I-51000J0D01*
G01*
X195836580Y-144624880D01*
G75*
G02*
X195785580Y-144573880I0J51000D01*
G01*
G37*
G36*
G01*
X190735580Y-144573880D02*
X190735580Y-143573880D01*
G75*
G02*
X190786580Y-143522880I51000J0D01*
G01*
X193936580Y-143522880D01*
G75*
G02*
X193987580Y-143573880I0J-51000D01*
G01*
X193987580Y-144573880D01*
G75*
G02*
X193936580Y-144624880I-51000J0D01*
G01*
X190786580Y-144624880D01*
G75*
G02*
X190735580Y-144573880I0J51000D01*
G01*
G37*
G36*
G01*
X268000000Y-208863920D02*
X265400000Y-208863920D01*
G75*
G02*
X265349000Y-208812920I0J51000D01*
G01*
X265349000Y-206212920D01*
G75*
G02*
X265400000Y-206161920I51000J0D01*
G01*
X268000000Y-206161920D01*
G75*
G02*
X268051000Y-206212920I0J-51000D01*
G01*
X268051000Y-208812920D01*
G75*
G02*
X268000000Y-208863920I-51000J0D01*
G01*
G37*
D14*
X272700000Y-207512920D03*
X269700000Y-202812920D03*
D15*
X266914400Y-160324800D03*
X266914400Y-157824800D03*
X266914400Y-155824800D03*
X266914400Y-153324800D03*
D16*
X269624400Y-163394800D03*
X269624400Y-150254800D03*
G36*
G01*
X218918828Y-116214000D02*
X217961172Y-116214000D01*
G75*
G02*
X217689000Y-115941828I0J272172D01*
G01*
X217689000Y-115234172D01*
G75*
G02*
X217961172Y-114962000I272172J0D01*
G01*
X218918828Y-114962000D01*
G75*
G02*
X219191000Y-115234172I0J-272172D01*
G01*
X219191000Y-115941828D01*
G75*
G02*
X218918828Y-116214000I-272172J0D01*
G01*
G37*
G36*
G01*
X218918828Y-114164000D02*
X217961172Y-114164000D01*
G75*
G02*
X217689000Y-113891828I0J272172D01*
G01*
X217689000Y-113184172D01*
G75*
G02*
X217961172Y-112912000I272172J0D01*
G01*
X218918828Y-112912000D01*
G75*
G02*
X219191000Y-113184172I0J-272172D01*
G01*
X219191000Y-113891828D01*
G75*
G02*
X218918828Y-114164000I-272172J0D01*
G01*
G37*
G36*
G01*
X152830492Y-148898940D02*
X153788148Y-148898940D01*
G75*
G02*
X154060320Y-149171112I0J-272172D01*
G01*
X154060320Y-149878768D01*
G75*
G02*
X153788148Y-150150940I-272172J0D01*
G01*
X152830492Y-150150940D01*
G75*
G02*
X152558320Y-149878768I0J272172D01*
G01*
X152558320Y-149171112D01*
G75*
G02*
X152830492Y-148898940I272172J0D01*
G01*
G37*
G36*
G01*
X152830492Y-146848940D02*
X153788148Y-146848940D01*
G75*
G02*
X154060320Y-147121112I0J-272172D01*
G01*
X154060320Y-147828768D01*
G75*
G02*
X153788148Y-148100940I-272172J0D01*
G01*
X152830492Y-148100940D01*
G75*
G02*
X152558320Y-147828768I0J272172D01*
G01*
X152558320Y-147121112D01*
G75*
G02*
X152830492Y-146848940I272172J0D01*
G01*
G37*
G36*
G01*
X154151368Y-127783480D02*
X153193712Y-127783480D01*
G75*
G02*
X152921540Y-127511308I0J272172D01*
G01*
X152921540Y-126803652D01*
G75*
G02*
X153193712Y-126531480I272172J0D01*
G01*
X154151368Y-126531480D01*
G75*
G02*
X154423540Y-126803652I0J-272172D01*
G01*
X154423540Y-127511308D01*
G75*
G02*
X154151368Y-127783480I-272172J0D01*
G01*
G37*
G36*
G01*
X154151368Y-125733480D02*
X153193712Y-125733480D01*
G75*
G02*
X152921540Y-125461308I0J272172D01*
G01*
X152921540Y-124753652D01*
G75*
G02*
X153193712Y-124481480I272172J0D01*
G01*
X154151368Y-124481480D01*
G75*
G02*
X154423540Y-124753652I0J-272172D01*
G01*
X154423540Y-125461308D01*
G75*
G02*
X154151368Y-125733480I-272172J0D01*
G01*
G37*
G36*
G01*
X211521172Y-108086000D02*
X212478828Y-108086000D01*
G75*
G02*
X212751000Y-108358172I0J-272172D01*
G01*
X212751000Y-109065828D01*
G75*
G02*
X212478828Y-109338000I-272172J0D01*
G01*
X211521172Y-109338000D01*
G75*
G02*
X211249000Y-109065828I0J272172D01*
G01*
X211249000Y-108358172D01*
G75*
G02*
X211521172Y-108086000I272172J0D01*
G01*
G37*
G36*
G01*
X211521172Y-106036000D02*
X212478828Y-106036000D01*
G75*
G02*
X212751000Y-106308172I0J-272172D01*
G01*
X212751000Y-107015828D01*
G75*
G02*
X212478828Y-107288000I-272172J0D01*
G01*
X211521172Y-107288000D01*
G75*
G02*
X211249000Y-107015828I0J272172D01*
G01*
X211249000Y-106308172D01*
G75*
G02*
X211521172Y-106036000I272172J0D01*
G01*
G37*
G36*
G01*
X156950300Y-163000652D02*
X156950300Y-163958308D01*
G75*
G02*
X156678128Y-164230480I-272172J0D01*
G01*
X155970472Y-164230480D01*
G75*
G02*
X155698300Y-163958308I0J272172D01*
G01*
X155698300Y-163000652D01*
G75*
G02*
X155970472Y-162728480I272172J0D01*
G01*
X156678128Y-162728480D01*
G75*
G02*
X156950300Y-163000652I0J-272172D01*
G01*
G37*
G36*
G01*
X154900300Y-163000652D02*
X154900300Y-163958308D01*
G75*
G02*
X154628128Y-164230480I-272172J0D01*
G01*
X153920472Y-164230480D01*
G75*
G02*
X153648300Y-163958308I0J272172D01*
G01*
X153648300Y-163000652D01*
G75*
G02*
X153920472Y-162728480I272172J0D01*
G01*
X154628128Y-162728480D01*
G75*
G02*
X154900300Y-163000652I0J-272172D01*
G01*
G37*
G36*
G01*
X146201168Y-129840880D02*
X145243512Y-129840880D01*
G75*
G02*
X144971340Y-129568708I0J272172D01*
G01*
X144971340Y-128861052D01*
G75*
G02*
X145243512Y-128588880I272172J0D01*
G01*
X146201168Y-128588880D01*
G75*
G02*
X146473340Y-128861052I0J-272172D01*
G01*
X146473340Y-129568708D01*
G75*
G02*
X146201168Y-129840880I-272172J0D01*
G01*
G37*
G36*
G01*
X146201168Y-131890880D02*
X145243512Y-131890880D01*
G75*
G02*
X144971340Y-131618708I0J272172D01*
G01*
X144971340Y-130911052D01*
G75*
G02*
X145243512Y-130638880I272172J0D01*
G01*
X146201168Y-130638880D01*
G75*
G02*
X146473340Y-130911052I0J-272172D01*
G01*
X146473340Y-131618708D01*
G75*
G02*
X146201168Y-131890880I-272172J0D01*
G01*
G37*
G36*
G01*
X213807172Y-106036000D02*
X214764828Y-106036000D01*
G75*
G02*
X215037000Y-106308172I0J-272172D01*
G01*
X215037000Y-107015828D01*
G75*
G02*
X214764828Y-107288000I-272172J0D01*
G01*
X213807172Y-107288000D01*
G75*
G02*
X213535000Y-107015828I0J272172D01*
G01*
X213535000Y-106308172D01*
G75*
G02*
X213807172Y-106036000I272172J0D01*
G01*
G37*
G36*
G01*
X213807172Y-108086000D02*
X214764828Y-108086000D01*
G75*
G02*
X215037000Y-108358172I0J-272172D01*
G01*
X215037000Y-109065828D01*
G75*
G02*
X214764828Y-109338000I-272172J0D01*
G01*
X213807172Y-109338000D01*
G75*
G02*
X213535000Y-109065828I0J272172D01*
G01*
X213535000Y-108358172D01*
G75*
G02*
X213807172Y-108086000I272172J0D01*
G01*
G37*
G36*
G01*
X162421532Y-165309880D02*
X163379188Y-165309880D01*
G75*
G02*
X163651360Y-165582052I0J-272172D01*
G01*
X163651360Y-166289708D01*
G75*
G02*
X163379188Y-166561880I-272172J0D01*
G01*
X162421532Y-166561880D01*
G75*
G02*
X162149360Y-166289708I0J272172D01*
G01*
X162149360Y-165582052D01*
G75*
G02*
X162421532Y-165309880I272172J0D01*
G01*
G37*
G36*
G01*
X162421532Y-163259880D02*
X163379188Y-163259880D01*
G75*
G02*
X163651360Y-163532052I0J-272172D01*
G01*
X163651360Y-164239708D01*
G75*
G02*
X163379188Y-164511880I-272172J0D01*
G01*
X162421532Y-164511880D01*
G75*
G02*
X162149360Y-164239708I0J272172D01*
G01*
X162149360Y-163532052D01*
G75*
G02*
X162421532Y-163259880I272172J0D01*
G01*
G37*
G36*
G01*
X162162600Y-116673592D02*
X162162600Y-117631248D01*
G75*
G02*
X161890428Y-117903420I-272172J0D01*
G01*
X161182772Y-117903420D01*
G75*
G02*
X160910600Y-117631248I0J272172D01*
G01*
X160910600Y-116673592D01*
G75*
G02*
X161182772Y-116401420I272172J0D01*
G01*
X161890428Y-116401420D01*
G75*
G02*
X162162600Y-116673592I0J-272172D01*
G01*
G37*
G36*
G01*
X160112600Y-116673592D02*
X160112600Y-117631248D01*
G75*
G02*
X159840428Y-117903420I-272172J0D01*
G01*
X159132772Y-117903420D01*
G75*
G02*
X158860600Y-117631248I0J272172D01*
G01*
X158860600Y-116673592D01*
G75*
G02*
X159132772Y-116401420I272172J0D01*
G01*
X159840428Y-116401420D01*
G75*
G02*
X160112600Y-116673592I0J-272172D01*
G01*
G37*
G36*
G01*
X155825300Y-107687148D02*
X155825300Y-106729492D01*
G75*
G02*
X156097472Y-106457320I272172J0D01*
G01*
X156805128Y-106457320D01*
G75*
G02*
X157077300Y-106729492I0J-272172D01*
G01*
X157077300Y-107687148D01*
G75*
G02*
X156805128Y-107959320I-272172J0D01*
G01*
X156097472Y-107959320D01*
G75*
G02*
X155825300Y-107687148I0J272172D01*
G01*
G37*
G36*
G01*
X153775300Y-107687148D02*
X153775300Y-106729492D01*
G75*
G02*
X154047472Y-106457320I272172J0D01*
G01*
X154755128Y-106457320D01*
G75*
G02*
X155027300Y-106729492I0J-272172D01*
G01*
X155027300Y-107687148D01*
G75*
G02*
X154755128Y-107959320I-272172J0D01*
G01*
X154047472Y-107959320D01*
G75*
G02*
X153775300Y-107687148I0J272172D01*
G01*
G37*
G36*
G01*
X153696560Y-121045008D02*
X153696560Y-120087352D01*
G75*
G02*
X153968732Y-119815180I272172J0D01*
G01*
X154676388Y-119815180D01*
G75*
G02*
X154948560Y-120087352I0J-272172D01*
G01*
X154948560Y-121045008D01*
G75*
G02*
X154676388Y-121317180I-272172J0D01*
G01*
X153968732Y-121317180D01*
G75*
G02*
X153696560Y-121045008I0J272172D01*
G01*
G37*
G36*
G01*
X155746560Y-121045008D02*
X155746560Y-120087352D01*
G75*
G02*
X156018732Y-119815180I272172J0D01*
G01*
X156726388Y-119815180D01*
G75*
G02*
X156998560Y-120087352I0J-272172D01*
G01*
X156998560Y-121045008D01*
G75*
G02*
X156726388Y-121317180I-272172J0D01*
G01*
X156018732Y-121317180D01*
G75*
G02*
X155746560Y-121045008I0J272172D01*
G01*
G37*
G36*
G01*
X158918872Y-165266480D02*
X159876528Y-165266480D01*
G75*
G02*
X160148700Y-165538652I0J-272172D01*
G01*
X160148700Y-166246308D01*
G75*
G02*
X159876528Y-166518480I-272172J0D01*
G01*
X158918872Y-166518480D01*
G75*
G02*
X158646700Y-166246308I0J272172D01*
G01*
X158646700Y-165538652D01*
G75*
G02*
X158918872Y-165266480I272172J0D01*
G01*
G37*
G36*
G01*
X158918872Y-163216480D02*
X159876528Y-163216480D01*
G75*
G02*
X160148700Y-163488652I0J-272172D01*
G01*
X160148700Y-164196308D01*
G75*
G02*
X159876528Y-164468480I-272172J0D01*
G01*
X158918872Y-164468480D01*
G75*
G02*
X158646700Y-164196308I0J272172D01*
G01*
X158646700Y-163488652D01*
G75*
G02*
X158918872Y-163216480I272172J0D01*
G01*
G37*
G36*
G01*
X149914500Y-158225452D02*
X149914500Y-159183108D01*
G75*
G02*
X149642328Y-159455280I-272172J0D01*
G01*
X148934672Y-159455280D01*
G75*
G02*
X148662500Y-159183108I0J272172D01*
G01*
X148662500Y-158225452D01*
G75*
G02*
X148934672Y-157953280I272172J0D01*
G01*
X149642328Y-157953280D01*
G75*
G02*
X149914500Y-158225452I0J-272172D01*
G01*
G37*
G36*
G01*
X151964500Y-158225452D02*
X151964500Y-159183108D01*
G75*
G02*
X151692328Y-159455280I-272172J0D01*
G01*
X150984672Y-159455280D01*
G75*
G02*
X150712500Y-159183108I0J272172D01*
G01*
X150712500Y-158225452D01*
G75*
G02*
X150984672Y-157953280I272172J0D01*
G01*
X151692328Y-157953280D01*
G75*
G02*
X151964500Y-158225452I0J-272172D01*
G01*
G37*
D17*
X232943400Y-147929600D03*
X227943400Y-147929600D03*
G36*
G01*
X226605200Y-141972600D02*
X224905200Y-141972600D01*
G75*
G02*
X224854200Y-141921600I0J51000D01*
G01*
X224854200Y-140221600D01*
G75*
G02*
X224905200Y-140170600I51000J0D01*
G01*
X226605200Y-140170600D01*
G75*
G02*
X226656200Y-140221600I0J-51000D01*
G01*
X226656200Y-141921600D01*
G75*
G02*
X226605200Y-141972600I-51000J0D01*
G01*
G37*
D18*
X228295200Y-141071600D03*
X150350220Y-116492020D03*
X150350220Y-113952020D03*
G36*
G01*
X149449220Y-112262020D02*
X149449220Y-110562020D01*
G75*
G02*
X149500220Y-110511020I51000J0D01*
G01*
X151200220Y-110511020D01*
G75*
G02*
X151251220Y-110562020I0J-51000D01*
G01*
X151251220Y-112262020D01*
G75*
G02*
X151200220Y-112313020I-51000J0D01*
G01*
X149500220Y-112313020D01*
G75*
G02*
X149449220Y-112262020I0J51000D01*
G01*
G37*
G36*
G01*
X144855500Y-160343480D02*
X144855500Y-162043480D01*
G75*
G02*
X144804500Y-162094480I-51000J0D01*
G01*
X143104500Y-162094480D01*
G75*
G02*
X143053500Y-162043480I0J51000D01*
G01*
X143053500Y-160343480D01*
G75*
G02*
X143104500Y-160292480I51000J0D01*
G01*
X144804500Y-160292480D01*
G75*
G02*
X144855500Y-160343480I0J-51000D01*
G01*
G37*
X143954500Y-158653480D03*
X143954500Y-156113480D03*
G36*
G01*
X173013940Y-114537120D02*
X173013940Y-116237120D01*
G75*
G02*
X172962940Y-116288120I-51000J0D01*
G01*
X171262940Y-116288120D01*
G75*
G02*
X171211940Y-116237120I0J51000D01*
G01*
X171211940Y-114537120D01*
G75*
G02*
X171262940Y-114486120I51000J0D01*
G01*
X172962940Y-114486120D01*
G75*
G02*
X173013940Y-114537120I0J-51000D01*
G01*
G37*
X172112940Y-112847120D03*
X172112940Y-110307120D03*
X172112940Y-107767120D03*
X172112940Y-105227120D03*
X161587180Y-201127360D03*
X159047180Y-201127360D03*
X156507180Y-201127360D03*
X153967180Y-201127360D03*
G36*
G01*
X152277180Y-202028360D02*
X150577180Y-202028360D01*
G75*
G02*
X150526180Y-201977360I0J51000D01*
G01*
X150526180Y-200277360D01*
G75*
G02*
X150577180Y-200226360I51000J0D01*
G01*
X152277180Y-200226360D01*
G75*
G02*
X152328180Y-200277360I0J-51000D01*
G01*
X152328180Y-201977360D01*
G75*
G02*
X152277180Y-202028360I-51000J0D01*
G01*
G37*
G36*
G01*
X151802400Y-183581940D02*
X151802400Y-185281940D01*
G75*
G02*
X151751400Y-185332940I-51000J0D01*
G01*
X150051400Y-185332940D01*
G75*
G02*
X150000400Y-185281940I0J51000D01*
G01*
X150000400Y-183581940D01*
G75*
G02*
X150051400Y-183530940I51000J0D01*
G01*
X151751400Y-183530940D01*
G75*
G02*
X151802400Y-183581940I0J-51000D01*
G01*
G37*
X150901400Y-181891940D03*
X150901400Y-179351940D03*
X150901400Y-176811940D03*
X150901400Y-174271940D03*
X156992320Y-174289720D03*
X156992320Y-176829720D03*
X156992320Y-179369720D03*
X156992320Y-181909720D03*
G36*
G01*
X157893320Y-183599720D02*
X157893320Y-185299720D01*
G75*
G02*
X157842320Y-185350720I-51000J0D01*
G01*
X156142320Y-185350720D01*
G75*
G02*
X156091320Y-185299720I0J51000D01*
G01*
X156091320Y-183599720D01*
G75*
G02*
X156142320Y-183548720I51000J0D01*
G01*
X157842320Y-183548720D01*
G75*
G02*
X157893320Y-183599720I0J-51000D01*
G01*
G37*
G36*
G01*
X152221300Y-209163220D02*
X150521300Y-209163220D01*
G75*
G02*
X150470300Y-209112220I0J51000D01*
G01*
X150470300Y-207412220D01*
G75*
G02*
X150521300Y-207361220I51000J0D01*
G01*
X152221300Y-207361220D01*
G75*
G02*
X152272300Y-207412220I0J-51000D01*
G01*
X152272300Y-209112220D01*
G75*
G02*
X152221300Y-209163220I-51000J0D01*
G01*
G37*
X153911300Y-208262220D03*
X156451300Y-208262220D03*
X158991300Y-208262220D03*
X161531300Y-208262220D03*
G36*
G01*
X144741000Y-194159440D02*
X143041000Y-194159440D01*
G75*
G02*
X142990000Y-194108440I0J51000D01*
G01*
X142990000Y-192408440D01*
G75*
G02*
X143041000Y-192357440I51000J0D01*
G01*
X144741000Y-192357440D01*
G75*
G02*
X144792000Y-192408440I0J-51000D01*
G01*
X144792000Y-194108440D01*
G75*
G02*
X144741000Y-194159440I-51000J0D01*
G01*
G37*
X146431000Y-193258440D03*
X148971000Y-193258440D03*
X151511000Y-193258440D03*
X154051000Y-193258440D03*
X156591000Y-193258440D03*
X159131000Y-193258440D03*
X161671000Y-193258440D03*
X143896080Y-166646860D03*
X143896080Y-169186860D03*
X143896080Y-171726860D03*
X143896080Y-174266860D03*
X143896080Y-176806860D03*
X143896080Y-179346860D03*
X143896080Y-181886860D03*
G36*
G01*
X144797080Y-183576860D02*
X144797080Y-185276860D01*
G75*
G02*
X144746080Y-185327860I-51000J0D01*
G01*
X143046080Y-185327860D01*
G75*
G02*
X142995080Y-185276860I0J51000D01*
G01*
X142995080Y-183576860D01*
G75*
G02*
X143046080Y-183525860I51000J0D01*
G01*
X144746080Y-183525860D01*
G75*
G02*
X144797080Y-183576860I0J-51000D01*
G01*
G37*
X233588560Y-111739680D03*
X231048560Y-111739680D03*
X233588560Y-109199680D03*
X231048560Y-109199680D03*
X233588560Y-106659680D03*
X231048560Y-106659680D03*
X233588560Y-104119680D03*
X231048560Y-104119680D03*
X233588560Y-101579680D03*
G36*
G01*
X230147560Y-102429680D02*
X230147560Y-100729680D01*
G75*
G02*
X230198560Y-100678680I51000J0D01*
G01*
X231898560Y-100678680D01*
G75*
G02*
X231949560Y-100729680I0J-51000D01*
G01*
X231949560Y-102429680D01*
G75*
G02*
X231898560Y-102480680I-51000J0D01*
G01*
X230198560Y-102480680D01*
G75*
G02*
X230147560Y-102429680I0J51000D01*
G01*
G37*
G36*
G01*
X147387880Y-150292700D02*
X147387880Y-151992700D01*
G75*
G02*
X147336880Y-152043700I-51000J0D01*
G01*
X145636880Y-152043700D01*
G75*
G02*
X145585880Y-151992700I0J51000D01*
G01*
X145585880Y-150292700D01*
G75*
G02*
X145636880Y-150241700I51000J0D01*
G01*
X147336880Y-150241700D01*
G75*
G02*
X147387880Y-150292700I0J-51000D01*
G01*
G37*
X143946880Y-151142700D03*
X146486880Y-148602700D03*
X143946880Y-148602700D03*
X146486880Y-146062700D03*
X143946880Y-146062700D03*
X146486880Y-143522700D03*
X143946880Y-143522700D03*
X146486880Y-140982700D03*
X143946880Y-140982700D03*
G36*
G01*
X186373400Y-204745020D02*
X188073400Y-204745020D01*
G75*
G02*
X188124400Y-204796020I0J-51000D01*
G01*
X188124400Y-206496020D01*
G75*
G02*
X188073400Y-206547020I-51000J0D01*
G01*
X186373400Y-206547020D01*
G75*
G02*
X186322400Y-206496020I0J51000D01*
G01*
X186322400Y-204796020D01*
G75*
G02*
X186373400Y-204745020I51000J0D01*
G01*
G37*
X187223400Y-208186020D03*
X184683400Y-205646020D03*
X184683400Y-208186020D03*
X182143400Y-205646020D03*
X182143400Y-208186020D03*
X179603400Y-205646020D03*
X179603400Y-208186020D03*
X177063400Y-205646020D03*
X177063400Y-208186020D03*
X174523400Y-205646020D03*
X174523400Y-208186020D03*
X171983400Y-205646020D03*
X171983400Y-208186020D03*
G36*
G01*
X237592500Y-131560000D02*
X239292500Y-131560000D01*
G75*
G02*
X239343500Y-131611000I0J-51000D01*
G01*
X239343500Y-133311000D01*
G75*
G02*
X239292500Y-133362000I-51000J0D01*
G01*
X237592500Y-133362000D01*
G75*
G02*
X237541500Y-133311000I0J51000D01*
G01*
X237541500Y-131611000D01*
G75*
G02*
X237592500Y-131560000I51000J0D01*
G01*
G37*
X238442500Y-135001000D03*
X235902500Y-132461000D03*
X235902500Y-135001000D03*
X233362500Y-132461000D03*
X233362500Y-135001000D03*
X230822500Y-132461000D03*
X230822500Y-135001000D03*
X228282500Y-132461000D03*
X228282500Y-135001000D03*
X225742500Y-132461000D03*
X225742500Y-135001000D03*
X223202500Y-132461000D03*
X223202500Y-135001000D03*
X220662500Y-132461000D03*
X220662500Y-135001000D03*
D19*
X276194200Y-173590200D03*
X276194200Y-168750200D03*
D20*
X279194200Y-173900200D03*
X279194200Y-168440200D03*
D21*
X252171200Y-120195600D03*
X252171200Y-142595600D03*
G36*
G01*
X186556760Y-133579908D02*
X186556760Y-132622252D01*
G75*
G02*
X186828932Y-132350080I272172J0D01*
G01*
X187536588Y-132350080D01*
G75*
G02*
X187808760Y-132622252I0J-272172D01*
G01*
X187808760Y-133579908D01*
G75*
G02*
X187536588Y-133852080I-272172J0D01*
G01*
X186828932Y-133852080D01*
G75*
G02*
X186556760Y-133579908I0J272172D01*
G01*
G37*
G36*
G01*
X184506760Y-133579908D02*
X184506760Y-132622252D01*
G75*
G02*
X184778932Y-132350080I272172J0D01*
G01*
X185486588Y-132350080D01*
G75*
G02*
X185758760Y-132622252I0J-272172D01*
G01*
X185758760Y-133579908D01*
G75*
G02*
X185486588Y-133852080I-272172J0D01*
G01*
X184778932Y-133852080D01*
G75*
G02*
X184506760Y-133579908I0J272172D01*
G01*
G37*
G36*
G01*
X206896932Y-156447600D02*
X207854588Y-156447600D01*
G75*
G02*
X208126760Y-156719772I0J-272172D01*
G01*
X208126760Y-157427428D01*
G75*
G02*
X207854588Y-157699600I-272172J0D01*
G01*
X206896932Y-157699600D01*
G75*
G02*
X206624760Y-157427428I0J272172D01*
G01*
X206624760Y-156719772D01*
G75*
G02*
X206896932Y-156447600I272172J0D01*
G01*
G37*
G36*
G01*
X206896932Y-158497600D02*
X207854588Y-158497600D01*
G75*
G02*
X208126760Y-158769772I0J-272172D01*
G01*
X208126760Y-159477428D01*
G75*
G02*
X207854588Y-159749600I-272172J0D01*
G01*
X206896932Y-159749600D01*
G75*
G02*
X206624760Y-159477428I0J272172D01*
G01*
X206624760Y-158769772D01*
G75*
G02*
X206896932Y-158497600I272172J0D01*
G01*
G37*
G36*
G01*
X209655372Y-160748040D02*
X210613028Y-160748040D01*
G75*
G02*
X210885200Y-161020212I0J-272172D01*
G01*
X210885200Y-161727868D01*
G75*
G02*
X210613028Y-162000040I-272172J0D01*
G01*
X209655372Y-162000040D01*
G75*
G02*
X209383200Y-161727868I0J272172D01*
G01*
X209383200Y-161020212D01*
G75*
G02*
X209655372Y-160748040I272172J0D01*
G01*
G37*
G36*
G01*
X209655372Y-158698040D02*
X210613028Y-158698040D01*
G75*
G02*
X210885200Y-158970212I0J-272172D01*
G01*
X210885200Y-159677868D01*
G75*
G02*
X210613028Y-159950040I-272172J0D01*
G01*
X209655372Y-159950040D01*
G75*
G02*
X209383200Y-159677868I0J272172D01*
G01*
X209383200Y-158970212D01*
G75*
G02*
X209655372Y-158698040I272172J0D01*
G01*
G37*
G36*
G01*
X209970260Y-148682672D02*
X209970260Y-149640328D01*
G75*
G02*
X209698088Y-149912500I-272172J0D01*
G01*
X208990432Y-149912500D01*
G75*
G02*
X208718260Y-149640328I0J272172D01*
G01*
X208718260Y-148682672D01*
G75*
G02*
X208990432Y-148410500I272172J0D01*
G01*
X209698088Y-148410500D01*
G75*
G02*
X209970260Y-148682672I0J-272172D01*
G01*
G37*
G36*
G01*
X207920260Y-148682672D02*
X207920260Y-149640328D01*
G75*
G02*
X207648088Y-149912500I-272172J0D01*
G01*
X206940432Y-149912500D01*
G75*
G02*
X206668260Y-149640328I0J272172D01*
G01*
X206668260Y-148682672D01*
G75*
G02*
X206940432Y-148410500I272172J0D01*
G01*
X207648088Y-148410500D01*
G75*
G02*
X207920260Y-148682672I0J-272172D01*
G01*
G37*
G36*
G01*
X204171512Y-160742740D02*
X205129168Y-160742740D01*
G75*
G02*
X205401340Y-161014912I0J-272172D01*
G01*
X205401340Y-161722568D01*
G75*
G02*
X205129168Y-161994740I-272172J0D01*
G01*
X204171512Y-161994740D01*
G75*
G02*
X203899340Y-161722568I0J272172D01*
G01*
X203899340Y-161014912D01*
G75*
G02*
X204171512Y-160742740I272172J0D01*
G01*
G37*
G36*
G01*
X204171512Y-158692740D02*
X205129168Y-158692740D01*
G75*
G02*
X205401340Y-158964912I0J-272172D01*
G01*
X205401340Y-159672568D01*
G75*
G02*
X205129168Y-159944740I-272172J0D01*
G01*
X204171512Y-159944740D01*
G75*
G02*
X203899340Y-159672568I0J272172D01*
G01*
X203899340Y-158964912D01*
G75*
G02*
X204171512Y-158692740I272172J0D01*
G01*
G37*
G36*
G01*
X185741200Y-135987752D02*
X185741200Y-136945408D01*
G75*
G02*
X185469028Y-137217580I-272172J0D01*
G01*
X184761372Y-137217580D01*
G75*
G02*
X184489200Y-136945408I0J272172D01*
G01*
X184489200Y-135987752D01*
G75*
G02*
X184761372Y-135715580I272172J0D01*
G01*
X185469028Y-135715580D01*
G75*
G02*
X185741200Y-135987752I0J-272172D01*
G01*
G37*
G36*
G01*
X187791200Y-135987752D02*
X187791200Y-136945408D01*
G75*
G02*
X187519028Y-137217580I-272172J0D01*
G01*
X186811372Y-137217580D01*
G75*
G02*
X186539200Y-136945408I0J272172D01*
G01*
X186539200Y-135987752D01*
G75*
G02*
X186811372Y-135715580I272172J0D01*
G01*
X187519028Y-135715580D01*
G75*
G02*
X187791200Y-135987752I0J-272172D01*
G01*
G37*
G36*
G01*
X178464172Y-108086000D02*
X179421828Y-108086000D01*
G75*
G02*
X179694000Y-108358172I0J-272172D01*
G01*
X179694000Y-109065828D01*
G75*
G02*
X179421828Y-109338000I-272172J0D01*
G01*
X178464172Y-109338000D01*
G75*
G02*
X178192000Y-109065828I0J272172D01*
G01*
X178192000Y-108358172D01*
G75*
G02*
X178464172Y-108086000I272172J0D01*
G01*
G37*
G36*
G01*
X178464172Y-110136000D02*
X179421828Y-110136000D01*
G75*
G02*
X179694000Y-110408172I0J-272172D01*
G01*
X179694000Y-111115828D01*
G75*
G02*
X179421828Y-111388000I-272172J0D01*
G01*
X178464172Y-111388000D01*
G75*
G02*
X178192000Y-111115828I0J272172D01*
G01*
X178192000Y-110408172D01*
G75*
G02*
X178464172Y-110136000I272172J0D01*
G01*
G37*
G36*
G01*
X157293272Y-155233480D02*
X158250928Y-155233480D01*
G75*
G02*
X158523100Y-155505652I0J-272172D01*
G01*
X158523100Y-156213308D01*
G75*
G02*
X158250928Y-156485480I-272172J0D01*
G01*
X157293272Y-156485480D01*
G75*
G02*
X157021100Y-156213308I0J272172D01*
G01*
X157021100Y-155505652D01*
G75*
G02*
X157293272Y-155233480I272172J0D01*
G01*
G37*
G36*
G01*
X157293272Y-153183480D02*
X158250928Y-153183480D01*
G75*
G02*
X158523100Y-153455652I0J-272172D01*
G01*
X158523100Y-154163308D01*
G75*
G02*
X158250928Y-154435480I-272172J0D01*
G01*
X157293272Y-154435480D01*
G75*
G02*
X157021100Y-154163308I0J272172D01*
G01*
X157021100Y-153455652D01*
G75*
G02*
X157293272Y-153183480I272172J0D01*
G01*
G37*
G36*
G01*
X156702980Y-117628708D02*
X156702980Y-116671052D01*
G75*
G02*
X156975152Y-116398880I272172J0D01*
G01*
X157682808Y-116398880D01*
G75*
G02*
X157954980Y-116671052I0J-272172D01*
G01*
X157954980Y-117628708D01*
G75*
G02*
X157682808Y-117900880I-272172J0D01*
G01*
X156975152Y-117900880D01*
G75*
G02*
X156702980Y-117628708I0J272172D01*
G01*
G37*
G36*
G01*
X154652980Y-117628708D02*
X154652980Y-116671052D01*
G75*
G02*
X154925152Y-116398880I272172J0D01*
G01*
X155632808Y-116398880D01*
G75*
G02*
X155904980Y-116671052I0J-272172D01*
G01*
X155904980Y-117628708D01*
G75*
G02*
X155632808Y-117900880I-272172J0D01*
G01*
X154925152Y-117900880D01*
G75*
G02*
X154652980Y-117628708I0J272172D01*
G01*
G37*
G36*
G01*
X160089520Y-108004572D02*
X160089520Y-108962228D01*
G75*
G02*
X159817348Y-109234400I-272172J0D01*
G01*
X159109692Y-109234400D01*
G75*
G02*
X158837520Y-108962228I0J272172D01*
G01*
X158837520Y-108004572D01*
G75*
G02*
X159109692Y-107732400I272172J0D01*
G01*
X159817348Y-107732400D01*
G75*
G02*
X160089520Y-108004572I0J-272172D01*
G01*
G37*
G36*
G01*
X162139520Y-108004572D02*
X162139520Y-108962228D01*
G75*
G02*
X161867348Y-109234400I-272172J0D01*
G01*
X161159692Y-109234400D01*
G75*
G02*
X160887520Y-108962228I0J272172D01*
G01*
X160887520Y-108004572D01*
G75*
G02*
X161159692Y-107732400I272172J0D01*
G01*
X161867348Y-107732400D01*
G75*
G02*
X162139520Y-108004572I0J-272172D01*
G01*
G37*
M02*
