%FSLAX45Y45*%
G04 Gerber Fmt 4.5, Leading zero omitted, Abs format (unit mm)*
G04 Created by KiCad (PCBNEW 5.1.9+dfsg1-1+deb11u1) date 2023-05-26 17:06:37*
%MOMM*%
%LPD*%
G01*
G04 APERTURE LIST*
%TA.AperFunction,Profile*%
%ADD10C,0.100000*%
%TD*%
%ADD11C,0.200000*%
%ADD12C,0.300000*%
G04 APERTURE END LIST*
D10*
X28092400Y-9601200D02*
X28092400Y-21539200D01*
X13817600Y-9601200D02*
X28092400Y-9601200D01*
X13817600Y-21539200D02*
X13817600Y-9601200D01*
X28092400Y-21539200D02*
X13817600Y-21539200D01*
D11*
X14346750Y-13362750D02*
X14379250Y-13395250D01*
X14379250Y-13362750D02*
X14346750Y-13395250D01*
X14558524Y-13237978D02*
X14591024Y-13270478D01*
X14591024Y-13237978D02*
X14558524Y-13270478D01*
X14666750Y-13636750D02*
X14699250Y-13669250D01*
X14699250Y-13636750D02*
X14666750Y-13669250D01*
X14737340Y-15851638D02*
X14769840Y-15884138D01*
X14769840Y-15851638D02*
X14737340Y-15884138D01*
X14910060Y-15503658D02*
X14942560Y-15536158D01*
X14942560Y-15503658D02*
X14910060Y-15536158D01*
X14910960Y-16197978D02*
X14943460Y-16230478D01*
X14943460Y-16197978D02*
X14910960Y-16230478D01*
X15283750Y-16353750D02*
X15316250Y-16386250D01*
X15316250Y-16353750D02*
X15283750Y-16386250D01*
X15319508Y-12137650D02*
X15352008Y-12170150D01*
X15352008Y-12137650D02*
X15319508Y-12170150D01*
X15323318Y-10611872D02*
X15355818Y-10644372D01*
X15355818Y-10611872D02*
X15323318Y-10644372D01*
X15340209Y-14444636D02*
X15372709Y-14477136D01*
X15372709Y-14444636D02*
X15340209Y-14477136D01*
X15363750Y-14611750D02*
X15396250Y-14644250D01*
X15396250Y-14611750D02*
X15363750Y-14644250D01*
X15379198Y-11699500D02*
X15411698Y-11732000D01*
X15411698Y-11699500D02*
X15379198Y-11732000D01*
X15403750Y-16173750D02*
X15436250Y-16206250D01*
X15436250Y-16173750D02*
X15403750Y-16206250D01*
X15433750Y-14525750D02*
X15466250Y-14558250D01*
X15466250Y-14525750D02*
X15433750Y-14558250D01*
X15760960Y-16113258D02*
X15793460Y-16145758D01*
X15793460Y-16113258D02*
X15760960Y-16145758D01*
X15761180Y-15755338D02*
X15793680Y-15787838D01*
X15793680Y-15755338D02*
X15761180Y-15787838D01*
X15879820Y-15962878D02*
X15912320Y-15995378D01*
X15912320Y-15962878D02*
X15879820Y-15995378D01*
X15946250Y-15823750D02*
X15978750Y-15856250D01*
X15978750Y-15823750D02*
X15946250Y-15856250D01*
X16277342Y-16190728D02*
X16309842Y-16223228D01*
X16309842Y-16190728D02*
X16277342Y-16223228D01*
X16278750Y-10738750D02*
X16311250Y-10771250D01*
X16311250Y-10738750D02*
X16278750Y-10771250D01*
X16358368Y-12982454D02*
X16390868Y-13014954D01*
X16390868Y-12982454D02*
X16358368Y-13014954D01*
X16412750Y-14546750D02*
X16445250Y-14579250D01*
X16445250Y-14546750D02*
X16412750Y-14579250D01*
X16464540Y-12900412D02*
X16497040Y-12932912D01*
X16497040Y-12900412D02*
X16464540Y-12932912D01*
X16591286Y-13186670D02*
X16623786Y-13219170D01*
X16623786Y-13186670D02*
X16591286Y-13219170D01*
X16676376Y-13861802D02*
X16708876Y-13894302D01*
X16708876Y-13861802D02*
X16676376Y-13894302D01*
X16860780Y-13861802D02*
X16893280Y-13894302D01*
X16893280Y-13861802D02*
X16860780Y-13894302D01*
X16938792Y-13781250D02*
X16971292Y-13813750D01*
X16971292Y-13781250D02*
X16938792Y-13813750D01*
X17029182Y-13619994D02*
X17061682Y-13652494D01*
X17061682Y-13619994D02*
X17029182Y-13652494D01*
X17102080Y-13701274D02*
X17134580Y-13733774D01*
X17134580Y-13701274D02*
X17102080Y-13733774D01*
X17335501Y-15941768D02*
X17368001Y-15974268D01*
X17368001Y-15941768D02*
X17335501Y-15974268D01*
X17364716Y-12740900D02*
X17397216Y-12773400D01*
X17397216Y-12740900D02*
X17364716Y-12773400D01*
X17365224Y-13141204D02*
X17397724Y-13173704D01*
X17397724Y-13141204D02*
X17365224Y-13173704D01*
X17406250Y-12586250D02*
X17438750Y-12618750D01*
X17438750Y-12586250D02*
X17406250Y-12618750D01*
X17486250Y-10341250D02*
X17518750Y-10373750D01*
X17518750Y-10341250D02*
X17486250Y-10373750D01*
X17488750Y-10501250D02*
X17521250Y-10533750D01*
X17521250Y-10501250D02*
X17488750Y-10533750D01*
X17566250Y-16411250D02*
X17598750Y-16443750D01*
X17598750Y-16411250D02*
X17566250Y-16443750D01*
X17597634Y-12498330D02*
X17630134Y-12530830D01*
X17630134Y-12498330D02*
X17597634Y-12530830D01*
X17597888Y-12366758D02*
X17630388Y-12399258D01*
X17630388Y-12366758D02*
X17597888Y-12399258D01*
X17728750Y-14101250D02*
X17761250Y-14133750D01*
X17761250Y-14101250D02*
X17728750Y-14133750D01*
X17728750Y-15861250D02*
X17761250Y-15893750D01*
X17761250Y-15861250D02*
X17728750Y-15893750D01*
X17731250Y-15461250D02*
X17763750Y-15493750D01*
X17763750Y-15461250D02*
X17731250Y-15493750D01*
X17762734Y-17180058D02*
X17795234Y-17212558D01*
X17795234Y-17180058D02*
X17762734Y-17212558D01*
X17766250Y-12873750D02*
X17798750Y-12906250D01*
X17798750Y-12873750D02*
X17766250Y-12906250D01*
X17766250Y-13056250D02*
X17798750Y-13088750D01*
X17798750Y-13056250D02*
X17766250Y-13088750D01*
X17776250Y-12676250D02*
X17808750Y-12708750D01*
X17808750Y-12676250D02*
X17776250Y-12708750D01*
X17780514Y-13542016D02*
X17813014Y-13574516D01*
X17813014Y-13542016D02*
X17780514Y-13574516D01*
X17783750Y-13436250D02*
X17816250Y-13468750D01*
X17816250Y-13436250D02*
X17783750Y-13468750D01*
X17785120Y-13299471D02*
X17817620Y-13331971D01*
X17817620Y-13299471D02*
X17785120Y-13331971D01*
X17888750Y-15381249D02*
X17921250Y-15413749D01*
X17921250Y-15381249D02*
X17888750Y-15413749D01*
X17888750Y-15541250D02*
X17921250Y-15573750D01*
X17921250Y-15541250D02*
X17888750Y-15573750D01*
X17909038Y-17181328D02*
X17941538Y-17213828D01*
X17941538Y-17181328D02*
X17909038Y-17213828D01*
X17921230Y-12705848D02*
X17953730Y-12738348D01*
X17953730Y-12705848D02*
X17921230Y-12738348D01*
X18015464Y-12706864D02*
X18047964Y-12739364D01*
X18047964Y-12706864D02*
X18015464Y-12739364D01*
X18055088Y-17180312D02*
X18087588Y-17212812D01*
X18087588Y-17180312D02*
X18055088Y-17212812D01*
X18086330Y-16173964D02*
X18118830Y-16206464D01*
X18118830Y-16173964D02*
X18086330Y-16206464D01*
X18095464Y-12826250D02*
X18127964Y-12858750D01*
X18127964Y-12826250D02*
X18095464Y-12858750D01*
X18146528Y-16049250D02*
X18179028Y-16081750D01*
X18179028Y-16049250D02*
X18146528Y-16081750D01*
X18177616Y-12705317D02*
X18210116Y-12737817D01*
X18210116Y-12705317D02*
X18177616Y-12737817D01*
X18218664Y-17180058D02*
X18251164Y-17212558D01*
X18251164Y-17180058D02*
X18218664Y-17212558D01*
X18259050Y-16026898D02*
X18291550Y-16059398D01*
X18291550Y-16026898D02*
X18259050Y-16059398D01*
X18305532Y-17898370D02*
X18338032Y-17930870D01*
X18338032Y-17898370D02*
X18305532Y-17930870D01*
X18335250Y-12706102D02*
X18367750Y-12738602D01*
X18367750Y-12706102D02*
X18335250Y-12738602D01*
X18340076Y-15942062D02*
X18372576Y-15974562D01*
X18372576Y-15942062D02*
X18340076Y-15974562D01*
X18387574Y-17179296D02*
X18420074Y-17211796D01*
X18420074Y-17179296D02*
X18387574Y-17211796D01*
X18414370Y-15865411D02*
X18446870Y-15897911D01*
X18446870Y-15865411D02*
X18414370Y-15897911D01*
X18496032Y-17178280D02*
X18528532Y-17210780D01*
X18528532Y-17178280D02*
X18496032Y-17210780D01*
X18498750Y-16073750D02*
X18531250Y-16106250D01*
X18531250Y-16073750D02*
X18498750Y-16106250D01*
X18551250Y-10671250D02*
X18583750Y-10703750D01*
X18583750Y-10671250D02*
X18551250Y-10703750D01*
X18551250Y-10778750D02*
X18583750Y-10811250D01*
X18583750Y-10778750D02*
X18551250Y-10811250D01*
X18590068Y-11888476D02*
X18622568Y-11920976D01*
X18622568Y-11888476D02*
X18590068Y-11920976D01*
X18591367Y-16182242D02*
X18623867Y-16214742D01*
X18623867Y-16182242D02*
X18591367Y-16214742D01*
X18973750Y-12811250D02*
X19006250Y-12843750D01*
X19006250Y-12811250D02*
X18973750Y-12843750D01*
X19036290Y-11888730D02*
X19068790Y-11921230D01*
X19068790Y-11888730D02*
X19036290Y-11921230D01*
X19055086Y-12704578D02*
X19087586Y-12737078D01*
X19087586Y-12704578D02*
X19055086Y-12737078D01*
X19136250Y-16246250D02*
X19168750Y-16278750D01*
X19168750Y-16246250D02*
X19136250Y-16278750D01*
X19336750Y-17392910D02*
X19369250Y-17425410D01*
X19369250Y-17392910D02*
X19336750Y-17425410D01*
X19375634Y-16205714D02*
X19408134Y-16238214D01*
X19408134Y-16205714D02*
X19375634Y-16238214D01*
X19488750Y-16206250D02*
X19521250Y-16238750D01*
X19521250Y-16206250D02*
X19488750Y-16238750D01*
X19615156Y-16207238D02*
X19647656Y-16239738D01*
X19647656Y-16207238D02*
X19615156Y-16239738D01*
X19616250Y-12676250D02*
X19648750Y-12708750D01*
X19648750Y-12676250D02*
X19616250Y-12708750D01*
X19678750Y-10123750D02*
X19711250Y-10156250D01*
X19711250Y-10123750D02*
X19678750Y-10156250D01*
X19774750Y-11799404D02*
X19807250Y-11831904D01*
X19807250Y-11799404D02*
X19774750Y-11831904D01*
X19776250Y-16243750D02*
X19808750Y-16276250D01*
X19808750Y-16243750D02*
X19776250Y-16276250D01*
X19853750Y-16156250D02*
X19886250Y-16188750D01*
X19886250Y-16156250D02*
X19853750Y-16188750D01*
X19854750Y-11921822D02*
X19887250Y-11954322D01*
X19887250Y-11921822D02*
X19854750Y-11954322D01*
X20033750Y-16221250D02*
X20066250Y-16253750D01*
X20066250Y-16221250D02*
X20033750Y-16253750D01*
X20048734Y-18953740D02*
X20081234Y-18986240D01*
X20081234Y-18953740D02*
X20048734Y-18986240D01*
X20056250Y-11293750D02*
X20088750Y-11326250D01*
X20088750Y-11293750D02*
X20056250Y-11326250D01*
X20093750Y-12231250D02*
X20126250Y-12263750D01*
X20126250Y-12231250D02*
X20093750Y-12263750D01*
X20098750Y-11631250D02*
X20131250Y-11663750D01*
X20131250Y-11631250D02*
X20098750Y-11663750D01*
X20102074Y-16013749D02*
X20134574Y-16046249D01*
X20134574Y-16013749D02*
X20102074Y-16046249D01*
X20121250Y-16913750D02*
X20153750Y-16946250D01*
X20153750Y-16913750D02*
X20121250Y-16946250D01*
X20141250Y-10728750D02*
X20173750Y-10761250D01*
X20173750Y-10728750D02*
X20141250Y-10761250D01*
X20163750Y-10203750D02*
X20196250Y-10236250D01*
X20196250Y-10203750D02*
X20163750Y-10236250D01*
X20168750Y-11298750D02*
X20201250Y-11331250D01*
X20201250Y-11298750D02*
X20168750Y-11331250D01*
X20226280Y-15627356D02*
X20258780Y-15659856D01*
X20258780Y-15627356D02*
X20226280Y-15659856D01*
X20254728Y-16206476D02*
X20287228Y-16238976D01*
X20287228Y-16206476D02*
X20254728Y-16238976D01*
X20255236Y-16914120D02*
X20287736Y-16946620D01*
X20287736Y-16914120D02*
X20255236Y-16946620D01*
X20263110Y-19137890D02*
X20295610Y-19170390D01*
X20295610Y-19137890D02*
X20263110Y-19170390D01*
X20325340Y-15625578D02*
X20357840Y-15658078D01*
X20357840Y-15625578D02*
X20325340Y-15658078D01*
X20325848Y-16983462D02*
X20358348Y-17015962D01*
X20358348Y-16983462D02*
X20325848Y-17015962D01*
X20333750Y-12676250D02*
X20366250Y-12708750D01*
X20366250Y-12676250D02*
X20333750Y-12708750D01*
X20336770Y-17657832D02*
X20369270Y-17690332D01*
X20369270Y-17657832D02*
X20336770Y-17690332D01*
X20390110Y-16773150D02*
X20422610Y-16805650D01*
X20422610Y-16773150D02*
X20390110Y-16805650D01*
X20390110Y-16910310D02*
X20422610Y-16942810D01*
X20422610Y-16910310D02*
X20390110Y-16942810D01*
X20446250Y-10796250D02*
X20478750Y-10828750D01*
X20478750Y-10796250D02*
X20446250Y-10828750D01*
X20458750Y-10663750D02*
X20491250Y-10696250D01*
X20491250Y-10663750D02*
X20458750Y-10696250D01*
X20468750Y-10916250D02*
X20501250Y-10948750D01*
X20501250Y-10916250D02*
X20468750Y-10948750D01*
X20496790Y-17794230D02*
X20529290Y-17826730D01*
X20529290Y-17794230D02*
X20496790Y-17826730D01*
X20625060Y-15378436D02*
X20657560Y-15410936D01*
X20657560Y-15378436D02*
X20625060Y-15410936D01*
X20654778Y-12139428D02*
X20687278Y-12171928D01*
X20687278Y-12139428D02*
X20654778Y-12171928D01*
X20721250Y-11728750D02*
X20753750Y-11761250D01*
X20753750Y-11728750D02*
X20721250Y-11761250D01*
X20733010Y-11994648D02*
X20765510Y-12027148D01*
X20765510Y-11994648D02*
X20733010Y-12027148D01*
X20813750Y-16248750D02*
X20846250Y-16281250D01*
X20846250Y-16248750D02*
X20813750Y-16281250D01*
X20815052Y-17524482D02*
X20847552Y-17556982D01*
X20847552Y-17524482D02*
X20815052Y-17556982D01*
X20816250Y-11818750D02*
X20848750Y-11851250D01*
X20848750Y-11818750D02*
X20816250Y-11851250D01*
X20816830Y-12048750D02*
X20849330Y-12081250D01*
X20849330Y-12048750D02*
X20816830Y-12081250D01*
X20821402Y-16918184D02*
X20853902Y-16950684D01*
X20853902Y-16918184D02*
X20821402Y-16950684D01*
X20821910Y-16773150D02*
X20854410Y-16805650D01*
X20854410Y-16773150D02*
X20821910Y-16805650D01*
X20850612Y-17794230D02*
X20883112Y-17826730D01*
X20883112Y-17794230D02*
X20850612Y-17826730D01*
X20861534Y-15460224D02*
X20894034Y-15492724D01*
X20894034Y-15460224D02*
X20861534Y-15492724D01*
X20864194Y-11585806D02*
X20896694Y-11618306D01*
X20896694Y-11585806D02*
X20864194Y-11618306D01*
X20873750Y-16643750D02*
X20906250Y-16676250D01*
X20906250Y-16643750D02*
X20873750Y-16676250D01*
X20893030Y-12140190D02*
X20925530Y-12172690D01*
X20925530Y-12140190D02*
X20893030Y-12172690D01*
X20915000Y-11725000D02*
X20947500Y-11757500D01*
X20947500Y-11725000D02*
X20915000Y-11757500D01*
X20993750Y-16646250D02*
X21026250Y-16678750D01*
X21026250Y-16646250D02*
X20993750Y-16678750D01*
X20996916Y-15605512D02*
X21029416Y-15638012D01*
X21029416Y-15605512D02*
X20996916Y-15638012D01*
X21075910Y-16773150D02*
X21108410Y-16805650D01*
X21108410Y-16773150D02*
X21075910Y-16805650D01*
X21078450Y-14899900D02*
X21110950Y-14932400D01*
X21110950Y-14899900D02*
X21078450Y-14932400D01*
X21080990Y-15540996D02*
X21113490Y-15573496D01*
X21113490Y-15540996D02*
X21080990Y-15573496D01*
X21094850Y-11210550D02*
X21127350Y-11243050D01*
X21127350Y-11210550D02*
X21094850Y-11243050D01*
X21098750Y-13701250D02*
X21131250Y-13733750D01*
X21131250Y-13701250D02*
X21098750Y-13733750D01*
X21098750Y-13941250D02*
X21131250Y-13973750D01*
X21131250Y-13941250D02*
X21098750Y-13973750D01*
X21098750Y-14181250D02*
X21131250Y-14213750D01*
X21131250Y-14181250D02*
X21098750Y-14213750D01*
X21098750Y-14421250D02*
X21131250Y-14453750D01*
X21131250Y-14421250D02*
X21098750Y-14453750D01*
X21098750Y-14741250D02*
X21131250Y-14773750D01*
X21131250Y-14741250D02*
X21098750Y-14773750D01*
X21098750Y-15221250D02*
X21131250Y-15253750D01*
X21131250Y-15221250D02*
X21098750Y-15253750D01*
X21101250Y-15701250D02*
X21133750Y-15733750D01*
X21133750Y-15701250D02*
X21101250Y-15733750D01*
X21263750Y-12511250D02*
X21296250Y-12543750D01*
X21296250Y-12511250D02*
X21263750Y-12543750D01*
X21263750Y-16411250D02*
X21296250Y-16443750D01*
X21296250Y-16411250D02*
X21263750Y-16443750D01*
X21421350Y-12902190D02*
X21453850Y-12934690D01*
X21453850Y-12902190D02*
X21421350Y-12934690D01*
X21421350Y-13298430D02*
X21453850Y-13330930D01*
X21453850Y-13298430D02*
X21421350Y-13330930D01*
X21421350Y-13623550D02*
X21453850Y-13656050D01*
X21453850Y-13623550D02*
X21421350Y-13656050D01*
X21502630Y-12140190D02*
X21535130Y-12172690D01*
X21535130Y-12140190D02*
X21502630Y-12172690D01*
X21535650Y-12932670D02*
X21568150Y-12965170D01*
X21568150Y-12932670D02*
X21535650Y-12965170D01*
X21624550Y-13293350D02*
X21657050Y-13325850D01*
X21657050Y-13293350D02*
X21624550Y-13325850D01*
X21624550Y-13511790D02*
X21657050Y-13544290D01*
X21657050Y-13511790D02*
X21624550Y-13544290D01*
X21737834Y-10209536D02*
X21770334Y-10242036D01*
X21770334Y-10209536D02*
X21737834Y-10242036D01*
X21761710Y-13669270D02*
X21794210Y-13701770D01*
X21794210Y-13669270D02*
X21761710Y-13701770D01*
X21795750Y-11054750D02*
X21828250Y-11087250D01*
X21828250Y-11054750D02*
X21795750Y-11087250D01*
X21830544Y-12823958D02*
X21863044Y-12856458D01*
X21863044Y-12823958D02*
X21830544Y-12856458D01*
X21868390Y-13105390D02*
X21900890Y-13137890D01*
X21900890Y-13105390D02*
X21868390Y-13137890D01*
X21868390Y-13669270D02*
X21900890Y-13701770D01*
X21900890Y-13669270D02*
X21868390Y-13701770D01*
X21939510Y-12983470D02*
X21972010Y-13015970D01*
X21972010Y-12983470D02*
X21939510Y-13015970D01*
X21995390Y-14716766D02*
X22027890Y-14749266D01*
X22027890Y-14716766D02*
X21995390Y-14749266D01*
X22001750Y-10115750D02*
X22034250Y-10148250D01*
X22034250Y-10115750D02*
X22001750Y-10148250D01*
X22036030Y-17149070D02*
X22068530Y-17181570D01*
X22068530Y-17149070D02*
X22036030Y-17181570D01*
X22067750Y-11161750D02*
X22100250Y-11194250D01*
X22100250Y-11161750D02*
X22067750Y-11194250D01*
X22102070Y-17458950D02*
X22134570Y-17491450D01*
X22134570Y-17458950D02*
X22102070Y-17491450D01*
X22102070Y-17951710D02*
X22134570Y-17984210D01*
X22134570Y-17951710D02*
X22102070Y-17984210D01*
X22116765Y-12971669D02*
X22149265Y-13004169D01*
X22149265Y-12971669D02*
X22116765Y-13004169D01*
X22169379Y-12893298D02*
X22201879Y-12925798D01*
X22201879Y-12893298D02*
X22169379Y-12925798D01*
X22173190Y-12048750D02*
X22205690Y-12081250D01*
X22205690Y-12048750D02*
X22173190Y-12081250D01*
X22249390Y-13737850D02*
X22281890Y-13770350D01*
X22281890Y-13737850D02*
X22249390Y-13770350D01*
X22249390Y-13908030D02*
X22281890Y-13940530D01*
X22281890Y-13908030D02*
X22249390Y-13940530D01*
X22289830Y-12595050D02*
X22322330Y-12627550D01*
X22322330Y-12595050D02*
X22289830Y-12627550D01*
X22292570Y-12823450D02*
X22325070Y-12855950D01*
X22325070Y-12823450D02*
X22292570Y-12855950D01*
X22319494Y-14131804D02*
X22351994Y-14164304D01*
X22351994Y-14131804D02*
X22319494Y-14164304D01*
X22321018Y-13820654D02*
X22353518Y-13853154D01*
X22353518Y-13820654D02*
X22321018Y-13853154D01*
X22322542Y-15028932D02*
X22355042Y-15061432D01*
X22355042Y-15028932D02*
X22322542Y-15061432D01*
X22322750Y-10138750D02*
X22355250Y-10171250D01*
X22355250Y-10138750D02*
X22322750Y-10171250D01*
X22483070Y-15147550D02*
X22515570Y-15180050D01*
X22515570Y-15147550D02*
X22483070Y-15180050D01*
X22487750Y-10966750D02*
X22520250Y-10999250D01*
X22520250Y-10966750D02*
X22487750Y-10999250D01*
X22489750Y-10869750D02*
X22522250Y-10902250D01*
X22522250Y-10869750D02*
X22489750Y-10902250D01*
X22518430Y-12357811D02*
X22550930Y-12390311D01*
X22550930Y-12357811D02*
X22518430Y-12390311D01*
X22538950Y-17123670D02*
X22571450Y-17156170D01*
X22571450Y-17123670D02*
X22538950Y-17156170D01*
X22541490Y-17217650D02*
X22573990Y-17250150D01*
X22573990Y-17217650D02*
X22541490Y-17250150D01*
X22886930Y-17829790D02*
X22919430Y-17862290D01*
X22919430Y-17829790D02*
X22886930Y-17862290D01*
X22907250Y-12893299D02*
X22939750Y-12925799D01*
X22939750Y-12893299D02*
X22907250Y-12925799D01*
X22909790Y-17657070D02*
X22942290Y-17689570D01*
X22942290Y-17657070D02*
X22909790Y-17689570D01*
X22993750Y-11893750D02*
X23026250Y-11926250D01*
X23026250Y-11893750D02*
X22993750Y-11926250D01*
X23202652Y-17120876D02*
X23235152Y-17153376D01*
X23235152Y-17120876D02*
X23202652Y-17153376D01*
X23250150Y-16006070D02*
X23282650Y-16038570D01*
X23282650Y-16006070D02*
X23250150Y-16038570D01*
X23311110Y-15030710D02*
X23343610Y-15063210D01*
X23343610Y-15030710D02*
X23311110Y-15063210D01*
X23318730Y-12892030D02*
X23351230Y-12924530D01*
X23351230Y-12892030D02*
X23318730Y-12924530D01*
X23366990Y-16067030D02*
X23399490Y-16099530D01*
X23399490Y-16067030D02*
X23366990Y-16099530D01*
X23382230Y-18952470D02*
X23414730Y-18984970D01*
X23414730Y-18952470D02*
X23382230Y-18984970D01*
X23468590Y-15030710D02*
X23501090Y-15063210D01*
X23501090Y-15030710D02*
X23468590Y-15063210D01*
X23493990Y-17723110D02*
X23526490Y-17755610D01*
X23526490Y-17723110D02*
X23493990Y-17755610D01*
X23501610Y-14062970D02*
X23534110Y-14095470D01*
X23534110Y-14062970D02*
X23501610Y-14095470D01*
X23539710Y-15746989D02*
X23572210Y-15779489D01*
X23572210Y-15746989D02*
X23539710Y-15779489D01*
X23539710Y-16473430D02*
X23572210Y-16505930D01*
X23572210Y-16473430D02*
X23539710Y-16505930D01*
X23547330Y-18474950D02*
X23579830Y-18507450D01*
X23579830Y-18474950D02*
X23547330Y-18507450D01*
X23651470Y-15746990D02*
X23683970Y-15779490D01*
X23683970Y-15746990D02*
X23651470Y-15779490D01*
X23651470Y-16229590D02*
X23683970Y-16262090D01*
X23683970Y-16229590D02*
X23651470Y-16262090D01*
X23702270Y-18350490D02*
X23734770Y-18382990D01*
X23734770Y-18350490D02*
X23702270Y-18382990D01*
X23733750Y-18761250D02*
X23766250Y-18793750D01*
X23766250Y-18761250D02*
X23733750Y-18793750D01*
X23813750Y-19016250D02*
X23846250Y-19048750D01*
X23846250Y-19016250D02*
X23813750Y-19048750D01*
X23819350Y-18626910D02*
X23851850Y-18659410D01*
X23851850Y-18626910D02*
X23819350Y-18659410D01*
X23879562Y-18253462D02*
X23912062Y-18285962D01*
X23912062Y-18253462D02*
X23879562Y-18285962D01*
X23885150Y-16072110D02*
X23917650Y-16104610D01*
X23917650Y-16072110D02*
X23885150Y-16104610D01*
X23935848Y-12093302D02*
X23968348Y-12125802D01*
X23968348Y-12093302D02*
X23935848Y-12125802D01*
X23936250Y-18761250D02*
X23968750Y-18793750D01*
X23968750Y-18761250D02*
X23936250Y-18793750D01*
X23936458Y-11692896D02*
X23968958Y-11725396D01*
X23968958Y-11692896D02*
X23936458Y-11725396D01*
X23944586Y-18349728D02*
X23977086Y-18382228D01*
X23977086Y-18349728D02*
X23944586Y-18382228D01*
X23953550Y-19117570D02*
X23986050Y-19150070D01*
X23986050Y-19117570D02*
X23953550Y-19150070D01*
X24056250Y-18423750D02*
X24088750Y-18456250D01*
X24088750Y-18423750D02*
X24056250Y-18456250D01*
X24145130Y-20101450D02*
X24177630Y-20133950D01*
X24177630Y-20101450D02*
X24145130Y-20133950D01*
X24160486Y-18494762D02*
X24192986Y-18527262D01*
X24192986Y-18494762D02*
X24160486Y-18527262D01*
X24213750Y-14203750D02*
X24246250Y-14236250D01*
X24246250Y-14203750D02*
X24213750Y-14236250D01*
X24213750Y-13681250D02*
X24246250Y-13713750D01*
X24246250Y-13681250D02*
X24213750Y-13713750D01*
X24220430Y-12353550D02*
X24252930Y-12386050D01*
X24252930Y-12353550D02*
X24220430Y-12386050D01*
X24220430Y-13453370D02*
X24252930Y-13485870D01*
X24252930Y-13453370D02*
X24220430Y-13485870D01*
X24264372Y-18687548D02*
X24296872Y-18720048D01*
X24296872Y-18687548D02*
X24264372Y-18720048D01*
X24281390Y-19120110D02*
X24313890Y-19152610D01*
X24313890Y-19120110D02*
X24281390Y-19152610D01*
X24308314Y-15285218D02*
X24340814Y-15317718D01*
X24340814Y-15285218D02*
X24308314Y-15317718D01*
X24365030Y-19597630D02*
X24397530Y-19630130D01*
X24397530Y-19597630D02*
X24365030Y-19630130D01*
X24371052Y-13680954D02*
X24403552Y-13713454D01*
X24403552Y-13680954D02*
X24371052Y-13713454D01*
X24375878Y-14194542D02*
X24408378Y-14227042D01*
X24408378Y-14194542D02*
X24375878Y-14227042D01*
X24463750Y-15283748D02*
X24496250Y-15316248D01*
X24496250Y-15283748D02*
X24463750Y-15316248D01*
X24471250Y-15031250D02*
X24503750Y-15063750D01*
X24503750Y-15031250D02*
X24471250Y-15063750D01*
X24478240Y-15996164D02*
X24510740Y-16028664D01*
X24510740Y-15996164D02*
X24478240Y-16028664D01*
X24498757Y-16605510D02*
X24531257Y-16638010D01*
X24531257Y-16605510D02*
X24498757Y-16638010D01*
X24736050Y-14108691D02*
X24768550Y-14141191D01*
X24768550Y-14108691D02*
X24736050Y-14141191D01*
X24757640Y-17888464D02*
X24790140Y-17920964D01*
X24790140Y-17888464D02*
X24757640Y-17920964D01*
X24915120Y-17651482D02*
X24947620Y-17683982D01*
X24947620Y-17651482D02*
X24915120Y-17683982D01*
X24916390Y-17885670D02*
X24948890Y-17918170D01*
X24948890Y-17885670D02*
X24916390Y-17918170D01*
X25018498Y-14899138D02*
X25050998Y-14931638D01*
X25050998Y-14899138D02*
X25018498Y-14931638D01*
X25079712Y-16113004D02*
X25112212Y-16145504D01*
X25112212Y-16113004D02*
X25079712Y-16145504D01*
X25081236Y-16809726D02*
X25113736Y-16842226D01*
X25113736Y-16809726D02*
X25081236Y-16842226D01*
X25293834Y-15584430D02*
X25326334Y-15616930D01*
X25326334Y-15584430D02*
X25293834Y-15616930D01*
X25418750Y-15161250D02*
X25451250Y-15193750D01*
X25451250Y-15161250D02*
X25418750Y-15193750D01*
X25438360Y-17711426D02*
X25470860Y-17743926D01*
X25470860Y-17711426D02*
X25438360Y-17743926D01*
X25536150Y-20278350D02*
X25568650Y-20310850D01*
X25568650Y-20278350D02*
X25536150Y-20310850D01*
X25536150Y-20491710D02*
X25568650Y-20524210D01*
X25568650Y-20491710D02*
X25536150Y-20524210D01*
X25593750Y-15653750D02*
X25626250Y-15686250D01*
X25626250Y-15653750D02*
X25593750Y-15686250D01*
X25593750Y-17713750D02*
X25626250Y-17746250D01*
X25626250Y-17713750D02*
X25593750Y-17746250D01*
X17787300Y-11188700D02*
G75*
G03*
X17787300Y-11188700I-20000J0D01*
G01*
X18257200Y-11188700D02*
G75*
G03*
X18257200Y-11188700I-20000J0D01*
G01*
X14260499Y-13355000D02*
X14260499Y-13405000D01*
X14235499Y-13380000D02*
X14285499Y-13380000D01*
X14830000Y-12485000D02*
X14830000Y-12535000D01*
X14805000Y-12510000D02*
X14855000Y-12510000D01*
X15330000Y-15765000D02*
X15330000Y-15815000D01*
X15305000Y-15790000D02*
X15355000Y-15790000D01*
X15412000Y-14794000D02*
X15412000Y-14844000D01*
X15387000Y-14819000D02*
X15437000Y-14819000D01*
X15472500Y-12830000D02*
X15472500Y-12880000D01*
X15447500Y-12855000D02*
X15497500Y-12855000D01*
X15780000Y-15012500D02*
X15780000Y-15062500D01*
X15755000Y-15037500D02*
X15805000Y-15037500D01*
X15820000Y-12035000D02*
X15820000Y-12085000D01*
X15795000Y-12060000D02*
X15845000Y-12060000D01*
X15835000Y-13435000D02*
X15835000Y-13485000D01*
X15810000Y-13460000D02*
X15860000Y-13460000D01*
X15840000Y-11505000D02*
X15840000Y-11555000D01*
X15815000Y-11530000D02*
X15865000Y-11530000D01*
X15849600Y-10643000D02*
X15849600Y-10693000D01*
X15824600Y-10668000D02*
X15874600Y-10668000D01*
X15940000Y-16745000D02*
X15940000Y-16795000D01*
X15915000Y-16770000D02*
X15965000Y-16770000D01*
X16092500Y-15397500D02*
X16092500Y-15447500D01*
X16067500Y-15422500D02*
X16117500Y-15422500D01*
X18044991Y-10730001D02*
X18044991Y-10780001D01*
X18019991Y-10755001D02*
X18069991Y-10755001D01*
X18045400Y-10845000D02*
X18045400Y-10895000D01*
X18020400Y-10870000D02*
X18070400Y-10870000D01*
X18215000Y-10167500D02*
X18215000Y-10217500D01*
X18190000Y-10192500D02*
X18240000Y-10192500D01*
X18870000Y-17052500D02*
X18870000Y-17102500D01*
X18845000Y-17077500D02*
X18895000Y-17077500D01*
X18922500Y-13285000D02*
X18922500Y-13335000D01*
X18897500Y-13310000D02*
X18947500Y-13310000D01*
X18997500Y-14382500D02*
X18997500Y-14432500D01*
X18972500Y-14407500D02*
X19022500Y-14407500D01*
X19050000Y-11380000D02*
X19050000Y-11430000D01*
X19025000Y-11405000D02*
X19075000Y-11405000D01*
X19237500Y-14000000D02*
X19237500Y-14050000D01*
X19212500Y-14025000D02*
X19262500Y-14025000D01*
X19307500Y-20627500D02*
X19307500Y-20677500D01*
X19282500Y-20652500D02*
X19332500Y-20652500D01*
X19710000Y-17222500D02*
X19710000Y-17272500D01*
X19685000Y-17247500D02*
X19735000Y-17247500D01*
X20737500Y-16137500D02*
X20737500Y-16187500D01*
X20712500Y-16162500D02*
X20762500Y-16162500D01*
X21315000Y-10977500D02*
X21315000Y-11027500D01*
X21290000Y-11002500D02*
X21340000Y-11002500D01*
X21615000Y-10932500D02*
X21615000Y-10982500D01*
X21590000Y-10957500D02*
X21640000Y-10957500D01*
X21842500Y-11685000D02*
X21842500Y-11735000D01*
X21817500Y-11710000D02*
X21867500Y-11710000D01*
X22010000Y-15320000D02*
X22010000Y-15370000D01*
X21985000Y-15345000D02*
X22035000Y-15345000D01*
X22012500Y-11330000D02*
X22012500Y-11380000D01*
X21987500Y-11355000D02*
X22037500Y-11355000D01*
X22012500Y-14905000D02*
X22012500Y-14955000D01*
X21987500Y-14930000D02*
X22037500Y-14930000D01*
X22110000Y-16970000D02*
X22110000Y-17020000D01*
X22085000Y-16995000D02*
X22135000Y-16995000D01*
X22115000Y-16215000D02*
X22115000Y-16265000D01*
X22090000Y-16240000D02*
X22140000Y-16240000D01*
X22281540Y-16219040D02*
X22281540Y-16269040D01*
X22256540Y-16244040D02*
X22306540Y-16244040D01*
X22415000Y-19402500D02*
X22415000Y-19452500D01*
X22390000Y-19427500D02*
X22440000Y-19427500D01*
X22620000Y-20627500D02*
X22620000Y-20677500D01*
X22595000Y-20652500D02*
X22645000Y-20652500D01*
X22707500Y-12130000D02*
X22707500Y-12180000D01*
X22682500Y-12155000D02*
X22732500Y-12155000D01*
X22842500Y-16972500D02*
X22842500Y-17022500D01*
X22817500Y-16997500D02*
X22867500Y-16997500D01*
X22852500Y-16222500D02*
X22852500Y-16272500D01*
X22827500Y-16247500D02*
X22877500Y-16247500D01*
X22975000Y-15360000D02*
X22975000Y-15410000D01*
X22950000Y-15385000D02*
X23000000Y-15385000D01*
X23535000Y-16972500D02*
X23535000Y-17022500D01*
X23510000Y-16997500D02*
X23560000Y-16997500D01*
X23715000Y-15295000D02*
X23715000Y-15345000D01*
X23690000Y-15320000D02*
X23740000Y-15320000D01*
X24095000Y-18017500D02*
X24095000Y-18067500D01*
X24070000Y-18042500D02*
X24120000Y-18042500D01*
X24155000Y-17375000D02*
X24155000Y-17425000D01*
X24130000Y-17400000D02*
X24180000Y-17400000D01*
X24812500Y-20992500D02*
X24812500Y-21042500D01*
X24787500Y-21017500D02*
X24837500Y-21017500D01*
X24815000Y-12937500D02*
X24815000Y-12987500D01*
X24790000Y-12962500D02*
X24840000Y-12962500D01*
X24815000Y-13187500D02*
X24815000Y-13237500D01*
X24790000Y-13212500D02*
X24840000Y-13212500D01*
X24942500Y-14650000D02*
X24942500Y-14700000D01*
X24917500Y-14675000D02*
X24967500Y-14675000D01*
X25035000Y-15385000D02*
X25035000Y-15435000D01*
X25010000Y-15410000D02*
X25060000Y-15410000D01*
X25502500Y-16437500D02*
X25502500Y-16487500D01*
X25477500Y-16462500D02*
X25527500Y-16462500D01*
X25502500Y-17135000D02*
X25502500Y-17185000D01*
X25477500Y-17160000D02*
X25527500Y-17160000D01*
X26012500Y-18292500D02*
X26012500Y-18342500D01*
X25987500Y-18317500D02*
X26037500Y-18317500D01*
X26955000Y-16767500D02*
X26955000Y-16817500D01*
X26930000Y-16792500D02*
X26980000Y-16792500D01*
X27145000Y-17690000D02*
X27145000Y-17740000D01*
X27120000Y-17715000D02*
X27170000Y-17715000D01*
X27292500Y-14275000D02*
X27292500Y-14325000D01*
X27267500Y-14300000D02*
X27317500Y-14300000D01*
X27357500Y-18687500D02*
X27357500Y-18737500D01*
X27332500Y-18712500D02*
X27382500Y-18712500D01*
X27642401Y-16898001D02*
X27642401Y-16852039D01*
X27596439Y-16852039D01*
X27596439Y-16898001D01*
X27642401Y-16898001D01*
X27639420Y-16852520D02*
X27599420Y-16852520D01*
X27639420Y-16897520D02*
X27599420Y-16897520D01*
X27599420Y-16852520D02*
G75*
G03*
X27599420Y-16897520I0J-22500D01*
G01*
X27639420Y-16897520D02*
G75*
G03*
X27639420Y-16852520I0J22500D01*
G01*
X27642401Y-17382001D02*
X27642401Y-17336039D01*
X27596439Y-17336039D01*
X27596439Y-17382001D01*
X27642401Y-17382001D01*
X27639420Y-17336520D02*
X27599420Y-17336520D01*
X27639420Y-17381520D02*
X27599420Y-17381520D01*
X27599420Y-17336520D02*
G75*
G03*
X27599420Y-17381520I0J-22500D01*
G01*
X27639420Y-17381520D02*
G75*
G03*
X27639420Y-17336520I0J22500D01*
G01*
X27919420Y-16879020D02*
X27954420Y-16844020D01*
X27919420Y-16809020D01*
X27884420Y-16844020D01*
X27919420Y-16879020D01*
X27944420Y-16819020D02*
X27894420Y-16819020D01*
X27944420Y-16869020D02*
X27894420Y-16869020D01*
X27894420Y-16819020D02*
G75*
G03*
X27894420Y-16869020I0J-25000D01*
G01*
X27944420Y-16869020D02*
G75*
G03*
X27944420Y-16819020I0J25000D01*
G01*
X27919420Y-17425020D02*
X27954420Y-17390020D01*
X27919420Y-17355020D01*
X27884420Y-17390020D01*
X27919420Y-17425020D01*
X27944420Y-17365020D02*
X27894420Y-17365020D01*
X27944420Y-17415020D02*
X27894420Y-17415020D01*
X27894420Y-17365020D02*
G75*
G03*
X27894420Y-17415020I0J-25000D01*
G01*
X27944420Y-17415020D02*
G75*
G03*
X27944420Y-17365020I0J25000D01*
G01*
X14362500Y-11352500D02*
X14437500Y-11427500D01*
X14437500Y-11352500D02*
X14362500Y-11427500D01*
X14437500Y-11390000D02*
G75*
G03*
X14437500Y-11390000I-37500J0D01*
G01*
X15572500Y-11852500D02*
X15647500Y-11927500D01*
X15647500Y-11852500D02*
X15572500Y-11927500D01*
X15647500Y-11890000D02*
G75*
G03*
X15647500Y-11890000I-37500J0D01*
G01*
X25747500Y-19417500D02*
X25822500Y-19492500D01*
X25822500Y-19417500D02*
X25747500Y-19492500D01*
X25822500Y-19455000D02*
G75*
G03*
X25822500Y-19455000I-37500J0D01*
G01*
X20572180Y-19406320D02*
X20662180Y-19496320D01*
X20662180Y-19406320D02*
X20572180Y-19496320D01*
X20617180Y-19406320D02*
X20617180Y-19496320D01*
X20572180Y-19451320D02*
X20662180Y-19451320D01*
X20699180Y-19152320D02*
X20789180Y-19242320D01*
X20789180Y-19152320D02*
X20699180Y-19242320D01*
X20744180Y-19152320D02*
X20744180Y-19242320D01*
X20699180Y-19197320D02*
X20789180Y-19197320D01*
X20826180Y-19406320D02*
X20916180Y-19496320D01*
X20916180Y-19406320D02*
X20826180Y-19496320D01*
X20871180Y-19406320D02*
X20871180Y-19496320D01*
X20826180Y-19451320D02*
X20916180Y-19451320D01*
X20953180Y-19152320D02*
X21043180Y-19242320D01*
X21043180Y-19152320D02*
X20953180Y-19242320D01*
X20998180Y-19152320D02*
X20998180Y-19242320D01*
X20953180Y-19197320D02*
X21043180Y-19197320D01*
X21080180Y-19406320D02*
X21170180Y-19496320D01*
X21170180Y-19406320D02*
X21080180Y-19496320D01*
X21125180Y-19406320D02*
X21125180Y-19496320D01*
X21080180Y-19451320D02*
X21170180Y-19451320D01*
X21207180Y-19152320D02*
X21297180Y-19242320D01*
X21297180Y-19152320D02*
X21207180Y-19242320D01*
X21252180Y-19152320D02*
X21252180Y-19242320D01*
X21207180Y-19197320D02*
X21297180Y-19197320D01*
X21334180Y-19406320D02*
X21424180Y-19496320D01*
X21424180Y-19406320D02*
X21334180Y-19496320D01*
X21379180Y-19406320D02*
X21379180Y-19496320D01*
X21334180Y-19451320D02*
X21424180Y-19451320D01*
X21461180Y-19152320D02*
X21551180Y-19242320D01*
X21551180Y-19152320D02*
X21461180Y-19242320D01*
X21506180Y-19152320D02*
X21506180Y-19242320D01*
X21461180Y-19197320D02*
X21551180Y-19197320D01*
X14339100Y-19275844D02*
X14439100Y-19375844D01*
X14439100Y-19275844D02*
X14339100Y-19375844D01*
X14424456Y-19361200D02*
X14424456Y-19290488D01*
X14353744Y-19290488D01*
X14353744Y-19361200D01*
X14424456Y-19361200D01*
X14339608Y-16614686D02*
X14439608Y-16714686D01*
X14439608Y-16614686D02*
X14339608Y-16714686D01*
X14424964Y-16700042D02*
X14424964Y-16629330D01*
X14354252Y-16629330D01*
X14354252Y-16700042D01*
X14424964Y-16700042D01*
X14339608Y-16868686D02*
X14439608Y-16968686D01*
X14439608Y-16868686D02*
X14339608Y-16968686D01*
X14424964Y-16954042D02*
X14424964Y-16883330D01*
X14354252Y-16883330D01*
X14354252Y-16954042D01*
X14424964Y-16954042D01*
X14339608Y-17122686D02*
X14439608Y-17222686D01*
X14439608Y-17122686D02*
X14339608Y-17222686D01*
X14424964Y-17208042D02*
X14424964Y-17137330D01*
X14354252Y-17137330D01*
X14354252Y-17208042D01*
X14424964Y-17208042D01*
X14339608Y-17376686D02*
X14439608Y-17476686D01*
X14439608Y-17376686D02*
X14339608Y-17476686D01*
X14424964Y-17462042D02*
X14424964Y-17391330D01*
X14354252Y-17391330D01*
X14354252Y-17462042D01*
X14424964Y-17462042D01*
X14339608Y-17630686D02*
X14439608Y-17730686D01*
X14439608Y-17630686D02*
X14339608Y-17730686D01*
X14424964Y-17716042D02*
X14424964Y-17645330D01*
X14354252Y-17645330D01*
X14354252Y-17716042D01*
X14424964Y-17716042D01*
X14339608Y-17884686D02*
X14439608Y-17984686D01*
X14439608Y-17884686D02*
X14339608Y-17984686D01*
X14424964Y-17970042D02*
X14424964Y-17899330D01*
X14354252Y-17899330D01*
X14354252Y-17970042D01*
X14424964Y-17970042D01*
X14339608Y-18138686D02*
X14439608Y-18238686D01*
X14439608Y-18138686D02*
X14339608Y-18238686D01*
X14424964Y-18224042D02*
X14424964Y-18153330D01*
X14354252Y-18153330D01*
X14354252Y-18224042D01*
X14424964Y-18224042D01*
X14339608Y-18392686D02*
X14439608Y-18492686D01*
X14439608Y-18392686D02*
X14339608Y-18492686D01*
X14424964Y-18478042D02*
X14424964Y-18407330D01*
X14354252Y-18407330D01*
X14354252Y-18478042D01*
X14424964Y-18478042D01*
X14344688Y-14048270D02*
X14444688Y-14148270D01*
X14444688Y-14048270D02*
X14344688Y-14148270D01*
X14430044Y-14133626D02*
X14430044Y-14062914D01*
X14359332Y-14062914D01*
X14359332Y-14133626D01*
X14430044Y-14133626D01*
X14344688Y-14302270D02*
X14444688Y-14402270D01*
X14444688Y-14302270D02*
X14344688Y-14402270D01*
X14430044Y-14387626D02*
X14430044Y-14316914D01*
X14359332Y-14316914D01*
X14359332Y-14387626D01*
X14430044Y-14387626D01*
X14344688Y-14556270D02*
X14444688Y-14656270D01*
X14444688Y-14556270D02*
X14344688Y-14656270D01*
X14430044Y-14641626D02*
X14430044Y-14570914D01*
X14359332Y-14570914D01*
X14359332Y-14641626D01*
X14430044Y-14641626D01*
X14344688Y-14810270D02*
X14444688Y-14910270D01*
X14444688Y-14810270D02*
X14344688Y-14910270D01*
X14430044Y-14895626D02*
X14430044Y-14824914D01*
X14359332Y-14824914D01*
X14359332Y-14895626D01*
X14430044Y-14895626D01*
X14344688Y-15064270D02*
X14444688Y-15164270D01*
X14444688Y-15064270D02*
X14344688Y-15164270D01*
X14430044Y-15149626D02*
X14430044Y-15078914D01*
X14359332Y-15078914D01*
X14359332Y-15149626D01*
X14430044Y-15149626D01*
X14345450Y-15561348D02*
X14445450Y-15661348D01*
X14445450Y-15561348D02*
X14345450Y-15661348D01*
X14430806Y-15646704D02*
X14430806Y-15575992D01*
X14360094Y-15575992D01*
X14360094Y-15646704D01*
X14430806Y-15646704D01*
X14345450Y-15815348D02*
X14445450Y-15915348D01*
X14445450Y-15815348D02*
X14345450Y-15915348D01*
X14430806Y-15900704D02*
X14430806Y-15829992D01*
X14360094Y-15829992D01*
X14360094Y-15900704D01*
X14430806Y-15900704D01*
X14345450Y-16069348D02*
X14445450Y-16169348D01*
X14445450Y-16069348D02*
X14345450Y-16169348D01*
X14430806Y-16154704D02*
X14430806Y-16083992D01*
X14360094Y-16083992D01*
X14360094Y-16154704D01*
X14430806Y-16154704D01*
X14593100Y-19275844D02*
X14693100Y-19375844D01*
X14693100Y-19275844D02*
X14593100Y-19375844D01*
X14678456Y-19361200D02*
X14678456Y-19290488D01*
X14607744Y-19290488D01*
X14607744Y-19361200D01*
X14678456Y-19361200D01*
X14598688Y-14048270D02*
X14698688Y-14148270D01*
X14698688Y-14048270D02*
X14598688Y-14148270D01*
X14684044Y-14133626D02*
X14684044Y-14062914D01*
X14613332Y-14062914D01*
X14613332Y-14133626D01*
X14684044Y-14133626D01*
X14598688Y-14302270D02*
X14698688Y-14402270D01*
X14698688Y-14302270D02*
X14598688Y-14402270D01*
X14684044Y-14387626D02*
X14684044Y-14316914D01*
X14613332Y-14316914D01*
X14613332Y-14387626D01*
X14684044Y-14387626D01*
X14598688Y-14556270D02*
X14698688Y-14656270D01*
X14698688Y-14556270D02*
X14598688Y-14656270D01*
X14684044Y-14641626D02*
X14684044Y-14570914D01*
X14613332Y-14570914D01*
X14613332Y-14641626D01*
X14684044Y-14641626D01*
X14598688Y-14810270D02*
X14698688Y-14910270D01*
X14698688Y-14810270D02*
X14598688Y-14910270D01*
X14684044Y-14895626D02*
X14684044Y-14824914D01*
X14613332Y-14824914D01*
X14613332Y-14895626D01*
X14684044Y-14895626D01*
X14598688Y-15064270D02*
X14698688Y-15164270D01*
X14698688Y-15064270D02*
X14598688Y-15164270D01*
X14684044Y-15149626D02*
X14684044Y-15078914D01*
X14613332Y-15078914D01*
X14613332Y-15149626D01*
X14684044Y-15149626D01*
X14847100Y-19275844D02*
X14947100Y-19375844D01*
X14947100Y-19275844D02*
X14847100Y-19375844D01*
X14932456Y-19361200D02*
X14932456Y-19290488D01*
X14861744Y-19290488D01*
X14861744Y-19361200D01*
X14932456Y-19361200D01*
X14985022Y-11091202D02*
X15085022Y-11191202D01*
X15085022Y-11091202D02*
X14985022Y-11191202D01*
X15070378Y-11176558D02*
X15070378Y-11105846D01*
X14999666Y-11105846D01*
X14999666Y-11176558D01*
X15070378Y-11176558D01*
X14985022Y-11345202D02*
X15085022Y-11445202D01*
X15085022Y-11345202D02*
X14985022Y-11445202D01*
X15070378Y-11430558D02*
X15070378Y-11359846D01*
X14999666Y-11359846D01*
X14999666Y-11430558D01*
X15070378Y-11430558D01*
X14985022Y-11599202D02*
X15085022Y-11699202D01*
X15085022Y-11599202D02*
X14985022Y-11699202D01*
X15070378Y-11684558D02*
X15070378Y-11613846D01*
X14999666Y-11613846D01*
X14999666Y-11684558D01*
X15070378Y-11684558D01*
X15040140Y-17377194D02*
X15140140Y-17477194D01*
X15140140Y-17377194D02*
X15040140Y-17477194D01*
X15125496Y-17462550D02*
X15125496Y-17391838D01*
X15054784Y-17391838D01*
X15054784Y-17462550D01*
X15125496Y-17462550D01*
X15040140Y-17631194D02*
X15140140Y-17731194D01*
X15140140Y-17631194D02*
X15040140Y-17731194D01*
X15125496Y-17716550D02*
X15125496Y-17645838D01*
X15054784Y-17645838D01*
X15054784Y-17716550D01*
X15125496Y-17716550D01*
X15040140Y-17885194D02*
X15140140Y-17985194D01*
X15140140Y-17885194D02*
X15040140Y-17985194D01*
X15125496Y-17970550D02*
X15125496Y-17899838D01*
X15054784Y-17899838D01*
X15054784Y-17970550D01*
X15125496Y-17970550D01*
X15040140Y-18139194D02*
X15140140Y-18239194D01*
X15140140Y-18139194D02*
X15040140Y-18239194D01*
X15125496Y-18224550D02*
X15125496Y-18153838D01*
X15054784Y-18153838D01*
X15054784Y-18224550D01*
X15125496Y-18224550D01*
X15040140Y-18393194D02*
X15140140Y-18493194D01*
X15140140Y-18393194D02*
X15040140Y-18493194D01*
X15125496Y-18478550D02*
X15125496Y-18407838D01*
X15054784Y-18407838D01*
X15054784Y-18478550D01*
X15125496Y-18478550D01*
X15087130Y-20776222D02*
X15187130Y-20876222D01*
X15187130Y-20776222D02*
X15087130Y-20876222D01*
X15172486Y-20861578D02*
X15172486Y-20790866D01*
X15101774Y-20790866D01*
X15101774Y-20861578D01*
X15172486Y-20861578D01*
X15092718Y-20062736D02*
X15192718Y-20162736D01*
X15192718Y-20062736D02*
X15092718Y-20162736D01*
X15178074Y-20148092D02*
X15178074Y-20077380D01*
X15107362Y-20077380D01*
X15107362Y-20148092D01*
X15178074Y-20148092D01*
X15101100Y-19275844D02*
X15201100Y-19375844D01*
X15201100Y-19275844D02*
X15101100Y-19375844D01*
X15186456Y-19361200D02*
X15186456Y-19290488D01*
X15115744Y-19290488D01*
X15115744Y-19361200D01*
X15186456Y-19361200D01*
X15341130Y-20776222D02*
X15441130Y-20876222D01*
X15441130Y-20776222D02*
X15341130Y-20876222D01*
X15426486Y-20861578D02*
X15426486Y-20790866D01*
X15355774Y-20790866D01*
X15355774Y-20861578D01*
X15426486Y-20861578D01*
X15346718Y-20062736D02*
X15446718Y-20162736D01*
X15446718Y-20062736D02*
X15346718Y-20162736D01*
X15432074Y-20148092D02*
X15432074Y-20077380D01*
X15361362Y-20077380D01*
X15361362Y-20148092D01*
X15432074Y-20148092D01*
X15355100Y-19275844D02*
X15455100Y-19375844D01*
X15455100Y-19275844D02*
X15355100Y-19375844D01*
X15440456Y-19361200D02*
X15440456Y-19290488D01*
X15369744Y-19290488D01*
X15369744Y-19361200D01*
X15440456Y-19361200D01*
X15595130Y-20776222D02*
X15695130Y-20876222D01*
X15695130Y-20776222D02*
X15595130Y-20876222D01*
X15680486Y-20861578D02*
X15680486Y-20790866D01*
X15609774Y-20790866D01*
X15609774Y-20861578D01*
X15680486Y-20861578D01*
X15600718Y-20062736D02*
X15700718Y-20162736D01*
X15700718Y-20062736D02*
X15600718Y-20162736D01*
X15686074Y-20148092D02*
X15686074Y-20077380D01*
X15615362Y-20077380D01*
X15615362Y-20148092D01*
X15686074Y-20148092D01*
X15609100Y-19275844D02*
X15709100Y-19375844D01*
X15709100Y-19275844D02*
X15609100Y-19375844D01*
X15694456Y-19361200D02*
X15694456Y-19290488D01*
X15623744Y-19290488D01*
X15623744Y-19361200D01*
X15694456Y-19361200D01*
X15649232Y-17378972D02*
X15749232Y-17478972D01*
X15749232Y-17378972D02*
X15649232Y-17478972D01*
X15734588Y-17464328D02*
X15734588Y-17393616D01*
X15663876Y-17393616D01*
X15663876Y-17464328D01*
X15734588Y-17464328D01*
X15649232Y-17632972D02*
X15749232Y-17732972D01*
X15749232Y-17632972D02*
X15649232Y-17732972D01*
X15734588Y-17718328D02*
X15734588Y-17647616D01*
X15663876Y-17647616D01*
X15663876Y-17718328D01*
X15734588Y-17718328D01*
X15649232Y-17886972D02*
X15749232Y-17986972D01*
X15749232Y-17886972D02*
X15649232Y-17986972D01*
X15734588Y-17972328D02*
X15734588Y-17901616D01*
X15663876Y-17901616D01*
X15663876Y-17972328D01*
X15734588Y-17972328D01*
X15649232Y-18140972D02*
X15749232Y-18240972D01*
X15749232Y-18140972D02*
X15649232Y-18240972D01*
X15734588Y-18226328D02*
X15734588Y-18155616D01*
X15663876Y-18155616D01*
X15663876Y-18226328D01*
X15734588Y-18226328D01*
X15649232Y-18394972D02*
X15749232Y-18494972D01*
X15749232Y-18394972D02*
X15649232Y-18494972D01*
X15734588Y-18480328D02*
X15734588Y-18409616D01*
X15663876Y-18409616D01*
X15663876Y-18480328D01*
X15734588Y-18480328D01*
X15849130Y-20776222D02*
X15949130Y-20876222D01*
X15949130Y-20776222D02*
X15849130Y-20876222D01*
X15934486Y-20861578D02*
X15934486Y-20790866D01*
X15863774Y-20790866D01*
X15863774Y-20861578D01*
X15934486Y-20861578D01*
X15854718Y-20062736D02*
X15954718Y-20162736D01*
X15954718Y-20062736D02*
X15854718Y-20162736D01*
X15940074Y-20148092D02*
X15940074Y-20077380D01*
X15869362Y-20077380D01*
X15869362Y-20148092D01*
X15940074Y-20148092D01*
X15863100Y-19275844D02*
X15963100Y-19375844D01*
X15963100Y-19275844D02*
X15863100Y-19375844D01*
X15948456Y-19361200D02*
X15948456Y-19290488D01*
X15877744Y-19290488D01*
X15877744Y-19361200D01*
X15948456Y-19361200D01*
X16103130Y-20776222D02*
X16203130Y-20876222D01*
X16203130Y-20776222D02*
X16103130Y-20876222D01*
X16188486Y-20861578D02*
X16188486Y-20790866D01*
X16117774Y-20790866D01*
X16117774Y-20861578D01*
X16188486Y-20861578D01*
X16108718Y-20062736D02*
X16208718Y-20162736D01*
X16208718Y-20062736D02*
X16108718Y-20162736D01*
X16194074Y-20148092D02*
X16194074Y-20077380D01*
X16123362Y-20077380D01*
X16123362Y-20148092D01*
X16194074Y-20148092D01*
X16117100Y-19275844D02*
X16217100Y-19375844D01*
X16217100Y-19275844D02*
X16117100Y-19375844D01*
X16202456Y-19361200D02*
X16202456Y-19290488D01*
X16131744Y-19290488D01*
X16131744Y-19361200D01*
X16202456Y-19361200D01*
X17148340Y-20514602D02*
X17248340Y-20614602D01*
X17248340Y-20514602D02*
X17148340Y-20614602D01*
X17233696Y-20599958D02*
X17233696Y-20529246D01*
X17162984Y-20529246D01*
X17162984Y-20599958D01*
X17233696Y-20599958D01*
X17148340Y-20768602D02*
X17248340Y-20868602D01*
X17248340Y-20768602D02*
X17148340Y-20868602D01*
X17233696Y-20853958D02*
X17233696Y-20783246D01*
X17162984Y-20783246D01*
X17162984Y-20853958D01*
X17233696Y-20853958D01*
X17161294Y-10472712D02*
X17261294Y-10572712D01*
X17261294Y-10472712D02*
X17161294Y-10572712D01*
X17246650Y-10558068D02*
X17246650Y-10487356D01*
X17175938Y-10487356D01*
X17175938Y-10558068D01*
X17246650Y-10558068D01*
X17161294Y-10726712D02*
X17261294Y-10826712D01*
X17261294Y-10726712D02*
X17161294Y-10826712D01*
X17246650Y-10812068D02*
X17246650Y-10741356D01*
X17175938Y-10741356D01*
X17175938Y-10812068D01*
X17246650Y-10812068D01*
X17161294Y-10980712D02*
X17261294Y-11080712D01*
X17261294Y-10980712D02*
X17161294Y-11080712D01*
X17246650Y-11066068D02*
X17246650Y-10995356D01*
X17175938Y-10995356D01*
X17175938Y-11066068D01*
X17246650Y-11066068D01*
X17161294Y-11234712D02*
X17261294Y-11334712D01*
X17261294Y-11234712D02*
X17161294Y-11334712D01*
X17246650Y-11320068D02*
X17246650Y-11249356D01*
X17175938Y-11249356D01*
X17175938Y-11320068D01*
X17246650Y-11320068D01*
X17161294Y-11488712D02*
X17261294Y-11588712D01*
X17261294Y-11488712D02*
X17161294Y-11588712D01*
X17246650Y-11574068D02*
X17246650Y-11503356D01*
X17175938Y-11503356D01*
X17175938Y-11574068D01*
X17246650Y-11574068D01*
X17402340Y-20514602D02*
X17502340Y-20614602D01*
X17502340Y-20514602D02*
X17402340Y-20614602D01*
X17487696Y-20599958D02*
X17487696Y-20529246D01*
X17416984Y-20529246D01*
X17416984Y-20599958D01*
X17487696Y-20599958D01*
X17402340Y-20768602D02*
X17502340Y-20868602D01*
X17502340Y-20768602D02*
X17402340Y-20868602D01*
X17487696Y-20853958D02*
X17487696Y-20783246D01*
X17416984Y-20783246D01*
X17416984Y-20853958D01*
X17487696Y-20853958D01*
X17656340Y-20514602D02*
X17756340Y-20614602D01*
X17756340Y-20514602D02*
X17656340Y-20614602D01*
X17741696Y-20599958D02*
X17741696Y-20529246D01*
X17670984Y-20529246D01*
X17670984Y-20599958D01*
X17741696Y-20599958D01*
X17656340Y-20768602D02*
X17756340Y-20868602D01*
X17756340Y-20768602D02*
X17656340Y-20868602D01*
X17741696Y-20853958D02*
X17741696Y-20783246D01*
X17670984Y-20783246D01*
X17670984Y-20853958D01*
X17741696Y-20853958D01*
X17910340Y-20514602D02*
X18010340Y-20614602D01*
X18010340Y-20514602D02*
X17910340Y-20614602D01*
X17995696Y-20599958D02*
X17995696Y-20529246D01*
X17924984Y-20529246D01*
X17924984Y-20599958D01*
X17995696Y-20599958D01*
X17910340Y-20768602D02*
X18010340Y-20868602D01*
X18010340Y-20768602D02*
X17910340Y-20868602D01*
X17995696Y-20853958D02*
X17995696Y-20783246D01*
X17924984Y-20783246D01*
X17924984Y-20853958D01*
X17995696Y-20853958D01*
X18164340Y-20514602D02*
X18264340Y-20614602D01*
X18264340Y-20514602D02*
X18164340Y-20614602D01*
X18249696Y-20599958D02*
X18249696Y-20529246D01*
X18178984Y-20529246D01*
X18178984Y-20599958D01*
X18249696Y-20599958D01*
X18164340Y-20768602D02*
X18264340Y-20868602D01*
X18264340Y-20768602D02*
X18164340Y-20868602D01*
X18249696Y-20853958D02*
X18249696Y-20783246D01*
X18178984Y-20783246D01*
X18178984Y-20853958D01*
X18249696Y-20853958D01*
X18418340Y-20514602D02*
X18518340Y-20614602D01*
X18518340Y-20514602D02*
X18418340Y-20614602D01*
X18503696Y-20599958D02*
X18503696Y-20529246D01*
X18432984Y-20529246D01*
X18432984Y-20599958D01*
X18503696Y-20599958D01*
X18418340Y-20768602D02*
X18518340Y-20868602D01*
X18518340Y-20768602D02*
X18418340Y-20868602D01*
X18503696Y-20853958D02*
X18503696Y-20783246D01*
X18432984Y-20783246D01*
X18432984Y-20853958D01*
X18503696Y-20853958D01*
X18672340Y-20514602D02*
X18772340Y-20614602D01*
X18772340Y-20514602D02*
X18672340Y-20614602D01*
X18757696Y-20599958D02*
X18757696Y-20529246D01*
X18686984Y-20529246D01*
X18686984Y-20599958D01*
X18757696Y-20599958D01*
X18672340Y-20768602D02*
X18772340Y-20868602D01*
X18772340Y-20768602D02*
X18672340Y-20868602D01*
X18757696Y-20853958D02*
X18757696Y-20783246D01*
X18686984Y-20783246D01*
X18686984Y-20853958D01*
X18757696Y-20853958D01*
X22016250Y-13196100D02*
X22116250Y-13296100D01*
X22116250Y-13196100D02*
X22016250Y-13296100D01*
X22101606Y-13281456D02*
X22101606Y-13210744D01*
X22030894Y-13210744D01*
X22030894Y-13281456D01*
X22101606Y-13281456D01*
X22016250Y-13450100D02*
X22116250Y-13550100D01*
X22116250Y-13450100D02*
X22016250Y-13550100D01*
X22101606Y-13535456D02*
X22101606Y-13464744D01*
X22030894Y-13464744D01*
X22030894Y-13535456D01*
X22101606Y-13535456D01*
X22270250Y-13196100D02*
X22370250Y-13296100D01*
X22370250Y-13196100D02*
X22270250Y-13296100D01*
X22355606Y-13281456D02*
X22355606Y-13210744D01*
X22284894Y-13210744D01*
X22284894Y-13281456D01*
X22355606Y-13281456D01*
X22270250Y-13450100D02*
X22370250Y-13550100D01*
X22370250Y-13450100D02*
X22270250Y-13550100D01*
X22355606Y-13535456D02*
X22355606Y-13464744D01*
X22284894Y-13464744D01*
X22284894Y-13535456D01*
X22355606Y-13535456D01*
X22524250Y-13196100D02*
X22624250Y-13296100D01*
X22624250Y-13196100D02*
X22524250Y-13296100D01*
X22609606Y-13281456D02*
X22609606Y-13210744D01*
X22538894Y-13210744D01*
X22538894Y-13281456D01*
X22609606Y-13281456D01*
X22524250Y-13450100D02*
X22624250Y-13550100D01*
X22624250Y-13450100D02*
X22524250Y-13550100D01*
X22609606Y-13535456D02*
X22609606Y-13464744D01*
X22538894Y-13464744D01*
X22538894Y-13535456D01*
X22609606Y-13535456D01*
X22525520Y-14057160D02*
X22625520Y-14157160D01*
X22625520Y-14057160D02*
X22525520Y-14157160D01*
X22610876Y-14142516D02*
X22610876Y-14071804D01*
X22540164Y-14071804D01*
X22540164Y-14142516D01*
X22610876Y-14142516D01*
X22744340Y-14742960D02*
X22844340Y-14842960D01*
X22844340Y-14742960D02*
X22744340Y-14842960D01*
X22829696Y-14828316D02*
X22829696Y-14757604D01*
X22758984Y-14757604D01*
X22758984Y-14828316D01*
X22829696Y-14828316D01*
X22778250Y-13196100D02*
X22878250Y-13296100D01*
X22878250Y-13196100D02*
X22778250Y-13296100D01*
X22863606Y-13281456D02*
X22863606Y-13210744D01*
X22792894Y-13210744D01*
X22792894Y-13281456D01*
X22863606Y-13281456D01*
X22778250Y-13450100D02*
X22878250Y-13550100D01*
X22878250Y-13450100D02*
X22778250Y-13550100D01*
X22863606Y-13535456D02*
X22863606Y-13464744D01*
X22792894Y-13464744D01*
X22792894Y-13535456D01*
X22863606Y-13535456D01*
X22779520Y-14057160D02*
X22879520Y-14157160D01*
X22879520Y-14057160D02*
X22779520Y-14157160D01*
X22864876Y-14142516D02*
X22864876Y-14071804D01*
X22794164Y-14071804D01*
X22794164Y-14142516D01*
X22864876Y-14142516D01*
X23032250Y-13196100D02*
X23132250Y-13296100D01*
X23132250Y-13196100D02*
X23032250Y-13296100D01*
X23117606Y-13281456D02*
X23117606Y-13210744D01*
X23046894Y-13210744D01*
X23046894Y-13281456D01*
X23117606Y-13281456D01*
X23032250Y-13450100D02*
X23132250Y-13550100D01*
X23132250Y-13450100D02*
X23032250Y-13550100D01*
X23117606Y-13535456D02*
X23117606Y-13464744D01*
X23046894Y-13464744D01*
X23046894Y-13535456D01*
X23117606Y-13535456D01*
X23054856Y-10107968D02*
X23154856Y-10207968D01*
X23154856Y-10107968D02*
X23054856Y-10207968D01*
X23140212Y-10193324D02*
X23140212Y-10122612D01*
X23069500Y-10122612D01*
X23069500Y-10193324D01*
X23140212Y-10193324D01*
X23054856Y-10361968D02*
X23154856Y-10461968D01*
X23154856Y-10361968D02*
X23054856Y-10461968D01*
X23140212Y-10447324D02*
X23140212Y-10376612D01*
X23069500Y-10376612D01*
X23069500Y-10447324D01*
X23140212Y-10447324D01*
X23054856Y-10615968D02*
X23154856Y-10715968D01*
X23154856Y-10615968D02*
X23054856Y-10715968D01*
X23140212Y-10701324D02*
X23140212Y-10630612D01*
X23069500Y-10630612D01*
X23069500Y-10701324D01*
X23140212Y-10701324D01*
X23054856Y-10869968D02*
X23154856Y-10969968D01*
X23154856Y-10869968D02*
X23054856Y-10969968D01*
X23140212Y-10955324D02*
X23140212Y-10884612D01*
X23069500Y-10884612D01*
X23069500Y-10955324D01*
X23140212Y-10955324D01*
X23054856Y-11123968D02*
X23154856Y-11223968D01*
X23154856Y-11123968D02*
X23054856Y-11223968D01*
X23140212Y-11209324D02*
X23140212Y-11138612D01*
X23069500Y-11138612D01*
X23069500Y-11209324D01*
X23140212Y-11209324D01*
X23244340Y-14742960D02*
X23344340Y-14842960D01*
X23344340Y-14742960D02*
X23244340Y-14842960D01*
X23329696Y-14828316D02*
X23329696Y-14757604D01*
X23258984Y-14757604D01*
X23258984Y-14828316D01*
X23329696Y-14828316D01*
X23286250Y-13196100D02*
X23386250Y-13296100D01*
X23386250Y-13196100D02*
X23286250Y-13296100D01*
X23371606Y-13281456D02*
X23371606Y-13210744D01*
X23300894Y-13210744D01*
X23300894Y-13281456D01*
X23371606Y-13281456D01*
X23286250Y-13450100D02*
X23386250Y-13550100D01*
X23386250Y-13450100D02*
X23286250Y-13550100D01*
X23371606Y-13535456D02*
X23371606Y-13464744D01*
X23300894Y-13464744D01*
X23300894Y-13535456D01*
X23371606Y-13535456D01*
X23308856Y-10107968D02*
X23408856Y-10207968D01*
X23408856Y-10107968D02*
X23308856Y-10207968D01*
X23394212Y-10193324D02*
X23394212Y-10122612D01*
X23323500Y-10122612D01*
X23323500Y-10193324D01*
X23394212Y-10193324D01*
X23308856Y-10361968D02*
X23408856Y-10461968D01*
X23408856Y-10361968D02*
X23308856Y-10461968D01*
X23394212Y-10447324D02*
X23394212Y-10376612D01*
X23323500Y-10376612D01*
X23323500Y-10447324D01*
X23394212Y-10447324D01*
X23308856Y-10615968D02*
X23408856Y-10715968D01*
X23408856Y-10615968D02*
X23308856Y-10715968D01*
X23394212Y-10701324D02*
X23394212Y-10630612D01*
X23323500Y-10630612D01*
X23323500Y-10701324D01*
X23394212Y-10701324D01*
X23308856Y-10869968D02*
X23408856Y-10969968D01*
X23408856Y-10869968D02*
X23308856Y-10969968D01*
X23394212Y-10955324D02*
X23394212Y-10884612D01*
X23323500Y-10884612D01*
X23323500Y-10955324D01*
X23394212Y-10955324D01*
X23308856Y-11123968D02*
X23408856Y-11223968D01*
X23408856Y-11123968D02*
X23308856Y-11223968D01*
X23394212Y-11209324D02*
X23394212Y-11138612D01*
X23323500Y-11138612D01*
X23323500Y-11209324D01*
X23394212Y-11209324D01*
X23540250Y-13196100D02*
X23640250Y-13296100D01*
X23640250Y-13196100D02*
X23540250Y-13296100D01*
X23625606Y-13281456D02*
X23625606Y-13210744D01*
X23554894Y-13210744D01*
X23554894Y-13281456D01*
X23625606Y-13281456D01*
X23540250Y-13450100D02*
X23640250Y-13550100D01*
X23640250Y-13450100D02*
X23540250Y-13550100D01*
X23625606Y-13535456D02*
X23625606Y-13464744D01*
X23554894Y-13464744D01*
X23554894Y-13535456D01*
X23625606Y-13535456D01*
X23794250Y-13196100D02*
X23894250Y-13296100D01*
X23894250Y-13196100D02*
X23794250Y-13296100D01*
X23879606Y-13281456D02*
X23879606Y-13210744D01*
X23808894Y-13210744D01*
X23808894Y-13281456D01*
X23879606Y-13281456D01*
X23794250Y-13450100D02*
X23894250Y-13550100D01*
X23894250Y-13450100D02*
X23794250Y-13550100D01*
X23879606Y-13535456D02*
X23879606Y-13464744D01*
X23808894Y-13464744D01*
X23808894Y-13535456D01*
X23879606Y-13535456D01*
X26641440Y-15282480D02*
X26741440Y-15382480D01*
X26741440Y-15282480D02*
X26641440Y-15382480D01*
X26726796Y-15367836D02*
X26726796Y-15297124D01*
X26656084Y-15297124D01*
X26656084Y-15367836D01*
X26726796Y-15367836D01*
X26641440Y-15532480D02*
X26741440Y-15632480D01*
X26741440Y-15532480D02*
X26641440Y-15632480D01*
X26726796Y-15617836D02*
X26726796Y-15547124D01*
X26656084Y-15547124D01*
X26656084Y-15617836D01*
X26726796Y-15617836D01*
X26641440Y-15732480D02*
X26741440Y-15832480D01*
X26741440Y-15732480D02*
X26641440Y-15832480D01*
X26726796Y-15817836D02*
X26726796Y-15747124D01*
X26656084Y-15747124D01*
X26656084Y-15817836D01*
X26726796Y-15817836D01*
X26641440Y-15982480D02*
X26741440Y-16082480D01*
X26741440Y-15982480D02*
X26641440Y-16082480D01*
X26726796Y-16067836D02*
X26726796Y-15997124D01*
X26656084Y-15997124D01*
X26656084Y-16067836D01*
X26726796Y-16067836D01*
X20346680Y-20440320D02*
X20448680Y-20542320D01*
X20448680Y-20440320D02*
X20346680Y-20542320D01*
X20397680Y-20542320D02*
X20448680Y-20491320D01*
X20397680Y-20440320D01*
X20346680Y-20491320D01*
X20397680Y-20542320D01*
X20600680Y-20440320D02*
X20702680Y-20542320D01*
X20702680Y-20440320D02*
X20600680Y-20542320D01*
X20651680Y-20542320D02*
X20702680Y-20491320D01*
X20651680Y-20440320D01*
X20600680Y-20491320D01*
X20651680Y-20542320D01*
X21420680Y-20440320D02*
X21522680Y-20542320D01*
X21522680Y-20440320D02*
X21420680Y-20542320D01*
X21471680Y-20542320D02*
X21522680Y-20491320D01*
X21471680Y-20440320D01*
X21420680Y-20491320D01*
X21471680Y-20542320D01*
X21674680Y-20440320D02*
X21776680Y-20542320D01*
X21776680Y-20440320D02*
X21674680Y-20542320D01*
X21725680Y-20542320D02*
X21776680Y-20491320D01*
X21725680Y-20440320D01*
X21674680Y-20491320D01*
X21725680Y-20542320D01*
X25217120Y-11949560D02*
X25217120Y-12089560D01*
X25147120Y-12019560D02*
X25287120Y-12019560D01*
X25287120Y-12019560D02*
G75*
G03*
X25287120Y-12019560I-70000J0D01*
G01*
X25217120Y-14189560D02*
X25217120Y-14329560D01*
X25147120Y-14259560D02*
X25287120Y-14259560D01*
X25287120Y-14259560D02*
G75*
G03*
X25287120Y-14259560I-70000J0D01*
G01*
X20333249Y-19837889D02*
X20333249Y-19724751D01*
X20220111Y-19724751D01*
X20220111Y-19837889D01*
X20333249Y-19837889D01*
X20356680Y-19781320D02*
G75*
G03*
X20356680Y-19781320I-80000J0D01*
G01*
X21903249Y-19837889D02*
X21903249Y-19724751D01*
X21790111Y-19724751D01*
X21790111Y-19837889D01*
X21903249Y-19837889D01*
X21926680Y-19781320D02*
G75*
G03*
X21926680Y-19781320I-80000J0D01*
G01*
X26726569Y-20807861D02*
X26726569Y-20694723D01*
X26613431Y-20694723D01*
X26613431Y-20807861D01*
X26726569Y-20807861D01*
X26750000Y-20751292D02*
G75*
G03*
X26750000Y-20751292I-80000J0D01*
G01*
X27026569Y-20337861D02*
X27026569Y-20224723D01*
X26913431Y-20224723D01*
X26913431Y-20337861D01*
X27026569Y-20337861D01*
X27050000Y-20281292D02*
G75*
G03*
X27050000Y-20281292I-80000J0D01*
G01*
X27326569Y-20807861D02*
X27326569Y-20694723D01*
X27213431Y-20694723D01*
X27213431Y-20807861D01*
X27326569Y-20807861D01*
X27350000Y-20751292D02*
G75*
G03*
X27350000Y-20751292I-80000J0D01*
G01*
X26962440Y-15144480D02*
X27081440Y-15025480D01*
X26962440Y-14906480D01*
X26843440Y-15025480D01*
X26962440Y-15144480D01*
X27081440Y-15025480D02*
G75*
G03*
X27081440Y-15025480I-119000J0D01*
G01*
X26962440Y-16458480D02*
X27081440Y-16339480D01*
X26962440Y-16220480D01*
X26843440Y-16339480D01*
X26962440Y-16458480D01*
X27081440Y-16339480D02*
G75*
G03*
X27081440Y-16339480I-119000J0D01*
G01*
D12*
X14099028Y-22009914D02*
X14099028Y-21709914D01*
X14170457Y-21709914D01*
X14213314Y-21724200D01*
X14241886Y-21752772D01*
X14256171Y-21781343D01*
X14270457Y-21838486D01*
X14270457Y-21881343D01*
X14256171Y-21938486D01*
X14241886Y-21967057D01*
X14213314Y-21995629D01*
X14170457Y-22009914D01*
X14099028Y-22009914D01*
X14399028Y-22009914D02*
X14399028Y-21809914D01*
X14399028Y-21867057D02*
X14413314Y-21838486D01*
X14427600Y-21824200D01*
X14456171Y-21809914D01*
X14484743Y-21809914D01*
X14584743Y-22009914D02*
X14584743Y-21809914D01*
X14584743Y-21709914D02*
X14570457Y-21724200D01*
X14584743Y-21738486D01*
X14599028Y-21724200D01*
X14584743Y-21709914D01*
X14584743Y-21738486D01*
X14770457Y-22009914D02*
X14741886Y-21995629D01*
X14727600Y-21967057D01*
X14727600Y-21709914D01*
X14927600Y-22009914D02*
X14899028Y-21995629D01*
X14884743Y-21967057D01*
X14884743Y-21709914D01*
X15270457Y-22009914D02*
X15270457Y-21709914D01*
X15370457Y-21924200D01*
X15470457Y-21709914D01*
X15470457Y-22009914D01*
X15741886Y-22009914D02*
X15741886Y-21852772D01*
X15727600Y-21824200D01*
X15699028Y-21809914D01*
X15641886Y-21809914D01*
X15613314Y-21824200D01*
X15741886Y-21995629D02*
X15713314Y-22009914D01*
X15641886Y-22009914D01*
X15613314Y-21995629D01*
X15599028Y-21967057D01*
X15599028Y-21938486D01*
X15613314Y-21909914D01*
X15641886Y-21895629D01*
X15713314Y-21895629D01*
X15741886Y-21881343D01*
X15884743Y-21809914D02*
X15884743Y-22109914D01*
X15884743Y-21824200D02*
X15913314Y-21809914D01*
X15970457Y-21809914D01*
X15999028Y-21824200D01*
X16013314Y-21838486D01*
X16027600Y-21867057D01*
X16027600Y-21952772D01*
X16013314Y-21981343D01*
X15999028Y-21995629D01*
X15970457Y-22009914D01*
X15913314Y-22009914D01*
X15884743Y-21995629D01*
X16156171Y-21981343D02*
X16170457Y-21995629D01*
X16156171Y-22009914D01*
X16141886Y-21995629D01*
X16156171Y-21981343D01*
X16156171Y-22009914D01*
X16156171Y-21824200D02*
X16170457Y-21838486D01*
X16156171Y-21852772D01*
X16141886Y-21838486D01*
X16156171Y-21824200D01*
X16156171Y-21852772D01*
X13780100Y-22487950D02*
X13812600Y-22520450D01*
X13812600Y-22487950D02*
X13780100Y-22520450D01*
X14156171Y-22339914D02*
X14184743Y-22339914D01*
X14213314Y-22354200D01*
X14227600Y-22368486D01*
X14241886Y-22397057D01*
X14256171Y-22454200D01*
X14256171Y-22525629D01*
X14241886Y-22582771D01*
X14227600Y-22611343D01*
X14213314Y-22625629D01*
X14184743Y-22639914D01*
X14156171Y-22639914D01*
X14127600Y-22625629D01*
X14113314Y-22611343D01*
X14099028Y-22582771D01*
X14084743Y-22525629D01*
X14084743Y-22454200D01*
X14099028Y-22397057D01*
X14113314Y-22368486D01*
X14127600Y-22354200D01*
X14156171Y-22339914D01*
X14384743Y-22611343D02*
X14399028Y-22625629D01*
X14384743Y-22639914D01*
X14370457Y-22625629D01*
X14384743Y-22611343D01*
X14384743Y-22639914D01*
X14499028Y-22339914D02*
X14684743Y-22339914D01*
X14584743Y-22454200D01*
X14627600Y-22454200D01*
X14656171Y-22468486D01*
X14670457Y-22482771D01*
X14684743Y-22511343D01*
X14684743Y-22582771D01*
X14670457Y-22611343D01*
X14656171Y-22625629D01*
X14627600Y-22639914D01*
X14541886Y-22639914D01*
X14513314Y-22625629D01*
X14499028Y-22611343D01*
X14784743Y-22339914D02*
X14970457Y-22339914D01*
X14870457Y-22454200D01*
X14913314Y-22454200D01*
X14941886Y-22468486D01*
X14956171Y-22482771D01*
X14970457Y-22511343D01*
X14970457Y-22582771D01*
X14956171Y-22611343D01*
X14941886Y-22625629D01*
X14913314Y-22639914D01*
X14827600Y-22639914D01*
X14799028Y-22625629D01*
X14784743Y-22611343D01*
X15099028Y-22639914D02*
X15099028Y-22439914D01*
X15099028Y-22468486D02*
X15113314Y-22454200D01*
X15141886Y-22439914D01*
X15184743Y-22439914D01*
X15213314Y-22454200D01*
X15227600Y-22482771D01*
X15227600Y-22639914D01*
X15227600Y-22482771D02*
X15241886Y-22454200D01*
X15270457Y-22439914D01*
X15313314Y-22439914D01*
X15341886Y-22454200D01*
X15356171Y-22482771D01*
X15356171Y-22639914D01*
X15499028Y-22639914D02*
X15499028Y-22439914D01*
X15499028Y-22468486D02*
X15513314Y-22454200D01*
X15541886Y-22439914D01*
X15584743Y-22439914D01*
X15613314Y-22454200D01*
X15627600Y-22482771D01*
X15627600Y-22639914D01*
X15627600Y-22482771D02*
X15641886Y-22454200D01*
X15670457Y-22439914D01*
X15713314Y-22439914D01*
X15741886Y-22454200D01*
X15756171Y-22482771D01*
X15756171Y-22639914D01*
X16341886Y-22325629D02*
X16084743Y-22711343D01*
X16727600Y-22339914D02*
X16756171Y-22339914D01*
X16784743Y-22354200D01*
X16799028Y-22368486D01*
X16813314Y-22397057D01*
X16827600Y-22454200D01*
X16827600Y-22525629D01*
X16813314Y-22582771D01*
X16799028Y-22611343D01*
X16784743Y-22625629D01*
X16756171Y-22639914D01*
X16727600Y-22639914D01*
X16699028Y-22625629D01*
X16684743Y-22611343D01*
X16670457Y-22582771D01*
X16656171Y-22525629D01*
X16656171Y-22454200D01*
X16670457Y-22397057D01*
X16684743Y-22368486D01*
X16699028Y-22354200D01*
X16727600Y-22339914D01*
X16956171Y-22611343D02*
X16970457Y-22625629D01*
X16956171Y-22639914D01*
X16941886Y-22625629D01*
X16956171Y-22611343D01*
X16956171Y-22639914D01*
X17156171Y-22339914D02*
X17184743Y-22339914D01*
X17213314Y-22354200D01*
X17227600Y-22368486D01*
X17241886Y-22397057D01*
X17256171Y-22454200D01*
X17256171Y-22525629D01*
X17241886Y-22582771D01*
X17227600Y-22611343D01*
X17213314Y-22625629D01*
X17184743Y-22639914D01*
X17156171Y-22639914D01*
X17127600Y-22625629D01*
X17113314Y-22611343D01*
X17099028Y-22582771D01*
X17084743Y-22525629D01*
X17084743Y-22454200D01*
X17099028Y-22397057D01*
X17113314Y-22368486D01*
X17127600Y-22354200D01*
X17156171Y-22339914D01*
X17541886Y-22639914D02*
X17370457Y-22639914D01*
X17456171Y-22639914D02*
X17456171Y-22339914D01*
X17427600Y-22382771D01*
X17399028Y-22411343D01*
X17370457Y-22425629D01*
X17641886Y-22339914D02*
X17827600Y-22339914D01*
X17727600Y-22454200D01*
X17770457Y-22454200D01*
X17799028Y-22468486D01*
X17813314Y-22482771D01*
X17827600Y-22511343D01*
X17827600Y-22582771D01*
X17813314Y-22611343D01*
X17799028Y-22625629D01*
X17770457Y-22639914D01*
X17684743Y-22639914D01*
X17656171Y-22625629D01*
X17641886Y-22611343D01*
X17941886Y-22339914D02*
X17941886Y-22397057D01*
X18056171Y-22339914D02*
X18056171Y-22397057D01*
X18499028Y-22754200D02*
X18484743Y-22739914D01*
X18456171Y-22697057D01*
X18441886Y-22668486D01*
X18427600Y-22625629D01*
X18413314Y-22554200D01*
X18413314Y-22497057D01*
X18427600Y-22425629D01*
X18441886Y-22382771D01*
X18456171Y-22354200D01*
X18484743Y-22311343D01*
X18499028Y-22297057D01*
X18599028Y-22368486D02*
X18613314Y-22354200D01*
X18641886Y-22339914D01*
X18713314Y-22339914D01*
X18741886Y-22354200D01*
X18756171Y-22368486D01*
X18770457Y-22397057D01*
X18770457Y-22425629D01*
X18756171Y-22468486D01*
X18584743Y-22639914D01*
X18770457Y-22639914D01*
X18870457Y-22339914D02*
X19056171Y-22339914D01*
X18956171Y-22454200D01*
X18999028Y-22454200D01*
X19027600Y-22468486D01*
X19041886Y-22482771D01*
X19056171Y-22511343D01*
X19056171Y-22582771D01*
X19041886Y-22611343D01*
X19027600Y-22625629D01*
X18999028Y-22639914D01*
X18913314Y-22639914D01*
X18884743Y-22625629D01*
X18870457Y-22611343D01*
X19156171Y-22339914D02*
X19356171Y-22339914D01*
X19227600Y-22639914D01*
X19699028Y-22639914D02*
X19699028Y-22339914D01*
X19827600Y-22639914D02*
X19827600Y-22482771D01*
X19813314Y-22454200D01*
X19784743Y-22439914D01*
X19741886Y-22439914D01*
X19713314Y-22454200D01*
X19699028Y-22468486D01*
X20013314Y-22639914D02*
X19984743Y-22625629D01*
X19970457Y-22611343D01*
X19956171Y-22582771D01*
X19956171Y-22497057D01*
X19970457Y-22468486D01*
X19984743Y-22454200D01*
X20013314Y-22439914D01*
X20056171Y-22439914D01*
X20084743Y-22454200D01*
X20099028Y-22468486D01*
X20113314Y-22497057D01*
X20113314Y-22582771D01*
X20099028Y-22611343D01*
X20084743Y-22625629D01*
X20056171Y-22639914D01*
X20013314Y-22639914D01*
X20284743Y-22639914D02*
X20256171Y-22625629D01*
X20241886Y-22597057D01*
X20241886Y-22339914D01*
X20513314Y-22625629D02*
X20484743Y-22639914D01*
X20427600Y-22639914D01*
X20399028Y-22625629D01*
X20384743Y-22597057D01*
X20384743Y-22482771D01*
X20399028Y-22454200D01*
X20427600Y-22439914D01*
X20484743Y-22439914D01*
X20513314Y-22454200D01*
X20527600Y-22482771D01*
X20527600Y-22511343D01*
X20384743Y-22539914D01*
X20641886Y-22625629D02*
X20670457Y-22639914D01*
X20727600Y-22639914D01*
X20756171Y-22625629D01*
X20770457Y-22597057D01*
X20770457Y-22582771D01*
X20756171Y-22554200D01*
X20727600Y-22539914D01*
X20684743Y-22539914D01*
X20656171Y-22525629D01*
X20641886Y-22497057D01*
X20641886Y-22482771D01*
X20656171Y-22454200D01*
X20684743Y-22439914D01*
X20727600Y-22439914D01*
X20756171Y-22454200D01*
X20870457Y-22754200D02*
X20884743Y-22739914D01*
X20913314Y-22697057D01*
X20927600Y-22668486D01*
X20941886Y-22625629D01*
X20956171Y-22554200D01*
X20956171Y-22497057D01*
X20941886Y-22425629D01*
X20927600Y-22382771D01*
X20913314Y-22354200D01*
X20884743Y-22311343D01*
X20870457Y-22297057D01*
X13812600Y-22900200D02*
G75*
G03*
X13812600Y-22900200I-20000J0D01*
G01*
X14156171Y-22735914D02*
X14184743Y-22735914D01*
X14213314Y-22750200D01*
X14227600Y-22764486D01*
X14241886Y-22793057D01*
X14256171Y-22850200D01*
X14256171Y-22921629D01*
X14241886Y-22978771D01*
X14227600Y-23007343D01*
X14213314Y-23021629D01*
X14184743Y-23035914D01*
X14156171Y-23035914D01*
X14127600Y-23021629D01*
X14113314Y-23007343D01*
X14099028Y-22978771D01*
X14084743Y-22921629D01*
X14084743Y-22850200D01*
X14099028Y-22793057D01*
X14113314Y-22764486D01*
X14127600Y-22750200D01*
X14156171Y-22735914D01*
X14384743Y-23007343D02*
X14399028Y-23021629D01*
X14384743Y-23035914D01*
X14370457Y-23021629D01*
X14384743Y-23007343D01*
X14384743Y-23035914D01*
X14656171Y-22835914D02*
X14656171Y-23035914D01*
X14584743Y-22721629D02*
X14513314Y-22935914D01*
X14699028Y-22935914D01*
X14870457Y-22735914D02*
X14899028Y-22735914D01*
X14927600Y-22750200D01*
X14941886Y-22764486D01*
X14956171Y-22793057D01*
X14970457Y-22850200D01*
X14970457Y-22921629D01*
X14956171Y-22978771D01*
X14941886Y-23007343D01*
X14927600Y-23021629D01*
X14899028Y-23035914D01*
X14870457Y-23035914D01*
X14841886Y-23021629D01*
X14827600Y-23007343D01*
X14813314Y-22978771D01*
X14799028Y-22921629D01*
X14799028Y-22850200D01*
X14813314Y-22793057D01*
X14827600Y-22764486D01*
X14841886Y-22750200D01*
X14870457Y-22735914D01*
X15099028Y-23035914D02*
X15099028Y-22835914D01*
X15099028Y-22864486D02*
X15113314Y-22850200D01*
X15141886Y-22835914D01*
X15184743Y-22835914D01*
X15213314Y-22850200D01*
X15227600Y-22878771D01*
X15227600Y-23035914D01*
X15227600Y-22878771D02*
X15241886Y-22850200D01*
X15270457Y-22835914D01*
X15313314Y-22835914D01*
X15341886Y-22850200D01*
X15356171Y-22878771D01*
X15356171Y-23035914D01*
X15499028Y-23035914D02*
X15499028Y-22835914D01*
X15499028Y-22864486D02*
X15513314Y-22850200D01*
X15541886Y-22835914D01*
X15584743Y-22835914D01*
X15613314Y-22850200D01*
X15627600Y-22878771D01*
X15627600Y-23035914D01*
X15627600Y-22878771D02*
X15641886Y-22850200D01*
X15670457Y-22835914D01*
X15713314Y-22835914D01*
X15741886Y-22850200D01*
X15756171Y-22878771D01*
X15756171Y-23035914D01*
X16341886Y-22721629D02*
X16084743Y-23107343D01*
X16727600Y-22735914D02*
X16756171Y-22735914D01*
X16784743Y-22750200D01*
X16799028Y-22764486D01*
X16813314Y-22793057D01*
X16827600Y-22850200D01*
X16827600Y-22921629D01*
X16813314Y-22978771D01*
X16799028Y-23007343D01*
X16784743Y-23021629D01*
X16756171Y-23035914D01*
X16727600Y-23035914D01*
X16699028Y-23021629D01*
X16684743Y-23007343D01*
X16670457Y-22978771D01*
X16656171Y-22921629D01*
X16656171Y-22850200D01*
X16670457Y-22793057D01*
X16684743Y-22764486D01*
X16699028Y-22750200D01*
X16727600Y-22735914D01*
X16956171Y-23007343D02*
X16970457Y-23021629D01*
X16956171Y-23035914D01*
X16941886Y-23021629D01*
X16956171Y-23007343D01*
X16956171Y-23035914D01*
X17156171Y-22735914D02*
X17184743Y-22735914D01*
X17213314Y-22750200D01*
X17227600Y-22764486D01*
X17241886Y-22793057D01*
X17256171Y-22850200D01*
X17256171Y-22921629D01*
X17241886Y-22978771D01*
X17227600Y-23007343D01*
X17213314Y-23021629D01*
X17184743Y-23035914D01*
X17156171Y-23035914D01*
X17127600Y-23021629D01*
X17113314Y-23007343D01*
X17099028Y-22978771D01*
X17084743Y-22921629D01*
X17084743Y-22850200D01*
X17099028Y-22793057D01*
X17113314Y-22764486D01*
X17127600Y-22750200D01*
X17156171Y-22735914D01*
X17541886Y-23035914D02*
X17370457Y-23035914D01*
X17456171Y-23035914D02*
X17456171Y-22735914D01*
X17427600Y-22778771D01*
X17399028Y-22807343D01*
X17370457Y-22821629D01*
X17799028Y-22735914D02*
X17741886Y-22735914D01*
X17713314Y-22750200D01*
X17699028Y-22764486D01*
X17670457Y-22807343D01*
X17656171Y-22864486D01*
X17656171Y-22978771D01*
X17670457Y-23007343D01*
X17684743Y-23021629D01*
X17713314Y-23035914D01*
X17770457Y-23035914D01*
X17799028Y-23021629D01*
X17813314Y-23007343D01*
X17827600Y-22978771D01*
X17827600Y-22907343D01*
X17813314Y-22878771D01*
X17799028Y-22864486D01*
X17770457Y-22850200D01*
X17713314Y-22850200D01*
X17684743Y-22864486D01*
X17670457Y-22878771D01*
X17656171Y-22907343D01*
X17941886Y-22735914D02*
X17941886Y-22793057D01*
X18056171Y-22735914D02*
X18056171Y-22793057D01*
X18499028Y-23150200D02*
X18484743Y-23135914D01*
X18456171Y-23093057D01*
X18441886Y-23064486D01*
X18427600Y-23021629D01*
X18413314Y-22950200D01*
X18413314Y-22893057D01*
X18427600Y-22821629D01*
X18441886Y-22778771D01*
X18456171Y-22750200D01*
X18484743Y-22707343D01*
X18499028Y-22693057D01*
X18599028Y-22764486D02*
X18613314Y-22750200D01*
X18641886Y-22735914D01*
X18713314Y-22735914D01*
X18741886Y-22750200D01*
X18756171Y-22764486D01*
X18770457Y-22793057D01*
X18770457Y-22821629D01*
X18756171Y-22864486D01*
X18584743Y-23035914D01*
X18770457Y-23035914D01*
X19127600Y-23035914D02*
X19127600Y-22735914D01*
X19256171Y-23035914D02*
X19256171Y-22878771D01*
X19241886Y-22850200D01*
X19213314Y-22835914D01*
X19170457Y-22835914D01*
X19141886Y-22850200D01*
X19127600Y-22864486D01*
X19441886Y-23035914D02*
X19413314Y-23021629D01*
X19399028Y-23007343D01*
X19384743Y-22978771D01*
X19384743Y-22893057D01*
X19399028Y-22864486D01*
X19413314Y-22850200D01*
X19441886Y-22835914D01*
X19484743Y-22835914D01*
X19513314Y-22850200D01*
X19527600Y-22864486D01*
X19541886Y-22893057D01*
X19541886Y-22978771D01*
X19527600Y-23007343D01*
X19513314Y-23021629D01*
X19484743Y-23035914D01*
X19441886Y-23035914D01*
X19713314Y-23035914D02*
X19684743Y-23021629D01*
X19670457Y-22993057D01*
X19670457Y-22735914D01*
X19941886Y-23021629D02*
X19913314Y-23035914D01*
X19856171Y-23035914D01*
X19827600Y-23021629D01*
X19813314Y-22993057D01*
X19813314Y-22878771D01*
X19827600Y-22850200D01*
X19856171Y-22835914D01*
X19913314Y-22835914D01*
X19941886Y-22850200D01*
X19956171Y-22878771D01*
X19956171Y-22907343D01*
X19813314Y-22935914D01*
X20070457Y-23021629D02*
X20099028Y-23035914D01*
X20156171Y-23035914D01*
X20184743Y-23021629D01*
X20199028Y-22993057D01*
X20199028Y-22978771D01*
X20184743Y-22950200D01*
X20156171Y-22935914D01*
X20113314Y-22935914D01*
X20084743Y-22921629D01*
X20070457Y-22893057D01*
X20070457Y-22878771D01*
X20084743Y-22850200D01*
X20113314Y-22835914D01*
X20156171Y-22835914D01*
X20184743Y-22850200D01*
X20299028Y-23150200D02*
X20313314Y-23135914D01*
X20341886Y-23093057D01*
X20356171Y-23064486D01*
X20370457Y-23021629D01*
X20384743Y-22950200D01*
X20384743Y-22893057D01*
X20370457Y-22821629D01*
X20356171Y-22778771D01*
X20341886Y-22750200D01*
X20313314Y-22707343D01*
X20299028Y-22693057D01*
X13787600Y-23271200D02*
X13787600Y-23321200D01*
X13762600Y-23296200D02*
X13812600Y-23296200D01*
X14156171Y-23131914D02*
X14184743Y-23131914D01*
X14213314Y-23146200D01*
X14227600Y-23160486D01*
X14241886Y-23189057D01*
X14256171Y-23246200D01*
X14256171Y-23317629D01*
X14241886Y-23374771D01*
X14227600Y-23403343D01*
X14213314Y-23417629D01*
X14184743Y-23431914D01*
X14156171Y-23431914D01*
X14127600Y-23417629D01*
X14113314Y-23403343D01*
X14099028Y-23374771D01*
X14084743Y-23317629D01*
X14084743Y-23246200D01*
X14099028Y-23189057D01*
X14113314Y-23160486D01*
X14127600Y-23146200D01*
X14156171Y-23131914D01*
X14384743Y-23403343D02*
X14399028Y-23417629D01*
X14384743Y-23431914D01*
X14370457Y-23417629D01*
X14384743Y-23403343D01*
X14384743Y-23431914D01*
X14670457Y-23131914D02*
X14527600Y-23131914D01*
X14513314Y-23274771D01*
X14527600Y-23260486D01*
X14556171Y-23246200D01*
X14627600Y-23246200D01*
X14656171Y-23260486D01*
X14670457Y-23274771D01*
X14684743Y-23303343D01*
X14684743Y-23374771D01*
X14670457Y-23403343D01*
X14656171Y-23417629D01*
X14627600Y-23431914D01*
X14556171Y-23431914D01*
X14527600Y-23417629D01*
X14513314Y-23403343D01*
X14870457Y-23131914D02*
X14899028Y-23131914D01*
X14927600Y-23146200D01*
X14941886Y-23160486D01*
X14956171Y-23189057D01*
X14970457Y-23246200D01*
X14970457Y-23317629D01*
X14956171Y-23374771D01*
X14941886Y-23403343D01*
X14927600Y-23417629D01*
X14899028Y-23431914D01*
X14870457Y-23431914D01*
X14841886Y-23417629D01*
X14827600Y-23403343D01*
X14813314Y-23374771D01*
X14799028Y-23317629D01*
X14799028Y-23246200D01*
X14813314Y-23189057D01*
X14827600Y-23160486D01*
X14841886Y-23146200D01*
X14870457Y-23131914D01*
X15099028Y-23431914D02*
X15099028Y-23231914D01*
X15099028Y-23260486D02*
X15113314Y-23246200D01*
X15141886Y-23231914D01*
X15184743Y-23231914D01*
X15213314Y-23246200D01*
X15227600Y-23274771D01*
X15227600Y-23431914D01*
X15227600Y-23274771D02*
X15241886Y-23246200D01*
X15270457Y-23231914D01*
X15313314Y-23231914D01*
X15341886Y-23246200D01*
X15356171Y-23274771D01*
X15356171Y-23431914D01*
X15499028Y-23431914D02*
X15499028Y-23231914D01*
X15499028Y-23260486D02*
X15513314Y-23246200D01*
X15541886Y-23231914D01*
X15584743Y-23231914D01*
X15613314Y-23246200D01*
X15627600Y-23274771D01*
X15627600Y-23431914D01*
X15627600Y-23274771D02*
X15641886Y-23246200D01*
X15670457Y-23231914D01*
X15713314Y-23231914D01*
X15741886Y-23246200D01*
X15756171Y-23274771D01*
X15756171Y-23431914D01*
X16341886Y-23117629D02*
X16084743Y-23503343D01*
X16727600Y-23131914D02*
X16756171Y-23131914D01*
X16784743Y-23146200D01*
X16799028Y-23160486D01*
X16813314Y-23189057D01*
X16827600Y-23246200D01*
X16827600Y-23317629D01*
X16813314Y-23374771D01*
X16799028Y-23403343D01*
X16784743Y-23417629D01*
X16756171Y-23431914D01*
X16727600Y-23431914D01*
X16699028Y-23417629D01*
X16684743Y-23403343D01*
X16670457Y-23374771D01*
X16656171Y-23317629D01*
X16656171Y-23246200D01*
X16670457Y-23189057D01*
X16684743Y-23160486D01*
X16699028Y-23146200D01*
X16727600Y-23131914D01*
X16956171Y-23403343D02*
X16970457Y-23417629D01*
X16956171Y-23431914D01*
X16941886Y-23417629D01*
X16956171Y-23403343D01*
X16956171Y-23431914D01*
X17156171Y-23131914D02*
X17184743Y-23131914D01*
X17213314Y-23146200D01*
X17227600Y-23160486D01*
X17241886Y-23189057D01*
X17256171Y-23246200D01*
X17256171Y-23317629D01*
X17241886Y-23374771D01*
X17227600Y-23403343D01*
X17213314Y-23417629D01*
X17184743Y-23431914D01*
X17156171Y-23431914D01*
X17127600Y-23417629D01*
X17113314Y-23403343D01*
X17099028Y-23374771D01*
X17084743Y-23317629D01*
X17084743Y-23246200D01*
X17099028Y-23189057D01*
X17113314Y-23160486D01*
X17127600Y-23146200D01*
X17156171Y-23131914D01*
X17370457Y-23160486D02*
X17384743Y-23146200D01*
X17413314Y-23131914D01*
X17484743Y-23131914D01*
X17513314Y-23146200D01*
X17527600Y-23160486D01*
X17541886Y-23189057D01*
X17541886Y-23217629D01*
X17527600Y-23260486D01*
X17356171Y-23431914D01*
X17541886Y-23431914D01*
X17727600Y-23131914D02*
X17756171Y-23131914D01*
X17784743Y-23146200D01*
X17799028Y-23160486D01*
X17813314Y-23189057D01*
X17827600Y-23246200D01*
X17827600Y-23317629D01*
X17813314Y-23374771D01*
X17799028Y-23403343D01*
X17784743Y-23417629D01*
X17756171Y-23431914D01*
X17727600Y-23431914D01*
X17699028Y-23417629D01*
X17684743Y-23403343D01*
X17670457Y-23374771D01*
X17656171Y-23317629D01*
X17656171Y-23246200D01*
X17670457Y-23189057D01*
X17684743Y-23160486D01*
X17699028Y-23146200D01*
X17727600Y-23131914D01*
X17941886Y-23131914D02*
X17941886Y-23189057D01*
X18056171Y-23131914D02*
X18056171Y-23189057D01*
X18499028Y-23546200D02*
X18484743Y-23531914D01*
X18456171Y-23489057D01*
X18441886Y-23460486D01*
X18427600Y-23417629D01*
X18413314Y-23346200D01*
X18413314Y-23289057D01*
X18427600Y-23217629D01*
X18441886Y-23174771D01*
X18456171Y-23146200D01*
X18484743Y-23103343D01*
X18499028Y-23089057D01*
X18756171Y-23131914D02*
X18613314Y-23131914D01*
X18599028Y-23274771D01*
X18613314Y-23260486D01*
X18641886Y-23246200D01*
X18713314Y-23246200D01*
X18741886Y-23260486D01*
X18756171Y-23274771D01*
X18770457Y-23303343D01*
X18770457Y-23374771D01*
X18756171Y-23403343D01*
X18741886Y-23417629D01*
X18713314Y-23431914D01*
X18641886Y-23431914D01*
X18613314Y-23417629D01*
X18599028Y-23403343D01*
X19027600Y-23231914D02*
X19027600Y-23431914D01*
X18956171Y-23117629D02*
X18884743Y-23331914D01*
X19070457Y-23331914D01*
X19413314Y-23431914D02*
X19413314Y-23131914D01*
X19541886Y-23431914D02*
X19541886Y-23274771D01*
X19527600Y-23246200D01*
X19499028Y-23231914D01*
X19456171Y-23231914D01*
X19427600Y-23246200D01*
X19413314Y-23260486D01*
X19727600Y-23431914D02*
X19699028Y-23417629D01*
X19684743Y-23403343D01*
X19670457Y-23374771D01*
X19670457Y-23289057D01*
X19684743Y-23260486D01*
X19699028Y-23246200D01*
X19727600Y-23231914D01*
X19770457Y-23231914D01*
X19799028Y-23246200D01*
X19813314Y-23260486D01*
X19827600Y-23289057D01*
X19827600Y-23374771D01*
X19813314Y-23403343D01*
X19799028Y-23417629D01*
X19770457Y-23431914D01*
X19727600Y-23431914D01*
X19999028Y-23431914D02*
X19970457Y-23417629D01*
X19956171Y-23389057D01*
X19956171Y-23131914D01*
X20227600Y-23417629D02*
X20199028Y-23431914D01*
X20141886Y-23431914D01*
X20113314Y-23417629D01*
X20099028Y-23389057D01*
X20099028Y-23274771D01*
X20113314Y-23246200D01*
X20141886Y-23231914D01*
X20199028Y-23231914D01*
X20227600Y-23246200D01*
X20241886Y-23274771D01*
X20241886Y-23303343D01*
X20099028Y-23331914D01*
X20356171Y-23417629D02*
X20384743Y-23431914D01*
X20441886Y-23431914D01*
X20470457Y-23417629D01*
X20484743Y-23389057D01*
X20484743Y-23374771D01*
X20470457Y-23346200D01*
X20441886Y-23331914D01*
X20399028Y-23331914D01*
X20370457Y-23317629D01*
X20356171Y-23289057D01*
X20356171Y-23274771D01*
X20370457Y-23246200D01*
X20399028Y-23231914D01*
X20441886Y-23231914D01*
X20470457Y-23246200D01*
X20584743Y-23546200D02*
X20599028Y-23531914D01*
X20627600Y-23489057D01*
X20641886Y-23460486D01*
X20656171Y-23417629D01*
X20670457Y-23346200D01*
X20670457Y-23289057D01*
X20656171Y-23217629D01*
X20641886Y-23174771D01*
X20627600Y-23146200D01*
X20599028Y-23103343D01*
X20584743Y-23089057D01*
X13803081Y-23715181D02*
X13803081Y-23669219D01*
X13757119Y-23669219D01*
X13757119Y-23715181D01*
X13803081Y-23715181D01*
X14156171Y-23527914D02*
X14184743Y-23527914D01*
X14213314Y-23542200D01*
X14227600Y-23556486D01*
X14241886Y-23585057D01*
X14256171Y-23642200D01*
X14256171Y-23713629D01*
X14241886Y-23770771D01*
X14227600Y-23799343D01*
X14213314Y-23813629D01*
X14184743Y-23827914D01*
X14156171Y-23827914D01*
X14127600Y-23813629D01*
X14113314Y-23799343D01*
X14099028Y-23770771D01*
X14084743Y-23713629D01*
X14084743Y-23642200D01*
X14099028Y-23585057D01*
X14113314Y-23556486D01*
X14127600Y-23542200D01*
X14156171Y-23527914D01*
X14384743Y-23799343D02*
X14399028Y-23813629D01*
X14384743Y-23827914D01*
X14370457Y-23813629D01*
X14384743Y-23799343D01*
X14384743Y-23827914D01*
X14656171Y-23527914D02*
X14599028Y-23527914D01*
X14570457Y-23542200D01*
X14556171Y-23556486D01*
X14527600Y-23599343D01*
X14513314Y-23656486D01*
X14513314Y-23770771D01*
X14527600Y-23799343D01*
X14541886Y-23813629D01*
X14570457Y-23827914D01*
X14627600Y-23827914D01*
X14656171Y-23813629D01*
X14670457Y-23799343D01*
X14684743Y-23770771D01*
X14684743Y-23699343D01*
X14670457Y-23670771D01*
X14656171Y-23656486D01*
X14627600Y-23642200D01*
X14570457Y-23642200D01*
X14541886Y-23656486D01*
X14527600Y-23670771D01*
X14513314Y-23699343D01*
X14956171Y-23527914D02*
X14813314Y-23527914D01*
X14799028Y-23670771D01*
X14813314Y-23656486D01*
X14841886Y-23642200D01*
X14913314Y-23642200D01*
X14941886Y-23656486D01*
X14956171Y-23670771D01*
X14970457Y-23699343D01*
X14970457Y-23770771D01*
X14956171Y-23799343D01*
X14941886Y-23813629D01*
X14913314Y-23827914D01*
X14841886Y-23827914D01*
X14813314Y-23813629D01*
X14799028Y-23799343D01*
X15099028Y-23827914D02*
X15099028Y-23627914D01*
X15099028Y-23656486D02*
X15113314Y-23642200D01*
X15141886Y-23627914D01*
X15184743Y-23627914D01*
X15213314Y-23642200D01*
X15227600Y-23670771D01*
X15227600Y-23827914D01*
X15227600Y-23670771D02*
X15241886Y-23642200D01*
X15270457Y-23627914D01*
X15313314Y-23627914D01*
X15341886Y-23642200D01*
X15356171Y-23670771D01*
X15356171Y-23827914D01*
X15499028Y-23827914D02*
X15499028Y-23627914D01*
X15499028Y-23656486D02*
X15513314Y-23642200D01*
X15541886Y-23627914D01*
X15584743Y-23627914D01*
X15613314Y-23642200D01*
X15627600Y-23670771D01*
X15627600Y-23827914D01*
X15627600Y-23670771D02*
X15641886Y-23642200D01*
X15670457Y-23627914D01*
X15713314Y-23627914D01*
X15741886Y-23642200D01*
X15756171Y-23670771D01*
X15756171Y-23827914D01*
X16341886Y-23513629D02*
X16084743Y-23899343D01*
X16727600Y-23527914D02*
X16756171Y-23527914D01*
X16784743Y-23542200D01*
X16799028Y-23556486D01*
X16813314Y-23585057D01*
X16827600Y-23642200D01*
X16827600Y-23713629D01*
X16813314Y-23770771D01*
X16799028Y-23799343D01*
X16784743Y-23813629D01*
X16756171Y-23827914D01*
X16727600Y-23827914D01*
X16699028Y-23813629D01*
X16684743Y-23799343D01*
X16670457Y-23770771D01*
X16656171Y-23713629D01*
X16656171Y-23642200D01*
X16670457Y-23585057D01*
X16684743Y-23556486D01*
X16699028Y-23542200D01*
X16727600Y-23527914D01*
X16956171Y-23799343D02*
X16970457Y-23813629D01*
X16956171Y-23827914D01*
X16941886Y-23813629D01*
X16956171Y-23799343D01*
X16956171Y-23827914D01*
X17156171Y-23527914D02*
X17184743Y-23527914D01*
X17213314Y-23542200D01*
X17227600Y-23556486D01*
X17241886Y-23585057D01*
X17256171Y-23642200D01*
X17256171Y-23713629D01*
X17241886Y-23770771D01*
X17227600Y-23799343D01*
X17213314Y-23813629D01*
X17184743Y-23827914D01*
X17156171Y-23827914D01*
X17127600Y-23813629D01*
X17113314Y-23799343D01*
X17099028Y-23770771D01*
X17084743Y-23713629D01*
X17084743Y-23642200D01*
X17099028Y-23585057D01*
X17113314Y-23556486D01*
X17127600Y-23542200D01*
X17156171Y-23527914D01*
X17370457Y-23556486D02*
X17384743Y-23542200D01*
X17413314Y-23527914D01*
X17484743Y-23527914D01*
X17513314Y-23542200D01*
X17527600Y-23556486D01*
X17541886Y-23585057D01*
X17541886Y-23613629D01*
X17527600Y-23656486D01*
X17356171Y-23827914D01*
X17541886Y-23827914D01*
X17799028Y-23527914D02*
X17741886Y-23527914D01*
X17713314Y-23542200D01*
X17699028Y-23556486D01*
X17670457Y-23599343D01*
X17656171Y-23656486D01*
X17656171Y-23770771D01*
X17670457Y-23799343D01*
X17684743Y-23813629D01*
X17713314Y-23827914D01*
X17770457Y-23827914D01*
X17799028Y-23813629D01*
X17813314Y-23799343D01*
X17827600Y-23770771D01*
X17827600Y-23699343D01*
X17813314Y-23670771D01*
X17799028Y-23656486D01*
X17770457Y-23642200D01*
X17713314Y-23642200D01*
X17684743Y-23656486D01*
X17670457Y-23670771D01*
X17656171Y-23699343D01*
X17941886Y-23527914D02*
X17941886Y-23585057D01*
X18056171Y-23527914D02*
X18056171Y-23585057D01*
X18499028Y-23942200D02*
X18484743Y-23927914D01*
X18456171Y-23885057D01*
X18441886Y-23856486D01*
X18427600Y-23813629D01*
X18413314Y-23742200D01*
X18413314Y-23685057D01*
X18427600Y-23613629D01*
X18441886Y-23570771D01*
X18456171Y-23542200D01*
X18484743Y-23499343D01*
X18499028Y-23485057D01*
X18670457Y-23527914D02*
X18699028Y-23527914D01*
X18727600Y-23542200D01*
X18741886Y-23556486D01*
X18756171Y-23585057D01*
X18770457Y-23642200D01*
X18770457Y-23713629D01*
X18756171Y-23770771D01*
X18741886Y-23799343D01*
X18727600Y-23813629D01*
X18699028Y-23827914D01*
X18670457Y-23827914D01*
X18641886Y-23813629D01*
X18627600Y-23799343D01*
X18613314Y-23770771D01*
X18599028Y-23713629D01*
X18599028Y-23642200D01*
X18613314Y-23585057D01*
X18627600Y-23556486D01*
X18641886Y-23542200D01*
X18670457Y-23527914D01*
X19127600Y-23827914D02*
X19127600Y-23527914D01*
X19256171Y-23827914D02*
X19256171Y-23670771D01*
X19241886Y-23642200D01*
X19213314Y-23627914D01*
X19170457Y-23627914D01*
X19141886Y-23642200D01*
X19127600Y-23656486D01*
X19441886Y-23827914D02*
X19413314Y-23813629D01*
X19399028Y-23799343D01*
X19384743Y-23770771D01*
X19384743Y-23685057D01*
X19399028Y-23656486D01*
X19413314Y-23642200D01*
X19441886Y-23627914D01*
X19484743Y-23627914D01*
X19513314Y-23642200D01*
X19527600Y-23656486D01*
X19541886Y-23685057D01*
X19541886Y-23770771D01*
X19527600Y-23799343D01*
X19513314Y-23813629D01*
X19484743Y-23827914D01*
X19441886Y-23827914D01*
X19713314Y-23827914D02*
X19684743Y-23813629D01*
X19670457Y-23785057D01*
X19670457Y-23527914D01*
X19941886Y-23813629D02*
X19913314Y-23827914D01*
X19856171Y-23827914D01*
X19827600Y-23813629D01*
X19813314Y-23785057D01*
X19813314Y-23670771D01*
X19827600Y-23642200D01*
X19856171Y-23627914D01*
X19913314Y-23627914D01*
X19941886Y-23642200D01*
X19956171Y-23670771D01*
X19956171Y-23699343D01*
X19813314Y-23727914D01*
X20070457Y-23813629D02*
X20099028Y-23827914D01*
X20156171Y-23827914D01*
X20184743Y-23813629D01*
X20199028Y-23785057D01*
X20199028Y-23770771D01*
X20184743Y-23742200D01*
X20156171Y-23727914D01*
X20113314Y-23727914D01*
X20084743Y-23713629D01*
X20070457Y-23685057D01*
X20070457Y-23670771D01*
X20084743Y-23642200D01*
X20113314Y-23627914D01*
X20156171Y-23627914D01*
X20184743Y-23642200D01*
X20556171Y-23713629D02*
X20784743Y-23713629D01*
X20670457Y-23827914D02*
X20670457Y-23599343D01*
X21141886Y-23556486D02*
X21156171Y-23542200D01*
X21184743Y-23527914D01*
X21256171Y-23527914D01*
X21284743Y-23542200D01*
X21299028Y-23556486D01*
X21313314Y-23585057D01*
X21313314Y-23613629D01*
X21299028Y-23656486D01*
X21127600Y-23827914D01*
X21313314Y-23827914D01*
X21656171Y-23813629D02*
X21684743Y-23827914D01*
X21741886Y-23827914D01*
X21770457Y-23813629D01*
X21784743Y-23785057D01*
X21784743Y-23770771D01*
X21770457Y-23742200D01*
X21741886Y-23727914D01*
X21699028Y-23727914D01*
X21670457Y-23713629D01*
X21656171Y-23685057D01*
X21656171Y-23670771D01*
X21670457Y-23642200D01*
X21699028Y-23627914D01*
X21741886Y-23627914D01*
X21770457Y-23642200D01*
X21956171Y-23827914D02*
X21927600Y-23813629D01*
X21913314Y-23785057D01*
X21913314Y-23527914D01*
X22113314Y-23827914D02*
X22084743Y-23813629D01*
X22070457Y-23799343D01*
X22056171Y-23770771D01*
X22056171Y-23685057D01*
X22070457Y-23656486D01*
X22084743Y-23642200D01*
X22113314Y-23627914D01*
X22156171Y-23627914D01*
X22184743Y-23642200D01*
X22199028Y-23656486D01*
X22213314Y-23685057D01*
X22213314Y-23770771D01*
X22199028Y-23799343D01*
X22184743Y-23813629D01*
X22156171Y-23827914D01*
X22113314Y-23827914D01*
X22299028Y-23627914D02*
X22413314Y-23627914D01*
X22341886Y-23527914D02*
X22341886Y-23785057D01*
X22356171Y-23813629D01*
X22384743Y-23827914D01*
X22413314Y-23827914D01*
X22499028Y-23813629D02*
X22527600Y-23827914D01*
X22584743Y-23827914D01*
X22613314Y-23813629D01*
X22627600Y-23785057D01*
X22627600Y-23770771D01*
X22613314Y-23742200D01*
X22584743Y-23727914D01*
X22541886Y-23727914D01*
X22513314Y-23713629D01*
X22499028Y-23685057D01*
X22499028Y-23670771D01*
X22513314Y-23642200D01*
X22541886Y-23627914D01*
X22584743Y-23627914D01*
X22613314Y-23642200D01*
X22727600Y-23942200D02*
X22741886Y-23927914D01*
X22770457Y-23885057D01*
X22784743Y-23856486D01*
X22799028Y-23813629D01*
X22813314Y-23742200D01*
X22813314Y-23685057D01*
X22799028Y-23613629D01*
X22784743Y-23570771D01*
X22770457Y-23542200D01*
X22741886Y-23499343D01*
X22727600Y-23485057D01*
X13777600Y-24123200D02*
X13812600Y-24088200D01*
X13777600Y-24053200D01*
X13742600Y-24088200D01*
X13777600Y-24123200D01*
X14156171Y-23923914D02*
X14184743Y-23923914D01*
X14213314Y-23938200D01*
X14227600Y-23952486D01*
X14241886Y-23981057D01*
X14256171Y-24038200D01*
X14256171Y-24109629D01*
X14241886Y-24166771D01*
X14227600Y-24195343D01*
X14213314Y-24209629D01*
X14184743Y-24223914D01*
X14156171Y-24223914D01*
X14127600Y-24209629D01*
X14113314Y-24195343D01*
X14099028Y-24166771D01*
X14084743Y-24109629D01*
X14084743Y-24038200D01*
X14099028Y-23981057D01*
X14113314Y-23952486D01*
X14127600Y-23938200D01*
X14156171Y-23923914D01*
X14384743Y-24195343D02*
X14399028Y-24209629D01*
X14384743Y-24223914D01*
X14370457Y-24209629D01*
X14384743Y-24195343D01*
X14384743Y-24223914D01*
X14499028Y-23923914D02*
X14699028Y-23923914D01*
X14570457Y-24223914D01*
X14870457Y-23923914D02*
X14899028Y-23923914D01*
X14927600Y-23938200D01*
X14941886Y-23952486D01*
X14956171Y-23981057D01*
X14970457Y-24038200D01*
X14970457Y-24109629D01*
X14956171Y-24166771D01*
X14941886Y-24195343D01*
X14927600Y-24209629D01*
X14899028Y-24223914D01*
X14870457Y-24223914D01*
X14841886Y-24209629D01*
X14827600Y-24195343D01*
X14813314Y-24166771D01*
X14799028Y-24109629D01*
X14799028Y-24038200D01*
X14813314Y-23981057D01*
X14827600Y-23952486D01*
X14841886Y-23938200D01*
X14870457Y-23923914D01*
X15099028Y-24223914D02*
X15099028Y-24023914D01*
X15099028Y-24052486D02*
X15113314Y-24038200D01*
X15141886Y-24023914D01*
X15184743Y-24023914D01*
X15213314Y-24038200D01*
X15227600Y-24066771D01*
X15227600Y-24223914D01*
X15227600Y-24066771D02*
X15241886Y-24038200D01*
X15270457Y-24023914D01*
X15313314Y-24023914D01*
X15341886Y-24038200D01*
X15356171Y-24066771D01*
X15356171Y-24223914D01*
X15499028Y-24223914D02*
X15499028Y-24023914D01*
X15499028Y-24052486D02*
X15513314Y-24038200D01*
X15541886Y-24023914D01*
X15584743Y-24023914D01*
X15613314Y-24038200D01*
X15627600Y-24066771D01*
X15627600Y-24223914D01*
X15627600Y-24066771D02*
X15641886Y-24038200D01*
X15670457Y-24023914D01*
X15713314Y-24023914D01*
X15741886Y-24038200D01*
X15756171Y-24066771D01*
X15756171Y-24223914D01*
X16341886Y-23909629D02*
X16084743Y-24295343D01*
X16727600Y-23923914D02*
X16756171Y-23923914D01*
X16784743Y-23938200D01*
X16799028Y-23952486D01*
X16813314Y-23981057D01*
X16827600Y-24038200D01*
X16827600Y-24109629D01*
X16813314Y-24166771D01*
X16799028Y-24195343D01*
X16784743Y-24209629D01*
X16756171Y-24223914D01*
X16727600Y-24223914D01*
X16699028Y-24209629D01*
X16684743Y-24195343D01*
X16670457Y-24166771D01*
X16656171Y-24109629D01*
X16656171Y-24038200D01*
X16670457Y-23981057D01*
X16684743Y-23952486D01*
X16699028Y-23938200D01*
X16727600Y-23923914D01*
X16956171Y-24195343D02*
X16970457Y-24209629D01*
X16956171Y-24223914D01*
X16941886Y-24209629D01*
X16956171Y-24195343D01*
X16956171Y-24223914D01*
X17156171Y-23923914D02*
X17184743Y-23923914D01*
X17213314Y-23938200D01*
X17227600Y-23952486D01*
X17241886Y-23981057D01*
X17256171Y-24038200D01*
X17256171Y-24109629D01*
X17241886Y-24166771D01*
X17227600Y-24195343D01*
X17213314Y-24209629D01*
X17184743Y-24223914D01*
X17156171Y-24223914D01*
X17127600Y-24209629D01*
X17113314Y-24195343D01*
X17099028Y-24166771D01*
X17084743Y-24109629D01*
X17084743Y-24038200D01*
X17099028Y-23981057D01*
X17113314Y-23952486D01*
X17127600Y-23938200D01*
X17156171Y-23923914D01*
X17370457Y-23952486D02*
X17384743Y-23938200D01*
X17413314Y-23923914D01*
X17484743Y-23923914D01*
X17513314Y-23938200D01*
X17527600Y-23952486D01*
X17541886Y-23981057D01*
X17541886Y-24009629D01*
X17527600Y-24052486D01*
X17356171Y-24223914D01*
X17541886Y-24223914D01*
X17713314Y-24052486D02*
X17684743Y-24038200D01*
X17670457Y-24023914D01*
X17656171Y-23995343D01*
X17656171Y-23981057D01*
X17670457Y-23952486D01*
X17684743Y-23938200D01*
X17713314Y-23923914D01*
X17770457Y-23923914D01*
X17799028Y-23938200D01*
X17813314Y-23952486D01*
X17827600Y-23981057D01*
X17827600Y-23995343D01*
X17813314Y-24023914D01*
X17799028Y-24038200D01*
X17770457Y-24052486D01*
X17713314Y-24052486D01*
X17684743Y-24066771D01*
X17670457Y-24081057D01*
X17656171Y-24109629D01*
X17656171Y-24166771D01*
X17670457Y-24195343D01*
X17684743Y-24209629D01*
X17713314Y-24223914D01*
X17770457Y-24223914D01*
X17799028Y-24209629D01*
X17813314Y-24195343D01*
X17827600Y-24166771D01*
X17827600Y-24109629D01*
X17813314Y-24081057D01*
X17799028Y-24066771D01*
X17770457Y-24052486D01*
X17941886Y-23923914D02*
X17941886Y-23981057D01*
X18056171Y-23923914D02*
X18056171Y-23981057D01*
X18499028Y-24338200D02*
X18484743Y-24323914D01*
X18456171Y-24281057D01*
X18441886Y-24252486D01*
X18427600Y-24209629D01*
X18413314Y-24138200D01*
X18413314Y-24081057D01*
X18427600Y-24009629D01*
X18441886Y-23966771D01*
X18456171Y-23938200D01*
X18484743Y-23895343D01*
X18499028Y-23881057D01*
X18670457Y-23923914D02*
X18699028Y-23923914D01*
X18727600Y-23938200D01*
X18741886Y-23952486D01*
X18756171Y-23981057D01*
X18770457Y-24038200D01*
X18770457Y-24109629D01*
X18756171Y-24166771D01*
X18741886Y-24195343D01*
X18727600Y-24209629D01*
X18699028Y-24223914D01*
X18670457Y-24223914D01*
X18641886Y-24209629D01*
X18627600Y-24195343D01*
X18613314Y-24166771D01*
X18599028Y-24109629D01*
X18599028Y-24038200D01*
X18613314Y-23981057D01*
X18627600Y-23952486D01*
X18641886Y-23938200D01*
X18670457Y-23923914D01*
X19127600Y-24223914D02*
X19127600Y-23923914D01*
X19256171Y-24223914D02*
X19256171Y-24066771D01*
X19241886Y-24038200D01*
X19213314Y-24023914D01*
X19170457Y-24023914D01*
X19141886Y-24038200D01*
X19127600Y-24052486D01*
X19441886Y-24223914D02*
X19413314Y-24209629D01*
X19399028Y-24195343D01*
X19384743Y-24166771D01*
X19384743Y-24081057D01*
X19399028Y-24052486D01*
X19413314Y-24038200D01*
X19441886Y-24023914D01*
X19484743Y-24023914D01*
X19513314Y-24038200D01*
X19527600Y-24052486D01*
X19541886Y-24081057D01*
X19541886Y-24166771D01*
X19527600Y-24195343D01*
X19513314Y-24209629D01*
X19484743Y-24223914D01*
X19441886Y-24223914D01*
X19713314Y-24223914D02*
X19684743Y-24209629D01*
X19670457Y-24181057D01*
X19670457Y-23923914D01*
X19941886Y-24209629D02*
X19913314Y-24223914D01*
X19856171Y-24223914D01*
X19827600Y-24209629D01*
X19813314Y-24181057D01*
X19813314Y-24066771D01*
X19827600Y-24038200D01*
X19856171Y-24023914D01*
X19913314Y-24023914D01*
X19941886Y-24038200D01*
X19956171Y-24066771D01*
X19956171Y-24095343D01*
X19813314Y-24123914D01*
X20070457Y-24209629D02*
X20099028Y-24223914D01*
X20156171Y-24223914D01*
X20184743Y-24209629D01*
X20199028Y-24181057D01*
X20199028Y-24166771D01*
X20184743Y-24138200D01*
X20156171Y-24123914D01*
X20113314Y-24123914D01*
X20084743Y-24109629D01*
X20070457Y-24081057D01*
X20070457Y-24066771D01*
X20084743Y-24038200D01*
X20113314Y-24023914D01*
X20156171Y-24023914D01*
X20184743Y-24038200D01*
X20556171Y-24109629D02*
X20784743Y-24109629D01*
X20670457Y-24223914D02*
X20670457Y-23995343D01*
X21141886Y-23952486D02*
X21156171Y-23938200D01*
X21184743Y-23923914D01*
X21256171Y-23923914D01*
X21284743Y-23938200D01*
X21299028Y-23952486D01*
X21313314Y-23981057D01*
X21313314Y-24009629D01*
X21299028Y-24052486D01*
X21127600Y-24223914D01*
X21313314Y-24223914D01*
X21656171Y-24209629D02*
X21684743Y-24223914D01*
X21741886Y-24223914D01*
X21770457Y-24209629D01*
X21784743Y-24181057D01*
X21784743Y-24166771D01*
X21770457Y-24138200D01*
X21741886Y-24123914D01*
X21699028Y-24123914D01*
X21670457Y-24109629D01*
X21656171Y-24081057D01*
X21656171Y-24066771D01*
X21670457Y-24038200D01*
X21699028Y-24023914D01*
X21741886Y-24023914D01*
X21770457Y-24038200D01*
X21956171Y-24223914D02*
X21927600Y-24209629D01*
X21913314Y-24181057D01*
X21913314Y-23923914D01*
X22113314Y-24223914D02*
X22084743Y-24209629D01*
X22070457Y-24195343D01*
X22056171Y-24166771D01*
X22056171Y-24081057D01*
X22070457Y-24052486D01*
X22084743Y-24038200D01*
X22113314Y-24023914D01*
X22156171Y-24023914D01*
X22184743Y-24038200D01*
X22199028Y-24052486D01*
X22213314Y-24081057D01*
X22213314Y-24166771D01*
X22199028Y-24195343D01*
X22184743Y-24209629D01*
X22156171Y-24223914D01*
X22113314Y-24223914D01*
X22299028Y-24023914D02*
X22413314Y-24023914D01*
X22341886Y-23923914D02*
X22341886Y-24181057D01*
X22356171Y-24209629D01*
X22384743Y-24223914D01*
X22413314Y-24223914D01*
X22499028Y-24209629D02*
X22527600Y-24223914D01*
X22584743Y-24223914D01*
X22613314Y-24209629D01*
X22627600Y-24181057D01*
X22627600Y-24166771D01*
X22613314Y-24138200D01*
X22584743Y-24123914D01*
X22541886Y-24123914D01*
X22513314Y-24109629D01*
X22499028Y-24081057D01*
X22499028Y-24066771D01*
X22513314Y-24038200D01*
X22541886Y-24023914D01*
X22584743Y-24023914D01*
X22613314Y-24038200D01*
X22727600Y-24338200D02*
X22741886Y-24323914D01*
X22770457Y-24281057D01*
X22784743Y-24252486D01*
X22799028Y-24209629D01*
X22813314Y-24138200D01*
X22813314Y-24081057D01*
X22799028Y-24009629D01*
X22784743Y-23966771D01*
X22770457Y-23938200D01*
X22741886Y-23895343D01*
X22727600Y-23881057D01*
X13737600Y-24446700D02*
X13812600Y-24521700D01*
X13812600Y-24446700D02*
X13737600Y-24521700D01*
X13812600Y-24484200D02*
G75*
G03*
X13812600Y-24484200I-37500J0D01*
G01*
X14156171Y-24319914D02*
X14184743Y-24319914D01*
X14213314Y-24334200D01*
X14227600Y-24348486D01*
X14241886Y-24377057D01*
X14256171Y-24434200D01*
X14256171Y-24505629D01*
X14241886Y-24562771D01*
X14227600Y-24591343D01*
X14213314Y-24605629D01*
X14184743Y-24619914D01*
X14156171Y-24619914D01*
X14127600Y-24605629D01*
X14113314Y-24591343D01*
X14099028Y-24562771D01*
X14084743Y-24505629D01*
X14084743Y-24434200D01*
X14099028Y-24377057D01*
X14113314Y-24348486D01*
X14127600Y-24334200D01*
X14156171Y-24319914D01*
X14384743Y-24591343D02*
X14399028Y-24605629D01*
X14384743Y-24619914D01*
X14370457Y-24605629D01*
X14384743Y-24591343D01*
X14384743Y-24619914D01*
X14499028Y-24319914D02*
X14699028Y-24319914D01*
X14570457Y-24619914D01*
X14956171Y-24319914D02*
X14813314Y-24319914D01*
X14799028Y-24462771D01*
X14813314Y-24448486D01*
X14841886Y-24434200D01*
X14913314Y-24434200D01*
X14941886Y-24448486D01*
X14956171Y-24462771D01*
X14970457Y-24491343D01*
X14970457Y-24562771D01*
X14956171Y-24591343D01*
X14941886Y-24605629D01*
X14913314Y-24619914D01*
X14841886Y-24619914D01*
X14813314Y-24605629D01*
X14799028Y-24591343D01*
X15099028Y-24619914D02*
X15099028Y-24419914D01*
X15099028Y-24448486D02*
X15113314Y-24434200D01*
X15141886Y-24419914D01*
X15184743Y-24419914D01*
X15213314Y-24434200D01*
X15227600Y-24462771D01*
X15227600Y-24619914D01*
X15227600Y-24462771D02*
X15241886Y-24434200D01*
X15270457Y-24419914D01*
X15313314Y-24419914D01*
X15341886Y-24434200D01*
X15356171Y-24462771D01*
X15356171Y-24619914D01*
X15499028Y-24619914D02*
X15499028Y-24419914D01*
X15499028Y-24448486D02*
X15513314Y-24434200D01*
X15541886Y-24419914D01*
X15584743Y-24419914D01*
X15613314Y-24434200D01*
X15627600Y-24462771D01*
X15627600Y-24619914D01*
X15627600Y-24462771D02*
X15641886Y-24434200D01*
X15670457Y-24419914D01*
X15713314Y-24419914D01*
X15741886Y-24434200D01*
X15756171Y-24462771D01*
X15756171Y-24619914D01*
X16341886Y-24305629D02*
X16084743Y-24691343D01*
X16727600Y-24319914D02*
X16756171Y-24319914D01*
X16784743Y-24334200D01*
X16799028Y-24348486D01*
X16813314Y-24377057D01*
X16827600Y-24434200D01*
X16827600Y-24505629D01*
X16813314Y-24562771D01*
X16799028Y-24591343D01*
X16784743Y-24605629D01*
X16756171Y-24619914D01*
X16727600Y-24619914D01*
X16699028Y-24605629D01*
X16684743Y-24591343D01*
X16670457Y-24562771D01*
X16656171Y-24505629D01*
X16656171Y-24434200D01*
X16670457Y-24377057D01*
X16684743Y-24348486D01*
X16699028Y-24334200D01*
X16727600Y-24319914D01*
X16956171Y-24591343D02*
X16970457Y-24605629D01*
X16956171Y-24619914D01*
X16941886Y-24605629D01*
X16956171Y-24591343D01*
X16956171Y-24619914D01*
X17156171Y-24319914D02*
X17184743Y-24319914D01*
X17213314Y-24334200D01*
X17227600Y-24348486D01*
X17241886Y-24377057D01*
X17256171Y-24434200D01*
X17256171Y-24505629D01*
X17241886Y-24562771D01*
X17227600Y-24591343D01*
X17213314Y-24605629D01*
X17184743Y-24619914D01*
X17156171Y-24619914D01*
X17127600Y-24605629D01*
X17113314Y-24591343D01*
X17099028Y-24562771D01*
X17084743Y-24505629D01*
X17084743Y-24434200D01*
X17099028Y-24377057D01*
X17113314Y-24348486D01*
X17127600Y-24334200D01*
X17156171Y-24319914D01*
X17356171Y-24319914D02*
X17541886Y-24319914D01*
X17441886Y-24434200D01*
X17484743Y-24434200D01*
X17513314Y-24448486D01*
X17527600Y-24462771D01*
X17541886Y-24491343D01*
X17541886Y-24562771D01*
X17527600Y-24591343D01*
X17513314Y-24605629D01*
X17484743Y-24619914D01*
X17399028Y-24619914D01*
X17370457Y-24605629D01*
X17356171Y-24591343D01*
X17727600Y-24319914D02*
X17756171Y-24319914D01*
X17784743Y-24334200D01*
X17799028Y-24348486D01*
X17813314Y-24377057D01*
X17827600Y-24434200D01*
X17827600Y-24505629D01*
X17813314Y-24562771D01*
X17799028Y-24591343D01*
X17784743Y-24605629D01*
X17756171Y-24619914D01*
X17727600Y-24619914D01*
X17699028Y-24605629D01*
X17684743Y-24591343D01*
X17670457Y-24562771D01*
X17656171Y-24505629D01*
X17656171Y-24434200D01*
X17670457Y-24377057D01*
X17684743Y-24348486D01*
X17699028Y-24334200D01*
X17727600Y-24319914D01*
X17941886Y-24319914D02*
X17941886Y-24377057D01*
X18056171Y-24319914D02*
X18056171Y-24377057D01*
X18499028Y-24734200D02*
X18484743Y-24719914D01*
X18456171Y-24677057D01*
X18441886Y-24648486D01*
X18427600Y-24605629D01*
X18413314Y-24534200D01*
X18413314Y-24477057D01*
X18427600Y-24405629D01*
X18441886Y-24362771D01*
X18456171Y-24334200D01*
X18484743Y-24291343D01*
X18499028Y-24277057D01*
X18584743Y-24319914D02*
X18770457Y-24319914D01*
X18670457Y-24434200D01*
X18713314Y-24434200D01*
X18741886Y-24448486D01*
X18756171Y-24462771D01*
X18770457Y-24491343D01*
X18770457Y-24562771D01*
X18756171Y-24591343D01*
X18741886Y-24605629D01*
X18713314Y-24619914D01*
X18627600Y-24619914D01*
X18599028Y-24605629D01*
X18584743Y-24591343D01*
X19127600Y-24619914D02*
X19127600Y-24319914D01*
X19256171Y-24619914D02*
X19256171Y-24462771D01*
X19241886Y-24434200D01*
X19213314Y-24419914D01*
X19170457Y-24419914D01*
X19141886Y-24434200D01*
X19127600Y-24448486D01*
X19441886Y-24619914D02*
X19413314Y-24605629D01*
X19399028Y-24591343D01*
X19384743Y-24562771D01*
X19384743Y-24477057D01*
X19399028Y-24448486D01*
X19413314Y-24434200D01*
X19441886Y-24419914D01*
X19484743Y-24419914D01*
X19513314Y-24434200D01*
X19527600Y-24448486D01*
X19541886Y-24477057D01*
X19541886Y-24562771D01*
X19527600Y-24591343D01*
X19513314Y-24605629D01*
X19484743Y-24619914D01*
X19441886Y-24619914D01*
X19713314Y-24619914D02*
X19684743Y-24605629D01*
X19670457Y-24577057D01*
X19670457Y-24319914D01*
X19941886Y-24605629D02*
X19913314Y-24619914D01*
X19856171Y-24619914D01*
X19827600Y-24605629D01*
X19813314Y-24577057D01*
X19813314Y-24462771D01*
X19827600Y-24434200D01*
X19856171Y-24419914D01*
X19913314Y-24419914D01*
X19941886Y-24434200D01*
X19956171Y-24462771D01*
X19956171Y-24491343D01*
X19813314Y-24519914D01*
X20070457Y-24605629D02*
X20099028Y-24619914D01*
X20156171Y-24619914D01*
X20184743Y-24605629D01*
X20199028Y-24577057D01*
X20199028Y-24562771D01*
X20184743Y-24534200D01*
X20156171Y-24519914D01*
X20113314Y-24519914D01*
X20084743Y-24505629D01*
X20070457Y-24477057D01*
X20070457Y-24462771D01*
X20084743Y-24434200D01*
X20113314Y-24419914D01*
X20156171Y-24419914D01*
X20184743Y-24434200D01*
X20299028Y-24734200D02*
X20313314Y-24719914D01*
X20341886Y-24677057D01*
X20356171Y-24648486D01*
X20370457Y-24605629D01*
X20384743Y-24534200D01*
X20384743Y-24477057D01*
X20370457Y-24405629D01*
X20356171Y-24362771D01*
X20341886Y-24334200D01*
X20313314Y-24291343D01*
X20299028Y-24277057D01*
X13722600Y-24835200D02*
X13812600Y-24925200D01*
X13812600Y-24835200D02*
X13722600Y-24925200D01*
X13767600Y-24835200D02*
X13767600Y-24925200D01*
X13722600Y-24880200D02*
X13812600Y-24880200D01*
X14156171Y-24715914D02*
X14184743Y-24715914D01*
X14213314Y-24730200D01*
X14227600Y-24744486D01*
X14241886Y-24773057D01*
X14256171Y-24830200D01*
X14256171Y-24901629D01*
X14241886Y-24958771D01*
X14227600Y-24987343D01*
X14213314Y-25001629D01*
X14184743Y-25015914D01*
X14156171Y-25015914D01*
X14127600Y-25001629D01*
X14113314Y-24987343D01*
X14099028Y-24958771D01*
X14084743Y-24901629D01*
X14084743Y-24830200D01*
X14099028Y-24773057D01*
X14113314Y-24744486D01*
X14127600Y-24730200D01*
X14156171Y-24715914D01*
X14384743Y-24987343D02*
X14399028Y-25001629D01*
X14384743Y-25015914D01*
X14370457Y-25001629D01*
X14384743Y-24987343D01*
X14384743Y-25015914D01*
X14541886Y-25015914D02*
X14599028Y-25015914D01*
X14627600Y-25001629D01*
X14641886Y-24987343D01*
X14670457Y-24944486D01*
X14684743Y-24887343D01*
X14684743Y-24773057D01*
X14670457Y-24744486D01*
X14656171Y-24730200D01*
X14627600Y-24715914D01*
X14570457Y-24715914D01*
X14541886Y-24730200D01*
X14527600Y-24744486D01*
X14513314Y-24773057D01*
X14513314Y-24844486D01*
X14527600Y-24873057D01*
X14541886Y-24887343D01*
X14570457Y-24901629D01*
X14627600Y-24901629D01*
X14656171Y-24887343D01*
X14670457Y-24873057D01*
X14684743Y-24844486D01*
X14870457Y-24715914D02*
X14899028Y-24715914D01*
X14927600Y-24730200D01*
X14941886Y-24744486D01*
X14956171Y-24773057D01*
X14970457Y-24830200D01*
X14970457Y-24901629D01*
X14956171Y-24958771D01*
X14941886Y-24987343D01*
X14927600Y-25001629D01*
X14899028Y-25015914D01*
X14870457Y-25015914D01*
X14841886Y-25001629D01*
X14827600Y-24987343D01*
X14813314Y-24958771D01*
X14799028Y-24901629D01*
X14799028Y-24830200D01*
X14813314Y-24773057D01*
X14827600Y-24744486D01*
X14841886Y-24730200D01*
X14870457Y-24715914D01*
X15099028Y-25015914D02*
X15099028Y-24815914D01*
X15099028Y-24844486D02*
X15113314Y-24830200D01*
X15141886Y-24815914D01*
X15184743Y-24815914D01*
X15213314Y-24830200D01*
X15227600Y-24858771D01*
X15227600Y-25015914D01*
X15227600Y-24858771D02*
X15241886Y-24830200D01*
X15270457Y-24815914D01*
X15313314Y-24815914D01*
X15341886Y-24830200D01*
X15356171Y-24858771D01*
X15356171Y-25015914D01*
X15499028Y-25015914D02*
X15499028Y-24815914D01*
X15499028Y-24844486D02*
X15513314Y-24830200D01*
X15541886Y-24815914D01*
X15584743Y-24815914D01*
X15613314Y-24830200D01*
X15627600Y-24858771D01*
X15627600Y-25015914D01*
X15627600Y-24858771D02*
X15641886Y-24830200D01*
X15670457Y-24815914D01*
X15713314Y-24815914D01*
X15741886Y-24830200D01*
X15756171Y-24858771D01*
X15756171Y-25015914D01*
X16341886Y-24701629D02*
X16084743Y-25087343D01*
X16727600Y-24715914D02*
X16756171Y-24715914D01*
X16784743Y-24730200D01*
X16799028Y-24744486D01*
X16813314Y-24773057D01*
X16827600Y-24830200D01*
X16827600Y-24901629D01*
X16813314Y-24958771D01*
X16799028Y-24987343D01*
X16784743Y-25001629D01*
X16756171Y-25015914D01*
X16727600Y-25015914D01*
X16699028Y-25001629D01*
X16684743Y-24987343D01*
X16670457Y-24958771D01*
X16656171Y-24901629D01*
X16656171Y-24830200D01*
X16670457Y-24773057D01*
X16684743Y-24744486D01*
X16699028Y-24730200D01*
X16727600Y-24715914D01*
X16956171Y-24987343D02*
X16970457Y-25001629D01*
X16956171Y-25015914D01*
X16941886Y-25001629D01*
X16956171Y-24987343D01*
X16956171Y-25015914D01*
X17156171Y-24715914D02*
X17184743Y-24715914D01*
X17213314Y-24730200D01*
X17227600Y-24744486D01*
X17241886Y-24773057D01*
X17256171Y-24830200D01*
X17256171Y-24901629D01*
X17241886Y-24958771D01*
X17227600Y-24987343D01*
X17213314Y-25001629D01*
X17184743Y-25015914D01*
X17156171Y-25015914D01*
X17127600Y-25001629D01*
X17113314Y-24987343D01*
X17099028Y-24958771D01*
X17084743Y-24901629D01*
X17084743Y-24830200D01*
X17099028Y-24773057D01*
X17113314Y-24744486D01*
X17127600Y-24730200D01*
X17156171Y-24715914D01*
X17356171Y-24715914D02*
X17541886Y-24715914D01*
X17441886Y-24830200D01*
X17484743Y-24830200D01*
X17513314Y-24844486D01*
X17527600Y-24858771D01*
X17541886Y-24887343D01*
X17541886Y-24958771D01*
X17527600Y-24987343D01*
X17513314Y-25001629D01*
X17484743Y-25015914D01*
X17399028Y-25015914D01*
X17370457Y-25001629D01*
X17356171Y-24987343D01*
X17813314Y-24715914D02*
X17670457Y-24715914D01*
X17656171Y-24858771D01*
X17670457Y-24844486D01*
X17699028Y-24830200D01*
X17770457Y-24830200D01*
X17799028Y-24844486D01*
X17813314Y-24858771D01*
X17827600Y-24887343D01*
X17827600Y-24958771D01*
X17813314Y-24987343D01*
X17799028Y-25001629D01*
X17770457Y-25015914D01*
X17699028Y-25015914D01*
X17670457Y-25001629D01*
X17656171Y-24987343D01*
X17941886Y-24715914D02*
X17941886Y-24773057D01*
X18056171Y-24715914D02*
X18056171Y-24773057D01*
X18499028Y-25130200D02*
X18484743Y-25115914D01*
X18456171Y-25073057D01*
X18441886Y-25044486D01*
X18427600Y-25001629D01*
X18413314Y-24930200D01*
X18413314Y-24873057D01*
X18427600Y-24801629D01*
X18441886Y-24758771D01*
X18456171Y-24730200D01*
X18484743Y-24687343D01*
X18499028Y-24673057D01*
X18656171Y-24844486D02*
X18627600Y-24830200D01*
X18613314Y-24815914D01*
X18599028Y-24787343D01*
X18599028Y-24773057D01*
X18613314Y-24744486D01*
X18627600Y-24730200D01*
X18656171Y-24715914D01*
X18713314Y-24715914D01*
X18741886Y-24730200D01*
X18756171Y-24744486D01*
X18770457Y-24773057D01*
X18770457Y-24787343D01*
X18756171Y-24815914D01*
X18741886Y-24830200D01*
X18713314Y-24844486D01*
X18656171Y-24844486D01*
X18627600Y-24858771D01*
X18613314Y-24873057D01*
X18599028Y-24901629D01*
X18599028Y-24958771D01*
X18613314Y-24987343D01*
X18627600Y-25001629D01*
X18656171Y-25015914D01*
X18713314Y-25015914D01*
X18741886Y-25001629D01*
X18756171Y-24987343D01*
X18770457Y-24958771D01*
X18770457Y-24901629D01*
X18756171Y-24873057D01*
X18741886Y-24858771D01*
X18713314Y-24844486D01*
X19127600Y-25015914D02*
X19127600Y-24715914D01*
X19256171Y-25015914D02*
X19256171Y-24858771D01*
X19241886Y-24830200D01*
X19213314Y-24815914D01*
X19170457Y-24815914D01*
X19141886Y-24830200D01*
X19127600Y-24844486D01*
X19441886Y-25015914D02*
X19413314Y-25001629D01*
X19399028Y-24987343D01*
X19384743Y-24958771D01*
X19384743Y-24873057D01*
X19399028Y-24844486D01*
X19413314Y-24830200D01*
X19441886Y-24815914D01*
X19484743Y-24815914D01*
X19513314Y-24830200D01*
X19527600Y-24844486D01*
X19541886Y-24873057D01*
X19541886Y-24958771D01*
X19527600Y-24987343D01*
X19513314Y-25001629D01*
X19484743Y-25015914D01*
X19441886Y-25015914D01*
X19713314Y-25015914D02*
X19684743Y-25001629D01*
X19670457Y-24973057D01*
X19670457Y-24715914D01*
X19941886Y-25001629D02*
X19913314Y-25015914D01*
X19856171Y-25015914D01*
X19827600Y-25001629D01*
X19813314Y-24973057D01*
X19813314Y-24858771D01*
X19827600Y-24830200D01*
X19856171Y-24815914D01*
X19913314Y-24815914D01*
X19941886Y-24830200D01*
X19956171Y-24858771D01*
X19956171Y-24887343D01*
X19813314Y-24915914D01*
X20070457Y-25001629D02*
X20099028Y-25015914D01*
X20156171Y-25015914D01*
X20184743Y-25001629D01*
X20199028Y-24973057D01*
X20199028Y-24958771D01*
X20184743Y-24930200D01*
X20156171Y-24915914D01*
X20113314Y-24915914D01*
X20084743Y-24901629D01*
X20070457Y-24873057D01*
X20070457Y-24858771D01*
X20084743Y-24830200D01*
X20113314Y-24815914D01*
X20156171Y-24815914D01*
X20184743Y-24830200D01*
X20299028Y-25130200D02*
X20313314Y-25115914D01*
X20341886Y-25073057D01*
X20356171Y-25044486D01*
X20370457Y-25001629D01*
X20384743Y-24930200D01*
X20384743Y-24873057D01*
X20370457Y-24801629D01*
X20356171Y-24758771D01*
X20341886Y-24730200D01*
X20313314Y-24687343D01*
X20299028Y-24673057D01*
X13712600Y-25226200D02*
X13812600Y-25326200D01*
X13812600Y-25226200D02*
X13712600Y-25326200D01*
X13797956Y-25311556D02*
X13797956Y-25240844D01*
X13727244Y-25240844D01*
X13727244Y-25311556D01*
X13797956Y-25311556D01*
X14256171Y-25411914D02*
X14084743Y-25411914D01*
X14170457Y-25411914D02*
X14170457Y-25111914D01*
X14141886Y-25154771D01*
X14113314Y-25183343D01*
X14084743Y-25197629D01*
X14384743Y-25383343D02*
X14399028Y-25397629D01*
X14384743Y-25411914D01*
X14370457Y-25397629D01*
X14384743Y-25383343D01*
X14384743Y-25411914D01*
X14584743Y-25111914D02*
X14613314Y-25111914D01*
X14641886Y-25126200D01*
X14656171Y-25140486D01*
X14670457Y-25169057D01*
X14684743Y-25226200D01*
X14684743Y-25297629D01*
X14670457Y-25354771D01*
X14656171Y-25383343D01*
X14641886Y-25397629D01*
X14613314Y-25411914D01*
X14584743Y-25411914D01*
X14556171Y-25397629D01*
X14541886Y-25383343D01*
X14527600Y-25354771D01*
X14513314Y-25297629D01*
X14513314Y-25226200D01*
X14527600Y-25169057D01*
X14541886Y-25140486D01*
X14556171Y-25126200D01*
X14584743Y-25111914D01*
X14870457Y-25111914D02*
X14899028Y-25111914D01*
X14927600Y-25126200D01*
X14941886Y-25140486D01*
X14956171Y-25169057D01*
X14970457Y-25226200D01*
X14970457Y-25297629D01*
X14956171Y-25354771D01*
X14941886Y-25383343D01*
X14927600Y-25397629D01*
X14899028Y-25411914D01*
X14870457Y-25411914D01*
X14841886Y-25397629D01*
X14827600Y-25383343D01*
X14813314Y-25354771D01*
X14799028Y-25297629D01*
X14799028Y-25226200D01*
X14813314Y-25169057D01*
X14827600Y-25140486D01*
X14841886Y-25126200D01*
X14870457Y-25111914D01*
X15099028Y-25411914D02*
X15099028Y-25211914D01*
X15099028Y-25240486D02*
X15113314Y-25226200D01*
X15141886Y-25211914D01*
X15184743Y-25211914D01*
X15213314Y-25226200D01*
X15227600Y-25254771D01*
X15227600Y-25411914D01*
X15227600Y-25254771D02*
X15241886Y-25226200D01*
X15270457Y-25211914D01*
X15313314Y-25211914D01*
X15341886Y-25226200D01*
X15356171Y-25254771D01*
X15356171Y-25411914D01*
X15499028Y-25411914D02*
X15499028Y-25211914D01*
X15499028Y-25240486D02*
X15513314Y-25226200D01*
X15541886Y-25211914D01*
X15584743Y-25211914D01*
X15613314Y-25226200D01*
X15627600Y-25254771D01*
X15627600Y-25411914D01*
X15627600Y-25254771D02*
X15641886Y-25226200D01*
X15670457Y-25211914D01*
X15713314Y-25211914D01*
X15741886Y-25226200D01*
X15756171Y-25254771D01*
X15756171Y-25411914D01*
X16341886Y-25097629D02*
X16084743Y-25483343D01*
X16727600Y-25111914D02*
X16756171Y-25111914D01*
X16784743Y-25126200D01*
X16799028Y-25140486D01*
X16813314Y-25169057D01*
X16827600Y-25226200D01*
X16827600Y-25297629D01*
X16813314Y-25354771D01*
X16799028Y-25383343D01*
X16784743Y-25397629D01*
X16756171Y-25411914D01*
X16727600Y-25411914D01*
X16699028Y-25397629D01*
X16684743Y-25383343D01*
X16670457Y-25354771D01*
X16656171Y-25297629D01*
X16656171Y-25226200D01*
X16670457Y-25169057D01*
X16684743Y-25140486D01*
X16699028Y-25126200D01*
X16727600Y-25111914D01*
X16956171Y-25383343D02*
X16970457Y-25397629D01*
X16956171Y-25411914D01*
X16941886Y-25397629D01*
X16956171Y-25383343D01*
X16956171Y-25411914D01*
X17156171Y-25111914D02*
X17184743Y-25111914D01*
X17213314Y-25126200D01*
X17227600Y-25140486D01*
X17241886Y-25169057D01*
X17256171Y-25226200D01*
X17256171Y-25297629D01*
X17241886Y-25354771D01*
X17227600Y-25383343D01*
X17213314Y-25397629D01*
X17184743Y-25411914D01*
X17156171Y-25411914D01*
X17127600Y-25397629D01*
X17113314Y-25383343D01*
X17099028Y-25354771D01*
X17084743Y-25297629D01*
X17084743Y-25226200D01*
X17099028Y-25169057D01*
X17113314Y-25140486D01*
X17127600Y-25126200D01*
X17156171Y-25111914D01*
X17356171Y-25111914D02*
X17541886Y-25111914D01*
X17441886Y-25226200D01*
X17484743Y-25226200D01*
X17513314Y-25240486D01*
X17527600Y-25254771D01*
X17541886Y-25283343D01*
X17541886Y-25354771D01*
X17527600Y-25383343D01*
X17513314Y-25397629D01*
X17484743Y-25411914D01*
X17399028Y-25411914D01*
X17370457Y-25397629D01*
X17356171Y-25383343D01*
X17684743Y-25411914D02*
X17741886Y-25411914D01*
X17770457Y-25397629D01*
X17784743Y-25383343D01*
X17813314Y-25340486D01*
X17827600Y-25283343D01*
X17827600Y-25169057D01*
X17813314Y-25140486D01*
X17799028Y-25126200D01*
X17770457Y-25111914D01*
X17713314Y-25111914D01*
X17684743Y-25126200D01*
X17670457Y-25140486D01*
X17656171Y-25169057D01*
X17656171Y-25240486D01*
X17670457Y-25269057D01*
X17684743Y-25283343D01*
X17713314Y-25297629D01*
X17770457Y-25297629D01*
X17799028Y-25283343D01*
X17813314Y-25269057D01*
X17827600Y-25240486D01*
X17941886Y-25111914D02*
X17941886Y-25169057D01*
X18056171Y-25111914D02*
X18056171Y-25169057D01*
X18499028Y-25526200D02*
X18484743Y-25511914D01*
X18456171Y-25469057D01*
X18441886Y-25440486D01*
X18427600Y-25397629D01*
X18413314Y-25326200D01*
X18413314Y-25269057D01*
X18427600Y-25197629D01*
X18441886Y-25154771D01*
X18456171Y-25126200D01*
X18484743Y-25083343D01*
X18499028Y-25069057D01*
X18770457Y-25411914D02*
X18599028Y-25411914D01*
X18684743Y-25411914D02*
X18684743Y-25111914D01*
X18656171Y-25154771D01*
X18627600Y-25183343D01*
X18599028Y-25197629D01*
X18956171Y-25111914D02*
X18984743Y-25111914D01*
X19013314Y-25126200D01*
X19027600Y-25140486D01*
X19041886Y-25169057D01*
X19056171Y-25226200D01*
X19056171Y-25297629D01*
X19041886Y-25354771D01*
X19027600Y-25383343D01*
X19013314Y-25397629D01*
X18984743Y-25411914D01*
X18956171Y-25411914D01*
X18927600Y-25397629D01*
X18913314Y-25383343D01*
X18899028Y-25354771D01*
X18884743Y-25297629D01*
X18884743Y-25226200D01*
X18899028Y-25169057D01*
X18913314Y-25140486D01*
X18927600Y-25126200D01*
X18956171Y-25111914D01*
X19327600Y-25111914D02*
X19184743Y-25111914D01*
X19170457Y-25254771D01*
X19184743Y-25240486D01*
X19213314Y-25226200D01*
X19284743Y-25226200D01*
X19313314Y-25240486D01*
X19327600Y-25254771D01*
X19341886Y-25283343D01*
X19341886Y-25354771D01*
X19327600Y-25383343D01*
X19313314Y-25397629D01*
X19284743Y-25411914D01*
X19213314Y-25411914D01*
X19184743Y-25397629D01*
X19170457Y-25383343D01*
X19699028Y-25411914D02*
X19699028Y-25111914D01*
X19827600Y-25411914D02*
X19827600Y-25254771D01*
X19813314Y-25226200D01*
X19784743Y-25211914D01*
X19741886Y-25211914D01*
X19713314Y-25226200D01*
X19699028Y-25240486D01*
X20013314Y-25411914D02*
X19984743Y-25397629D01*
X19970457Y-25383343D01*
X19956171Y-25354771D01*
X19956171Y-25269057D01*
X19970457Y-25240486D01*
X19984743Y-25226200D01*
X20013314Y-25211914D01*
X20056171Y-25211914D01*
X20084743Y-25226200D01*
X20099028Y-25240486D01*
X20113314Y-25269057D01*
X20113314Y-25354771D01*
X20099028Y-25383343D01*
X20084743Y-25397629D01*
X20056171Y-25411914D01*
X20013314Y-25411914D01*
X20284743Y-25411914D02*
X20256171Y-25397629D01*
X20241886Y-25369057D01*
X20241886Y-25111914D01*
X20513314Y-25397629D02*
X20484743Y-25411914D01*
X20427600Y-25411914D01*
X20399028Y-25397629D01*
X20384743Y-25369057D01*
X20384743Y-25254771D01*
X20399028Y-25226200D01*
X20427600Y-25211914D01*
X20484743Y-25211914D01*
X20513314Y-25226200D01*
X20527600Y-25254771D01*
X20527600Y-25283343D01*
X20384743Y-25311914D01*
X20641886Y-25397629D02*
X20670457Y-25411914D01*
X20727600Y-25411914D01*
X20756171Y-25397629D01*
X20770457Y-25369057D01*
X20770457Y-25354771D01*
X20756171Y-25326200D01*
X20727600Y-25311914D01*
X20684743Y-25311914D01*
X20656171Y-25297629D01*
X20641886Y-25269057D01*
X20641886Y-25254771D01*
X20656171Y-25226200D01*
X20684743Y-25211914D01*
X20727600Y-25211914D01*
X20756171Y-25226200D01*
X20870457Y-25526200D02*
X20884743Y-25511914D01*
X20913314Y-25469057D01*
X20927600Y-25440486D01*
X20941886Y-25397629D01*
X20956171Y-25326200D01*
X20956171Y-25269057D01*
X20941886Y-25197629D01*
X20927600Y-25154771D01*
X20913314Y-25126200D01*
X20884743Y-25083343D01*
X20870457Y-25069057D01*
X13710600Y-25621200D02*
X13812600Y-25723200D01*
X13812600Y-25621200D02*
X13710600Y-25723200D01*
X13761600Y-25723200D02*
X13812600Y-25672200D01*
X13761600Y-25621200D01*
X13710600Y-25672200D01*
X13761600Y-25723200D01*
X14256171Y-25807914D02*
X14084743Y-25807914D01*
X14170457Y-25807914D02*
X14170457Y-25507914D01*
X14141886Y-25550771D01*
X14113314Y-25579343D01*
X14084743Y-25593629D01*
X14384743Y-25779343D02*
X14399028Y-25793629D01*
X14384743Y-25807914D01*
X14370457Y-25793629D01*
X14384743Y-25779343D01*
X14384743Y-25807914D01*
X14584743Y-25507914D02*
X14613314Y-25507914D01*
X14641886Y-25522200D01*
X14656171Y-25536486D01*
X14670457Y-25565057D01*
X14684743Y-25622200D01*
X14684743Y-25693629D01*
X14670457Y-25750771D01*
X14656171Y-25779343D01*
X14641886Y-25793629D01*
X14613314Y-25807914D01*
X14584743Y-25807914D01*
X14556171Y-25793629D01*
X14541886Y-25779343D01*
X14527600Y-25750771D01*
X14513314Y-25693629D01*
X14513314Y-25622200D01*
X14527600Y-25565057D01*
X14541886Y-25536486D01*
X14556171Y-25522200D01*
X14584743Y-25507914D01*
X14799028Y-25536486D02*
X14813314Y-25522200D01*
X14841886Y-25507914D01*
X14913314Y-25507914D01*
X14941886Y-25522200D01*
X14956171Y-25536486D01*
X14970457Y-25565057D01*
X14970457Y-25593629D01*
X14956171Y-25636486D01*
X14784743Y-25807914D01*
X14970457Y-25807914D01*
X15099028Y-25807914D02*
X15099028Y-25607914D01*
X15099028Y-25636486D02*
X15113314Y-25622200D01*
X15141886Y-25607914D01*
X15184743Y-25607914D01*
X15213314Y-25622200D01*
X15227600Y-25650771D01*
X15227600Y-25807914D01*
X15227600Y-25650771D02*
X15241886Y-25622200D01*
X15270457Y-25607914D01*
X15313314Y-25607914D01*
X15341886Y-25622200D01*
X15356171Y-25650771D01*
X15356171Y-25807914D01*
X15499028Y-25807914D02*
X15499028Y-25607914D01*
X15499028Y-25636486D02*
X15513314Y-25622200D01*
X15541886Y-25607914D01*
X15584743Y-25607914D01*
X15613314Y-25622200D01*
X15627600Y-25650771D01*
X15627600Y-25807914D01*
X15627600Y-25650771D02*
X15641886Y-25622200D01*
X15670457Y-25607914D01*
X15713314Y-25607914D01*
X15741886Y-25622200D01*
X15756171Y-25650771D01*
X15756171Y-25807914D01*
X16341886Y-25493629D02*
X16084743Y-25879343D01*
X16727600Y-25507914D02*
X16756171Y-25507914D01*
X16784743Y-25522200D01*
X16799028Y-25536486D01*
X16813314Y-25565057D01*
X16827600Y-25622200D01*
X16827600Y-25693629D01*
X16813314Y-25750771D01*
X16799028Y-25779343D01*
X16784743Y-25793629D01*
X16756171Y-25807914D01*
X16727600Y-25807914D01*
X16699028Y-25793629D01*
X16684743Y-25779343D01*
X16670457Y-25750771D01*
X16656171Y-25693629D01*
X16656171Y-25622200D01*
X16670457Y-25565057D01*
X16684743Y-25536486D01*
X16699028Y-25522200D01*
X16727600Y-25507914D01*
X16956171Y-25779343D02*
X16970457Y-25793629D01*
X16956171Y-25807914D01*
X16941886Y-25793629D01*
X16956171Y-25779343D01*
X16956171Y-25807914D01*
X17156171Y-25507914D02*
X17184743Y-25507914D01*
X17213314Y-25522200D01*
X17227600Y-25536486D01*
X17241886Y-25565057D01*
X17256171Y-25622200D01*
X17256171Y-25693629D01*
X17241886Y-25750771D01*
X17227600Y-25779343D01*
X17213314Y-25793629D01*
X17184743Y-25807914D01*
X17156171Y-25807914D01*
X17127600Y-25793629D01*
X17113314Y-25779343D01*
X17099028Y-25750771D01*
X17084743Y-25693629D01*
X17084743Y-25622200D01*
X17099028Y-25565057D01*
X17113314Y-25536486D01*
X17127600Y-25522200D01*
X17156171Y-25507914D01*
X17513314Y-25607914D02*
X17513314Y-25807914D01*
X17441886Y-25493629D02*
X17370457Y-25707914D01*
X17556171Y-25707914D01*
X17727600Y-25507914D02*
X17756171Y-25507914D01*
X17784743Y-25522200D01*
X17799028Y-25536486D01*
X17813314Y-25565057D01*
X17827600Y-25622200D01*
X17827600Y-25693629D01*
X17813314Y-25750771D01*
X17799028Y-25779343D01*
X17784743Y-25793629D01*
X17756171Y-25807914D01*
X17727600Y-25807914D01*
X17699028Y-25793629D01*
X17684743Y-25779343D01*
X17670457Y-25750771D01*
X17656171Y-25693629D01*
X17656171Y-25622200D01*
X17670457Y-25565057D01*
X17684743Y-25536486D01*
X17699028Y-25522200D01*
X17727600Y-25507914D01*
X17941886Y-25507914D02*
X17941886Y-25565057D01*
X18056171Y-25507914D02*
X18056171Y-25565057D01*
X18499028Y-25922200D02*
X18484743Y-25907914D01*
X18456171Y-25865057D01*
X18441886Y-25836486D01*
X18427600Y-25793629D01*
X18413314Y-25722200D01*
X18413314Y-25665057D01*
X18427600Y-25593629D01*
X18441886Y-25550771D01*
X18456171Y-25522200D01*
X18484743Y-25479343D01*
X18499028Y-25465057D01*
X18741886Y-25607914D02*
X18741886Y-25807914D01*
X18670457Y-25493629D02*
X18599028Y-25707914D01*
X18784743Y-25707914D01*
X19127600Y-25807914D02*
X19127600Y-25507914D01*
X19256171Y-25807914D02*
X19256171Y-25650771D01*
X19241886Y-25622200D01*
X19213314Y-25607914D01*
X19170457Y-25607914D01*
X19141886Y-25622200D01*
X19127600Y-25636486D01*
X19441886Y-25807914D02*
X19413314Y-25793629D01*
X19399028Y-25779343D01*
X19384743Y-25750771D01*
X19384743Y-25665057D01*
X19399028Y-25636486D01*
X19413314Y-25622200D01*
X19441886Y-25607914D01*
X19484743Y-25607914D01*
X19513314Y-25622200D01*
X19527600Y-25636486D01*
X19541886Y-25665057D01*
X19541886Y-25750771D01*
X19527600Y-25779343D01*
X19513314Y-25793629D01*
X19484743Y-25807914D01*
X19441886Y-25807914D01*
X19713314Y-25807914D02*
X19684743Y-25793629D01*
X19670457Y-25765057D01*
X19670457Y-25507914D01*
X19941886Y-25793629D02*
X19913314Y-25807914D01*
X19856171Y-25807914D01*
X19827600Y-25793629D01*
X19813314Y-25765057D01*
X19813314Y-25650771D01*
X19827600Y-25622200D01*
X19856171Y-25607914D01*
X19913314Y-25607914D01*
X19941886Y-25622200D01*
X19956171Y-25650771D01*
X19956171Y-25679343D01*
X19813314Y-25707914D01*
X20070457Y-25793629D02*
X20099028Y-25807914D01*
X20156171Y-25807914D01*
X20184743Y-25793629D01*
X20199028Y-25765057D01*
X20199028Y-25750771D01*
X20184743Y-25722200D01*
X20156171Y-25707914D01*
X20113314Y-25707914D01*
X20084743Y-25693629D01*
X20070457Y-25665057D01*
X20070457Y-25650771D01*
X20084743Y-25622200D01*
X20113314Y-25607914D01*
X20156171Y-25607914D01*
X20184743Y-25622200D01*
X20299028Y-25922200D02*
X20313314Y-25907914D01*
X20341886Y-25865057D01*
X20356171Y-25836486D01*
X20370457Y-25793629D01*
X20384743Y-25722200D01*
X20384743Y-25665057D01*
X20370457Y-25593629D01*
X20356171Y-25550771D01*
X20341886Y-25522200D01*
X20313314Y-25479343D01*
X20299028Y-25465057D01*
X13742600Y-25998200D02*
X13742600Y-26138200D01*
X13672600Y-26068200D02*
X13812600Y-26068200D01*
X13812600Y-26068200D02*
G75*
G03*
X13812600Y-26068200I-70000J0D01*
G01*
X14256171Y-26203914D02*
X14084743Y-26203914D01*
X14170457Y-26203914D02*
X14170457Y-25903914D01*
X14141886Y-25946771D01*
X14113314Y-25975343D01*
X14084743Y-25989629D01*
X14384743Y-26175343D02*
X14399028Y-26189629D01*
X14384743Y-26203914D01*
X14370457Y-26189629D01*
X14384743Y-26175343D01*
X14384743Y-26203914D01*
X14656171Y-26003914D02*
X14656171Y-26203914D01*
X14584743Y-25889629D02*
X14513314Y-26103914D01*
X14699028Y-26103914D01*
X14870457Y-25903914D02*
X14899028Y-25903914D01*
X14927600Y-25918200D01*
X14941886Y-25932486D01*
X14956171Y-25961057D01*
X14970457Y-26018200D01*
X14970457Y-26089629D01*
X14956171Y-26146771D01*
X14941886Y-26175343D01*
X14927600Y-26189629D01*
X14899028Y-26203914D01*
X14870457Y-26203914D01*
X14841886Y-26189629D01*
X14827600Y-26175343D01*
X14813314Y-26146771D01*
X14799028Y-26089629D01*
X14799028Y-26018200D01*
X14813314Y-25961057D01*
X14827600Y-25932486D01*
X14841886Y-25918200D01*
X14870457Y-25903914D01*
X15099028Y-26203914D02*
X15099028Y-26003914D01*
X15099028Y-26032486D02*
X15113314Y-26018200D01*
X15141886Y-26003914D01*
X15184743Y-26003914D01*
X15213314Y-26018200D01*
X15227600Y-26046771D01*
X15227600Y-26203914D01*
X15227600Y-26046771D02*
X15241886Y-26018200D01*
X15270457Y-26003914D01*
X15313314Y-26003914D01*
X15341886Y-26018200D01*
X15356171Y-26046771D01*
X15356171Y-26203914D01*
X15499028Y-26203914D02*
X15499028Y-26003914D01*
X15499028Y-26032486D02*
X15513314Y-26018200D01*
X15541886Y-26003914D01*
X15584743Y-26003914D01*
X15613314Y-26018200D01*
X15627600Y-26046771D01*
X15627600Y-26203914D01*
X15627600Y-26046771D02*
X15641886Y-26018200D01*
X15670457Y-26003914D01*
X15713314Y-26003914D01*
X15741886Y-26018200D01*
X15756171Y-26046771D01*
X15756171Y-26203914D01*
X16341886Y-25889629D02*
X16084743Y-26275343D01*
X16727600Y-25903914D02*
X16756171Y-25903914D01*
X16784743Y-25918200D01*
X16799028Y-25932486D01*
X16813314Y-25961057D01*
X16827600Y-26018200D01*
X16827600Y-26089629D01*
X16813314Y-26146771D01*
X16799028Y-26175343D01*
X16784743Y-26189629D01*
X16756171Y-26203914D01*
X16727600Y-26203914D01*
X16699028Y-26189629D01*
X16684743Y-26175343D01*
X16670457Y-26146771D01*
X16656171Y-26089629D01*
X16656171Y-26018200D01*
X16670457Y-25961057D01*
X16684743Y-25932486D01*
X16699028Y-25918200D01*
X16727600Y-25903914D01*
X16956171Y-26175343D02*
X16970457Y-26189629D01*
X16956171Y-26203914D01*
X16941886Y-26189629D01*
X16956171Y-26175343D01*
X16956171Y-26203914D01*
X17156171Y-25903914D02*
X17184743Y-25903914D01*
X17213314Y-25918200D01*
X17227600Y-25932486D01*
X17241886Y-25961057D01*
X17256171Y-26018200D01*
X17256171Y-26089629D01*
X17241886Y-26146771D01*
X17227600Y-26175343D01*
X17213314Y-26189629D01*
X17184743Y-26203914D01*
X17156171Y-26203914D01*
X17127600Y-26189629D01*
X17113314Y-26175343D01*
X17099028Y-26146771D01*
X17084743Y-26089629D01*
X17084743Y-26018200D01*
X17099028Y-25961057D01*
X17113314Y-25932486D01*
X17127600Y-25918200D01*
X17156171Y-25903914D01*
X17527600Y-25903914D02*
X17384743Y-25903914D01*
X17370457Y-26046771D01*
X17384743Y-26032486D01*
X17413314Y-26018200D01*
X17484743Y-26018200D01*
X17513314Y-26032486D01*
X17527600Y-26046771D01*
X17541886Y-26075343D01*
X17541886Y-26146771D01*
X17527600Y-26175343D01*
X17513314Y-26189629D01*
X17484743Y-26203914D01*
X17413314Y-26203914D01*
X17384743Y-26189629D01*
X17370457Y-26175343D01*
X17813314Y-25903914D02*
X17670457Y-25903914D01*
X17656171Y-26046771D01*
X17670457Y-26032486D01*
X17699028Y-26018200D01*
X17770457Y-26018200D01*
X17799028Y-26032486D01*
X17813314Y-26046771D01*
X17827600Y-26075343D01*
X17827600Y-26146771D01*
X17813314Y-26175343D01*
X17799028Y-26189629D01*
X17770457Y-26203914D01*
X17699028Y-26203914D01*
X17670457Y-26189629D01*
X17656171Y-26175343D01*
X17941886Y-25903914D02*
X17941886Y-25961057D01*
X18056171Y-25903914D02*
X18056171Y-25961057D01*
X18499028Y-26318200D02*
X18484743Y-26303914D01*
X18456171Y-26261057D01*
X18441886Y-26232486D01*
X18427600Y-26189629D01*
X18413314Y-26118200D01*
X18413314Y-26061057D01*
X18427600Y-25989629D01*
X18441886Y-25946771D01*
X18456171Y-25918200D01*
X18484743Y-25875343D01*
X18499028Y-25861057D01*
X18599028Y-25932486D02*
X18613314Y-25918200D01*
X18641886Y-25903914D01*
X18713314Y-25903914D01*
X18741886Y-25918200D01*
X18756171Y-25932486D01*
X18770457Y-25961057D01*
X18770457Y-25989629D01*
X18756171Y-26032486D01*
X18584743Y-26203914D01*
X18770457Y-26203914D01*
X19127600Y-26203914D02*
X19127600Y-25903914D01*
X19256171Y-26203914D02*
X19256171Y-26046771D01*
X19241886Y-26018200D01*
X19213314Y-26003914D01*
X19170457Y-26003914D01*
X19141886Y-26018200D01*
X19127600Y-26032486D01*
X19441886Y-26203914D02*
X19413314Y-26189629D01*
X19399028Y-26175343D01*
X19384743Y-26146771D01*
X19384743Y-26061057D01*
X19399028Y-26032486D01*
X19413314Y-26018200D01*
X19441886Y-26003914D01*
X19484743Y-26003914D01*
X19513314Y-26018200D01*
X19527600Y-26032486D01*
X19541886Y-26061057D01*
X19541886Y-26146771D01*
X19527600Y-26175343D01*
X19513314Y-26189629D01*
X19484743Y-26203914D01*
X19441886Y-26203914D01*
X19713314Y-26203914D02*
X19684743Y-26189629D01*
X19670457Y-26161057D01*
X19670457Y-25903914D01*
X19941886Y-26189629D02*
X19913314Y-26203914D01*
X19856171Y-26203914D01*
X19827600Y-26189629D01*
X19813314Y-26161057D01*
X19813314Y-26046771D01*
X19827600Y-26018200D01*
X19856171Y-26003914D01*
X19913314Y-26003914D01*
X19941886Y-26018200D01*
X19956171Y-26046771D01*
X19956171Y-26075343D01*
X19813314Y-26103914D01*
X20070457Y-26189629D02*
X20099028Y-26203914D01*
X20156171Y-26203914D01*
X20184743Y-26189629D01*
X20199028Y-26161057D01*
X20199028Y-26146771D01*
X20184743Y-26118200D01*
X20156171Y-26103914D01*
X20113314Y-26103914D01*
X20084743Y-26089629D01*
X20070457Y-26061057D01*
X20070457Y-26046771D01*
X20084743Y-26018200D01*
X20113314Y-26003914D01*
X20156171Y-26003914D01*
X20184743Y-26018200D01*
X20299028Y-26318200D02*
X20313314Y-26303914D01*
X20341886Y-26261057D01*
X20356171Y-26232486D01*
X20370457Y-26189629D01*
X20384743Y-26118200D01*
X20384743Y-26061057D01*
X20370457Y-25989629D01*
X20356171Y-25946771D01*
X20341886Y-25918200D01*
X20313314Y-25875343D01*
X20299028Y-25861057D01*
X13789169Y-26520769D02*
X13789169Y-26407631D01*
X13676031Y-26407631D01*
X13676031Y-26520769D01*
X13789169Y-26520769D01*
X13812600Y-26464200D02*
G75*
G03*
X13812600Y-26464200I-80000J0D01*
G01*
X14256171Y-26599914D02*
X14084743Y-26599914D01*
X14170457Y-26599914D02*
X14170457Y-26299914D01*
X14141886Y-26342771D01*
X14113314Y-26371343D01*
X14084743Y-26385629D01*
X14384743Y-26571343D02*
X14399028Y-26585629D01*
X14384743Y-26599914D01*
X14370457Y-26585629D01*
X14384743Y-26571343D01*
X14384743Y-26599914D01*
X14656171Y-26299914D02*
X14599028Y-26299914D01*
X14570457Y-26314200D01*
X14556171Y-26328486D01*
X14527600Y-26371343D01*
X14513314Y-26428486D01*
X14513314Y-26542771D01*
X14527600Y-26571343D01*
X14541886Y-26585629D01*
X14570457Y-26599914D01*
X14627600Y-26599914D01*
X14656171Y-26585629D01*
X14670457Y-26571343D01*
X14684743Y-26542771D01*
X14684743Y-26471343D01*
X14670457Y-26442771D01*
X14656171Y-26428486D01*
X14627600Y-26414200D01*
X14570457Y-26414200D01*
X14541886Y-26428486D01*
X14527600Y-26442771D01*
X14513314Y-26471343D01*
X14870457Y-26299914D02*
X14899028Y-26299914D01*
X14927600Y-26314200D01*
X14941886Y-26328486D01*
X14956171Y-26357057D01*
X14970457Y-26414200D01*
X14970457Y-26485629D01*
X14956171Y-26542771D01*
X14941886Y-26571343D01*
X14927600Y-26585629D01*
X14899028Y-26599914D01*
X14870457Y-26599914D01*
X14841886Y-26585629D01*
X14827600Y-26571343D01*
X14813314Y-26542771D01*
X14799028Y-26485629D01*
X14799028Y-26414200D01*
X14813314Y-26357057D01*
X14827600Y-26328486D01*
X14841886Y-26314200D01*
X14870457Y-26299914D01*
X15099028Y-26599914D02*
X15099028Y-26399914D01*
X15099028Y-26428486D02*
X15113314Y-26414200D01*
X15141886Y-26399914D01*
X15184743Y-26399914D01*
X15213314Y-26414200D01*
X15227600Y-26442771D01*
X15227600Y-26599914D01*
X15227600Y-26442771D02*
X15241886Y-26414200D01*
X15270457Y-26399914D01*
X15313314Y-26399914D01*
X15341886Y-26414200D01*
X15356171Y-26442771D01*
X15356171Y-26599914D01*
X15499028Y-26599914D02*
X15499028Y-26399914D01*
X15499028Y-26428486D02*
X15513314Y-26414200D01*
X15541886Y-26399914D01*
X15584743Y-26399914D01*
X15613314Y-26414200D01*
X15627600Y-26442771D01*
X15627600Y-26599914D01*
X15627600Y-26442771D02*
X15641886Y-26414200D01*
X15670457Y-26399914D01*
X15713314Y-26399914D01*
X15741886Y-26414200D01*
X15756171Y-26442771D01*
X15756171Y-26599914D01*
X16341886Y-26285629D02*
X16084743Y-26671343D01*
X16727600Y-26299914D02*
X16756171Y-26299914D01*
X16784743Y-26314200D01*
X16799028Y-26328486D01*
X16813314Y-26357057D01*
X16827600Y-26414200D01*
X16827600Y-26485629D01*
X16813314Y-26542771D01*
X16799028Y-26571343D01*
X16784743Y-26585629D01*
X16756171Y-26599914D01*
X16727600Y-26599914D01*
X16699028Y-26585629D01*
X16684743Y-26571343D01*
X16670457Y-26542771D01*
X16656171Y-26485629D01*
X16656171Y-26414200D01*
X16670457Y-26357057D01*
X16684743Y-26328486D01*
X16699028Y-26314200D01*
X16727600Y-26299914D01*
X16956171Y-26571343D02*
X16970457Y-26585629D01*
X16956171Y-26599914D01*
X16941886Y-26585629D01*
X16956171Y-26571343D01*
X16956171Y-26599914D01*
X17156171Y-26299914D02*
X17184743Y-26299914D01*
X17213314Y-26314200D01*
X17227600Y-26328486D01*
X17241886Y-26357057D01*
X17256171Y-26414200D01*
X17256171Y-26485629D01*
X17241886Y-26542771D01*
X17227600Y-26571343D01*
X17213314Y-26585629D01*
X17184743Y-26599914D01*
X17156171Y-26599914D01*
X17127600Y-26585629D01*
X17113314Y-26571343D01*
X17099028Y-26542771D01*
X17084743Y-26485629D01*
X17084743Y-26414200D01*
X17099028Y-26357057D01*
X17113314Y-26328486D01*
X17127600Y-26314200D01*
X17156171Y-26299914D01*
X17513314Y-26299914D02*
X17456171Y-26299914D01*
X17427600Y-26314200D01*
X17413314Y-26328486D01*
X17384743Y-26371343D01*
X17370457Y-26428486D01*
X17370457Y-26542771D01*
X17384743Y-26571343D01*
X17399028Y-26585629D01*
X17427600Y-26599914D01*
X17484743Y-26599914D01*
X17513314Y-26585629D01*
X17527600Y-26571343D01*
X17541886Y-26542771D01*
X17541886Y-26471343D01*
X17527600Y-26442771D01*
X17513314Y-26428486D01*
X17484743Y-26414200D01*
X17427600Y-26414200D01*
X17399028Y-26428486D01*
X17384743Y-26442771D01*
X17370457Y-26471343D01*
X17641886Y-26299914D02*
X17827600Y-26299914D01*
X17727600Y-26414200D01*
X17770457Y-26414200D01*
X17799028Y-26428486D01*
X17813314Y-26442771D01*
X17827600Y-26471343D01*
X17827600Y-26542771D01*
X17813314Y-26571343D01*
X17799028Y-26585629D01*
X17770457Y-26599914D01*
X17684743Y-26599914D01*
X17656171Y-26585629D01*
X17641886Y-26571343D01*
X17941886Y-26299914D02*
X17941886Y-26357057D01*
X18056171Y-26299914D02*
X18056171Y-26357057D01*
X18499028Y-26714200D02*
X18484743Y-26699914D01*
X18456171Y-26657057D01*
X18441886Y-26628486D01*
X18427600Y-26585629D01*
X18413314Y-26514200D01*
X18413314Y-26457057D01*
X18427600Y-26385629D01*
X18441886Y-26342771D01*
X18456171Y-26314200D01*
X18484743Y-26271343D01*
X18499028Y-26257057D01*
X18756171Y-26299914D02*
X18613314Y-26299914D01*
X18599028Y-26442771D01*
X18613314Y-26428486D01*
X18641886Y-26414200D01*
X18713314Y-26414200D01*
X18741886Y-26428486D01*
X18756171Y-26442771D01*
X18770457Y-26471343D01*
X18770457Y-26542771D01*
X18756171Y-26571343D01*
X18741886Y-26585629D01*
X18713314Y-26599914D01*
X18641886Y-26599914D01*
X18613314Y-26585629D01*
X18599028Y-26571343D01*
X19127600Y-26599914D02*
X19127600Y-26299914D01*
X19256171Y-26599914D02*
X19256171Y-26442771D01*
X19241886Y-26414200D01*
X19213314Y-26399914D01*
X19170457Y-26399914D01*
X19141886Y-26414200D01*
X19127600Y-26428486D01*
X19441886Y-26599914D02*
X19413314Y-26585629D01*
X19399028Y-26571343D01*
X19384743Y-26542771D01*
X19384743Y-26457057D01*
X19399028Y-26428486D01*
X19413314Y-26414200D01*
X19441886Y-26399914D01*
X19484743Y-26399914D01*
X19513314Y-26414200D01*
X19527600Y-26428486D01*
X19541886Y-26457057D01*
X19541886Y-26542771D01*
X19527600Y-26571343D01*
X19513314Y-26585629D01*
X19484743Y-26599914D01*
X19441886Y-26599914D01*
X19713314Y-26599914D02*
X19684743Y-26585629D01*
X19670457Y-26557057D01*
X19670457Y-26299914D01*
X19941886Y-26585629D02*
X19913314Y-26599914D01*
X19856171Y-26599914D01*
X19827600Y-26585629D01*
X19813314Y-26557057D01*
X19813314Y-26442771D01*
X19827600Y-26414200D01*
X19856171Y-26399914D01*
X19913314Y-26399914D01*
X19941886Y-26414200D01*
X19956171Y-26442771D01*
X19956171Y-26471343D01*
X19813314Y-26499914D01*
X20070457Y-26585629D02*
X20099028Y-26599914D01*
X20156171Y-26599914D01*
X20184743Y-26585629D01*
X20199028Y-26557057D01*
X20199028Y-26542771D01*
X20184743Y-26514200D01*
X20156171Y-26499914D01*
X20113314Y-26499914D01*
X20084743Y-26485629D01*
X20070457Y-26457057D01*
X20070457Y-26442771D01*
X20084743Y-26414200D01*
X20113314Y-26399914D01*
X20156171Y-26399914D01*
X20184743Y-26414200D01*
X20299028Y-26714200D02*
X20313314Y-26699914D01*
X20341886Y-26657057D01*
X20356171Y-26628486D01*
X20370457Y-26585629D01*
X20384743Y-26514200D01*
X20384743Y-26457057D01*
X20370457Y-26385629D01*
X20356171Y-26342771D01*
X20341886Y-26314200D01*
X20313314Y-26271343D01*
X20299028Y-26257057D01*
X13693600Y-26979200D02*
X13812600Y-26860200D01*
X13693600Y-26741200D01*
X13574600Y-26860200D01*
X13693600Y-26979200D01*
X13812600Y-26860200D02*
G75*
G03*
X13812600Y-26860200I-119000J0D01*
G01*
X14084743Y-26724486D02*
X14099028Y-26710200D01*
X14127600Y-26695914D01*
X14199028Y-26695914D01*
X14227600Y-26710200D01*
X14241886Y-26724486D01*
X14256171Y-26753057D01*
X14256171Y-26781629D01*
X14241886Y-26824486D01*
X14070457Y-26995914D01*
X14256171Y-26995914D01*
X14384743Y-26967343D02*
X14399028Y-26981629D01*
X14384743Y-26995914D01*
X14370457Y-26981629D01*
X14384743Y-26967343D01*
X14384743Y-26995914D01*
X14499028Y-26695914D02*
X14684743Y-26695914D01*
X14584743Y-26810200D01*
X14627600Y-26810200D01*
X14656171Y-26824486D01*
X14670457Y-26838771D01*
X14684743Y-26867343D01*
X14684743Y-26938771D01*
X14670457Y-26967343D01*
X14656171Y-26981629D01*
X14627600Y-26995914D01*
X14541886Y-26995914D01*
X14513314Y-26981629D01*
X14499028Y-26967343D01*
X14856171Y-26824486D02*
X14827600Y-26810200D01*
X14813314Y-26795914D01*
X14799028Y-26767343D01*
X14799028Y-26753057D01*
X14813314Y-26724486D01*
X14827600Y-26710200D01*
X14856171Y-26695914D01*
X14913314Y-26695914D01*
X14941886Y-26710200D01*
X14956171Y-26724486D01*
X14970457Y-26753057D01*
X14970457Y-26767343D01*
X14956171Y-26795914D01*
X14941886Y-26810200D01*
X14913314Y-26824486D01*
X14856171Y-26824486D01*
X14827600Y-26838771D01*
X14813314Y-26853057D01*
X14799028Y-26881629D01*
X14799028Y-26938771D01*
X14813314Y-26967343D01*
X14827600Y-26981629D01*
X14856171Y-26995914D01*
X14913314Y-26995914D01*
X14941886Y-26981629D01*
X14956171Y-26967343D01*
X14970457Y-26938771D01*
X14970457Y-26881629D01*
X14956171Y-26853057D01*
X14941886Y-26838771D01*
X14913314Y-26824486D01*
X15099028Y-26995914D02*
X15099028Y-26795914D01*
X15099028Y-26824486D02*
X15113314Y-26810200D01*
X15141886Y-26795914D01*
X15184743Y-26795914D01*
X15213314Y-26810200D01*
X15227600Y-26838771D01*
X15227600Y-26995914D01*
X15227600Y-26838771D02*
X15241886Y-26810200D01*
X15270457Y-26795914D01*
X15313314Y-26795914D01*
X15341886Y-26810200D01*
X15356171Y-26838771D01*
X15356171Y-26995914D01*
X15499028Y-26995914D02*
X15499028Y-26795914D01*
X15499028Y-26824486D02*
X15513314Y-26810200D01*
X15541886Y-26795914D01*
X15584743Y-26795914D01*
X15613314Y-26810200D01*
X15627600Y-26838771D01*
X15627600Y-26995914D01*
X15627600Y-26838771D02*
X15641886Y-26810200D01*
X15670457Y-26795914D01*
X15713314Y-26795914D01*
X15741886Y-26810200D01*
X15756171Y-26838771D01*
X15756171Y-26995914D01*
X16341886Y-26681629D02*
X16084743Y-27067343D01*
X16727600Y-26695914D02*
X16756171Y-26695914D01*
X16784743Y-26710200D01*
X16799028Y-26724486D01*
X16813314Y-26753057D01*
X16827600Y-26810200D01*
X16827600Y-26881629D01*
X16813314Y-26938771D01*
X16799028Y-26967343D01*
X16784743Y-26981629D01*
X16756171Y-26995914D01*
X16727600Y-26995914D01*
X16699028Y-26981629D01*
X16684743Y-26967343D01*
X16670457Y-26938771D01*
X16656171Y-26881629D01*
X16656171Y-26810200D01*
X16670457Y-26753057D01*
X16684743Y-26724486D01*
X16699028Y-26710200D01*
X16727600Y-26695914D01*
X16956171Y-26967343D02*
X16970457Y-26981629D01*
X16956171Y-26995914D01*
X16941886Y-26981629D01*
X16956171Y-26967343D01*
X16956171Y-26995914D01*
X17156171Y-26695914D02*
X17184743Y-26695914D01*
X17213314Y-26710200D01*
X17227600Y-26724486D01*
X17241886Y-26753057D01*
X17256171Y-26810200D01*
X17256171Y-26881629D01*
X17241886Y-26938771D01*
X17227600Y-26967343D01*
X17213314Y-26981629D01*
X17184743Y-26995914D01*
X17156171Y-26995914D01*
X17127600Y-26981629D01*
X17113314Y-26967343D01*
X17099028Y-26938771D01*
X17084743Y-26881629D01*
X17084743Y-26810200D01*
X17099028Y-26753057D01*
X17113314Y-26724486D01*
X17127600Y-26710200D01*
X17156171Y-26695914D01*
X17399028Y-26995914D02*
X17456171Y-26995914D01*
X17484743Y-26981629D01*
X17499028Y-26967343D01*
X17527600Y-26924486D01*
X17541886Y-26867343D01*
X17541886Y-26753057D01*
X17527600Y-26724486D01*
X17513314Y-26710200D01*
X17484743Y-26695914D01*
X17427600Y-26695914D01*
X17399028Y-26710200D01*
X17384743Y-26724486D01*
X17370457Y-26753057D01*
X17370457Y-26824486D01*
X17384743Y-26853057D01*
X17399028Y-26867343D01*
X17427600Y-26881629D01*
X17484743Y-26881629D01*
X17513314Y-26867343D01*
X17527600Y-26853057D01*
X17541886Y-26824486D01*
X17799028Y-26795914D02*
X17799028Y-26995914D01*
X17727600Y-26681629D02*
X17656171Y-26895914D01*
X17841886Y-26895914D01*
X17941886Y-26695914D02*
X17941886Y-26753057D01*
X18056171Y-26695914D02*
X18056171Y-26753057D01*
X18499028Y-27110200D02*
X18484743Y-27095914D01*
X18456171Y-27053057D01*
X18441886Y-27024486D01*
X18427600Y-26981629D01*
X18413314Y-26910200D01*
X18413314Y-26853057D01*
X18427600Y-26781629D01*
X18441886Y-26738771D01*
X18456171Y-26710200D01*
X18484743Y-26667343D01*
X18499028Y-26653057D01*
X18599028Y-26724486D02*
X18613314Y-26710200D01*
X18641886Y-26695914D01*
X18713314Y-26695914D01*
X18741886Y-26710200D01*
X18756171Y-26724486D01*
X18770457Y-26753057D01*
X18770457Y-26781629D01*
X18756171Y-26824486D01*
X18584743Y-26995914D01*
X18770457Y-26995914D01*
X19127600Y-26995914D02*
X19127600Y-26695914D01*
X19256171Y-26995914D02*
X19256171Y-26838771D01*
X19241886Y-26810200D01*
X19213314Y-26795914D01*
X19170457Y-26795914D01*
X19141886Y-26810200D01*
X19127600Y-26824486D01*
X19441886Y-26995914D02*
X19413314Y-26981629D01*
X19399028Y-26967343D01*
X19384743Y-26938771D01*
X19384743Y-26853057D01*
X19399028Y-26824486D01*
X19413314Y-26810200D01*
X19441886Y-26795914D01*
X19484743Y-26795914D01*
X19513314Y-26810200D01*
X19527600Y-26824486D01*
X19541886Y-26853057D01*
X19541886Y-26938771D01*
X19527600Y-26967343D01*
X19513314Y-26981629D01*
X19484743Y-26995914D01*
X19441886Y-26995914D01*
X19713314Y-26995914D02*
X19684743Y-26981629D01*
X19670457Y-26953057D01*
X19670457Y-26695914D01*
X19941886Y-26981629D02*
X19913314Y-26995914D01*
X19856171Y-26995914D01*
X19827600Y-26981629D01*
X19813314Y-26953057D01*
X19813314Y-26838771D01*
X19827600Y-26810200D01*
X19856171Y-26795914D01*
X19913314Y-26795914D01*
X19941886Y-26810200D01*
X19956171Y-26838771D01*
X19956171Y-26867343D01*
X19813314Y-26895914D01*
X20070457Y-26981629D02*
X20099028Y-26995914D01*
X20156171Y-26995914D01*
X20184743Y-26981629D01*
X20199028Y-26953057D01*
X20199028Y-26938771D01*
X20184743Y-26910200D01*
X20156171Y-26895914D01*
X20113314Y-26895914D01*
X20084743Y-26881629D01*
X20070457Y-26853057D01*
X20070457Y-26838771D01*
X20084743Y-26810200D01*
X20113314Y-26795914D01*
X20156171Y-26795914D01*
X20184743Y-26810200D01*
X20299028Y-27110200D02*
X20313314Y-27095914D01*
X20341886Y-27053057D01*
X20356171Y-27024486D01*
X20370457Y-26981629D01*
X20384743Y-26910200D01*
X20384743Y-26853057D01*
X20370457Y-26781629D01*
X20356171Y-26738771D01*
X20341886Y-26710200D01*
X20313314Y-26667343D01*
X20299028Y-26653057D01*
M02*
