G04 #@! TF.GenerationSoftware,KiCad,Pcbnew,5.1.9+dfsg1-1+deb11u1*
G04 #@! TF.CreationDate,2023-05-26T17:04:47+02:00*
G04 #@! TF.ProjectId,ATSAMA5D27-SOM1_devboard2,41545341-4d41-4354-9432-372d534f4d31,rev?*
G04 #@! TF.SameCoordinates,Original*
G04 #@! TF.FileFunction,Legend,Bot*
G04 #@! TF.FilePolarity,Positive*
%FSLAX46Y46*%
G04 Gerber Fmt 4.6, Leading zero omitted, Abs format (unit mm)*
G04 Created by KiCad (PCBNEW 5.1.9+dfsg1-1+deb11u1) date 2023-05-26 17:04:47*
%MOMM*%
%LPD*%
G01*
G04 APERTURE LIST*
%ADD10C,0.120000*%
%ADD11C,0.150000*%
%ADD12C,3.352000*%
%ADD13C,2.502000*%
%ADD14C,1.632000*%
%ADD15C,1.502000*%
%ADD16C,2.702000*%
%ADD17C,1.602000*%
%ADD18C,3.672000*%
%ADD19C,2.102000*%
%ADD20O,1.802000X1.802000*%
%ADD21O,1.602000X1.202000*%
%ADD22O,1.802000X1.452000*%
%ADD23C,2.302000*%
G04 APERTURE END LIST*
D10*
X192286580Y-145403880D02*
X197486580Y-145403880D01*
X192286580Y-132583880D02*
X197486580Y-132583880D01*
X190846580Y-144833880D02*
X192286580Y-144833880D01*
X192286580Y-145403880D02*
X192286580Y-144833880D01*
X197486580Y-145403880D02*
X197486580Y-144833880D01*
X192286580Y-133153880D02*
X192286580Y-132583880D01*
X197486580Y-133153880D02*
X197486580Y-132583880D01*
X192286580Y-143313880D02*
X192286580Y-142293880D01*
X197486580Y-143313880D02*
X197486580Y-142293880D01*
X192286580Y-140773880D02*
X192286580Y-139753880D01*
X197486580Y-140773880D02*
X197486580Y-139753880D01*
X192286580Y-138233880D02*
X192286580Y-137213880D01*
X197486580Y-138233880D02*
X197486580Y-137213880D01*
X192286580Y-135693880D02*
X192286580Y-134673880D01*
X197486580Y-135693880D02*
X197486580Y-134673880D01*
X217730000Y-114824252D02*
X217730000Y-114301748D01*
X219150000Y-114824252D02*
X219150000Y-114301748D01*
X152599320Y-148238688D02*
X152599320Y-148761192D01*
X154019320Y-148238688D02*
X154019320Y-148761192D01*
X152962540Y-126393732D02*
X152962540Y-125871228D01*
X154382540Y-126393732D02*
X154382540Y-125871228D01*
X211290000Y-107425748D02*
X211290000Y-107948252D01*
X212710000Y-107425748D02*
X212710000Y-107948252D01*
X155560552Y-164189480D02*
X155038048Y-164189480D01*
X155560552Y-162769480D02*
X155038048Y-162769480D01*
X146432340Y-130501132D02*
X146432340Y-129978628D01*
X145012340Y-130501132D02*
X145012340Y-129978628D01*
X214996000Y-107425748D02*
X214996000Y-107948252D01*
X213576000Y-107425748D02*
X213576000Y-107948252D01*
X162190360Y-164649628D02*
X162190360Y-165172132D01*
X163610360Y-164649628D02*
X163610360Y-165172132D01*
X160772852Y-117862420D02*
X160250348Y-117862420D01*
X160772852Y-116442420D02*
X160250348Y-116442420D01*
X155165048Y-107918320D02*
X155687552Y-107918320D01*
X155165048Y-106498320D02*
X155687552Y-106498320D01*
X155086308Y-119856180D02*
X155608812Y-119856180D01*
X155086308Y-121276180D02*
X155608812Y-121276180D01*
X158687700Y-164606228D02*
X158687700Y-165128732D01*
X160107700Y-164606228D02*
X160107700Y-165128732D01*
X150574752Y-157994280D02*
X150052248Y-157994280D01*
X150574752Y-159414280D02*
X150052248Y-159414280D01*
X185896508Y-133811080D02*
X186419012Y-133811080D01*
X185896508Y-132391080D02*
X186419012Y-132391080D01*
X208085760Y-157837348D02*
X208085760Y-158359852D01*
X206665760Y-157837348D02*
X206665760Y-158359852D01*
X209424200Y-160087788D02*
X209424200Y-160610292D01*
X210844200Y-160087788D02*
X210844200Y-160610292D01*
X208580512Y-149871500D02*
X208058008Y-149871500D01*
X208580512Y-148451500D02*
X208058008Y-148451500D01*
X203940340Y-160082488D02*
X203940340Y-160604992D01*
X205360340Y-160082488D02*
X205360340Y-160604992D01*
X186401452Y-135756580D02*
X185878948Y-135756580D01*
X186401452Y-137176580D02*
X185878948Y-137176580D01*
X179653000Y-109475748D02*
X179653000Y-109998252D01*
X178233000Y-109475748D02*
X178233000Y-109998252D01*
X157062100Y-154573228D02*
X157062100Y-155095732D01*
X158482100Y-154573228D02*
X158482100Y-155095732D01*
X156042728Y-117859880D02*
X156565232Y-117859880D01*
X156042728Y-116439880D02*
X156565232Y-116439880D01*
X160749772Y-107773400D02*
X160227268Y-107773400D01*
X160749772Y-109193400D02*
X160227268Y-109193400D01*
D11*
X195219913Y-145856260D02*
X195219913Y-146570546D01*
X195267532Y-146713403D01*
X195362770Y-146808641D01*
X195505627Y-146856260D01*
X195600865Y-146856260D01*
X194267532Y-145856260D02*
X194743722Y-145856260D01*
X194791341Y-146332451D01*
X194743722Y-146284832D01*
X194648484Y-146237213D01*
X194410389Y-146237213D01*
X194315151Y-146284832D01*
X194267532Y-146332451D01*
X194219913Y-146427689D01*
X194219913Y-146665784D01*
X194267532Y-146761022D01*
X194315151Y-146808641D01*
X194410389Y-146856260D01*
X194648484Y-146856260D01*
X194743722Y-146808641D01*
X194791341Y-146761022D01*
X220447142Y-113920142D02*
X220494761Y-113872523D01*
X220542380Y-113729666D01*
X220542380Y-113634428D01*
X220494761Y-113491571D01*
X220399523Y-113396333D01*
X220304285Y-113348714D01*
X220113809Y-113301095D01*
X219970952Y-113301095D01*
X219780476Y-113348714D01*
X219685238Y-113396333D01*
X219590000Y-113491571D01*
X219542380Y-113634428D01*
X219542380Y-113729666D01*
X219590000Y-113872523D01*
X219637619Y-113920142D01*
X219637619Y-114301095D02*
X219590000Y-114348714D01*
X219542380Y-114443952D01*
X219542380Y-114682047D01*
X219590000Y-114777285D01*
X219637619Y-114824904D01*
X219732857Y-114872523D01*
X219828095Y-114872523D01*
X219970952Y-114824904D01*
X220542380Y-114253476D01*
X220542380Y-114872523D01*
X219875714Y-115729666D02*
X220542380Y-115729666D01*
X219494761Y-115491571D02*
X220209047Y-115253476D01*
X220209047Y-115872523D01*
X152016462Y-147857082D02*
X152064081Y-147809463D01*
X152111700Y-147666606D01*
X152111700Y-147571368D01*
X152064081Y-147428511D01*
X151968843Y-147333273D01*
X151873605Y-147285654D01*
X151683129Y-147238035D01*
X151540272Y-147238035D01*
X151349796Y-147285654D01*
X151254558Y-147333273D01*
X151159320Y-147428511D01*
X151111700Y-147571368D01*
X151111700Y-147666606D01*
X151159320Y-147809463D01*
X151206939Y-147857082D01*
X151206939Y-148238035D02*
X151159320Y-148285654D01*
X151111700Y-148380892D01*
X151111700Y-148618987D01*
X151159320Y-148714225D01*
X151206939Y-148761844D01*
X151302177Y-148809463D01*
X151397415Y-148809463D01*
X151540272Y-148761844D01*
X152111700Y-148190416D01*
X152111700Y-148809463D01*
X151111700Y-149666606D02*
X151111700Y-149476130D01*
X151159320Y-149380892D01*
X151206939Y-149333273D01*
X151349796Y-149238035D01*
X151540272Y-149190416D01*
X151921224Y-149190416D01*
X152016462Y-149238035D01*
X152064081Y-149285654D01*
X152111700Y-149380892D01*
X152111700Y-149571368D01*
X152064081Y-149666606D01*
X152016462Y-149714225D01*
X151921224Y-149761844D01*
X151683129Y-149761844D01*
X151587891Y-149714225D01*
X151540272Y-149666606D01*
X151492653Y-149571368D01*
X151492653Y-149380892D01*
X151540272Y-149285654D01*
X151587891Y-149238035D01*
X151683129Y-149190416D01*
X155679682Y-125489622D02*
X155727301Y-125442003D01*
X155774920Y-125299146D01*
X155774920Y-125203908D01*
X155727301Y-125061051D01*
X155632063Y-124965813D01*
X155536825Y-124918194D01*
X155346349Y-124870575D01*
X155203492Y-124870575D01*
X155013016Y-124918194D01*
X154917778Y-124965813D01*
X154822540Y-125061051D01*
X154774920Y-125203908D01*
X154774920Y-125299146D01*
X154822540Y-125442003D01*
X154870159Y-125489622D01*
X154870159Y-125870575D02*
X154822540Y-125918194D01*
X154774920Y-126013432D01*
X154774920Y-126251527D01*
X154822540Y-126346765D01*
X154870159Y-126394384D01*
X154965397Y-126442003D01*
X155060635Y-126442003D01*
X155203492Y-126394384D01*
X155774920Y-125822956D01*
X155774920Y-126442003D01*
X154774920Y-126775337D02*
X154774920Y-127442003D01*
X155774920Y-127013432D01*
X210757142Y-107107142D02*
X210804761Y-107059523D01*
X210852380Y-106916666D01*
X210852380Y-106821428D01*
X210804761Y-106678571D01*
X210709523Y-106583333D01*
X210614285Y-106535714D01*
X210423809Y-106488095D01*
X210280952Y-106488095D01*
X210090476Y-106535714D01*
X209995238Y-106583333D01*
X209900000Y-106678571D01*
X209852380Y-106821428D01*
X209852380Y-106916666D01*
X209900000Y-107059523D01*
X209947619Y-107107142D01*
X209947619Y-107488095D02*
X209900000Y-107535714D01*
X209852380Y-107630952D01*
X209852380Y-107869047D01*
X209900000Y-107964285D01*
X209947619Y-108011904D01*
X210042857Y-108059523D01*
X210138095Y-108059523D01*
X210280952Y-108011904D01*
X210852380Y-107440476D01*
X210852380Y-108059523D01*
X209852380Y-108964285D02*
X209852380Y-108488095D01*
X210328571Y-108440476D01*
X210280952Y-108488095D01*
X210233333Y-108583333D01*
X210233333Y-108821428D01*
X210280952Y-108916666D01*
X210328571Y-108964285D01*
X210423809Y-109011904D01*
X210661904Y-109011904D01*
X210757142Y-108964285D01*
X210804761Y-108916666D01*
X210852380Y-108821428D01*
X210852380Y-108583333D01*
X210804761Y-108488095D01*
X210757142Y-108440476D01*
X155951157Y-165563822D02*
X155998776Y-165611441D01*
X156141633Y-165659060D01*
X156236871Y-165659060D01*
X156379728Y-165611441D01*
X156474966Y-165516203D01*
X156522585Y-165420965D01*
X156570204Y-165230489D01*
X156570204Y-165087632D01*
X156522585Y-164897156D01*
X156474966Y-164801918D01*
X156379728Y-164706680D01*
X156236871Y-164659060D01*
X156141633Y-164659060D01*
X155998776Y-164706680D01*
X155951157Y-164754299D01*
X155617823Y-164659060D02*
X154998776Y-164659060D01*
X155332109Y-165040013D01*
X155189252Y-165040013D01*
X155094014Y-165087632D01*
X155046395Y-165135251D01*
X154998776Y-165230489D01*
X154998776Y-165468584D01*
X155046395Y-165563822D01*
X155094014Y-165611441D01*
X155189252Y-165659060D01*
X155474966Y-165659060D01*
X155570204Y-165611441D01*
X155617823Y-165563822D01*
X154665442Y-164659060D02*
X153998776Y-164659060D01*
X154427347Y-165659060D01*
X147729482Y-129597022D02*
X147777101Y-129549403D01*
X147824720Y-129406546D01*
X147824720Y-129311308D01*
X147777101Y-129168451D01*
X147681863Y-129073213D01*
X147586625Y-129025594D01*
X147396149Y-128977975D01*
X147253292Y-128977975D01*
X147062816Y-129025594D01*
X146967578Y-129073213D01*
X146872340Y-129168451D01*
X146824720Y-129311308D01*
X146824720Y-129406546D01*
X146872340Y-129549403D01*
X146919959Y-129597022D01*
X146824720Y-129930356D02*
X146824720Y-130549403D01*
X147205673Y-130216070D01*
X147205673Y-130358927D01*
X147253292Y-130454165D01*
X147300911Y-130501784D01*
X147396149Y-130549403D01*
X147634244Y-130549403D01*
X147729482Y-130501784D01*
X147777101Y-130454165D01*
X147824720Y-130358927D01*
X147824720Y-130073213D01*
X147777101Y-129977975D01*
X147729482Y-129930356D01*
X147158054Y-131406546D02*
X147824720Y-131406546D01*
X146777101Y-131168451D02*
X147491387Y-130930356D01*
X147491387Y-131549403D01*
X216407142Y-107132142D02*
X216454761Y-107084523D01*
X216502380Y-106941666D01*
X216502380Y-106846428D01*
X216454761Y-106703571D01*
X216359523Y-106608333D01*
X216264285Y-106560714D01*
X216073809Y-106513095D01*
X215930952Y-106513095D01*
X215740476Y-106560714D01*
X215645238Y-106608333D01*
X215550000Y-106703571D01*
X215502380Y-106846428D01*
X215502380Y-106941666D01*
X215550000Y-107084523D01*
X215597619Y-107132142D01*
X215502380Y-107465476D02*
X215502380Y-108084523D01*
X215883333Y-107751190D01*
X215883333Y-107894047D01*
X215930952Y-107989285D01*
X215978571Y-108036904D01*
X216073809Y-108084523D01*
X216311904Y-108084523D01*
X216407142Y-108036904D01*
X216454761Y-107989285D01*
X216502380Y-107894047D01*
X216502380Y-107608333D01*
X216454761Y-107513095D01*
X216407142Y-107465476D01*
X216502380Y-109036904D02*
X216502380Y-108465476D01*
X216502380Y-108751190D02*
X215502380Y-108751190D01*
X215645238Y-108655952D01*
X215740476Y-108560714D01*
X215788095Y-108465476D01*
X161607502Y-164268022D02*
X161655121Y-164220403D01*
X161702740Y-164077546D01*
X161702740Y-163982308D01*
X161655121Y-163839451D01*
X161559883Y-163744213D01*
X161464645Y-163696594D01*
X161274169Y-163648975D01*
X161131312Y-163648975D01*
X160940836Y-163696594D01*
X160845598Y-163744213D01*
X160750360Y-163839451D01*
X160702740Y-163982308D01*
X160702740Y-164077546D01*
X160750360Y-164220403D01*
X160797979Y-164268022D01*
X160702740Y-164601356D02*
X160702740Y-165220403D01*
X161083693Y-164887070D01*
X161083693Y-165029927D01*
X161131312Y-165125165D01*
X161178931Y-165172784D01*
X161274169Y-165220403D01*
X161512264Y-165220403D01*
X161607502Y-165172784D01*
X161655121Y-165125165D01*
X161702740Y-165029927D01*
X161702740Y-164744213D01*
X161655121Y-164648975D01*
X161607502Y-164601356D01*
X160702740Y-166077546D02*
X160702740Y-165887070D01*
X160750360Y-165791832D01*
X160797979Y-165744213D01*
X160940836Y-165648975D01*
X161131312Y-165601356D01*
X161512264Y-165601356D01*
X161607502Y-165648975D01*
X161655121Y-165696594D01*
X161702740Y-165791832D01*
X161702740Y-165982308D01*
X161655121Y-166077546D01*
X161607502Y-166125165D01*
X161512264Y-166172784D01*
X161274169Y-166172784D01*
X161178931Y-166125165D01*
X161131312Y-166077546D01*
X161083693Y-165982308D01*
X161083693Y-165791832D01*
X161131312Y-165696594D01*
X161178931Y-165648975D01*
X161274169Y-165601356D01*
X161173397Y-119188502D02*
X161221016Y-119236121D01*
X161363873Y-119283740D01*
X161459111Y-119283740D01*
X161601968Y-119236121D01*
X161697206Y-119140883D01*
X161744825Y-119045645D01*
X161792444Y-118855169D01*
X161792444Y-118712312D01*
X161744825Y-118521836D01*
X161697206Y-118426598D01*
X161601968Y-118331360D01*
X161459111Y-118283740D01*
X161363873Y-118283740D01*
X161221016Y-118331360D01*
X161173397Y-118378979D01*
X160840063Y-118283740D02*
X160221016Y-118283740D01*
X160554349Y-118664693D01*
X160411492Y-118664693D01*
X160316254Y-118712312D01*
X160268635Y-118759931D01*
X160221016Y-118855169D01*
X160221016Y-119093264D01*
X160268635Y-119188502D01*
X160316254Y-119236121D01*
X160411492Y-119283740D01*
X160697206Y-119283740D01*
X160792444Y-119236121D01*
X160840063Y-119188502D01*
X159649587Y-118712312D02*
X159744825Y-118664693D01*
X159792444Y-118617074D01*
X159840063Y-118521836D01*
X159840063Y-118474217D01*
X159792444Y-118378979D01*
X159744825Y-118331360D01*
X159649587Y-118283740D01*
X159459111Y-118283740D01*
X159363873Y-118331360D01*
X159316254Y-118378979D01*
X159268635Y-118474217D01*
X159268635Y-118521836D01*
X159316254Y-118617074D01*
X159363873Y-118664693D01*
X159459111Y-118712312D01*
X159649587Y-118712312D01*
X159744825Y-118759931D01*
X159792444Y-118807550D01*
X159840063Y-118902788D01*
X159840063Y-119093264D01*
X159792444Y-119188502D01*
X159744825Y-119236121D01*
X159649587Y-119283740D01*
X159459111Y-119283740D01*
X159363873Y-119236121D01*
X159316254Y-119188502D01*
X159268635Y-119093264D01*
X159268635Y-118902788D01*
X159316254Y-118807550D01*
X159363873Y-118759931D01*
X159459111Y-118712312D01*
X156069157Y-109215462D02*
X156116776Y-109263081D01*
X156259633Y-109310700D01*
X156354871Y-109310700D01*
X156497728Y-109263081D01*
X156592966Y-109167843D01*
X156640585Y-109072605D01*
X156688204Y-108882129D01*
X156688204Y-108739272D01*
X156640585Y-108548796D01*
X156592966Y-108453558D01*
X156497728Y-108358320D01*
X156354871Y-108310700D01*
X156259633Y-108310700D01*
X156116776Y-108358320D01*
X156069157Y-108405939D01*
X155735823Y-108310700D02*
X155116776Y-108310700D01*
X155450109Y-108691653D01*
X155307252Y-108691653D01*
X155212014Y-108739272D01*
X155164395Y-108786891D01*
X155116776Y-108882129D01*
X155116776Y-109120224D01*
X155164395Y-109215462D01*
X155212014Y-109263081D01*
X155307252Y-109310700D01*
X155592966Y-109310700D01*
X155688204Y-109263081D01*
X155735823Y-109215462D01*
X154640585Y-109310700D02*
X154450109Y-109310700D01*
X154354871Y-109263081D01*
X154307252Y-109215462D01*
X154212014Y-109072605D01*
X154164395Y-108882129D01*
X154164395Y-108501177D01*
X154212014Y-108405939D01*
X154259633Y-108358320D01*
X154354871Y-108310700D01*
X154545347Y-108310700D01*
X154640585Y-108358320D01*
X154688204Y-108405939D01*
X154735823Y-108501177D01*
X154735823Y-108739272D01*
X154688204Y-108834510D01*
X154640585Y-108882129D01*
X154545347Y-108929748D01*
X154354871Y-108929748D01*
X154259633Y-108882129D01*
X154212014Y-108834510D01*
X154164395Y-108739272D01*
X155990417Y-122573322D02*
X156038036Y-122620941D01*
X156180893Y-122668560D01*
X156276131Y-122668560D01*
X156418988Y-122620941D01*
X156514226Y-122525703D01*
X156561845Y-122430465D01*
X156609464Y-122239989D01*
X156609464Y-122097132D01*
X156561845Y-121906656D01*
X156514226Y-121811418D01*
X156418988Y-121716180D01*
X156276131Y-121668560D01*
X156180893Y-121668560D01*
X156038036Y-121716180D01*
X155990417Y-121763799D01*
X155133274Y-122001894D02*
X155133274Y-122668560D01*
X155371369Y-121620941D02*
X155609464Y-122335227D01*
X154990417Y-122335227D01*
X154418988Y-121668560D02*
X154323750Y-121668560D01*
X154228512Y-121716180D01*
X154180893Y-121763799D01*
X154133274Y-121859037D01*
X154085655Y-122049513D01*
X154085655Y-122287608D01*
X154133274Y-122478084D01*
X154180893Y-122573322D01*
X154228512Y-122620941D01*
X154323750Y-122668560D01*
X154418988Y-122668560D01*
X154514226Y-122620941D01*
X154561845Y-122573322D01*
X154609464Y-122478084D01*
X154657083Y-122287608D01*
X154657083Y-122049513D01*
X154609464Y-121859037D01*
X154561845Y-121763799D01*
X154514226Y-121716180D01*
X154418988Y-121668560D01*
X158104842Y-164224622D02*
X158152461Y-164177003D01*
X158200080Y-164034146D01*
X158200080Y-163938908D01*
X158152461Y-163796051D01*
X158057223Y-163700813D01*
X157961985Y-163653194D01*
X157771509Y-163605575D01*
X157628652Y-163605575D01*
X157438176Y-163653194D01*
X157342938Y-163700813D01*
X157247700Y-163796051D01*
X157200080Y-163938908D01*
X157200080Y-164034146D01*
X157247700Y-164177003D01*
X157295319Y-164224622D01*
X157533414Y-165081765D02*
X158200080Y-165081765D01*
X157152461Y-164843670D02*
X157866747Y-164605575D01*
X157866747Y-165224622D01*
X158200080Y-166129384D02*
X158200080Y-165557956D01*
X158200080Y-165843670D02*
X157200080Y-165843670D01*
X157342938Y-165748432D01*
X157438176Y-165653194D01*
X157485795Y-165557956D01*
X150956357Y-157411422D02*
X151003976Y-157459041D01*
X151146833Y-157506660D01*
X151242071Y-157506660D01*
X151384928Y-157459041D01*
X151480166Y-157363803D01*
X151527785Y-157268565D01*
X151575404Y-157078089D01*
X151575404Y-156935232D01*
X151527785Y-156744756D01*
X151480166Y-156649518D01*
X151384928Y-156554280D01*
X151242071Y-156506660D01*
X151146833Y-156506660D01*
X151003976Y-156554280D01*
X150956357Y-156601899D01*
X150099214Y-156839994D02*
X150099214Y-157506660D01*
X150337309Y-156459041D02*
X150575404Y-157173327D01*
X149956357Y-157173327D01*
X149670642Y-156506660D02*
X149051595Y-156506660D01*
X149384928Y-156887613D01*
X149242071Y-156887613D01*
X149146833Y-156935232D01*
X149099214Y-156982851D01*
X149051595Y-157078089D01*
X149051595Y-157316184D01*
X149099214Y-157411422D01*
X149146833Y-157459041D01*
X149242071Y-157506660D01*
X149527785Y-157506660D01*
X149623023Y-157459041D01*
X149670642Y-157411422D01*
X186366666Y-131977380D02*
X186700000Y-131501190D01*
X186938095Y-131977380D02*
X186938095Y-130977380D01*
X186557142Y-130977380D01*
X186461904Y-131025000D01*
X186414285Y-131072619D01*
X186366666Y-131167857D01*
X186366666Y-131310714D01*
X186414285Y-131405952D01*
X186461904Y-131453571D01*
X186557142Y-131501190D01*
X186938095Y-131501190D01*
X185461904Y-130977380D02*
X185938095Y-130977380D01*
X185985714Y-131453571D01*
X185938095Y-131405952D01*
X185842857Y-131358333D01*
X185604761Y-131358333D01*
X185509523Y-131405952D01*
X185461904Y-131453571D01*
X185414285Y-131548809D01*
X185414285Y-131786904D01*
X185461904Y-131882142D01*
X185509523Y-131929761D01*
X185604761Y-131977380D01*
X185842857Y-131977380D01*
X185938095Y-131929761D01*
X185985714Y-131882142D01*
X207927380Y-154257142D02*
X207451190Y-153923809D01*
X207927380Y-153685714D02*
X206927380Y-153685714D01*
X206927380Y-154066666D01*
X206975000Y-154161904D01*
X207022619Y-154209523D01*
X207117857Y-154257142D01*
X207260714Y-154257142D01*
X207355952Y-154209523D01*
X207403571Y-154161904D01*
X207451190Y-154066666D01*
X207451190Y-153685714D01*
X207927380Y-155209523D02*
X207927380Y-154638095D01*
X207927380Y-154923809D02*
X206927380Y-154923809D01*
X207070238Y-154828571D01*
X207165476Y-154733333D01*
X207213095Y-154638095D01*
X206927380Y-155542857D02*
X206927380Y-156161904D01*
X207308333Y-155828571D01*
X207308333Y-155971428D01*
X207355952Y-156066666D01*
X207403571Y-156114285D01*
X207498809Y-156161904D01*
X207736904Y-156161904D01*
X207832142Y-156114285D01*
X207879761Y-156066666D01*
X207927380Y-155971428D01*
X207927380Y-155685714D01*
X207879761Y-155590476D01*
X207832142Y-155542857D01*
X210527380Y-156632142D02*
X210051190Y-156298809D01*
X210527380Y-156060714D02*
X209527380Y-156060714D01*
X209527380Y-156441666D01*
X209575000Y-156536904D01*
X209622619Y-156584523D01*
X209717857Y-156632142D01*
X209860714Y-156632142D01*
X209955952Y-156584523D01*
X210003571Y-156536904D01*
X210051190Y-156441666D01*
X210051190Y-156060714D01*
X210527380Y-157584523D02*
X210527380Y-157013095D01*
X210527380Y-157298809D02*
X209527380Y-157298809D01*
X209670238Y-157203571D01*
X209765476Y-157108333D01*
X209813095Y-157013095D01*
X210527380Y-158536904D02*
X210527380Y-157965476D01*
X210527380Y-158251190D02*
X209527380Y-158251190D01*
X209670238Y-158155952D01*
X209765476Y-158060714D01*
X209813095Y-157965476D01*
X208962117Y-147963880D02*
X209295450Y-147487690D01*
X209533545Y-147963880D02*
X209533545Y-146963880D01*
X209152593Y-146963880D01*
X209057355Y-147011500D01*
X209009736Y-147059119D01*
X208962117Y-147154357D01*
X208962117Y-147297214D01*
X209009736Y-147392452D01*
X209057355Y-147440071D01*
X209152593Y-147487690D01*
X209533545Y-147487690D01*
X208009736Y-147963880D02*
X208581164Y-147963880D01*
X208295450Y-147963880D02*
X208295450Y-146963880D01*
X208390688Y-147106738D01*
X208485926Y-147201976D01*
X208581164Y-147249595D01*
X207390688Y-146963880D02*
X207295450Y-146963880D01*
X207200212Y-147011500D01*
X207152593Y-147059119D01*
X207104974Y-147154357D01*
X207057355Y-147344833D01*
X207057355Y-147582928D01*
X207104974Y-147773404D01*
X207152593Y-147868642D01*
X207200212Y-147916261D01*
X207295450Y-147963880D01*
X207390688Y-147963880D01*
X207485926Y-147916261D01*
X207533545Y-147868642D01*
X207581164Y-147773404D01*
X207628783Y-147582928D01*
X207628783Y-147344833D01*
X207581164Y-147154357D01*
X207533545Y-147059119D01*
X207485926Y-147011500D01*
X207390688Y-146963880D01*
X205152380Y-157483333D02*
X204676190Y-157150000D01*
X205152380Y-156911904D02*
X204152380Y-156911904D01*
X204152380Y-157292857D01*
X204200000Y-157388095D01*
X204247619Y-157435714D01*
X204342857Y-157483333D01*
X204485714Y-157483333D01*
X204580952Y-157435714D01*
X204628571Y-157388095D01*
X204676190Y-157292857D01*
X204676190Y-156911904D01*
X205152380Y-157959523D02*
X205152380Y-158150000D01*
X205104761Y-158245238D01*
X205057142Y-158292857D01*
X204914285Y-158388095D01*
X204723809Y-158435714D01*
X204342857Y-158435714D01*
X204247619Y-158388095D01*
X204200000Y-158340476D01*
X204152380Y-158245238D01*
X204152380Y-158054761D01*
X204200000Y-157959523D01*
X204247619Y-157911904D01*
X204342857Y-157864285D01*
X204580952Y-157864285D01*
X204676190Y-157911904D01*
X204723809Y-157959523D01*
X204771428Y-158054761D01*
X204771428Y-158245238D01*
X204723809Y-158340476D01*
X204676190Y-158388095D01*
X204580952Y-158435714D01*
X186306866Y-135268960D02*
X186640200Y-134792770D01*
X186878295Y-135268960D02*
X186878295Y-134268960D01*
X186497342Y-134268960D01*
X186402104Y-134316580D01*
X186354485Y-134364199D01*
X186306866Y-134459437D01*
X186306866Y-134602294D01*
X186354485Y-134697532D01*
X186402104Y-134745151D01*
X186497342Y-134792770D01*
X186878295Y-134792770D01*
X185449723Y-134268960D02*
X185640200Y-134268960D01*
X185735438Y-134316580D01*
X185783057Y-134364199D01*
X185878295Y-134507056D01*
X185925914Y-134697532D01*
X185925914Y-135078484D01*
X185878295Y-135173722D01*
X185830676Y-135221341D01*
X185735438Y-135268960D01*
X185544961Y-135268960D01*
X185449723Y-135221341D01*
X185402104Y-135173722D01*
X185354485Y-135078484D01*
X185354485Y-134840389D01*
X185402104Y-134745151D01*
X185449723Y-134697532D01*
X185544961Y-134649913D01*
X185735438Y-134649913D01*
X185830676Y-134697532D01*
X185878295Y-134745151D01*
X185925914Y-134840389D01*
X179268380Y-112387142D02*
X178792190Y-112053809D01*
X179268380Y-111815714D02*
X178268380Y-111815714D01*
X178268380Y-112196666D01*
X178316000Y-112291904D01*
X178363619Y-112339523D01*
X178458857Y-112387142D01*
X178601714Y-112387142D01*
X178696952Y-112339523D01*
X178744571Y-112291904D01*
X178792190Y-112196666D01*
X178792190Y-111815714D01*
X178601714Y-113244285D02*
X179268380Y-113244285D01*
X178220761Y-113006190D02*
X178935047Y-112768095D01*
X178935047Y-113387142D01*
X178363619Y-113720476D02*
X178316000Y-113768095D01*
X178268380Y-113863333D01*
X178268380Y-114101428D01*
X178316000Y-114196666D01*
X178363619Y-114244285D01*
X178458857Y-114291904D01*
X178554095Y-114291904D01*
X178696952Y-114244285D01*
X179268380Y-113672857D01*
X179268380Y-114291904D01*
X156574480Y-154191622D02*
X156098290Y-153858289D01*
X156574480Y-153620194D02*
X155574480Y-153620194D01*
X155574480Y-154001146D01*
X155622100Y-154096384D01*
X155669719Y-154144003D01*
X155764957Y-154191622D01*
X155907814Y-154191622D01*
X156003052Y-154144003D01*
X156050671Y-154096384D01*
X156098290Y-154001146D01*
X156098290Y-153620194D01*
X155574480Y-155048765D02*
X155574480Y-154858289D01*
X155622100Y-154763051D01*
X155669719Y-154715432D01*
X155812576Y-154620194D01*
X156003052Y-154572575D01*
X156384004Y-154572575D01*
X156479242Y-154620194D01*
X156526861Y-154667813D01*
X156574480Y-154763051D01*
X156574480Y-154953527D01*
X156526861Y-155048765D01*
X156479242Y-155096384D01*
X156384004Y-155144003D01*
X156145909Y-155144003D01*
X156050671Y-155096384D01*
X156003052Y-155048765D01*
X155955433Y-154953527D01*
X155955433Y-154763051D01*
X156003052Y-154667813D01*
X156050671Y-154620194D01*
X156145909Y-154572575D01*
X155574480Y-155763051D02*
X155574480Y-155858289D01*
X155622100Y-155953527D01*
X155669719Y-156001146D01*
X155764957Y-156048765D01*
X155955433Y-156096384D01*
X156193528Y-156096384D01*
X156384004Y-156048765D01*
X156479242Y-156001146D01*
X156526861Y-155953527D01*
X156574480Y-155858289D01*
X156574480Y-155763051D01*
X156526861Y-155667813D01*
X156479242Y-155620194D01*
X156384004Y-155572575D01*
X156193528Y-155524956D01*
X155955433Y-155524956D01*
X155764957Y-155572575D01*
X155669719Y-155620194D01*
X155622100Y-155667813D01*
X155574480Y-155763051D01*
X156946837Y-119252260D02*
X157280170Y-118776070D01*
X157518265Y-119252260D02*
X157518265Y-118252260D01*
X157137313Y-118252260D01*
X157042075Y-118299880D01*
X156994456Y-118347499D01*
X156946837Y-118442737D01*
X156946837Y-118585594D01*
X156994456Y-118680832D01*
X157042075Y-118728451D01*
X157137313Y-118776070D01*
X157518265Y-118776070D01*
X156042075Y-118252260D02*
X156518265Y-118252260D01*
X156565884Y-118728451D01*
X156518265Y-118680832D01*
X156423027Y-118633213D01*
X156184932Y-118633213D01*
X156089694Y-118680832D01*
X156042075Y-118728451D01*
X155994456Y-118823689D01*
X155994456Y-119061784D01*
X156042075Y-119157022D01*
X156089694Y-119204641D01*
X156184932Y-119252260D01*
X156423027Y-119252260D01*
X156518265Y-119204641D01*
X156565884Y-119157022D01*
X155661122Y-118252260D02*
X154994456Y-118252260D01*
X155423027Y-119252260D01*
X161131377Y-107285780D02*
X161464710Y-106809590D01*
X161702805Y-107285780D02*
X161702805Y-106285780D01*
X161321853Y-106285780D01*
X161226615Y-106333400D01*
X161178996Y-106381019D01*
X161131377Y-106476257D01*
X161131377Y-106619114D01*
X161178996Y-106714352D01*
X161226615Y-106761971D01*
X161321853Y-106809590D01*
X161702805Y-106809590D01*
X160226615Y-106285780D02*
X160702805Y-106285780D01*
X160750424Y-106761971D01*
X160702805Y-106714352D01*
X160607567Y-106666733D01*
X160369472Y-106666733D01*
X160274234Y-106714352D01*
X160226615Y-106761971D01*
X160178996Y-106857209D01*
X160178996Y-107095304D01*
X160226615Y-107190542D01*
X160274234Y-107238161D01*
X160369472Y-107285780D01*
X160607567Y-107285780D01*
X160702805Y-107238161D01*
X160750424Y-107190542D01*
X159274234Y-106285780D02*
X159750424Y-106285780D01*
X159798043Y-106761971D01*
X159750424Y-106714352D01*
X159655186Y-106666733D01*
X159417091Y-106666733D01*
X159321853Y-106714352D01*
X159274234Y-106761971D01*
X159226615Y-106857209D01*
X159226615Y-107095304D01*
X159274234Y-107190542D01*
X159321853Y-107238161D01*
X159417091Y-107285780D01*
X159655186Y-107285780D01*
X159750424Y-107238161D01*
X159798043Y-107190542D01*
%LPC*%
D12*
X216331800Y-200863200D03*
X204901800Y-200863200D03*
D13*
X218466800Y-197813200D03*
X202766800Y-197813200D03*
D14*
X217256800Y-204913200D03*
X214716800Y-204913200D03*
X206516800Y-204913200D03*
X203976800Y-204913200D03*
D15*
X215061800Y-191973200D03*
X213791800Y-194513200D03*
X212521800Y-191973200D03*
X211251800Y-194513200D03*
X209981800Y-191973200D03*
X208711800Y-194513200D03*
X207441800Y-191973200D03*
X206171800Y-194513200D03*
G36*
G01*
X195785580Y-134413880D02*
X195785580Y-133413880D01*
G75*
G02*
X195836580Y-133362880I51000J0D01*
G01*
X198986580Y-133362880D01*
G75*
G02*
X199037580Y-133413880I0J-51000D01*
G01*
X199037580Y-134413880D01*
G75*
G02*
X198986580Y-134464880I-51000J0D01*
G01*
X195836580Y-134464880D01*
G75*
G02*
X195785580Y-134413880I0J51000D01*
G01*
G37*
G36*
G01*
X190735580Y-134413880D02*
X190735580Y-133413880D01*
G75*
G02*
X190786580Y-133362880I51000J0D01*
G01*
X193936580Y-133362880D01*
G75*
G02*
X193987580Y-133413880I0J-51000D01*
G01*
X193987580Y-134413880D01*
G75*
G02*
X193936580Y-134464880I-51000J0D01*
G01*
X190786580Y-134464880D01*
G75*
G02*
X190735580Y-134413880I0J51000D01*
G01*
G37*
G36*
G01*
X195785580Y-136953880D02*
X195785580Y-135953880D01*
G75*
G02*
X195836580Y-135902880I51000J0D01*
G01*
X198986580Y-135902880D01*
G75*
G02*
X199037580Y-135953880I0J-51000D01*
G01*
X199037580Y-136953880D01*
G75*
G02*
X198986580Y-137004880I-51000J0D01*
G01*
X195836580Y-137004880D01*
G75*
G02*
X195785580Y-136953880I0J51000D01*
G01*
G37*
G36*
G01*
X190735580Y-136953880D02*
X190735580Y-135953880D01*
G75*
G02*
X190786580Y-135902880I51000J0D01*
G01*
X193936580Y-135902880D01*
G75*
G02*
X193987580Y-135953880I0J-51000D01*
G01*
X193987580Y-136953880D01*
G75*
G02*
X193936580Y-137004880I-51000J0D01*
G01*
X190786580Y-137004880D01*
G75*
G02*
X190735580Y-136953880I0J51000D01*
G01*
G37*
G36*
G01*
X195785580Y-139493880D02*
X195785580Y-138493880D01*
G75*
G02*
X195836580Y-138442880I51000J0D01*
G01*
X198986580Y-138442880D01*
G75*
G02*
X199037580Y-138493880I0J-51000D01*
G01*
X199037580Y-139493880D01*
G75*
G02*
X198986580Y-139544880I-51000J0D01*
G01*
X195836580Y-139544880D01*
G75*
G02*
X195785580Y-139493880I0J51000D01*
G01*
G37*
G36*
G01*
X190735580Y-139493880D02*
X190735580Y-138493880D01*
G75*
G02*
X190786580Y-138442880I51000J0D01*
G01*
X193936580Y-138442880D01*
G75*
G02*
X193987580Y-138493880I0J-51000D01*
G01*
X193987580Y-139493880D01*
G75*
G02*
X193936580Y-139544880I-51000J0D01*
G01*
X190786580Y-139544880D01*
G75*
G02*
X190735580Y-139493880I0J51000D01*
G01*
G37*
G36*
G01*
X195785580Y-142033880D02*
X195785580Y-141033880D01*
G75*
G02*
X195836580Y-140982880I51000J0D01*
G01*
X198986580Y-140982880D01*
G75*
G02*
X199037580Y-141033880I0J-51000D01*
G01*
X199037580Y-142033880D01*
G75*
G02*
X198986580Y-142084880I-51000J0D01*
G01*
X195836580Y-142084880D01*
G75*
G02*
X195785580Y-142033880I0J51000D01*
G01*
G37*
G36*
G01*
X190735580Y-142033880D02*
X190735580Y-141033880D01*
G75*
G02*
X190786580Y-140982880I51000J0D01*
G01*
X193936580Y-140982880D01*
G75*
G02*
X193987580Y-141033880I0J-51000D01*
G01*
X193987580Y-142033880D01*
G75*
G02*
X193936580Y-142084880I-51000J0D01*
G01*
X190786580Y-142084880D01*
G75*
G02*
X190735580Y-142033880I0J51000D01*
G01*
G37*
G36*
G01*
X195785580Y-144573880D02*
X195785580Y-143573880D01*
G75*
G02*
X195836580Y-143522880I51000J0D01*
G01*
X198986580Y-143522880D01*
G75*
G02*
X199037580Y-143573880I0J-51000D01*
G01*
X199037580Y-144573880D01*
G75*
G02*
X198986580Y-144624880I-51000J0D01*
G01*
X195836580Y-144624880D01*
G75*
G02*
X195785580Y-144573880I0J51000D01*
G01*
G37*
G36*
G01*
X190735580Y-144573880D02*
X190735580Y-143573880D01*
G75*
G02*
X190786580Y-143522880I51000J0D01*
G01*
X193936580Y-143522880D01*
G75*
G02*
X193987580Y-143573880I0J-51000D01*
G01*
X193987580Y-144573880D01*
G75*
G02*
X193936580Y-144624880I-51000J0D01*
G01*
X190786580Y-144624880D01*
G75*
G02*
X190735580Y-144573880I0J51000D01*
G01*
G37*
G36*
G01*
X268000000Y-208863920D02*
X265400000Y-208863920D01*
G75*
G02*
X265349000Y-208812920I0J51000D01*
G01*
X265349000Y-206212920D01*
G75*
G02*
X265400000Y-206161920I51000J0D01*
G01*
X268000000Y-206161920D01*
G75*
G02*
X268051000Y-206212920I0J-51000D01*
G01*
X268051000Y-208812920D01*
G75*
G02*
X268000000Y-208863920I-51000J0D01*
G01*
G37*
D16*
X272700000Y-207512920D03*
X269700000Y-202812920D03*
D17*
X266914400Y-160324800D03*
X266914400Y-157824800D03*
X266914400Y-155824800D03*
X266914400Y-153324800D03*
D18*
X269624400Y-163394800D03*
X269624400Y-150254800D03*
G36*
G01*
X218918828Y-116214000D02*
X217961172Y-116214000D01*
G75*
G02*
X217689000Y-115941828I0J272172D01*
G01*
X217689000Y-115234172D01*
G75*
G02*
X217961172Y-114962000I272172J0D01*
G01*
X218918828Y-114962000D01*
G75*
G02*
X219191000Y-115234172I0J-272172D01*
G01*
X219191000Y-115941828D01*
G75*
G02*
X218918828Y-116214000I-272172J0D01*
G01*
G37*
G36*
G01*
X218918828Y-114164000D02*
X217961172Y-114164000D01*
G75*
G02*
X217689000Y-113891828I0J272172D01*
G01*
X217689000Y-113184172D01*
G75*
G02*
X217961172Y-112912000I272172J0D01*
G01*
X218918828Y-112912000D01*
G75*
G02*
X219191000Y-113184172I0J-272172D01*
G01*
X219191000Y-113891828D01*
G75*
G02*
X218918828Y-114164000I-272172J0D01*
G01*
G37*
G36*
G01*
X152830492Y-148898940D02*
X153788148Y-148898940D01*
G75*
G02*
X154060320Y-149171112I0J-272172D01*
G01*
X154060320Y-149878768D01*
G75*
G02*
X153788148Y-150150940I-272172J0D01*
G01*
X152830492Y-150150940D01*
G75*
G02*
X152558320Y-149878768I0J272172D01*
G01*
X152558320Y-149171112D01*
G75*
G02*
X152830492Y-148898940I272172J0D01*
G01*
G37*
G36*
G01*
X152830492Y-146848940D02*
X153788148Y-146848940D01*
G75*
G02*
X154060320Y-147121112I0J-272172D01*
G01*
X154060320Y-147828768D01*
G75*
G02*
X153788148Y-148100940I-272172J0D01*
G01*
X152830492Y-148100940D01*
G75*
G02*
X152558320Y-147828768I0J272172D01*
G01*
X152558320Y-147121112D01*
G75*
G02*
X152830492Y-146848940I272172J0D01*
G01*
G37*
G36*
G01*
X154151368Y-127783480D02*
X153193712Y-127783480D01*
G75*
G02*
X152921540Y-127511308I0J272172D01*
G01*
X152921540Y-126803652D01*
G75*
G02*
X153193712Y-126531480I272172J0D01*
G01*
X154151368Y-126531480D01*
G75*
G02*
X154423540Y-126803652I0J-272172D01*
G01*
X154423540Y-127511308D01*
G75*
G02*
X154151368Y-127783480I-272172J0D01*
G01*
G37*
G36*
G01*
X154151368Y-125733480D02*
X153193712Y-125733480D01*
G75*
G02*
X152921540Y-125461308I0J272172D01*
G01*
X152921540Y-124753652D01*
G75*
G02*
X153193712Y-124481480I272172J0D01*
G01*
X154151368Y-124481480D01*
G75*
G02*
X154423540Y-124753652I0J-272172D01*
G01*
X154423540Y-125461308D01*
G75*
G02*
X154151368Y-125733480I-272172J0D01*
G01*
G37*
G36*
G01*
X211521172Y-108086000D02*
X212478828Y-108086000D01*
G75*
G02*
X212751000Y-108358172I0J-272172D01*
G01*
X212751000Y-109065828D01*
G75*
G02*
X212478828Y-109338000I-272172J0D01*
G01*
X211521172Y-109338000D01*
G75*
G02*
X211249000Y-109065828I0J272172D01*
G01*
X211249000Y-108358172D01*
G75*
G02*
X211521172Y-108086000I272172J0D01*
G01*
G37*
G36*
G01*
X211521172Y-106036000D02*
X212478828Y-106036000D01*
G75*
G02*
X212751000Y-106308172I0J-272172D01*
G01*
X212751000Y-107015828D01*
G75*
G02*
X212478828Y-107288000I-272172J0D01*
G01*
X211521172Y-107288000D01*
G75*
G02*
X211249000Y-107015828I0J272172D01*
G01*
X211249000Y-106308172D01*
G75*
G02*
X211521172Y-106036000I272172J0D01*
G01*
G37*
G36*
G01*
X156950300Y-163000652D02*
X156950300Y-163958308D01*
G75*
G02*
X156678128Y-164230480I-272172J0D01*
G01*
X155970472Y-164230480D01*
G75*
G02*
X155698300Y-163958308I0J272172D01*
G01*
X155698300Y-163000652D01*
G75*
G02*
X155970472Y-162728480I272172J0D01*
G01*
X156678128Y-162728480D01*
G75*
G02*
X156950300Y-163000652I0J-272172D01*
G01*
G37*
G36*
G01*
X154900300Y-163000652D02*
X154900300Y-163958308D01*
G75*
G02*
X154628128Y-164230480I-272172J0D01*
G01*
X153920472Y-164230480D01*
G75*
G02*
X153648300Y-163958308I0J272172D01*
G01*
X153648300Y-163000652D01*
G75*
G02*
X153920472Y-162728480I272172J0D01*
G01*
X154628128Y-162728480D01*
G75*
G02*
X154900300Y-163000652I0J-272172D01*
G01*
G37*
G36*
G01*
X146201168Y-129840880D02*
X145243512Y-129840880D01*
G75*
G02*
X144971340Y-129568708I0J272172D01*
G01*
X144971340Y-128861052D01*
G75*
G02*
X145243512Y-128588880I272172J0D01*
G01*
X146201168Y-128588880D01*
G75*
G02*
X146473340Y-128861052I0J-272172D01*
G01*
X146473340Y-129568708D01*
G75*
G02*
X146201168Y-129840880I-272172J0D01*
G01*
G37*
G36*
G01*
X146201168Y-131890880D02*
X145243512Y-131890880D01*
G75*
G02*
X144971340Y-131618708I0J272172D01*
G01*
X144971340Y-130911052D01*
G75*
G02*
X145243512Y-130638880I272172J0D01*
G01*
X146201168Y-130638880D01*
G75*
G02*
X146473340Y-130911052I0J-272172D01*
G01*
X146473340Y-131618708D01*
G75*
G02*
X146201168Y-131890880I-272172J0D01*
G01*
G37*
G36*
G01*
X213807172Y-106036000D02*
X214764828Y-106036000D01*
G75*
G02*
X215037000Y-106308172I0J-272172D01*
G01*
X215037000Y-107015828D01*
G75*
G02*
X214764828Y-107288000I-272172J0D01*
G01*
X213807172Y-107288000D01*
G75*
G02*
X213535000Y-107015828I0J272172D01*
G01*
X213535000Y-106308172D01*
G75*
G02*
X213807172Y-106036000I272172J0D01*
G01*
G37*
G36*
G01*
X213807172Y-108086000D02*
X214764828Y-108086000D01*
G75*
G02*
X215037000Y-108358172I0J-272172D01*
G01*
X215037000Y-109065828D01*
G75*
G02*
X214764828Y-109338000I-272172J0D01*
G01*
X213807172Y-109338000D01*
G75*
G02*
X213535000Y-109065828I0J272172D01*
G01*
X213535000Y-108358172D01*
G75*
G02*
X213807172Y-108086000I272172J0D01*
G01*
G37*
G36*
G01*
X162421532Y-165309880D02*
X163379188Y-165309880D01*
G75*
G02*
X163651360Y-165582052I0J-272172D01*
G01*
X163651360Y-166289708D01*
G75*
G02*
X163379188Y-166561880I-272172J0D01*
G01*
X162421532Y-166561880D01*
G75*
G02*
X162149360Y-166289708I0J272172D01*
G01*
X162149360Y-165582052D01*
G75*
G02*
X162421532Y-165309880I272172J0D01*
G01*
G37*
G36*
G01*
X162421532Y-163259880D02*
X163379188Y-163259880D01*
G75*
G02*
X163651360Y-163532052I0J-272172D01*
G01*
X163651360Y-164239708D01*
G75*
G02*
X163379188Y-164511880I-272172J0D01*
G01*
X162421532Y-164511880D01*
G75*
G02*
X162149360Y-164239708I0J272172D01*
G01*
X162149360Y-163532052D01*
G75*
G02*
X162421532Y-163259880I272172J0D01*
G01*
G37*
G36*
G01*
X162162600Y-116673592D02*
X162162600Y-117631248D01*
G75*
G02*
X161890428Y-117903420I-272172J0D01*
G01*
X161182772Y-117903420D01*
G75*
G02*
X160910600Y-117631248I0J272172D01*
G01*
X160910600Y-116673592D01*
G75*
G02*
X161182772Y-116401420I272172J0D01*
G01*
X161890428Y-116401420D01*
G75*
G02*
X162162600Y-116673592I0J-272172D01*
G01*
G37*
G36*
G01*
X160112600Y-116673592D02*
X160112600Y-117631248D01*
G75*
G02*
X159840428Y-117903420I-272172J0D01*
G01*
X159132772Y-117903420D01*
G75*
G02*
X158860600Y-117631248I0J272172D01*
G01*
X158860600Y-116673592D01*
G75*
G02*
X159132772Y-116401420I272172J0D01*
G01*
X159840428Y-116401420D01*
G75*
G02*
X160112600Y-116673592I0J-272172D01*
G01*
G37*
G36*
G01*
X155825300Y-107687148D02*
X155825300Y-106729492D01*
G75*
G02*
X156097472Y-106457320I272172J0D01*
G01*
X156805128Y-106457320D01*
G75*
G02*
X157077300Y-106729492I0J-272172D01*
G01*
X157077300Y-107687148D01*
G75*
G02*
X156805128Y-107959320I-272172J0D01*
G01*
X156097472Y-107959320D01*
G75*
G02*
X155825300Y-107687148I0J272172D01*
G01*
G37*
G36*
G01*
X153775300Y-107687148D02*
X153775300Y-106729492D01*
G75*
G02*
X154047472Y-106457320I272172J0D01*
G01*
X154755128Y-106457320D01*
G75*
G02*
X155027300Y-106729492I0J-272172D01*
G01*
X155027300Y-107687148D01*
G75*
G02*
X154755128Y-107959320I-272172J0D01*
G01*
X154047472Y-107959320D01*
G75*
G02*
X153775300Y-107687148I0J272172D01*
G01*
G37*
G36*
G01*
X153696560Y-121045008D02*
X153696560Y-120087352D01*
G75*
G02*
X153968732Y-119815180I272172J0D01*
G01*
X154676388Y-119815180D01*
G75*
G02*
X154948560Y-120087352I0J-272172D01*
G01*
X154948560Y-121045008D01*
G75*
G02*
X154676388Y-121317180I-272172J0D01*
G01*
X153968732Y-121317180D01*
G75*
G02*
X153696560Y-121045008I0J272172D01*
G01*
G37*
G36*
G01*
X155746560Y-121045008D02*
X155746560Y-120087352D01*
G75*
G02*
X156018732Y-119815180I272172J0D01*
G01*
X156726388Y-119815180D01*
G75*
G02*
X156998560Y-120087352I0J-272172D01*
G01*
X156998560Y-121045008D01*
G75*
G02*
X156726388Y-121317180I-272172J0D01*
G01*
X156018732Y-121317180D01*
G75*
G02*
X155746560Y-121045008I0J272172D01*
G01*
G37*
G36*
G01*
X158918872Y-165266480D02*
X159876528Y-165266480D01*
G75*
G02*
X160148700Y-165538652I0J-272172D01*
G01*
X160148700Y-166246308D01*
G75*
G02*
X159876528Y-166518480I-272172J0D01*
G01*
X158918872Y-166518480D01*
G75*
G02*
X158646700Y-166246308I0J272172D01*
G01*
X158646700Y-165538652D01*
G75*
G02*
X158918872Y-165266480I272172J0D01*
G01*
G37*
G36*
G01*
X158918872Y-163216480D02*
X159876528Y-163216480D01*
G75*
G02*
X160148700Y-163488652I0J-272172D01*
G01*
X160148700Y-164196308D01*
G75*
G02*
X159876528Y-164468480I-272172J0D01*
G01*
X158918872Y-164468480D01*
G75*
G02*
X158646700Y-164196308I0J272172D01*
G01*
X158646700Y-163488652D01*
G75*
G02*
X158918872Y-163216480I272172J0D01*
G01*
G37*
G36*
G01*
X149914500Y-158225452D02*
X149914500Y-159183108D01*
G75*
G02*
X149642328Y-159455280I-272172J0D01*
G01*
X148934672Y-159455280D01*
G75*
G02*
X148662500Y-159183108I0J272172D01*
G01*
X148662500Y-158225452D01*
G75*
G02*
X148934672Y-157953280I272172J0D01*
G01*
X149642328Y-157953280D01*
G75*
G02*
X149914500Y-158225452I0J-272172D01*
G01*
G37*
G36*
G01*
X151964500Y-158225452D02*
X151964500Y-159183108D01*
G75*
G02*
X151692328Y-159455280I-272172J0D01*
G01*
X150984672Y-159455280D01*
G75*
G02*
X150712500Y-159183108I0J272172D01*
G01*
X150712500Y-158225452D01*
G75*
G02*
X150984672Y-157953280I272172J0D01*
G01*
X151692328Y-157953280D01*
G75*
G02*
X151964500Y-158225452I0J-272172D01*
G01*
G37*
D19*
X232943400Y-147929600D03*
X227943400Y-147929600D03*
G36*
G01*
X226605200Y-141972600D02*
X224905200Y-141972600D01*
G75*
G02*
X224854200Y-141921600I0J51000D01*
G01*
X224854200Y-140221600D01*
G75*
G02*
X224905200Y-140170600I51000J0D01*
G01*
X226605200Y-140170600D01*
G75*
G02*
X226656200Y-140221600I0J-51000D01*
G01*
X226656200Y-141921600D01*
G75*
G02*
X226605200Y-141972600I-51000J0D01*
G01*
G37*
D20*
X228295200Y-141071600D03*
X150350220Y-116492020D03*
X150350220Y-113952020D03*
G36*
G01*
X149449220Y-112262020D02*
X149449220Y-110562020D01*
G75*
G02*
X149500220Y-110511020I51000J0D01*
G01*
X151200220Y-110511020D01*
G75*
G02*
X151251220Y-110562020I0J-51000D01*
G01*
X151251220Y-112262020D01*
G75*
G02*
X151200220Y-112313020I-51000J0D01*
G01*
X149500220Y-112313020D01*
G75*
G02*
X149449220Y-112262020I0J51000D01*
G01*
G37*
G36*
G01*
X144855500Y-160343480D02*
X144855500Y-162043480D01*
G75*
G02*
X144804500Y-162094480I-51000J0D01*
G01*
X143104500Y-162094480D01*
G75*
G02*
X143053500Y-162043480I0J51000D01*
G01*
X143053500Y-160343480D01*
G75*
G02*
X143104500Y-160292480I51000J0D01*
G01*
X144804500Y-160292480D01*
G75*
G02*
X144855500Y-160343480I0J-51000D01*
G01*
G37*
X143954500Y-158653480D03*
X143954500Y-156113480D03*
G36*
G01*
X173013940Y-114537120D02*
X173013940Y-116237120D01*
G75*
G02*
X172962940Y-116288120I-51000J0D01*
G01*
X171262940Y-116288120D01*
G75*
G02*
X171211940Y-116237120I0J51000D01*
G01*
X171211940Y-114537120D01*
G75*
G02*
X171262940Y-114486120I51000J0D01*
G01*
X172962940Y-114486120D01*
G75*
G02*
X173013940Y-114537120I0J-51000D01*
G01*
G37*
X172112940Y-112847120D03*
X172112940Y-110307120D03*
X172112940Y-107767120D03*
X172112940Y-105227120D03*
X161587180Y-201127360D03*
X159047180Y-201127360D03*
X156507180Y-201127360D03*
X153967180Y-201127360D03*
G36*
G01*
X152277180Y-202028360D02*
X150577180Y-202028360D01*
G75*
G02*
X150526180Y-201977360I0J51000D01*
G01*
X150526180Y-200277360D01*
G75*
G02*
X150577180Y-200226360I51000J0D01*
G01*
X152277180Y-200226360D01*
G75*
G02*
X152328180Y-200277360I0J-51000D01*
G01*
X152328180Y-201977360D01*
G75*
G02*
X152277180Y-202028360I-51000J0D01*
G01*
G37*
G36*
G01*
X151802400Y-183581940D02*
X151802400Y-185281940D01*
G75*
G02*
X151751400Y-185332940I-51000J0D01*
G01*
X150051400Y-185332940D01*
G75*
G02*
X150000400Y-185281940I0J51000D01*
G01*
X150000400Y-183581940D01*
G75*
G02*
X150051400Y-183530940I51000J0D01*
G01*
X151751400Y-183530940D01*
G75*
G02*
X151802400Y-183581940I0J-51000D01*
G01*
G37*
X150901400Y-181891940D03*
X150901400Y-179351940D03*
X150901400Y-176811940D03*
X150901400Y-174271940D03*
X156992320Y-174289720D03*
X156992320Y-176829720D03*
X156992320Y-179369720D03*
X156992320Y-181909720D03*
G36*
G01*
X157893320Y-183599720D02*
X157893320Y-185299720D01*
G75*
G02*
X157842320Y-185350720I-51000J0D01*
G01*
X156142320Y-185350720D01*
G75*
G02*
X156091320Y-185299720I0J51000D01*
G01*
X156091320Y-183599720D01*
G75*
G02*
X156142320Y-183548720I51000J0D01*
G01*
X157842320Y-183548720D01*
G75*
G02*
X157893320Y-183599720I0J-51000D01*
G01*
G37*
G36*
G01*
X152221300Y-209163220D02*
X150521300Y-209163220D01*
G75*
G02*
X150470300Y-209112220I0J51000D01*
G01*
X150470300Y-207412220D01*
G75*
G02*
X150521300Y-207361220I51000J0D01*
G01*
X152221300Y-207361220D01*
G75*
G02*
X152272300Y-207412220I0J-51000D01*
G01*
X152272300Y-209112220D01*
G75*
G02*
X152221300Y-209163220I-51000J0D01*
G01*
G37*
X153911300Y-208262220D03*
X156451300Y-208262220D03*
X158991300Y-208262220D03*
X161531300Y-208262220D03*
G36*
G01*
X144741000Y-194159440D02*
X143041000Y-194159440D01*
G75*
G02*
X142990000Y-194108440I0J51000D01*
G01*
X142990000Y-192408440D01*
G75*
G02*
X143041000Y-192357440I51000J0D01*
G01*
X144741000Y-192357440D01*
G75*
G02*
X144792000Y-192408440I0J-51000D01*
G01*
X144792000Y-194108440D01*
G75*
G02*
X144741000Y-194159440I-51000J0D01*
G01*
G37*
X146431000Y-193258440D03*
X148971000Y-193258440D03*
X151511000Y-193258440D03*
X154051000Y-193258440D03*
X156591000Y-193258440D03*
X159131000Y-193258440D03*
X161671000Y-193258440D03*
X143896080Y-166646860D03*
X143896080Y-169186860D03*
X143896080Y-171726860D03*
X143896080Y-174266860D03*
X143896080Y-176806860D03*
X143896080Y-179346860D03*
X143896080Y-181886860D03*
G36*
G01*
X144797080Y-183576860D02*
X144797080Y-185276860D01*
G75*
G02*
X144746080Y-185327860I-51000J0D01*
G01*
X143046080Y-185327860D01*
G75*
G02*
X142995080Y-185276860I0J51000D01*
G01*
X142995080Y-183576860D01*
G75*
G02*
X143046080Y-183525860I51000J0D01*
G01*
X144746080Y-183525860D01*
G75*
G02*
X144797080Y-183576860I0J-51000D01*
G01*
G37*
X233588560Y-111739680D03*
X231048560Y-111739680D03*
X233588560Y-109199680D03*
X231048560Y-109199680D03*
X233588560Y-106659680D03*
X231048560Y-106659680D03*
X233588560Y-104119680D03*
X231048560Y-104119680D03*
X233588560Y-101579680D03*
G36*
G01*
X230147560Y-102429680D02*
X230147560Y-100729680D01*
G75*
G02*
X230198560Y-100678680I51000J0D01*
G01*
X231898560Y-100678680D01*
G75*
G02*
X231949560Y-100729680I0J-51000D01*
G01*
X231949560Y-102429680D01*
G75*
G02*
X231898560Y-102480680I-51000J0D01*
G01*
X230198560Y-102480680D01*
G75*
G02*
X230147560Y-102429680I0J51000D01*
G01*
G37*
G36*
G01*
X147387880Y-150292700D02*
X147387880Y-151992700D01*
G75*
G02*
X147336880Y-152043700I-51000J0D01*
G01*
X145636880Y-152043700D01*
G75*
G02*
X145585880Y-151992700I0J51000D01*
G01*
X145585880Y-150292700D01*
G75*
G02*
X145636880Y-150241700I51000J0D01*
G01*
X147336880Y-150241700D01*
G75*
G02*
X147387880Y-150292700I0J-51000D01*
G01*
G37*
X143946880Y-151142700D03*
X146486880Y-148602700D03*
X143946880Y-148602700D03*
X146486880Y-146062700D03*
X143946880Y-146062700D03*
X146486880Y-143522700D03*
X143946880Y-143522700D03*
X146486880Y-140982700D03*
X143946880Y-140982700D03*
G36*
G01*
X186373400Y-204745020D02*
X188073400Y-204745020D01*
G75*
G02*
X188124400Y-204796020I0J-51000D01*
G01*
X188124400Y-206496020D01*
G75*
G02*
X188073400Y-206547020I-51000J0D01*
G01*
X186373400Y-206547020D01*
G75*
G02*
X186322400Y-206496020I0J51000D01*
G01*
X186322400Y-204796020D01*
G75*
G02*
X186373400Y-204745020I51000J0D01*
G01*
G37*
X187223400Y-208186020D03*
X184683400Y-205646020D03*
X184683400Y-208186020D03*
X182143400Y-205646020D03*
X182143400Y-208186020D03*
X179603400Y-205646020D03*
X179603400Y-208186020D03*
X177063400Y-205646020D03*
X177063400Y-208186020D03*
X174523400Y-205646020D03*
X174523400Y-208186020D03*
X171983400Y-205646020D03*
X171983400Y-208186020D03*
G36*
G01*
X237592500Y-131560000D02*
X239292500Y-131560000D01*
G75*
G02*
X239343500Y-131611000I0J-51000D01*
G01*
X239343500Y-133311000D01*
G75*
G02*
X239292500Y-133362000I-51000J0D01*
G01*
X237592500Y-133362000D01*
G75*
G02*
X237541500Y-133311000I0J51000D01*
G01*
X237541500Y-131611000D01*
G75*
G02*
X237592500Y-131560000I51000J0D01*
G01*
G37*
X238442500Y-135001000D03*
X235902500Y-132461000D03*
X235902500Y-135001000D03*
X233362500Y-132461000D03*
X233362500Y-135001000D03*
X230822500Y-132461000D03*
X230822500Y-135001000D03*
X228282500Y-132461000D03*
X228282500Y-135001000D03*
X225742500Y-132461000D03*
X225742500Y-135001000D03*
X223202500Y-132461000D03*
X223202500Y-135001000D03*
X220662500Y-132461000D03*
X220662500Y-135001000D03*
D21*
X276194200Y-173590200D03*
X276194200Y-168750200D03*
D22*
X279194200Y-173900200D03*
X279194200Y-168440200D03*
D23*
X252171200Y-120195600D03*
X252171200Y-142595600D03*
G36*
G01*
X186556760Y-133579908D02*
X186556760Y-132622252D01*
G75*
G02*
X186828932Y-132350080I272172J0D01*
G01*
X187536588Y-132350080D01*
G75*
G02*
X187808760Y-132622252I0J-272172D01*
G01*
X187808760Y-133579908D01*
G75*
G02*
X187536588Y-133852080I-272172J0D01*
G01*
X186828932Y-133852080D01*
G75*
G02*
X186556760Y-133579908I0J272172D01*
G01*
G37*
G36*
G01*
X184506760Y-133579908D02*
X184506760Y-132622252D01*
G75*
G02*
X184778932Y-132350080I272172J0D01*
G01*
X185486588Y-132350080D01*
G75*
G02*
X185758760Y-132622252I0J-272172D01*
G01*
X185758760Y-133579908D01*
G75*
G02*
X185486588Y-133852080I-272172J0D01*
G01*
X184778932Y-133852080D01*
G75*
G02*
X184506760Y-133579908I0J272172D01*
G01*
G37*
G36*
G01*
X206896932Y-156447600D02*
X207854588Y-156447600D01*
G75*
G02*
X208126760Y-156719772I0J-272172D01*
G01*
X208126760Y-157427428D01*
G75*
G02*
X207854588Y-157699600I-272172J0D01*
G01*
X206896932Y-157699600D01*
G75*
G02*
X206624760Y-157427428I0J272172D01*
G01*
X206624760Y-156719772D01*
G75*
G02*
X206896932Y-156447600I272172J0D01*
G01*
G37*
G36*
G01*
X206896932Y-158497600D02*
X207854588Y-158497600D01*
G75*
G02*
X208126760Y-158769772I0J-272172D01*
G01*
X208126760Y-159477428D01*
G75*
G02*
X207854588Y-159749600I-272172J0D01*
G01*
X206896932Y-159749600D01*
G75*
G02*
X206624760Y-159477428I0J272172D01*
G01*
X206624760Y-158769772D01*
G75*
G02*
X206896932Y-158497600I272172J0D01*
G01*
G37*
G36*
G01*
X209655372Y-160748040D02*
X210613028Y-160748040D01*
G75*
G02*
X210885200Y-161020212I0J-272172D01*
G01*
X210885200Y-161727868D01*
G75*
G02*
X210613028Y-162000040I-272172J0D01*
G01*
X209655372Y-162000040D01*
G75*
G02*
X209383200Y-161727868I0J272172D01*
G01*
X209383200Y-161020212D01*
G75*
G02*
X209655372Y-160748040I272172J0D01*
G01*
G37*
G36*
G01*
X209655372Y-158698040D02*
X210613028Y-158698040D01*
G75*
G02*
X210885200Y-158970212I0J-272172D01*
G01*
X210885200Y-159677868D01*
G75*
G02*
X210613028Y-159950040I-272172J0D01*
G01*
X209655372Y-159950040D01*
G75*
G02*
X209383200Y-159677868I0J272172D01*
G01*
X209383200Y-158970212D01*
G75*
G02*
X209655372Y-158698040I272172J0D01*
G01*
G37*
G36*
G01*
X209970260Y-148682672D02*
X209970260Y-149640328D01*
G75*
G02*
X209698088Y-149912500I-272172J0D01*
G01*
X208990432Y-149912500D01*
G75*
G02*
X208718260Y-149640328I0J272172D01*
G01*
X208718260Y-148682672D01*
G75*
G02*
X208990432Y-148410500I272172J0D01*
G01*
X209698088Y-148410500D01*
G75*
G02*
X209970260Y-148682672I0J-272172D01*
G01*
G37*
G36*
G01*
X207920260Y-148682672D02*
X207920260Y-149640328D01*
G75*
G02*
X207648088Y-149912500I-272172J0D01*
G01*
X206940432Y-149912500D01*
G75*
G02*
X206668260Y-149640328I0J272172D01*
G01*
X206668260Y-148682672D01*
G75*
G02*
X206940432Y-148410500I272172J0D01*
G01*
X207648088Y-148410500D01*
G75*
G02*
X207920260Y-148682672I0J-272172D01*
G01*
G37*
G36*
G01*
X204171512Y-160742740D02*
X205129168Y-160742740D01*
G75*
G02*
X205401340Y-161014912I0J-272172D01*
G01*
X205401340Y-161722568D01*
G75*
G02*
X205129168Y-161994740I-272172J0D01*
G01*
X204171512Y-161994740D01*
G75*
G02*
X203899340Y-161722568I0J272172D01*
G01*
X203899340Y-161014912D01*
G75*
G02*
X204171512Y-160742740I272172J0D01*
G01*
G37*
G36*
G01*
X204171512Y-158692740D02*
X205129168Y-158692740D01*
G75*
G02*
X205401340Y-158964912I0J-272172D01*
G01*
X205401340Y-159672568D01*
G75*
G02*
X205129168Y-159944740I-272172J0D01*
G01*
X204171512Y-159944740D01*
G75*
G02*
X203899340Y-159672568I0J272172D01*
G01*
X203899340Y-158964912D01*
G75*
G02*
X204171512Y-158692740I272172J0D01*
G01*
G37*
G36*
G01*
X185741200Y-135987752D02*
X185741200Y-136945408D01*
G75*
G02*
X185469028Y-137217580I-272172J0D01*
G01*
X184761372Y-137217580D01*
G75*
G02*
X184489200Y-136945408I0J272172D01*
G01*
X184489200Y-135987752D01*
G75*
G02*
X184761372Y-135715580I272172J0D01*
G01*
X185469028Y-135715580D01*
G75*
G02*
X185741200Y-135987752I0J-272172D01*
G01*
G37*
G36*
G01*
X187791200Y-135987752D02*
X187791200Y-136945408D01*
G75*
G02*
X187519028Y-137217580I-272172J0D01*
G01*
X186811372Y-137217580D01*
G75*
G02*
X186539200Y-136945408I0J272172D01*
G01*
X186539200Y-135987752D01*
G75*
G02*
X186811372Y-135715580I272172J0D01*
G01*
X187519028Y-135715580D01*
G75*
G02*
X187791200Y-135987752I0J-272172D01*
G01*
G37*
G36*
G01*
X178464172Y-108086000D02*
X179421828Y-108086000D01*
G75*
G02*
X179694000Y-108358172I0J-272172D01*
G01*
X179694000Y-109065828D01*
G75*
G02*
X179421828Y-109338000I-272172J0D01*
G01*
X178464172Y-109338000D01*
G75*
G02*
X178192000Y-109065828I0J272172D01*
G01*
X178192000Y-108358172D01*
G75*
G02*
X178464172Y-108086000I272172J0D01*
G01*
G37*
G36*
G01*
X178464172Y-110136000D02*
X179421828Y-110136000D01*
G75*
G02*
X179694000Y-110408172I0J-272172D01*
G01*
X179694000Y-111115828D01*
G75*
G02*
X179421828Y-111388000I-272172J0D01*
G01*
X178464172Y-111388000D01*
G75*
G02*
X178192000Y-111115828I0J272172D01*
G01*
X178192000Y-110408172D01*
G75*
G02*
X178464172Y-110136000I272172J0D01*
G01*
G37*
G36*
G01*
X157293272Y-155233480D02*
X158250928Y-155233480D01*
G75*
G02*
X158523100Y-155505652I0J-272172D01*
G01*
X158523100Y-156213308D01*
G75*
G02*
X158250928Y-156485480I-272172J0D01*
G01*
X157293272Y-156485480D01*
G75*
G02*
X157021100Y-156213308I0J272172D01*
G01*
X157021100Y-155505652D01*
G75*
G02*
X157293272Y-155233480I272172J0D01*
G01*
G37*
G36*
G01*
X157293272Y-153183480D02*
X158250928Y-153183480D01*
G75*
G02*
X158523100Y-153455652I0J-272172D01*
G01*
X158523100Y-154163308D01*
G75*
G02*
X158250928Y-154435480I-272172J0D01*
G01*
X157293272Y-154435480D01*
G75*
G02*
X157021100Y-154163308I0J272172D01*
G01*
X157021100Y-153455652D01*
G75*
G02*
X157293272Y-153183480I272172J0D01*
G01*
G37*
G36*
G01*
X156702980Y-117628708D02*
X156702980Y-116671052D01*
G75*
G02*
X156975152Y-116398880I272172J0D01*
G01*
X157682808Y-116398880D01*
G75*
G02*
X157954980Y-116671052I0J-272172D01*
G01*
X157954980Y-117628708D01*
G75*
G02*
X157682808Y-117900880I-272172J0D01*
G01*
X156975152Y-117900880D01*
G75*
G02*
X156702980Y-117628708I0J272172D01*
G01*
G37*
G36*
G01*
X154652980Y-117628708D02*
X154652980Y-116671052D01*
G75*
G02*
X154925152Y-116398880I272172J0D01*
G01*
X155632808Y-116398880D01*
G75*
G02*
X155904980Y-116671052I0J-272172D01*
G01*
X155904980Y-117628708D01*
G75*
G02*
X155632808Y-117900880I-272172J0D01*
G01*
X154925152Y-117900880D01*
G75*
G02*
X154652980Y-117628708I0J272172D01*
G01*
G37*
G36*
G01*
X160089520Y-108004572D02*
X160089520Y-108962228D01*
G75*
G02*
X159817348Y-109234400I-272172J0D01*
G01*
X159109692Y-109234400D01*
G75*
G02*
X158837520Y-108962228I0J272172D01*
G01*
X158837520Y-108004572D01*
G75*
G02*
X159109692Y-107732400I272172J0D01*
G01*
X159817348Y-107732400D01*
G75*
G02*
X160089520Y-108004572I0J-272172D01*
G01*
G37*
G36*
G01*
X162139520Y-108004572D02*
X162139520Y-108962228D01*
G75*
G02*
X161867348Y-109234400I-272172J0D01*
G01*
X161159692Y-109234400D01*
G75*
G02*
X160887520Y-108962228I0J272172D01*
G01*
X160887520Y-108004572D01*
G75*
G02*
X161159692Y-107732400I272172J0D01*
G01*
X161867348Y-107732400D01*
G75*
G02*
X162139520Y-108004572I0J-272172D01*
G01*
G37*
M02*
